<?xml version='1.0' encoding='utf-8'?>
<mlt LC_NUMERIC="C" producer="main_bin" root="/home/ingenarel/youtube/video_essays/neovim/8" version="7.34.1">
 <profile colorspace="709" description="HD 1080p 30 fps" display_aspect_den="9" display_aspect_num="16" frame_rate_den="1" frame_rate_num="30" height="1080" progressive="1" sample_aspect_den="1" sample_aspect_num="1" width="1920"/>
 <chain id="chain2" out="00:10:28.933">
  <property name="length">18869</property>
  <property name="eof">pause</property>
  <property name="resource">export.flac</property>
  <property name="mlt_service">avformat</property>
  <property name="meta.media.nb_streams">1</property>
  <property name="meta.media.0.stream.type">audio</property>
  <property name="meta.media.0.codec.sample_fmt">s16</property>
  <property name="meta.media.0.codec.sample_rate">48000</property>
  <property name="meta.media.0.codec.channels">2</property>
  <property name="meta.media.0.codec.layout">stereo</property>
  <property name="meta.media.0.codec.name">flac</property>
  <property name="meta.media.0.codec.long_name">FLAC (Free Lossless Audio Codec)</property>
  <property name="meta.media.0.codec.bit_rate">0</property>
  <property name="seekable">1</property>
  <property name="audio_index">0</property>
  <property name="video_index">-1</property>
  <property name="astream">0</property>
  <property name="kdenlive:folderid">-1</property>
  <property name="kdenlive:id">4</property>
  <property name="kdenlive:control_uuid">{636cf6fe-aaf1-426c-a09c-e8fac985f3ba}</property>
  <property name="kdenlive:clip_type">1</property>
  <property name="kdenlive:file_size">43847312</property>
  <property name="kdenlive:file_hash">2e17c046029f468f5b26865667d4b435</property>
  <property name="kdenlive:monitorPosition">0</property>
  <property name="kdenlive:kextractor">1</property>
  <property name="kdenlive:meta.extractor.Bitrate">558 kb/s</property>
 </chain>
 <chain id="chain3" out="00:03:11.967">
  <property name="length">5760</property>
  <property name="eof">pause</property>
  <property name="resource">Lesion X - Chasing Stars.mp3</property>
  <property name="mlt_service">avformat</property>
  <property name="meta.media.nb_streams">1</property>
  <property name="meta.media.0.stream.type">audio</property>
  <property name="meta.media.0.codec.sample_fmt">fltp</property>
  <property name="meta.media.0.codec.sample_rate">48000</property>
  <property name="meta.media.0.codec.channels">2</property>
  <property name="meta.media.0.codec.layout">stereo</property>
  <property name="meta.media.0.codec.name">mp3float</property>
  <property name="meta.media.0.codec.long_name">MP3 (MPEG audio layer 3)</property>
  <property name="meta.media.0.codec.bit_rate">192000</property>
  <property name="meta.attr.0.stream.encoder.markup">Lavc58.10</property>
  <property name="meta.attr.encoder.markup">Lavf58.51.100</property>
  <property name="seekable">1</property>
  <property name="audio_index">0</property>
  <property name="video_index">-1</property>
  <property name="astream">0</property>
  <property name="kdenlive:folderid">-1</property>
  <property name="kdenlive:id">5</property>
  <property name="kdenlive:control_uuid">{b8105c3d-96a5-432b-9594-02cd03012f87}</property>
  <property name="kdenlive:clip_type">1</property>
  <property name="kdenlive:file_size">4609197</property>
  <property name="kdenlive:file_hash">04ccb6c06b3dbd580d3ce5c5e5da6465</property>
  <property name="kdenlive:monitorPosition">0</property>
  <property name="kdenlive:kextractor">1</property>
  <property name="kdenlive:meta.extractor.Bitrate">192 kb/s</property>
 </chain>
 <producer id="producer4" in="00:00:00.000" out="00:00:04.967">
  <property name="length">00:00:05.000</property>
  <property name="eof">pause</property>
  <property name="resource">images/index.html?u=https:%2F%2Fimage.slidesdocs.com%2Fresponsive-images%2Fbackground%2Ffile-cabinets-of-black-and-white-for-office-stock-photo-powerpoint-background_cf757aa317__960_540.jpg&amp;f=1&amp;nofb=1&amp;ipt=e186122c0b9dd8cc79506bffe88fd0838bb7ad</property>
  <property name="ttl">25</property>
  <property name="aspect_ratio">1</property>
  <property name="meta.media.progressive">1</property>
  <property name="seekable">1</property>
  <property name="begin">0</property>
  <property name="format">1</property>
  <property name="meta.media.width">960</property>
  <property name="meta.media.height">540</property>
  <property name="mlt_service">qimage</property>
  <property name="kdenlive:duration">00:00:05:00</property>
  <property name="xml">was here</property>
  <property name="kdenlive:folderid">-1</property>
  <property name="kdenlive:id">6</property>
  <property name="kdenlive:control_uuid">{7becb524-4ad0-4d2b-ad18-d48352f00616}</property>
  <property name="kdenlive:clip_type">2</property>
  <property name="kdenlive:file_hash">27fa7fa094316f70ffefe14747a42fbe</property>
  <property name="kdenlive:monitorPosition">0</property>
 </producer>
 <producer id="producer1" in="00:00:00.000" out="00:00:04.967">
  <property name="length">00:00:05.000</property>
  <property name="eof">pause</property>
  <property name="resource">images/lua thumbnail</property>
  <property name="ttl">25</property>
  <property name="aspect_ratio">1</property>
  <property name="meta.media.progressive">1</property>
  <property name="seekable">1</property>
  <property name="format">2</property>
  <property name="meta.media.width">551</property>
  <property name="meta.media.height">452</property>
  <property name="mlt_service">qimage</property>
  <property name="kdenlive:duration">00:00:05:00</property>
  <property name="xml">was here</property>
  <property name="kdenlive:folderid">-1</property>
  <property name="kdenlive:id">7</property>
  <property name="kdenlive:control_uuid">{3deb8f1c-297a-44e3-b229-e8783fb96ee4}</property>
  <property name="kdenlive:clip_type">2</property>
  <property name="kdenlive:file_size">264316</property>
  <property name="kdenlive:file_hash">87b3b44af41043b9e96cd8a1537a492a</property>
  <property name="kdenlive:kextractor">1</property>
  <property name="kdenlive:monitorPosition">0</property>
 </producer>
 <producer id="producer2" in="00:00:00.000" out="00:00:04.967">
  <property name="length">00:00:05.000</property>
  <property name="eof">pause</property>
  <property name="resource">images/plugins thumbnail</property>
  <property name="ttl">25</property>
  <property name="aspect_ratio">1</property>
  <property name="meta.media.progressive">1</property>
  <property name="seekable">1</property>
  <property name="format">2</property>
  <property name="meta.media.width">670</property>
  <property name="meta.media.height">511</property>
  <property name="mlt_service">qimage</property>
  <property name="kdenlive:duration">00:00:05:00</property>
  <property name="xml">was here</property>
  <property name="kdenlive:folderid">-1</property>
  <property name="kdenlive:id">8</property>
  <property name="kdenlive:control_uuid">{24c9765d-b220-47c1-aa4f-8a2255e9886a}</property>
  <property name="kdenlive:clip_type">2</property>
  <property name="kdenlive:file_size">332739</property>
  <property name="kdenlive:file_hash">43b7a6cd11b2f57bd310d555dcec1217</property>
  <property name="kdenlive:kextractor">1</property>
 </producer>
 <producer id="producer14" in="00:00:00.000" out="00:00:05.800">
  <property name="length">175</property>
  <property name="eof">pause</property>
  <property name="resource">/home/ingenarel/Pictures/2025-11-08_01-11-1762544838.ppm</property>
  <property name="ttl">25</property>
  <property name="aspect_ratio">1</property>
  <property name="meta.media.progressive">1</property>
  <property name="seekable">1</property>
  <property name="format">1</property>
  <property name="meta.media.width">1440</property>
  <property name="meta.media.height">900</property>
  <property name="mlt_service">qimage</property>
  <property name="kdenlive:duration">00:00:05:00</property>
  <property name="xml">was here</property>
  <property name="kdenlive:folderid">-1</property>
  <property name="kdenlive:id">9</property>
  <property name="kdenlive:control_uuid">{ba416b4d-8701-4084-bd68-58a9a0b8e859}</property>
  <property name="kdenlive:clip_type">2</property>
  <property name="kdenlive:file_size">3888016</property>
  <property name="kdenlive:file_hash">48b0b1f248b55ee36e5413189976cc25</property>
  <property name="kdenlive:monitorPosition">174</property>
  <property name="kdenlive:kextractor">1</property>
 </producer>
 <producer id="producer6" in="00:00:00.000" out="00:00:04.967">
  <property name="length">00:00:05.000</property>
  <property name="eof">pause</property>
  <property name="resource">images/whats-the-recommended-structure-for-neovim-configurations-v0-5u8iuzhokmte1.webp</property>
  <property name="ttl">25</property>
  <property name="aspect_ratio">1</property>
  <property name="meta.media.progressive">1</property>
  <property name="seekable">1</property>
  <property name="format">1</property>
  <property name="meta.media.width">320</property>
  <property name="meta.media.height">941</property>
  <property name="mlt_service">qimage</property>
  <property name="kdenlive:duration">00:00:05:00</property>
  <property name="xml">was here</property>
  <property name="kdenlive:folderid">-1</property>
  <property name="kdenlive:id">10</property>
  <property name="kdenlive:control_uuid">{f3275036-076a-4cab-b9ea-54b8a741fb81}</property>
  <property name="kdenlive:clip_type">2</property>
  <property name="kdenlive:file_size">29702</property>
  <property name="kdenlive:file_hash">6f7b4451317a2bac44855e1703727501</property>
  <property name="kdenlive:monitorPosition">11</property>
  <property name="kdenlive:kextractor">1</property>
 </producer>
 <producer id="producer7" in="00:00:00.000" out="00:00:04.967">
  <property name="length">00:00:05.000</property>
  <property name="eof">pause</property>
  <property name="resource">images/Pictures/2025-11-08_01-11-1762545514.ppm</property>
  <property name="ttl">25</property>
  <property name="aspect_ratio">1</property>
  <property name="meta.media.progressive">1</property>
  <property name="seekable">1</property>
  <property name="format">1</property>
  <property name="meta.media.width">1440</property>
  <property name="meta.media.height">900</property>
  <property name="mlt_service">qimage</property>
  <property name="kdenlive:duration">00:00:05:00</property>
  <property name="xml">was here</property>
  <property name="kdenlive:folderid">-1</property>
  <property name="kdenlive:id">11</property>
  <property name="kdenlive:control_uuid">{39055ea4-7c1a-4802-a0ed-6140c430d1bb}</property>
  <property name="kdenlive:clip_type">2</property>
  <property name="kdenlive:file_size">3888016</property>
  <property name="kdenlive:file_hash">a83381164a9ee8f61a091f59283a308d</property>
  <property name="kdenlive:kextractor">1</property>
  <property name="kdenlive:monitorPosition">64</property>
 </producer>
 <producer id="producer8" in="00:00:00.000" out="00:00:04.967">
  <property name="length">00:00:05.000</property>
  <property name="eof">pause</property>
  <property name="resource">images/Pictures/2025-11-08_02-11-1762545993.ppm</property>
  <property name="ttl">25</property>
  <property name="aspect_ratio">1</property>
  <property name="meta.media.progressive">1</property>
  <property name="seekable">1</property>
  <property name="format">1</property>
  <property name="meta.media.width">1440</property>
  <property name="meta.media.height">900</property>
  <property name="mlt_service">qimage</property>
  <property name="kdenlive:duration">00:00:05:00</property>
  <property name="xml">was here</property>
  <property name="kdenlive:folderid">-1</property>
  <property name="kdenlive:id">12</property>
  <property name="kdenlive:control_uuid">{c7534882-e046-4864-8188-e2d2377e1d2d}</property>
  <property name="kdenlive:clip_type">2</property>
  <property name="kdenlive:file_size">3888016</property>
  <property name="kdenlive:file_hash">1d276686087f22c186cc382b98f0c002</property>
  <property name="kdenlive:kextractor">1</property>
  <property name="kdenlive:monitorPosition">7</property>
 </producer>
 <producer id="producer9" in="00:00:00.000" out="00:00:04.967">
  <property name="length">00:00:05.000</property>
  <property name="eof">pause</property>
  <property name="resource">images/Pictures/2025-11-08_02-11-1762546221.ppm</property>
  <property name="ttl">25</property>
  <property name="aspect_ratio">1</property>
  <property name="meta.media.progressive">1</property>
  <property name="seekable">1</property>
  <property name="format">1</property>
  <property name="meta.media.width">1440</property>
  <property name="meta.media.height">900</property>
  <property name="mlt_service">qimage</property>
  <property name="kdenlive:duration">00:00:05:00</property>
  <property name="xml">was here</property>
  <property name="kdenlive:folderid">-1</property>
  <property name="kdenlive:id">13</property>
  <property name="kdenlive:control_uuid">{d53e7bbd-6969-4155-adc1-859b56e87b87}</property>
  <property name="kdenlive:clip_type">2</property>
  <property name="kdenlive:file_size">3888016</property>
  <property name="kdenlive:file_hash">06a259fbb6ff2510f28ddd93ec69abf5</property>
  <property name="kdenlive:kextractor">1</property>
  <property name="kdenlive:monitorPosition">149</property>
 </producer>
 <producer id="producer10" in="00:00:00.000" out="00:00:04.967">
  <property name="length">00:00:05.000</property>
  <property name="eof">pause</property>
  <property name="resource">images/Indiana_Jones_Raiders_of_the_Lost_Ark-231784781-large-3497389785.jpg</property>
  <property name="ttl">25</property>
  <property name="aspect_ratio">1</property>
  <property name="meta.media.progressive">1</property>
  <property name="seekable">1</property>
  <property name="format">1</property>
  <property name="meta.media.width">1920</property>
  <property name="meta.media.height">823</property>
  <property name="mlt_service">qimage</property>
  <property name="kdenlive:duration">00:00:05:00</property>
  <property name="xml">was here</property>
  <property name="kdenlive:folderid">-1</property>
  <property name="kdenlive:id">14</property>
  <property name="kdenlive:control_uuid">{f764ca19-7fff-4d2f-ab11-578333289577}</property>
  <property name="kdenlive:clip_type">2</property>
  <property name="kdenlive:file_size">143701</property>
  <property name="kdenlive:file_hash">02d23521a819c8f14a19d567e16b9f36</property>
  <property name="kdenlive:kextractor">1</property>
  <property name="kdenlive:meta.extractor.Comment">CREATOR: gd-jpeg v1.0 (using IJG JPEG v80), quality = 75
</property>
  <property name="kdenlive:monitorPosition">0</property>
 </producer>
 <producer id="producer20" in="00:00:00.000" out="00:00:04.967">
  <property name="length">150</property>
  <property name="eof">pause</property>
  <property name="resource"/>
  <property name="meta.media.progressive">1</property>
  <property name="aspect_ratio">1</property>
  <property name="seekable">1</property>
  <property name="mlt_service">kdenlivetitle</property>
  <property name="kdenlive:duration">00:00:05:00</property>
  <property name="kdenlive:clipname">How people b...</property>
  <property name="xmldata">&lt;kdenlivetitle LC_NUMERIC="C" duration="150" height="1080" out="149" width="1920">
 &lt;item type="QGraphicsTextItem" z-index="0">
  &lt;position x="194" y="99">
   &lt;transform>1,0,0,0,1,0,0,0,1&lt;/transform>
  &lt;/position>
  &lt;content alignment="1" box-height="90" box-width="1550.55" font="Noto Sans" font-color="255,255,255,255" font-italic="0" font-pixel-size="66" font-underline="0" font-weight="400" letter-spacing="0" shadow="0;#64000000;3;3;3" tab-width="80" typewriter="0;2;1;0;0">How people be feeling while browsing my configs:&lt;/content>
 &lt;/item>
 &lt;startviewport rect="0,0,1920,1080"/>
 &lt;endviewport rect="0,0,1920,1080"/>
 &lt;background color="0,0,0,57"/>
&lt;/kdenlivetitle>
</property>
  <property name="xml">was here</property>
  <property name="kdenlive:folderid">-1</property>
  <property name="kdenlive:id">15</property>
  <property name="kdenlive:control_uuid">{920c2908-74ec-42e4-86a6-4227591b0538}</property>
  <property name="kdenlive:clip_type">2</property>
  <property name="kdenlive:uniqueId">{19ba44c2-d4ab-4e05-9521-6b2a8cd12532}</property>
  <property name="kdenlive:file_hash">755017dfd6470a76abad7f559f2e010e</property>
  <property name="force_reload">0</property>
  <property name="meta.media.width">1920</property>
  <property name="meta.media.height">1080</property>
  <property name="kdenlive:monitorPosition">106</property>
 </producer>
 <chain id="chain8" out="00:00:01.967">
  <property name="length">60</property>
  <property name="eof">pause</property>
  <property name="resource">images/cryaboutit.gif</property>
  <property name="mlt_service">avformat-novalidate</property>
  <property name="meta.media.nb_streams">1</property>
  <property name="meta.media.0.stream.type">video</property>
  <property name="meta.media.0.stream.frame_rate">10</property>
  <property name="meta.media.0.stream.sample_aspect_ratio">0</property>
  <property name="meta.media.0.codec.width">441</property>
  <property name="meta.media.0.codec.height">498</property>
  <property name="meta.media.0.codec.rotate">0</property>
  <property name="meta.media.0.codec.pix_fmt">bgra</property>
  <property name="meta.media.0.codec.sample_aspect_ratio">0</property>
  <property name="meta.media.0.codec.colorspace">601</property>
  <property name="meta.media.0.codec.name">gif</property>
  <property name="meta.media.0.codec.long_name">GIF (Graphics Interchange Format)</property>
  <property name="meta.media.0.codec.bit_rate">0</property>
  <property name="seekable">1</property>
  <property name="meta.media.sample_aspect_num">1</property>
  <property name="meta.media.sample_aspect_den">1</property>
  <property name="format">2</property>
  <property name="audio_index">-1</property>
  <property name="video_index">0</property>
  <property name="vstream">0</property>
  <property name="meta.media.frame_rate_num">10</property>
  <property name="meta.media.frame_rate_den">1</property>
  <property name="meta.media.colorspace">601</property>
  <property name="meta.media.color_trc">2</property>
  <property name="meta.media.has_b_frames">0</property>
  <property name="meta.media.width">441</property>
  <property name="meta.media.height">498</property>
  <property name="meta.media.aspect_ratio">1</property>
  <property name="meta.media.color_range">mpeg</property>
  <property name="meta.media.top_field_first">0</property>
  <property name="meta.media.progressive">1</property>
  <property name="kdenlive:folderid">-1</property>
  <property name="kdenlive:id">16</property>
  <property name="kdenlive:control_uuid">{b593392d-7dcd-4e3d-8e80-da2f55ca9398}</property>
  <property name="mute_on_pause">0</property>
  <property name="kdenlive:clip_type">2</property>
  <property name="kdenlive:file_size">498686</property>
  <property name="kdenlive:file_hash">c56d39dc431e81a01abd54ce07bfc8b0</property>
  <property name="kdenlive:kextractor">1</property>
  <property name="kdenlive:monitorPosition">0</property>
 </chain>
 <chain id="chain9" out="00:00:03.167">
  <property name="length">96</property>
  <property name="eof">pause</property>
  <property name="resource">images/hearties-gustave.mp4</property>
  <property name="mlt_service">avformat-novalidate</property>
  <property name="meta.media.nb_streams">1</property>
  <property name="meta.media.0.stream.type">video</property>
  <property name="meta.media.0.stream.frame_rate">10</property>
  <property name="meta.media.0.stream.sample_aspect_ratio">0</property>
  <property name="meta.media.0.codec.width">640</property>
  <property name="meta.media.0.codec.height">360</property>
  <property name="meta.media.0.codec.rotate">0</property>
  <property name="meta.media.0.codec.pix_fmt">yuv420p</property>
  <property name="meta.media.0.codec.sample_aspect_ratio">0</property>
  <property name="meta.media.0.codec.colorspace">601</property>
  <property name="meta.media.0.codec.name">h264</property>
  <property name="meta.media.0.codec.long_name">H.264 / AVC / MPEG-4 AVC / MPEG-4 part 10</property>
  <property name="meta.media.0.codec.bit_rate">698057</property>
  <property name="meta.attr.0.stream.handler_name.markup">VideoHandler</property>
  <property name="meta.attr.0.stream.vendor_id.markup">[0][0][0][0]</property>
  <property name="meta.attr.major_brand.markup">isom</property>
  <property name="meta.attr.minor_version.markup">512</property>
  <property name="meta.attr.compatible_brands.markup">isomiso2avc1mp41</property>
  <property name="meta.attr.encoder.markup">Lavf58.20.100</property>
  <property name="seekable">1</property>
  <property name="meta.media.sample_aspect_num">1</property>
  <property name="meta.media.sample_aspect_den">1</property>
  <property name="format">3</property>
  <property name="audio_index">-1</property>
  <property name="video_index">0</property>
  <property name="vstream">0</property>
  <property name="meta.media.frame_rate_num">10</property>
  <property name="meta.media.frame_rate_den">1</property>
  <property name="meta.media.colorspace">601</property>
  <property name="meta.media.color_trc">2</property>
  <property name="meta.media.has_b_frames">0</property>
  <property name="meta.media.width">640</property>
  <property name="meta.media.height">360</property>
  <property name="meta.media.aspect_ratio">1</property>
  <property name="meta.media.color_range">mpeg</property>
  <property name="meta.media.top_field_first">0</property>
  <property name="meta.media.progressive">1</property>
  <property name="kdenlive:folderid">-1</property>
  <property name="kdenlive:id">17</property>
  <property name="kdenlive:control_uuid">{2fdd54fa-40ea-4eaf-9ce8-d874fca7432d}</property>
  <property name="mute_on_pause">0</property>
  <property name="kdenlive:clip_type">2</property>
  <property name="kdenlive:file_size">280167</property>
  <property name="kdenlive:file_hash">b2f4ae8d97beb98c04c69c48558b69c6</property>
  <property name="kdenlive:kextractor">1</property>
  <property name="kdenlive:meta.extractor.Bitrate">700 kb/s</property>
  <property name="kdenlive:monitorPosition">3</property>
  <property name="kdenlive:zone_in">3</property>
  <property name="kdenlive:zone_out">96</property>
 </chain>
 <chain id="chain10" out="00:00:00.533">
  <property name="length">17</property>
  <property name="eof">pause</property>
  <property name="resource">images/do-you-own-things-eric-cartman.gif</property>
  <property name="mlt_service">avformat-novalidate</property>
  <property name="meta.media.nb_streams">1</property>
  <property name="meta.media.0.stream.type">video</property>
  <property name="meta.media.0.stream.frame_rate">25</property>
  <property name="meta.media.0.stream.sample_aspect_ratio">0</property>
  <property name="meta.media.0.codec.width">498</property>
  <property name="meta.media.0.codec.height">473</property>
  <property name="meta.media.0.codec.rotate">0</property>
  <property name="meta.media.0.codec.pix_fmt">bgra</property>
  <property name="meta.media.0.codec.sample_aspect_ratio">0</property>
  <property name="meta.media.0.codec.colorspace">601</property>
  <property name="meta.media.0.codec.name">gif</property>
  <property name="meta.media.0.codec.long_name">GIF (Graphics Interchange Format)</property>
  <property name="meta.media.0.codec.bit_rate">0</property>
  <property name="seekable">1</property>
  <property name="meta.media.sample_aspect_num">1</property>
  <property name="meta.media.sample_aspect_den">1</property>
  <property name="format">2</property>
  <property name="audio_index">-1</property>
  <property name="video_index">0</property>
  <property name="vstream">0</property>
  <property name="meta.media.frame_rate_num">25</property>
  <property name="meta.media.frame_rate_den">1</property>
  <property name="meta.media.colorspace">601</property>
  <property name="meta.media.color_trc">2</property>
  <property name="meta.media.has_b_frames">0</property>
  <property name="meta.media.width">498</property>
  <property name="meta.media.height">473</property>
  <property name="meta.media.aspect_ratio">1</property>
  <property name="meta.media.color_range">mpeg</property>
  <property name="meta.media.top_field_first">0</property>
  <property name="meta.media.progressive">1</property>
  <property name="kdenlive:folderid">-1</property>
  <property name="kdenlive:id">18</property>
  <property name="kdenlive:control_uuid">{64c4bd8b-762a-4487-8c65-9546cd95738f}</property>
  <property name="mute_on_pause">0</property>
  <property name="kdenlive:clip_type">2</property>
  <property name="kdenlive:file_size">349661</property>
  <property name="kdenlive:file_hash">20da2de969fc0e6bbe5c6d7ab9c82a1d</property>
  <property name="kdenlive:kextractor">1</property>
  <property name="kdenlive:monitorPosition">0</property>
 </chain>
 <chain id="chain11" out="00:00:01.600">
  <property name="length">49</property>
  <property name="eof">pause</property>
  <property name="resource">images/penguinz0-moist-critical.mp4</property>
  <property name="mlt_service">avformat-novalidate</property>
  <property name="meta.media.nb_streams">1</property>
  <property name="meta.media.0.stream.type">video</property>
  <property name="meta.media.0.stream.frame_rate">30</property>
  <property name="meta.media.0.stream.sample_aspect_ratio">1.00669</property>
  <property name="meta.media.0.codec.width">498</property>
  <property name="meta.media.0.codec.height">282</property>
  <property name="meta.media.0.codec.rotate">0</property>
  <property name="meta.media.0.codec.pix_fmt">yuv420p</property>
  <property name="meta.media.0.codec.sample_aspect_ratio">1.00669</property>
  <property name="meta.media.0.codec.colorspace">601</property>
  <property name="meta.media.0.codec.name">h264</property>
  <property name="meta.media.0.codec.long_name">H.264 / AVC / MPEG-4 AVC / MPEG-4 part 10</property>
  <property name="meta.media.0.codec.bit_rate">213164</property>
  <property name="meta.attr.0.stream.handler_name.markup">VideoHandler</property>
  <property name="meta.attr.0.stream.vendor_id.markup">[0][0][0][0]</property>
  <property name="meta.attr.major_brand.markup">isom</property>
  <property name="meta.attr.minor_version.markup">512</property>
  <property name="meta.attr.compatible_brands.markup">isomiso2avc1mp41</property>
  <property name="meta.attr.encoder.markup">Google</property>
  <property name="seekable">1</property>
  <property name="meta.media.sample_aspect_num">752</property>
  <property name="meta.media.sample_aspect_den">747</property>
  <property name="format">3</property>
  <property name="audio_index">-1</property>
  <property name="video_index">0</property>
  <property name="vstream">0</property>
  <property name="meta.media.frame_rate_num">30</property>
  <property name="meta.media.frame_rate_den">1</property>
  <property name="meta.media.colorspace">601</property>
  <property name="meta.media.color_trc">2</property>
  <property name="meta.media.has_b_frames">2</property>
  <property name="meta.media.width">498</property>
  <property name="meta.media.height">282</property>
  <property name="meta.media.aspect_ratio">1.00669</property>
  <property name="meta.media.color_range">mpeg</property>
  <property name="meta.media.top_field_first">0</property>
  <property name="meta.media.progressive">1</property>
  <property name="kdenlive:folderid">-1</property>
  <property name="kdenlive:id">19</property>
  <property name="kdenlive:control_uuid">{d6c1dbc2-0e69-4a90-a696-e9ea7a151c0a}</property>
  <property name="mute_on_pause">0</property>
  <property name="kdenlive:clip_type">2</property>
  <property name="kdenlive:file_size">44949</property>
  <property name="kdenlive:file_hash">90dce6cb3f8c151ecd068d6395b49f88</property>
  <property name="kdenlive:kextractor">1</property>
  <property name="kdenlive:meta.extractor.Bitrate">220 kb/s</property>
  <property name="kdenlive:monitorPosition">16</property>
 </chain>
 <chain id="chain12" out="00:00:02.300">
  <property name="length">70</property>
  <property name="eof">pause</property>
  <property name="resource">images/let-me-show-how-it's-done-butt-head.mp4</property>
  <property name="mlt_service">avformat-novalidate</property>
  <property name="meta.media.nb_streams">1</property>
  <property name="meta.media.0.stream.type">video</property>
  <property name="meta.media.0.stream.frame_rate">16.6667</property>
  <property name="meta.media.0.stream.sample_aspect_ratio">0</property>
  <property name="meta.media.0.codec.width">498</property>
  <property name="meta.media.0.codec.height">498</property>
  <property name="meta.media.0.codec.rotate">0</property>
  <property name="meta.media.0.codec.pix_fmt">yuv420p</property>
  <property name="meta.media.0.codec.sample_aspect_ratio">0</property>
  <property name="meta.media.0.codec.colorspace">601</property>
  <property name="meta.media.0.codec.name">h264</property>
  <property name="meta.media.0.codec.long_name">H.264 / AVC / MPEG-4 AVC / MPEG-4 part 10</property>
  <property name="meta.media.0.codec.bit_rate">333740</property>
  <property name="meta.attr.0.stream.handler_name.markup">VideoHandler</property>
  <property name="meta.attr.0.stream.vendor_id.markup">[0][0][0][0]</property>
  <property name="meta.attr.major_brand.markup">isom</property>
  <property name="meta.attr.minor_version.markup">512</property>
  <property name="meta.attr.compatible_brands.markup">isomiso2avc1mp41</property>
  <property name="meta.attr.encoder.markup">Google</property>
  <property name="seekable">1</property>
  <property name="meta.media.sample_aspect_num">1</property>
  <property name="meta.media.sample_aspect_den">1</property>
  <property name="format">3</property>
  <property name="audio_index">-1</property>
  <property name="video_index">0</property>
  <property name="vstream">0</property>
  <property name="meta.media.frame_rate_num">50</property>
  <property name="meta.media.frame_rate_den">3</property>
  <property name="meta.media.colorspace">601</property>
  <property name="meta.media.color_trc">2</property>
  <property name="meta.media.has_b_frames">2</property>
  <property name="meta.media.width">498</property>
  <property name="meta.media.height">498</property>
  <property name="meta.media.aspect_ratio">1</property>
  <property name="meta.media.color_range">mpeg</property>
  <property name="meta.media.top_field_first">0</property>
  <property name="meta.media.progressive">1</property>
  <property name="kdenlive:folderid">-1</property>
  <property name="kdenlive:id">20</property>
  <property name="kdenlive:control_uuid">{817a037e-400a-4ae2-b557-81567b0e65f1}</property>
  <property name="mute_on_pause">0</property>
  <property name="kdenlive:clip_type">2</property>
  <property name="kdenlive:file_size">98914</property>
  <property name="kdenlive:file_hash">5a5157051cb407b7d3d2c03ff625f3be</property>
  <property name="kdenlive:kextractor">1</property>
  <property name="kdenlive:meta.extractor.Bitrate">338 kb/s</property>
  <property name="kdenlive:monitorPosition">46</property>
 </chain>
 <chain id="chain13" out="00:00:00.933">
  <property name="length">29</property>
  <property name="eof">pause</property>
  <property name="resource">images/ozzy-ozzy-osbourne.mp4</property>
  <property name="mlt_service">avformat-novalidate</property>
  <property name="meta.media.nb_streams">1</property>
  <property name="meta.media.0.stream.type">video</property>
  <property name="meta.media.0.stream.frame_rate">8.33333</property>
  <property name="meta.media.0.stream.sample_aspect_ratio">0</property>
  <property name="meta.media.0.codec.width">500</property>
  <property name="meta.media.0.codec.height">282</property>
  <property name="meta.media.0.codec.rotate">0</property>
  <property name="meta.media.0.codec.pix_fmt">yuv420p</property>
  <property name="meta.media.0.codec.sample_aspect_ratio">0</property>
  <property name="meta.media.0.codec.colorspace">601</property>
  <property name="meta.media.0.codec.name">h264</property>
  <property name="meta.media.0.codec.long_name">H.264 / AVC / MPEG-4 AVC / MPEG-4 part 10</property>
  <property name="meta.media.0.codec.bit_rate">363391</property>
  <property name="meta.attr.0.stream.handler_name.markup">VideoHandler</property>
  <property name="meta.attr.0.stream.vendor_id.markup">[0][0][0][0]</property>
  <property name="meta.attr.major_brand.markup">isom</property>
  <property name="meta.attr.minor_version.markup">512</property>
  <property name="meta.attr.compatible_brands.markup">isomiso2avc1mp41</property>
  <property name="meta.attr.encoder.markup">Lavf56.36.100</property>
  <property name="seekable">1</property>
  <property name="meta.media.sample_aspect_num">1</property>
  <property name="meta.media.sample_aspect_den">1</property>
  <property name="format">3</property>
  <property name="audio_index">-1</property>
  <property name="video_index">0</property>
  <property name="vstream">0</property>
  <property name="meta.media.frame_rate_num">25</property>
  <property name="meta.media.frame_rate_den">3</property>
  <property name="meta.media.colorspace">601</property>
  <property name="meta.media.color_trc">2</property>
  <property name="meta.media.has_b_frames">2</property>
  <property name="meta.media.width">500</property>
  <property name="meta.media.height">282</property>
  <property name="meta.media.aspect_ratio">1</property>
  <property name="meta.media.color_range">mpeg</property>
  <property name="meta.media.top_field_first">0</property>
  <property name="meta.media.progressive">1</property>
  <property name="kdenlive:folderid">-1</property>
  <property name="kdenlive:id">21</property>
  <property name="kdenlive:control_uuid">{b73ea79a-2652-4d39-8540-c5a88712bfc5}</property>
  <property name="mute_on_pause">0</property>
  <property name="kdenlive:clip_type">2</property>
  <property name="kdenlive:file_size">44539</property>
  <property name="kdenlive:file_hash">b1ef524aec0960df269e7b0a9e3b9c17</property>
  <property name="kdenlive:kextractor">1</property>
  <property name="kdenlive:meta.extractor.Bitrate">371 kb/s</property>
  <property name="kdenlive:monitorPosition">0</property>
 </chain>
 <producer id="producer5" in="00:00:00.000" out="00:00:05.800">
  <property name="length">175</property>
  <property name="eof">pause</property>
  <property name="resource">images/Pictures/2025-11-08_02-11-1762548135.ppm</property>
  <property name="ttl">25</property>
  <property name="aspect_ratio">1</property>
  <property name="meta.media.progressive">1</property>
  <property name="seekable">1</property>
  <property name="format">1</property>
  <property name="meta.media.width">1440</property>
  <property name="meta.media.height">900</property>
  <property name="mlt_service">qimage</property>
  <property name="kdenlive:duration">00:00:05:00</property>
  <property name="xml">was here</property>
  <property name="kdenlive:folderid">-1</property>
  <property name="kdenlive:id">22</property>
  <property name="kdenlive:control_uuid">{340634bd-101f-43ba-8332-89298b0f56ba}</property>
  <property name="kdenlive:clip_type">2</property>
  <property name="kdenlive:file_size">3888016</property>
  <property name="kdenlive:file_hash">df8b0fc8622b99f87a13f18442f36c03</property>
  <property name="kdenlive:kextractor">1</property>
  <property name="kdenlive:monitorPosition">11</property>
 </producer>
 <producer id="producer15" in="00:00:00.000" out="00:00:04.967">
  <property name="length">00:00:05.000</property>
  <property name="eof">pause</property>
  <property name="resource">images/Pictures/2025-11-08_02-11-1762548293.ppm</property>
  <property name="ttl">25</property>
  <property name="aspect_ratio">1</property>
  <property name="meta.media.progressive">1</property>
  <property name="seekable">1</property>
  <property name="format">1</property>
  <property name="meta.media.width">1440</property>
  <property name="meta.media.height">900</property>
  <property name="mlt_service">qimage</property>
  <property name="kdenlive:duration">00:00:05:00</property>
  <property name="xml">was here</property>
  <property name="kdenlive:folderid">-1</property>
  <property name="kdenlive:id">23</property>
  <property name="kdenlive:control_uuid">{0b97c910-2399-42c7-850d-3ee7068da445}</property>
  <property name="kdenlive:clip_type">2</property>
  <property name="kdenlive:file_size">3888016</property>
  <property name="kdenlive:file_hash">3592d53d1b9dc3ef2ed7fb29a9a904a2</property>
  <property name="kdenlive:kextractor">1</property>
  <property name="kdenlive:monitorPosition">56</property>
 </producer>
 <chain id="chain14" out="00:00:01.333">
  <property name="length">41</property>
  <property name="eof">pause</property>
  <property name="resource">images/you-fucking-idiot-roger-guenveur-smith.mp4</property>
  <property name="mlt_service">avformat-novalidate</property>
  <property name="meta.media.nb_streams">1</property>
  <property name="meta.media.0.stream.type">video</property>
  <property name="meta.media.0.stream.frame_rate">16.6667</property>
  <property name="meta.media.0.stream.sample_aspect_ratio">0</property>
  <property name="meta.media.0.codec.width">640</property>
  <property name="meta.media.0.codec.height">640</property>
  <property name="meta.media.0.codec.rotate">0</property>
  <property name="meta.media.0.codec.pix_fmt">yuv420p</property>
  <property name="meta.media.0.codec.sample_aspect_ratio">0</property>
  <property name="meta.media.0.codec.colorspace">601</property>
  <property name="meta.media.0.codec.name">h264</property>
  <property name="meta.media.0.codec.long_name">H.264 / AVC / MPEG-4 AVC / MPEG-4 part 10</property>
  <property name="meta.media.0.codec.bit_rate">2065147</property>
  <property name="meta.attr.0.stream.handler_name.markup">VideoHandler</property>
  <property name="meta.attr.0.stream.vendor_id.markup">[0][0][0][0]</property>
  <property name="meta.attr.major_brand.markup">isom</property>
  <property name="meta.attr.minor_version.markup">512</property>
  <property name="meta.attr.compatible_brands.markup">isomiso2avc1mp41</property>
  <property name="meta.attr.encoder.markup">Lavf58.20.100</property>
  <property name="seekable">1</property>
  <property name="meta.media.sample_aspect_num">1</property>
  <property name="meta.media.sample_aspect_den">1</property>
  <property name="format">3</property>
  <property name="audio_index">-1</property>
  <property name="video_index">0</property>
  <property name="vstream">0</property>
  <property name="meta.media.frame_rate_num">50</property>
  <property name="meta.media.frame_rate_den">3</property>
  <property name="meta.media.colorspace">601</property>
  <property name="meta.media.color_trc">2</property>
  <property name="meta.media.has_b_frames">0</property>
  <property name="meta.media.width">640</property>
  <property name="meta.media.height">640</property>
  <property name="meta.media.aspect_ratio">1</property>
  <property name="meta.media.color_range">mpeg</property>
  <property name="meta.media.top_field_first">0</property>
  <property name="meta.media.progressive">1</property>
  <property name="kdenlive:folderid">-1</property>
  <property name="kdenlive:id">24</property>
  <property name="kdenlive:control_uuid">{976de20d-6277-46ec-ad58-294697da6d28}</property>
  <property name="mute_on_pause">0</property>
  <property name="kdenlive:clip_type">2</property>
  <property name="kdenlive:file_size">357145</property>
  <property name="kdenlive:file_hash">fdf6990230f7f76ae503b8dbf91fb7e7</property>
  <property name="kdenlive:kextractor">1</property>
  <property name="kdenlive:meta.extractor.Bitrate">2070 kb/s</property>
  <property name="kdenlive:monitorPosition">0</property>
 </chain>
 <chain id="chain15" out="00:00:01.400">
  <property name="length">43</property>
  <property name="eof">pause</property>
  <property name="resource">images/please-dont-do-that.mp4</property>
  <property name="mlt_service">avformat-novalidate</property>
  <property name="meta.media.nb_streams">1</property>
  <property name="meta.media.0.stream.type">video</property>
  <property name="meta.media.0.stream.frame_rate">25</property>
  <property name="meta.media.0.stream.sample_aspect_ratio">0</property>
  <property name="meta.media.0.codec.width">640</property>
  <property name="meta.media.0.codec.height">318</property>
  <property name="meta.media.0.codec.rotate">0</property>
  <property name="meta.media.0.codec.pix_fmt">yuv420p</property>
  <property name="meta.media.0.codec.sample_aspect_ratio">0</property>
  <property name="meta.media.0.codec.colorspace">601</property>
  <property name="meta.media.0.codec.name">h264</property>
  <property name="meta.media.0.codec.long_name">H.264 / AVC / MPEG-4 AVC / MPEG-4 part 10</property>
  <property name="meta.media.0.codec.bit_rate">1878038</property>
  <property name="meta.attr.0.stream.handler_name.markup">VideoHandler</property>
  <property name="meta.attr.0.stream.vendor_id.markup">[0][0][0][0]</property>
  <property name="meta.attr.major_brand.markup">isom</property>
  <property name="meta.attr.minor_version.markup">512</property>
  <property name="meta.attr.compatible_brands.markup">isomiso2avc1mp41</property>
  <property name="meta.attr.encoder.markup">Lavf58.20.100</property>
  <property name="seekable">1</property>
  <property name="meta.media.sample_aspect_num">1</property>
  <property name="meta.media.sample_aspect_den">1</property>
  <property name="format">3</property>
  <property name="audio_index">-1</property>
  <property name="video_index">0</property>
  <property name="vstream">0</property>
  <property name="meta.media.frame_rate_num">25</property>
  <property name="meta.media.frame_rate_den">1</property>
  <property name="meta.media.colorspace">601</property>
  <property name="meta.media.color_trc">2</property>
  <property name="meta.media.has_b_frames">0</property>
  <property name="meta.media.width">640</property>
  <property name="meta.media.height">318</property>
  <property name="meta.media.aspect_ratio">1</property>
  <property name="meta.media.color_range">mpeg</property>
  <property name="meta.media.top_field_first">0</property>
  <property name="meta.media.progressive">1</property>
  <property name="kdenlive:folderid">-1</property>
  <property name="kdenlive:id">25</property>
  <property name="kdenlive:control_uuid">{df6494d5-42fb-413b-a54b-611d05d08730}</property>
  <property name="mute_on_pause">0</property>
  <property name="kdenlive:clip_type">2</property>
  <property name="kdenlive:file_size">339006</property>
  <property name="kdenlive:file_hash">ad01336abdcd1f5a06599eb5a2856692</property>
  <property name="kdenlive:kextractor">1</property>
  <property name="kdenlive:meta.extractor.Bitrate">1883 kb/s</property>
  <property name="kdenlive:monitorPosition">0</property>
 </chain>
 <chain id="chain16" out="00:00:01.900">
  <property name="length">58</property>
  <property name="eof">pause</property>
  <property name="resource">images/i-need-you-to-come-back-omar-adom-zidan.mp4</property>
  <property name="mlt_service">avformat-novalidate</property>
  <property name="meta.media.nb_streams">1</property>
  <property name="meta.media.0.stream.type">video</property>
  <property name="meta.media.0.stream.frame_rate">12.5</property>
  <property name="meta.media.0.stream.sample_aspect_ratio">0</property>
  <property name="meta.media.0.codec.width">640</property>
  <property name="meta.media.0.codec.height">640</property>
  <property name="meta.media.0.codec.rotate">0</property>
  <property name="meta.media.0.codec.pix_fmt">yuv420p</property>
  <property name="meta.media.0.codec.sample_aspect_ratio">0</property>
  <property name="meta.media.0.codec.colorspace">601</property>
  <property name="meta.media.0.codec.name">h264</property>
  <property name="meta.media.0.codec.long_name">H.264 / AVC / MPEG-4 AVC / MPEG-4 part 10</property>
  <property name="meta.media.0.codec.bit_rate">860900</property>
  <property name="meta.attr.0.stream.handler_name.markup">VideoHandler</property>
  <property name="meta.attr.0.stream.vendor_id.markup">[0][0][0][0]</property>
  <property name="meta.attr.major_brand.markup">isom</property>
  <property name="meta.attr.minor_version.markup">512</property>
  <property name="meta.attr.compatible_brands.markup">isomiso2avc1mp41</property>
  <property name="meta.attr.encoder.markup">Lavf58.20.100</property>
  <property name="seekable">1</property>
  <property name="meta.media.sample_aspect_num">1</property>
  <property name="meta.media.sample_aspect_den">1</property>
  <property name="format">3</property>
  <property name="audio_index">-1</property>
  <property name="video_index">0</property>
  <property name="vstream">0</property>
  <property name="meta.media.frame_rate_num">25</property>
  <property name="meta.media.frame_rate_den">2</property>
  <property name="meta.media.colorspace">601</property>
  <property name="meta.media.color_trc">2</property>
  <property name="meta.media.has_b_frames">0</property>
  <property name="meta.media.width">640</property>
  <property name="meta.media.height">640</property>
  <property name="meta.media.aspect_ratio">1</property>
  <property name="meta.media.color_range">mpeg</property>
  <property name="meta.media.top_field_first">0</property>
  <property name="meta.media.progressive">1</property>
  <property name="kdenlive:folderid">-1</property>
  <property name="kdenlive:id">26</property>
  <property name="kdenlive:control_uuid">{9033f9d2-b21e-44bc-88e8-a97a84f1834e}</property>
  <property name="mute_on_pause">0</property>
  <property name="kdenlive:clip_type">2</property>
  <property name="kdenlive:file_size">207527</property>
  <property name="kdenlive:file_hash">c89cee9907ed78329c1cb4dbab621f1b</property>
  <property name="kdenlive:kextractor">1</property>
  <property name="kdenlive:meta.extractor.Bitrate">864 kb/s</property>
  <property name="kdenlive:monitorPosition">0</property>
 </chain>
 <chain id="chain17" out="00:00:03.400">
  <property name="length">103</property>
  <property name="eof">pause</property>
  <property name="resource">images/enough-of-this-yapping-grog-strongjaw.mp4</property>
  <property name="mlt_service">avformat-novalidate</property>
  <property name="meta.media.nb_streams">1</property>
  <property name="meta.media.0.stream.type">video</property>
  <property name="meta.media.0.stream.frame_rate">16.6667</property>
  <property name="meta.media.0.stream.sample_aspect_ratio">0</property>
  <property name="meta.media.0.codec.width">498</property>
  <property name="meta.media.0.codec.height">498</property>
  <property name="meta.media.0.codec.rotate">0</property>
  <property name="meta.media.0.codec.pix_fmt">yuv420p</property>
  <property name="meta.media.0.codec.sample_aspect_ratio">0</property>
  <property name="meta.media.0.codec.colorspace">601</property>
  <property name="meta.media.0.codec.name">h264</property>
  <property name="meta.media.0.codec.long_name">H.264 / AVC / MPEG-4 AVC / MPEG-4 part 10</property>
  <property name="meta.media.0.codec.bit_rate">490907</property>
  <property name="meta.attr.0.stream.handler_name.markup">VideoHandler</property>
  <property name="meta.attr.0.stream.vendor_id.markup">[0][0][0][0]</property>
  <property name="meta.attr.major_brand.markup">isom</property>
  <property name="meta.attr.minor_version.markup">512</property>
  <property name="meta.attr.compatible_brands.markup">isomiso2avc1mp41</property>
  <property name="meta.attr.encoder.markup">Google</property>
  <property name="seekable">1</property>
  <property name="meta.media.sample_aspect_num">1</property>
  <property name="meta.media.sample_aspect_den">1</property>
  <property name="format">3</property>
  <property name="audio_index">-1</property>
  <property name="video_index">0</property>
  <property name="vstream">0</property>
  <property name="meta.media.frame_rate_num">50</property>
  <property name="meta.media.frame_rate_den">3</property>
  <property name="meta.media.colorspace">601</property>
  <property name="meta.media.color_trc">2</property>
  <property name="meta.media.has_b_frames">2</property>
  <property name="meta.media.width">498</property>
  <property name="meta.media.height">498</property>
  <property name="meta.media.aspect_ratio">1</property>
  <property name="meta.media.color_range">mpeg</property>
  <property name="meta.media.top_field_first">0</property>
  <property name="meta.media.progressive">1</property>
  <property name="kdenlive:folderid">-1</property>
  <property name="kdenlive:id">27</property>
  <property name="kdenlive:control_uuid">{e1fb9be5-593b-4d4b-b5dc-28c2d8a10886}</property>
  <property name="mute_on_pause">0</property>
  <property name="kdenlive:clip_type">2</property>
  <property name="kdenlive:file_size">211366</property>
  <property name="kdenlive:file_hash">92009685841dd80eb17db7aa20845d45</property>
  <property name="kdenlive:kextractor">1</property>
  <property name="kdenlive:meta.extractor.Bitrate">494 kb/s</property>
  <property name="kdenlive:monitorPosition">0</property>
 </chain>
 <producer id="producer19" in="00:00:00.000" out="00:00:04.967">
  <property name="length">00:00:05.000</property>
  <property name="eof">pause</property>
  <property name="resource">images/Pictures/2025-11-08_03-11-1762551118.ppm</property>
  <property name="ttl">25</property>
  <property name="aspect_ratio">1</property>
  <property name="meta.media.progressive">1</property>
  <property name="seekable">1</property>
  <property name="format">1</property>
  <property name="meta.media.width">1440</property>
  <property name="meta.media.height">900</property>
  <property name="mlt_service">qimage</property>
  <property name="kdenlive:duration">00:00:05:00</property>
  <property name="xml">was here</property>
  <property name="kdenlive:folderid">-1</property>
  <property name="kdenlive:id">28</property>
  <property name="kdenlive:control_uuid">{64da60bd-3932-4222-9879-ec0c59af6f44}</property>
  <property name="kdenlive:clip_type">2</property>
  <property name="kdenlive:file_size">3888016</property>
  <property name="kdenlive:file_hash">b29c3a7f4dfcb4eb3ee206e1c7b2569c</property>
  <property name="kdenlive:kextractor">1</property>
  <property name="kdenlive:monitorPosition">60</property>
 </producer>
 <producer id="producer35" in="00:00:00.000" out="00:00:04.967">
  <property name="length">00:00:05.000</property>
  <property name="eof">pause</property>
  <property name="resource">images/neovim-mark.svg</property>
  <property name="ttl">25</property>
  <property name="aspect_ratio">1</property>
  <property name="meta.media.progressive">1</property>
  <property name="seekable">1</property>
  <property name="format">2</property>
  <property name="meta.media.width">602</property>
  <property name="meta.media.height">734</property>
  <property name="mlt_service">qimage</property>
  <property name="kdenlive:duration">00:00:05:00</property>
  <property name="xml">was here</property>
  <property name="kdenlive:folderid">-1</property>
  <property name="kdenlive:id">29</property>
  <property name="kdenlive:control_uuid">{1189ad9a-e0e9-4f6a-bf39-c23a3ee55384}</property>
  <property name="kdenlive:clip_type">2</property>
  <property name="kdenlive:file_size">2236</property>
  <property name="kdenlive:file_hash">f3bbb62a08ae4f4fe1d253c23afffa75</property>
  <property name="kdenlive:monitorPosition">0</property>
  <property name="kdenlive:kextractor">1</property>
 </producer>
 <chain id="chain19" out="00:00:01.433">
  <property name="length">44</property>
  <property name="eof">pause</property>
  <property name="resource">images/tinkering.gif</property>
  <property name="mlt_service">avformat-novalidate</property>
  <property name="meta.media.nb_streams">1</property>
  <property name="meta.media.0.stream.type">video</property>
  <property name="meta.media.0.stream.frame_rate">25</property>
  <property name="meta.media.0.stream.sample_aspect_ratio">0</property>
  <property name="meta.media.0.codec.width">480</property>
  <property name="meta.media.0.codec.height">480</property>
  <property name="meta.media.0.codec.rotate">0</property>
  <property name="meta.media.0.codec.pix_fmt">bgra</property>
  <property name="meta.media.0.codec.sample_aspect_ratio">0</property>
  <property name="meta.media.0.codec.colorspace">601</property>
  <property name="meta.media.0.codec.name">gif</property>
  <property name="meta.media.0.codec.long_name">GIF (Graphics Interchange Format)</property>
  <property name="meta.media.0.codec.bit_rate">0</property>
  <property name="seekable">1</property>
  <property name="meta.media.sample_aspect_num">1</property>
  <property name="meta.media.sample_aspect_den">1</property>
  <property name="format">2</property>
  <property name="audio_index">-1</property>
  <property name="video_index">0</property>
  <property name="vstream">0</property>
  <property name="meta.media.frame_rate_num">25</property>
  <property name="meta.media.frame_rate_den">1</property>
  <property name="meta.media.colorspace">601</property>
  <property name="meta.media.color_trc">2</property>
  <property name="meta.media.has_b_frames">0</property>
  <property name="meta.media.width">480</property>
  <property name="meta.media.height">480</property>
  <property name="meta.media.aspect_ratio">1</property>
  <property name="meta.media.color_range">mpeg</property>
  <property name="meta.media.top_field_first">0</property>
  <property name="meta.media.progressive">1</property>
  <property name="kdenlive:folderid">-1</property>
  <property name="kdenlive:id">30</property>
  <property name="kdenlive:control_uuid">{44808fe0-c524-431d-8583-812356a3dc69}</property>
  <property name="mute_on_pause">0</property>
  <property name="kdenlive:clip_type">2</property>
  <property name="kdenlive:file_size">1398426</property>
  <property name="kdenlive:file_hash">b89db75ff05074939d898c9116239194</property>
  <property name="kdenlive:monitorPosition">0</property>
  <property name="kdenlive:kextractor">1</property>
 </chain>
 <producer id="producer21" in="00:00:00.000" out="00:00:04.967">
  <property name="length">00:00:05.000</property>
  <property name="eof">pause</property>
  <property name="resource">images/Pictures/2025-11-08_14-11-1762591569.ppm</property>
  <property name="ttl">25</property>
  <property name="aspect_ratio">1</property>
  <property name="meta.media.progressive">1</property>
  <property name="seekable">1</property>
  <property name="format">1</property>
  <property name="meta.media.width">1440</property>
  <property name="meta.media.height">900</property>
  <property name="mlt_service">qimage</property>
  <property name="kdenlive:duration">00:00:05:00</property>
  <property name="xml">was here</property>
  <property name="kdenlive:folderid">-1</property>
  <property name="kdenlive:id">31</property>
  <property name="kdenlive:control_uuid">{7850f8e6-4f3f-432a-a8d3-54371093b9ce}</property>
  <property name="kdenlive:clip_type">2</property>
  <property name="kdenlive:file_size">3888016</property>
  <property name="kdenlive:file_hash">768f6a016d13fbba872c054e9c91798c</property>
  <property name="kdenlive:kextractor">1</property>
  <property name="kdenlive:monitorPosition">66</property>
 </producer>
 <producer id="producer22" in="00:00:00.000" out="00:00:04.967">
  <property name="length">00:00:05.000</property>
  <property name="eof">pause</property>
  <property name="resource">images/Pictures/2025-11-08_14-11-1762591619.ppm</property>
  <property name="ttl">25</property>
  <property name="aspect_ratio">1</property>
  <property name="meta.media.progressive">1</property>
  <property name="seekable">1</property>
  <property name="format">1</property>
  <property name="meta.media.width">1440</property>
  <property name="meta.media.height">900</property>
  <property name="mlt_service">qimage</property>
  <property name="kdenlive:duration">00:00:05:00</property>
  <property name="xml">was here</property>
  <property name="kdenlive:folderid">-1</property>
  <property name="kdenlive:id">32</property>
  <property name="kdenlive:control_uuid">{3090fca6-5a0a-4d0a-82b2-42a45fb49856}</property>
  <property name="kdenlive:clip_type">2</property>
  <property name="kdenlive:file_size">3888016</property>
  <property name="kdenlive:file_hash">fcf6d505c245fca703f136b0567e4e78</property>
  <property name="kdenlive:kextractor">1</property>
  <property name="kdenlive:monitorPosition">23</property>
 </producer>
 <producer id="producer23" in="00:00:00.000" out="00:00:04.967">
  <property name="length">00:00:05.000</property>
  <property name="eof">pause</property>
  <property name="resource">images/Pictures/2025-11-08_14-11-1762591750.ppm</property>
  <property name="ttl">25</property>
  <property name="aspect_ratio">1</property>
  <property name="meta.media.progressive">1</property>
  <property name="seekable">1</property>
  <property name="format">1</property>
  <property name="meta.media.width">1440</property>
  <property name="meta.media.height">900</property>
  <property name="mlt_service">qimage</property>
  <property name="kdenlive:duration">00:00:05:00</property>
  <property name="xml">was here</property>
  <property name="kdenlive:folderid">-1</property>
  <property name="kdenlive:id">33</property>
  <property name="kdenlive:control_uuid">{f677bf6f-881a-4156-a06b-e8126423e332}</property>
  <property name="kdenlive:clip_type">2</property>
  <property name="kdenlive:file_size">3888016</property>
  <property name="kdenlive:file_hash">d1021d9a632b16eeb317fe83dbba46e8</property>
  <property name="kdenlive:kextractor">1</property>
  <property name="kdenlive:monitorPosition">60</property>
 </producer>
 <producer id="producer24" in="00:00:00.000" out="00:00:04.967">
  <property name="length">00:00:05.000</property>
  <property name="eof">pause</property>
  <property name="resource">images/Pictures/2025-11-08_14-11-1762591820.ppm</property>
  <property name="ttl">25</property>
  <property name="aspect_ratio">1</property>
  <property name="meta.media.progressive">1</property>
  <property name="seekable">1</property>
  <property name="format">1</property>
  <property name="meta.media.width">1440</property>
  <property name="meta.media.height">900</property>
  <property name="mlt_service">qimage</property>
  <property name="kdenlive:duration">00:00:05:00</property>
  <property name="xml">was here</property>
  <property name="kdenlive:folderid">-1</property>
  <property name="kdenlive:id">34</property>
  <property name="kdenlive:control_uuid">{1c7bb004-af48-4cdf-a7e5-fc37cdf4e812}</property>
  <property name="kdenlive:clip_type">2</property>
  <property name="kdenlive:file_size">3888016</property>
  <property name="kdenlive:file_hash">b3edb5b61b2c2bb85c6187cf27c65f27</property>
  <property name="kdenlive:kextractor">1</property>
  <property name="kdenlive:monitorPosition">60</property>
 </producer>
 <producer id="producer25" in="00:00:00.000" out="00:00:04.967">
  <property name="length">00:00:05.000</property>
  <property name="eof">pause</property>
  <property name="resource">images/Pictures/2025-11-08_14-11-1762591853.ppm</property>
  <property name="ttl">25</property>
  <property name="aspect_ratio">1</property>
  <property name="meta.media.progressive">1</property>
  <property name="seekable">1</property>
  <property name="format">1</property>
  <property name="meta.media.width">1440</property>
  <property name="meta.media.height">900</property>
  <property name="mlt_service">qimage</property>
  <property name="kdenlive:duration">00:00:05:00</property>
  <property name="xml">was here</property>
  <property name="kdenlive:folderid">-1</property>
  <property name="kdenlive:id">35</property>
  <property name="kdenlive:control_uuid">{194d941f-d100-4d94-a4ff-e2c9267c3121}</property>
  <property name="kdenlive:clip_type">2</property>
  <property name="kdenlive:file_size">3888016</property>
  <property name="kdenlive:file_hash">0fc06abbd1b62bd43b1ab1a176f7dffe</property>
  <property name="kdenlive:kextractor">1</property>
  <property name="kdenlive:monitorPosition">26</property>
 </producer>
 <producer id="producer26" in="00:00:00.000" out="00:00:05.100">
  <property name="length">154</property>
  <property name="eof">pause</property>
  <property name="resource">images/Pictures/2025-11-08_15-11-1762592697.ppm</property>
  <property name="ttl">25</property>
  <property name="aspect_ratio">1</property>
  <property name="meta.media.progressive">1</property>
  <property name="seekable">1</property>
  <property name="format">1</property>
  <property name="meta.media.width">1440</property>
  <property name="meta.media.height">900</property>
  <property name="mlt_service">qimage</property>
  <property name="kdenlive:duration">00:00:05:00</property>
  <property name="xml">was here</property>
  <property name="kdenlive:folderid">-1</property>
  <property name="kdenlive:id">36</property>
  <property name="kdenlive:control_uuid">{a43e6f96-8435-4be0-b206-57bfba4ee33c}</property>
  <property name="kdenlive:clip_type">2</property>
  <property name="kdenlive:file_size">3888016</property>
  <property name="kdenlive:file_hash">79ba363e0efb94b5fad793ee2d702c72</property>
  <property name="kdenlive:kextractor">1</property>
  <property name="kdenlive:monitorPosition">53</property>
 </producer>
 <producer id="producer27" in="00:00:00.000" out="00:00:12.433">
  <property name="length">374</property>
  <property name="eof">pause</property>
  <property name="resource">images/Pictures/2025-11-08_15-11-1762593085.ppm</property>
  <property name="ttl">25</property>
  <property name="aspect_ratio">1</property>
  <property name="meta.media.progressive">1</property>
  <property name="seekable">1</property>
  <property name="format">1</property>
  <property name="meta.media.width">1440</property>
  <property name="meta.media.height">900</property>
  <property name="mlt_service">qimage</property>
  <property name="kdenlive:duration">00:00:05:00</property>
  <property name="xml">was here</property>
  <property name="kdenlive:folderid">-1</property>
  <property name="kdenlive:id">37</property>
  <property name="kdenlive:control_uuid">{186cb77c-ae10-49ea-afff-4deec93cde7a}</property>
  <property name="kdenlive:clip_type">2</property>
  <property name="kdenlive:file_size">3888016</property>
  <property name="kdenlive:file_hash">a136f8743772fd00878c184c5f1da286</property>
  <property name="kdenlive:kextractor">1</property>
  <property name="kdenlive:monitorPosition">4</property>
 </producer>
 <producer id="producer29" in="00:00:00.000" out="00:00:04.967">
  <property name="length">150</property>
  <property name="eof">pause</property>
  <property name="resource"/>
  <property name="meta.media.progressive">1</property>
  <property name="aspect_ratio">1</property>
  <property name="seekable">1</property>
  <property name="mlt_service">kdenlivetitle</property>
  <property name="kdenlive:duration">00:00:05:00</property>
  <property name="kdenlive:clipname">What</property>
  <property name="xmldata">&lt;kdenlivetitle LC_NUMERIC="C" duration="150" height="1080" out="149" width="1920">
 &lt;item type="QGraphicsTextItem" z-index="0">
  &lt;position x="876" y="498">
   &lt;transform>1,0,0,0,1,0,0,0,1&lt;/transform>
  &lt;/position>
  &lt;content alignment="1" box-height="90" box-width="162.984" font="Noto Sans" font-color="255,255,255,255" font-italic="0" font-outline="0" font-outline-color="0,0,0,255" font-pixel-size="66" font-underline="0" font-weight="400" letter-spacing="0" shadow="0;#64000000;3;3;3" tab-width="80" typewriter="0;2;1;0;0">What&lt;/content>
 &lt;/item>
 &lt;startviewport rect="0,0,1920,1080"/>
 &lt;endviewport rect="0,0,1920,1080"/>
 &lt;background color="0,0,0,57"/>
&lt;/kdenlivetitle>
</property>
  <property name="xml">was here</property>
  <property name="kdenlive:folderid">-1</property>
  <property name="kdenlive:id">38</property>
  <property name="kdenlive:control_uuid">{d966138f-cad3-4aea-a25e-21357a7f5c81}</property>
  <property name="kdenlive:clip_type">2</property>
  <property name="kdenlive:uniqueId">{592702d1-7f72-4cfc-8bc3-a4406ee001c2}</property>
  <property name="kdenlive:file_hash">21af372bbfe74282ddf65fddbdfde37e</property>
  <property name="force_reload">0</property>
  <property name="meta.media.width">1920</property>
  <property name="meta.media.height">1080</property>
  <property name="kdenlive:monitorPosition">37</property>
 </producer>
 <producer id="producer28" in="00:00:00.000" out="00:00:04.967">
  <property name="length">150</property>
  <property name="eof">pause</property>
  <property name="resource"/>
  <property name="meta.media.progressive">1</property>
  <property name="aspect_ratio">1</property>
  <property name="seekable">1</property>
  <property name="mlt_service">kdenlivetitle</property>
  <property name="kdenlive:duration">00:00:05:00</property>
  <property name="kdenlive:clipname">Now</property>
  <property name="xmldata">&lt;kdenlivetitle LC_NUMERIC="C" duration="150" height="1080" out="149" width="1920">
 &lt;item type="QGraphicsTextItem" z-index="0">
  &lt;position x="876" y="498">
   &lt;transform>1,0,0,0,1,0,0,0,1&lt;/transform>
  &lt;/position>
  &lt;content alignment="1" box-height="90" box-width="140.641" font="Noto Sans" font-color="255,255,255,255" font-italic="0" font-pixel-size="66" font-underline="0" font-weight="400" letter-spacing="0" shadow="0;#64000000;3;3;3" tab-width="80" typewriter="0;2;1;0;0">Now&lt;/content>
 &lt;/item>
 &lt;startviewport rect="0,0,1920,1080"/>
 &lt;endviewport rect="0,0,1920,1080"/>
 &lt;background color="0,0,0,57"/>
&lt;/kdenlivetitle>
</property>
  <property name="xml">was here</property>
  <property name="kdenlive:folderid">-1</property>
  <property name="kdenlive:id">39</property>
  <property name="kdenlive:clip_type">2</property>
  <property name="kdenlive:file_hash">76d60b16c5ca446ae975e2fa7bcabc1a</property>
  <property name="force_reload">0</property>
  <property name="kdenlive:monitorPosition">31</property>
  <property name="kdenlive:control_uuid">{10be7bbc-1f07-475d-ab8e-a586c5aef451}</property>
  <property name="kdenlive:uniqueId">{15bb59bf-030e-435f-9675-7e6c44e0f433}</property>
  <property name="meta.media.width">1920</property>
  <property name="meta.media.height">1080</property>
 </producer>
 <producer id="producer30" in="00:00:00.000" out="00:00:04.967">
  <property name="length">150</property>
  <property name="eof">pause</property>
  <property name="resource"/>
  <property name="meta.media.progressive">1</property>
  <property name="aspect_ratio">1</property>
  <property name="seekable">1</property>
  <property name="mlt_service">kdenlivetitle</property>
  <property name="kdenlive:duration">00:00:05:00</property>
  <property name="kdenlive:clipname">Exactly</property>
  <property name="xmldata">&lt;kdenlivetitle LC_NUMERIC="C" duration="150" height="1080" out="149" width="1920">
 &lt;item type="QGraphicsTextItem" z-index="0">
  &lt;position x="859" y="498">
   &lt;transform>1,0,0,0,1,0,0,0,1&lt;/transform>
  &lt;/position>
  &lt;content alignment="1" box-height="90" box-width="214.766" font="Noto Sans" font-color="255,255,255,255" font-italic="0" font-pixel-size="66" font-underline="0" font-weight="400" letter-spacing="0" shadow="0;#64000000;3;3;3" tab-width="80" typewriter="0;2;1;0;0">Exactly&lt;/content>
 &lt;/item>
 &lt;startviewport rect="0,0,1920,1080"/>
 &lt;endviewport rect="0,0,1920,1080"/>
 &lt;background color="0,0,0,57"/>
&lt;/kdenlivetitle>
</property>
  <property name="xml">was here</property>
  <property name="kdenlive:folderid">-1</property>
  <property name="kdenlive:id">40</property>
  <property name="kdenlive:clip_type">2</property>
  <property name="kdenlive:file_hash">1726f379da92989a64510264d3b14245</property>
  <property name="force_reload">0</property>
  <property name="kdenlive:monitorPosition">37</property>
  <property name="kdenlive:control_uuid">{cd1d2b86-bab0-45b9-bd4d-ca8a2f608adb}</property>
  <property name="kdenlive:uniqueId">{ff3f5b08-3de1-4248-9ca9-c2d2593c2305}</property>
  <property name="meta.media.width">1920</property>
  <property name="meta.media.height">1080</property>
 </producer>
 <producer id="producer31" in="00:00:00.000" out="00:00:04.967">
  <property name="length">150</property>
  <property name="eof">pause</property>
  <property name="resource"/>
  <property name="meta.media.progressive">1</property>
  <property name="aspect_ratio">1</property>
  <property name="seekable">1</property>
  <property name="mlt_service">kdenlivetitle</property>
  <property name="kdenlive:duration">00:00:05:00</property>
  <property name="kdenlive:clipname">Is</property>
  <property name="xmldata">&lt;kdenlivetitle LC_NUMERIC="C" duration="150" height="1080" out="149" width="1920">
 &lt;item type="QGraphicsTextItem" z-index="0">
  &lt;position x="930" y="498">
   &lt;transform>1,0,0,0,1,0,0,0,1&lt;/transform>
  &lt;/position>
  &lt;content alignment="1" box-height="90" box-width="53.9688" font="Noto Sans" font-color="255,255,255,255" font-italic="0" font-pixel-size="66" font-underline="0" font-weight="400" letter-spacing="0" shadow="0;#64000000;3;3;3" tab-width="80" typewriter="0;2;1;0;0">Is&lt;/content>
 &lt;/item>
 &lt;startviewport rect="0,0,1920,1080"/>
 &lt;endviewport rect="0,0,1920,1080"/>
 &lt;background color="0,0,0,57"/>
&lt;/kdenlivetitle>
</property>
  <property name="xml">was here</property>
  <property name="kdenlive:folderid">-1</property>
  <property name="kdenlive:id">41</property>
  <property name="kdenlive:clip_type">2</property>
  <property name="kdenlive:file_hash">52407fb962f4a9748c9842d854817595</property>
  <property name="force_reload">0</property>
  <property name="kdenlive:monitorPosition">37</property>
  <property name="kdenlive:control_uuid">{8ac27458-074f-4e5e-ab0e-a856224800a2}</property>
  <property name="kdenlive:uniqueId">{28936526-1757-4800-a552-34e461f09c37}</property>
  <property name="meta.media.width">1920</property>
  <property name="meta.media.height">1080</property>
 </producer>
 <producer id="producer32" in="00:00:00.000" out="00:00:04.967">
  <property name="length">150</property>
  <property name="eof">pause</property>
  <property name="resource"/>
  <property name="meta.media.progressive">1</property>
  <property name="aspect_ratio">1</property>
  <property name="seekable">1</property>
  <property name="mlt_service">kdenlivetitle</property>
  <property name="kdenlive:duration">00:00:05:00</property>
  <property name="kdenlive:clipname">The</property>
  <property name="xmldata">&lt;kdenlivetitle LC_NUMERIC="C" duration="150" height="1080" out="149" width="1920">
 &lt;item type="QGraphicsTextItem" z-index="0">
  &lt;position x="900" y="498">
   &lt;transform>1,0,0,0,1,0,0,0,1&lt;/transform>
  &lt;/position>
  &lt;content alignment="1" box-height="90" box-width="114.688" font="Noto Sans" font-color="255,255,255,255" font-italic="0" font-pixel-size="66" font-underline="0" font-weight="400" letter-spacing="0" shadow="0;#64000000;3;3;3" tab-width="80" typewriter="0;2;1;0;0">The&lt;/content>
 &lt;/item>
 &lt;startviewport rect="0,0,1920,1080"/>
 &lt;endviewport rect="0,0,1920,1080"/>
 &lt;background color="0,0,0,57"/>
&lt;/kdenlivetitle>
</property>
  <property name="xml">was here</property>
  <property name="kdenlive:folderid">-1</property>
  <property name="kdenlive:id">42</property>
  <property name="kdenlive:clip_type">2</property>
  <property name="kdenlive:file_hash">365eb0af05ffea1b69a4386c92cefbd5</property>
  <property name="force_reload">0</property>
  <property name="kdenlive:monitorPosition">10</property>
  <property name="kdenlive:control_uuid">{a11ead7a-85d7-4f47-a808-bda9212d9dde}</property>
  <property name="kdenlive:uniqueId">{43368161-4d1a-4cbc-869a-cefe00075541}</property>
  <property name="meta.media.width">1920</property>
  <property name="meta.media.height">1080</property>
 </producer>
 <producer id="producer33" in="00:00:00.000" out="00:00:04.967">
  <property name="length">150</property>
  <property name="eof">pause</property>
  <property name="resource"/>
  <property name="meta.media.progressive">1</property>
  <property name="aspect_ratio">1</property>
  <property name="seekable">1</property>
  <property name="mlt_service">kdenlivetitle</property>
  <property name="kdenlive:duration">00:00:05:00</property>
  <property name="kdenlive:clipname">require()</property>
  <property name="xmldata">&lt;kdenlivetitle LC_NUMERIC="C" duration="150" height="1080" out="149" width="1920">
 &lt;item type="QGraphicsTextItem" z-index="0">
  &lt;position x="836" y="498">
   &lt;transform>1,0,0,0,1,0,0,0,1&lt;/transform>
  &lt;/position>
  &lt;content alignment="1" box-height="90" box-width="247.422" font="Noto Sans" font-color="255,255,255,255" font-italic="1" font-outline="0" font-outline-color="0,0,0,255" font-pixel-size="66" font-underline="0" font-weight="400" letter-spacing="0" line-spacing="0" shadow="0;#64000000;3;3;3" tab-width="80" typewriter="0;2;1;0;0">require()&lt;/content>
 &lt;/item>
 &lt;startviewport rect="0,0,1920,1080"/>
 &lt;endviewport rect="0,0,1920,1080"/>
 &lt;background color="0,0,0,57"/>
&lt;/kdenlivetitle>
</property>
  <property name="xml">was here</property>
  <property name="kdenlive:folderid">-1</property>
  <property name="kdenlive:id">43</property>
  <property name="kdenlive:clip_type">2</property>
  <property name="kdenlive:file_hash">ba0ac7a6f180cace52cf51251d25d05b</property>
  <property name="force_reload">0</property>
  <property name="kdenlive:monitorPosition">37</property>
  <property name="kdenlive:control_uuid">{1d726e06-c3d8-4b02-b538-c06b0342a0c4}</property>
  <property name="kdenlive:uniqueId">{d627b929-8b41-4470-997f-6ebd0485c57f}</property>
  <property name="meta.media.width">1920</property>
  <property name="meta.media.height">1080</property>
 </producer>
 <producer id="producer34" in="00:00:00.000" out="00:00:14.233">
  <property name="length">428</property>
  <property name="eof">pause</property>
  <property name="resource">images/Pictures/2025-11-08_15-11-1762594272.ppm</property>
  <property name="ttl">25</property>
  <property name="aspect_ratio">1</property>
  <property name="meta.media.progressive">1</property>
  <property name="seekable">1</property>
  <property name="format">1</property>
  <property name="meta.media.width">1440</property>
  <property name="meta.media.height">900</property>
  <property name="mlt_service">qimage</property>
  <property name="kdenlive:duration">00:00:05:00</property>
  <property name="xml">was here</property>
  <property name="kdenlive:folderid">-1</property>
  <property name="kdenlive:id">44</property>
  <property name="kdenlive:control_uuid">{2999a7cd-2e7d-4845-bd49-b89a2695c475}</property>
  <property name="kdenlive:clip_type">2</property>
  <property name="kdenlive:file_size">3888016</property>
  <property name="kdenlive:file_hash">998e5caa79b4e229580d9768318b3a6a</property>
  <property name="kdenlive:kextractor">1</property>
  <property name="kdenlive:monitorPosition">67</property>
 </producer>
 <producer id="producer37" in="00:00:00.000" out="00:00:04.967">
  <property name="length">150</property>
  <property name="eof">pause</property>
  <property name="resource"/>
  <property name="meta.media.progressive">1</property>
  <property name="aspect_ratio">1</property>
  <property name="seekable">1</property>
  <property name="mlt_service">kdenlivetitle</property>
  <property name="kdenlive:duration">00:00:05:00</property>
  <property name="kdenlive:clipname">package.load...</property>
  <property name="xmldata">&lt;kdenlivetitle LC_NUMERIC="C" duration="150" height="1080" out="149" width="1920">
 &lt;item type="QGraphicsTextItem" z-index="0">
  &lt;position x="752" y="498">
   &lt;transform>1,0,0,0,1,0,0,0,1&lt;/transform>
  &lt;/position>
  &lt;content alignment="1" box-height="90" box-width="466.719" font="Noto Sans" font-color="255,255,255,255" font-italic="1" font-outline="0" font-outline-color="0,0,0,255" font-pixel-size="66" font-underline="0" font-weight="400" letter-spacing="0" line-spacing="0" shadow="0;#64000000;3;3;3" tab-width="80" typewriter="0;2;1;0;0">package.loaded&lt;/content>
 &lt;/item>
 &lt;startviewport rect="0,0,1920,1080"/>
 &lt;endviewport rect="0,0,1920,1080"/>
 &lt;background color="0,0,0,57"/>
&lt;/kdenlivetitle>
</property>
  <property name="xml">was here</property>
  <property name="kdenlive:folderid">-1</property>
  <property name="kdenlive:id">45</property>
  <property name="kdenlive:clip_type">2</property>
  <property name="kdenlive:file_hash">263dde8a7e0de1a52293a724e7ce6470</property>
  <property name="force_reload">0</property>
  <property name="kdenlive:monitorPosition">37</property>
  <property name="kdenlive:control_uuid">{bff02493-09af-41bf-afd4-d5a8f4484bb6}</property>
  <property name="kdenlive:uniqueId">{c4ca89d7-8e1f-4a88-9c8e-21428aa07273}</property>
  <property name="meta.media.width">1920</property>
  <property name="meta.media.height">1080</property>
 </producer>
 <producer id="producer38" in="00:00:00.000" out="00:00:25.767">
  <property name="length">774</property>
  <property name="eof">pause</property>
  <property name="resource">images/Pictures/2025-11-08_15-11-1762595369.ppm</property>
  <property name="ttl">25</property>
  <property name="aspect_ratio">1</property>
  <property name="meta.media.progressive">1</property>
  <property name="seekable">1</property>
  <property name="format">1</property>
  <property name="meta.media.width">1440</property>
  <property name="meta.media.height">900</property>
  <property name="mlt_service">qimage</property>
  <property name="kdenlive:duration">00:00:05:00</property>
  <property name="xml">was here</property>
  <property name="kdenlive:folderid">-1</property>
  <property name="kdenlive:id">46</property>
  <property name="kdenlive:control_uuid">{8feca433-7b62-47e9-9d3e-ccfd526fde85}</property>
  <property name="kdenlive:clip_type">2</property>
  <property name="kdenlive:file_size">3888016</property>
  <property name="kdenlive:file_hash">6cfab03a3e5dce4e1ad24fc63c4427d0</property>
  <property name="kdenlive:kextractor">1</property>
  <property name="kdenlive:monitorPosition">374</property>
 </producer>
 <producer id="producer39" in="00:00:00.000" out="00:00:08.067">
  <property name="length">243</property>
  <property name="eof">pause</property>
  <property name="resource">images/Pictures/2025-11-08_17-11-1762603181.ppm</property>
  <property name="ttl">25</property>
  <property name="aspect_ratio">1</property>
  <property name="meta.media.progressive">1</property>
  <property name="seekable">1</property>
  <property name="format">1</property>
  <property name="meta.media.width">1440</property>
  <property name="meta.media.height">900</property>
  <property name="mlt_service">qimage</property>
  <property name="kdenlive:duration">00:00:05:00</property>
  <property name="xml">was here</property>
  <property name="kdenlive:folderid">-1</property>
  <property name="kdenlive:id">47</property>
  <property name="kdenlive:control_uuid">{609119af-def6-4bc5-bb1a-11300605b1cc}</property>
  <property name="kdenlive:clip_type">2</property>
  <property name="kdenlive:file_size">3888016</property>
  <property name="kdenlive:file_hash">b2ecde6165f6240ca16736caf3017128</property>
  <property name="kdenlive:kextractor">1</property>
  <property name="kdenlive:monitorPosition">209</property>
 </producer>
 <producer id="producer40" in="00:00:00.000" out="00:00:20.267">
  <property name="length">609</property>
  <property name="eof">pause</property>
  <property name="resource">images/Pictures/2025-11-08_18-11-1762603379.ppm</property>
  <property name="ttl">25</property>
  <property name="aspect_ratio">1</property>
  <property name="meta.media.progressive">1</property>
  <property name="seekable">1</property>
  <property name="format">1</property>
  <property name="meta.media.width">1440</property>
  <property name="meta.media.height">900</property>
  <property name="mlt_service">qimage</property>
  <property name="kdenlive:duration">00:00:05:00</property>
  <property name="xml">was here</property>
  <property name="kdenlive:folderid">-1</property>
  <property name="kdenlive:id">48</property>
  <property name="kdenlive:control_uuid">{2f2f6586-e8b7-4251-9569-a223480f3199}</property>
  <property name="kdenlive:clip_type">2</property>
  <property name="kdenlive:file_size">3888016</property>
  <property name="kdenlive:file_hash">0c46e3e2a0b07b1175e9df18531f5035</property>
  <property name="kdenlive:kextractor">1</property>
  <property name="kdenlive:monitorPosition">21</property>
 </producer>
 <producer id="producer41" in="00:00:00.000" out="00:00:16.367">
  <property name="length">492</property>
  <property name="eof">pause</property>
  <property name="resource">images/Pictures/2025-11-08_18-11-1762603498.ppm</property>
  <property name="ttl">25</property>
  <property name="aspect_ratio">1</property>
  <property name="meta.media.progressive">1</property>
  <property name="seekable">1</property>
  <property name="format">1</property>
  <property name="meta.media.width">1440</property>
  <property name="meta.media.height">900</property>
  <property name="mlt_service">qimage</property>
  <property name="kdenlive:duration">00:00:05:00</property>
  <property name="xml">was here</property>
  <property name="kdenlive:folderid">-1</property>
  <property name="kdenlive:id">49</property>
  <property name="kdenlive:control_uuid">{a9aa8146-991f-430a-be16-007b9dd6b32e}</property>
  <property name="kdenlive:clip_type">2</property>
  <property name="kdenlive:file_size">3888016</property>
  <property name="kdenlive:file_hash">5fe7d72035f133b4611576e00bc5a072</property>
  <property name="kdenlive:kextractor">1</property>
  <property name="kdenlive:monitorPosition">484</property>
 </producer>
 <producer id="producer42" in="00:00:00.000" out="00:00:04.967">
  <property name="length">00:00:05.000</property>
  <property name="eof">pause</property>
  <property name="resource">images/Pictures/2025-11-09_16-11-1762683030.ppm</property>
  <property name="ttl">25</property>
  <property name="aspect_ratio">1</property>
  <property name="meta.media.progressive">1</property>
  <property name="seekable">1</property>
  <property name="format">1</property>
  <property name="meta.media.width">1440</property>
  <property name="meta.media.height">900</property>
  <property name="mlt_service">qimage</property>
  <property name="kdenlive:duration">00:00:05:00</property>
  <property name="xml">was here</property>
  <property name="kdenlive:folderid">-1</property>
  <property name="kdenlive:id">50</property>
  <property name="kdenlive:control_uuid">{2087bb0a-b7bf-49e7-b674-5ac5e31afe83}</property>
  <property name="kdenlive:clip_type">2</property>
  <property name="kdenlive:file_size">3888016</property>
  <property name="kdenlive:file_hash">409f5dcf0e083356a1405b836cd256b4</property>
  <property name="kdenlive:monitorPosition">102</property>
  <property name="kdenlive:kextractor">1</property>
 </producer>
 <producer id="producer43" in="00:00:00.000" out="00:00:04.967">
  <property name="length">00:00:05.000</property>
  <property name="eof">pause</property>
  <property name="resource">images/Pictures/2025-11-09_16-11-1762683210.ppm</property>
  <property name="ttl">25</property>
  <property name="aspect_ratio">1</property>
  <property name="meta.media.progressive">1</property>
  <property name="seekable">1</property>
  <property name="format">1</property>
  <property name="meta.media.width">1440</property>
  <property name="meta.media.height">900</property>
  <property name="mlt_service">qimage</property>
  <property name="kdenlive:duration">00:00:05:00</property>
  <property name="xml">was here</property>
  <property name="kdenlive:folderid">-1</property>
  <property name="kdenlive:id">51</property>
  <property name="kdenlive:control_uuid">{e2441962-ccd9-4f0e-9413-e8fc609a96ad}</property>
  <property name="kdenlive:clip_type">2</property>
  <property name="kdenlive:file_size">3888016</property>
  <property name="kdenlive:file_hash">1cb8c3c4fc76487c4ccaaf98cc617d6f</property>
  <property name="kdenlive:monitorPosition">44</property>
  <property name="kdenlive:kextractor">1</property>
 </producer>
 <producer id="producer44" in="00:00:00.000" out="00:00:04.967">
  <property name="length">00:00:05.000</property>
  <property name="eof">pause</property>
  <property name="resource">images/Pictures/2025-11-09_19-11-1762695248.ppm</property>
  <property name="ttl">25</property>
  <property name="aspect_ratio">1</property>
  <property name="meta.media.progressive">1</property>
  <property name="seekable">1</property>
  <property name="format">1</property>
  <property name="meta.media.width">1440</property>
  <property name="meta.media.height">900</property>
  <property name="mlt_service">qimage</property>
  <property name="kdenlive:duration">00:00:05:00</property>
  <property name="xml">was here</property>
  <property name="kdenlive:folderid">-1</property>
  <property name="kdenlive:id">52</property>
  <property name="kdenlive:control_uuid">{9082cac8-846b-45bd-97b2-354eda011ef9}</property>
  <property name="kdenlive:clip_type">2</property>
  <property name="kdenlive:file_size">3888016</property>
  <property name="kdenlive:file_hash">82fa19be033e45ab9538e5d82fda5fe1</property>
  <property name="kdenlive:monitorPosition">33</property>
  <property name="kdenlive:kextractor">1</property>
 </producer>
 <producer id="producer45" in="00:00:00.000" out="00:00:07.833">
  <property name="length">236</property>
  <property name="eof">pause</property>
  <property name="resource">images/Pictures/2025-11-09_19-11-1762695526.ppm</property>
  <property name="ttl">25</property>
  <property name="aspect_ratio">1</property>
  <property name="meta.media.progressive">1</property>
  <property name="seekable">1</property>
  <property name="format">1</property>
  <property name="meta.media.width">1440</property>
  <property name="meta.media.height">900</property>
  <property name="mlt_service">qimage</property>
  <property name="kdenlive:duration">00:00:05:00</property>
  <property name="xml">was here</property>
  <property name="kdenlive:folderid">-1</property>
  <property name="kdenlive:id">53</property>
  <property name="kdenlive:control_uuid">{278e1921-4009-48dd-81f7-b2e024ceffe5}</property>
  <property name="kdenlive:clip_type">2</property>
  <property name="kdenlive:file_size">3888016</property>
  <property name="kdenlive:file_hash">1c8247bc40730bec10b7276324129b4f</property>
  <property name="kdenlive:kextractor">1</property>
  <property name="kdenlive:monitorPosition">0</property>
 </producer>
 <producer id="producer46" in="00:00:00.000" out="00:00:04.967">
  <property name="length">150</property>
  <property name="eof">pause</property>
  <property name="resource"/>
  <property name="meta.media.progressive">1</property>
  <property name="aspect_ratio">1</property>
  <property name="seekable">1</property>
  <property name="mlt_service">kdenlivetitle</property>
  <property name="kdenlive:duration">00:00:05:00</property>
  <property name="kdenlive:clipname">like people ...</property>
  <property name="xmldata">&lt;kdenlivetitle LC_NUMERIC="C" duration="150" height="1080" out="149" width="1920">
 &lt;item type="QGraphicsTextItem" z-index="0">
  &lt;position x="516" y="486">
   &lt;transform>1,0,0,0,1,0,0,0,1&lt;/transform>
  &lt;/position>
  &lt;content alignment="1" box-height="90" box-width="887.031" font="Noto Sans" font-color="255,255,255,255" font-italic="1" font-outline="0" font-outline-color="0,0,0,255" font-pixel-size="66" font-underline="0" font-weight="400" letter-spacing="0" shadow="0;#64000000;3;3;3" tab-width="80" typewriter="0;2;1;0;0">like people on the epstien's list&lt;/content>
 &lt;/item>
 &lt;startviewport rect="0,0,1920,1080"/>
 &lt;endviewport rect="0,0,1920,1080"/>
 &lt;background color="0,0,0,57"/>
&lt;/kdenlivetitle>
</property>
  <property name="xml">was here</property>
  <property name="kdenlive:folderid">-1</property>
  <property name="kdenlive:id">54</property>
  <property name="kdenlive:control_uuid">{62190537-2c08-4145-b508-14785e61fef5}</property>
  <property name="kdenlive:clip_type">2</property>
  <property name="kdenlive:uniqueId">{f2defd0c-df32-42dc-8b96-937492bc9bc6}</property>
  <property name="kdenlive:file_hash">6d29bab5763a1e5b8c1569282413026b</property>
  <property name="force_reload">0</property>
  <property name="meta.media.width">1920</property>
  <property name="meta.media.height">1080</property>
  <property name="kdenlive:monitorPosition">0</property>
 </producer>
 <producer id="producer47" in="00:00:00.000" out="00:00:06.333">
  <property name="length">191</property>
  <property name="eof">pause</property>
  <property name="resource">images/Pictures/2025-11-09_20-11-1762698649.ppm</property>
  <property name="ttl">25</property>
  <property name="aspect_ratio">1</property>
  <property name="meta.media.progressive">1</property>
  <property name="seekable">1</property>
  <property name="format">1</property>
  <property name="meta.media.width">1440</property>
  <property name="meta.media.height">900</property>
  <property name="mlt_service">qimage</property>
  <property name="kdenlive:duration">00:00:05:00</property>
  <property name="xml">was here</property>
  <property name="kdenlive:folderid">-1</property>
  <property name="kdenlive:id">55</property>
  <property name="kdenlive:control_uuid">{76334604-ffb1-495a-a594-90d28c3afa54}</property>
  <property name="kdenlive:clip_type">2</property>
  <property name="kdenlive:file_size">3888016</property>
  <property name="kdenlive:file_hash">66bf9b0b465c9d4014cb582e4ac16750</property>
  <property name="kdenlive:monitorPosition">143</property>
  <property name="kdenlive:kextractor">1</property>
 </producer>
 <producer id="producer49" in="00:00:00.000" out="00:00:04.967">
  <property name="length">150</property>
  <property name="eof">pause</property>
  <property name="resource"/>
  <property name="meta.media.progressive">1</property>
  <property name="aspect_ratio">1</property>
  <property name="seekable">1</property>
  <property name="mlt_service">kdenlivetitle</property>
  <property name="kdenlive:duration">00:00:05:00</property>
  <property name="kdenlive:clipname">For now...</property>
  <property name="xmldata">&lt;kdenlivetitle LC_NUMERIC="C" duration="150" height="1080" out="149" width="1920">
 &lt;item type="QGraphicsTextItem" z-index="0">
  &lt;position x="790" y="483">
   &lt;transform>1,0,0,0,1,0,0,0,1&lt;/transform>
  &lt;/position>
  &lt;content alignment="1" box-height="90" box-width="300.266" font="Noto Sans" font-color="255,255,255,255" font-italic="0" font-pixel-size="66" font-underline="0" font-weight="400" letter-spacing="0" line-spacing="0" shadow="1;#64000000;99;3;3" tab-width="80" typewriter="1;2;1;0;0">For now...&lt;/content>
 &lt;/item>
 &lt;startviewport rect="0,0,1920,1080"/>
 &lt;endviewport rect="0,0,1920,1080"/>
 &lt;background color="0,0,0,57"/>
&lt;/kdenlivetitle>
</property>
  <property name="xml">was here</property>
  <property name="kdenlive:folderid">-1</property>
  <property name="kdenlive:id">56</property>
  <property name="kdenlive:control_uuid">{5e48884a-7601-4ddd-a858-d44f01956593}</property>
  <property name="kdenlive:clip_type">2</property>
  <property name="kdenlive:uniqueId">{7fdd0341-2810-4e44-a989-3440e59ea526}</property>
  <property name="kdenlive:file_hash">d5acf076a6625723cb709bf1f5e33de0</property>
  <property name="force_reload">0</property>
  <property name="meta.media.width">1920</property>
  <property name="meta.media.height">1080</property>
  <property name="kdenlive:monitorPosition">0</property>
 </producer>
 <producer id="producer48" in="00:00:00.000" out="00:00:31.700">
  <property name="length">952</property>
  <property name="eof">pause</property>
  <property name="resource">images/Pictures/2025-11-09_20-11-1762699302.ppm</property>
  <property name="ttl">25</property>
  <property name="aspect_ratio">1</property>
  <property name="meta.media.progressive">1</property>
  <property name="seekable">1</property>
  <property name="format">1</property>
  <property name="meta.media.width">1440</property>
  <property name="meta.media.height">900</property>
  <property name="mlt_service">qimage</property>
  <property name="kdenlive:duration">00:00:05:00</property>
  <property name="xml">was here</property>
  <property name="kdenlive:folderid">-1</property>
  <property name="kdenlive:id">57</property>
  <property name="kdenlive:control_uuid">{012224ba-7ee1-4c16-a8ad-1c038ac941e5}</property>
  <property name="kdenlive:clip_type">2</property>
  <property name="kdenlive:file_size">3888016</property>
  <property name="kdenlive:file_hash">57d0fc998d09b636b6d8fc9d0950b0e5</property>
  <property name="kdenlive:kextractor">1</property>
 </producer>
 <chain id="chain22" out="00:00:02.867">
  <property name="length">87</property>
  <property name="eof">pause</property>
  <property name="resource">images/trump-reading.mp4</property>
  <property name="mlt_service">avformat-novalidate</property>
  <property name="meta.media.nb_streams">1</property>
  <property name="meta.media.0.stream.type">video</property>
  <property name="meta.media.0.stream.frame_rate">10</property>
  <property name="meta.media.0.stream.sample_aspect_ratio">0</property>
  <property name="meta.media.0.codec.width">478</property>
  <property name="meta.media.0.codec.height">360</property>
  <property name="meta.media.0.codec.rotate">0</property>
  <property name="meta.media.0.codec.pix_fmt">yuv420p</property>
  <property name="meta.media.0.codec.sample_aspect_ratio">0</property>
  <property name="meta.media.0.codec.colorspace">601</property>
  <property name="meta.media.0.codec.name">h264</property>
  <property name="meta.media.0.codec.long_name">H.264 / AVC / MPEG-4 AVC / MPEG-4 part 10</property>
  <property name="meta.media.0.codec.bit_rate">393089</property>
  <property name="meta.attr.0.stream.handler_name.markup">VideoHandler</property>
  <property name="meta.attr.0.stream.vendor_id.markup">[0][0][0][0]</property>
  <property name="meta.attr.major_brand.markup">isom</property>
  <property name="meta.attr.minor_version.markup">512</property>
  <property name="meta.attr.compatible_brands.markup">isomiso2avc1mp41</property>
  <property name="meta.attr.encoder.markup">Lavf56.36.100</property>
  <property name="seekable">1</property>
  <property name="meta.media.sample_aspect_num">1</property>
  <property name="meta.media.sample_aspect_den">1</property>
  <property name="format">3</property>
  <property name="audio_index">-1</property>
  <property name="video_index">0</property>
  <property name="vstream">0</property>
  <property name="meta.media.frame_rate_num">10</property>
  <property name="meta.media.frame_rate_den">1</property>
  <property name="meta.media.colorspace">601</property>
  <property name="meta.media.color_trc">2</property>
  <property name="meta.media.has_b_frames">2</property>
  <property name="meta.media.width">478</property>
  <property name="meta.media.height">360</property>
  <property name="meta.media.aspect_ratio">1</property>
  <property name="meta.media.color_range">mpeg</property>
  <property name="meta.media.top_field_first">0</property>
  <property name="meta.media.progressive">1</property>
  <property name="kdenlive:folderid">-1</property>
  <property name="kdenlive:id">58</property>
  <property name="kdenlive:control_uuid">{23e6080f-f8d6-413c-b998-9756d495b201}</property>
  <property name="mute_on_pause">0</property>
  <property name="kdenlive:clip_type">2</property>
  <property name="kdenlive:file_size">143502</property>
  <property name="kdenlive:file_hash">3bd738107d4e929c4a6359cf76cbab0f</property>
  <property name="kdenlive:monitorPosition">23</property>
  <property name="kdenlive:kextractor">1</property>
  <property name="kdenlive:meta.extractor.Bitrate">395 kb/s</property>
 </chain>
 <producer id="producer52" in="00:00:00.000" out="00:00:04.967">
  <property name="length">150</property>
  <property name="eof">pause</property>
  <property name="resource"/>
  <property name="meta.media.progressive">1</property>
  <property name="aspect_ratio">1</property>
  <property name="seekable">1</property>
  <property name="mlt_service">kdenlivetitle</property>
  <property name="kdenlive:duration">00:00:05:00</property>
  <property name="kdenlive:clipname">How</property>
  <property name="xmldata">&lt;kdenlivetitle LC_NUMERIC="C" duration="150" height="1080" out="149" width="1920">
 &lt;item type="QGraphicsTextItem" z-index="0">
  &lt;position x="902" y="501">
   &lt;transform>1,0,0,0,1,0,0,0,1&lt;/transform>
  &lt;/position>
  &lt;content alignment="1" box-height="90" box-width="139.375" font="Noto Sans" font-color="255,255,255,255" font-italic="0" font-outline="0" font-outline-color="0,0,0,255" font-pixel-size="66" font-underline="0" font-weight="400" letter-spacing="0" shadow="0;#64000000;3;3;3" tab-width="80" typewriter="0;2;1;0;0">How&lt;/content>
 &lt;/item>
 &lt;startviewport rect="0,0,1920,1080"/>
 &lt;endviewport rect="0,0,1920,1080"/>
 &lt;background color="0,0,0,57"/>
&lt;/kdenlivetitle>
</property>
  <property name="xml">was here</property>
  <property name="kdenlive:folderid">-1</property>
  <property name="kdenlive:id">59</property>
  <property name="kdenlive:control_uuid">{f6124249-c0c8-4480-af49-8401c8415a56}</property>
  <property name="kdenlive:clip_type">2</property>
  <property name="kdenlive:uniqueId">{fe94ac07-fd83-4342-8113-82dff7ba04a1}</property>
  <property name="kdenlive:file_hash">eee4629244ad2a29ef108c404701d50d</property>
  <property name="force_reload">0</property>
  <property name="meta.media.width">1920</property>
  <property name="meta.media.height">1080</property>
  <property name="kdenlive:monitorPosition">8</property>
 </producer>
 <producer id="producer53" in="00:00:00.000" out="00:00:04.967">
  <property name="length">150</property>
  <property name="eof">pause</property>
  <property name="resource"/>
  <property name="meta.media.progressive">1</property>
  <property name="aspect_ratio">1</property>
  <property name="seekable">1</property>
  <property name="mlt_service">kdenlivetitle</property>
  <property name="kdenlive:duration">00:00:05:00</property>
  <property name="kdenlive:clipname">You</property>
  <property name="xmldata">&lt;kdenlivetitle LC_NUMERIC="C" duration="150" height="1080" out="149" width="1920">
 &lt;item type="QGraphicsTextItem" z-index="0">
  &lt;position x="902" y="501">
   &lt;transform>1,0,0,0,1,0,0,0,1&lt;/transform>
  &lt;/position>
  &lt;content alignment="1" box-height="90" box-width="114.75" font="Noto Sans" font-color="255,255,255,255" font-italic="0" font-pixel-size="66" font-underline="0" font-weight="400" letter-spacing="0" shadow="0;#64000000;3;3;3" tab-width="80" typewriter="0;2;1;0;0">You&lt;/content>
 &lt;/item>
 &lt;startviewport rect="0,0,1920,1080"/>
 &lt;endviewport rect="0,0,1920,1080"/>
 &lt;background color="0,0,0,57"/>
&lt;/kdenlivetitle>
</property>
  <property name="xml">was here</property>
  <property name="kdenlive:folderid">-1</property>
  <property name="kdenlive:id">60</property>
  <property name="kdenlive:clip_type">2</property>
  <property name="kdenlive:file_hash">8b9e803c21f887fb8ccb9b083860efec</property>
  <property name="force_reload">0</property>
  <property name="kdenlive:monitorPosition">10</property>
  <property name="kdenlive:control_uuid">{0c6fea64-9e19-4ada-8bda-f613ce0d8e92}</property>
  <property name="kdenlive:uniqueId">{a2190c4a-b1ef-4fab-8b7e-804dbd872ed4}</property>
  <property name="meta.media.width">1920</property>
  <property name="meta.media.height">1080</property>
 </producer>
 <producer id="producer54" in="00:00:00.000" out="00:00:04.967">
  <property name="length">150</property>
  <property name="eof">pause</property>
  <property name="resource"/>
  <property name="meta.media.progressive">1</property>
  <property name="aspect_ratio">1</property>
  <property name="seekable">1</property>
  <property name="mlt_service">kdenlivetitle</property>
  <property name="kdenlive:duration">00:00:05:00</property>
  <property name="kdenlive:clipname">Would</property>
  <property name="xmldata">&lt;kdenlivetitle LC_NUMERIC="C" duration="150" height="1080" out="149" width="1920">
 &lt;item type="QGraphicsTextItem" z-index="0">
  &lt;position x="887" y="501">
   &lt;transform>1,0,0,0,1,0,0,0,1&lt;/transform>
  &lt;/position>
  &lt;content alignment="1" box-height="90" box-width="198.359" font="Noto Sans" font-color="255,255,255,255" font-italic="0" font-pixel-size="66" font-underline="0" font-weight="400" letter-spacing="0" shadow="0;#64000000;3;3;3" tab-width="80" typewriter="0;2;1;0;0">Would&lt;/content>
 &lt;/item>
 &lt;startviewport rect="0,0,1920,1080"/>
 &lt;endviewport rect="0,0,1920,1080"/>
 &lt;background color="0,0,0,57"/>
&lt;/kdenlivetitle>
</property>
  <property name="xml">was here</property>
  <property name="kdenlive:folderid">-1</property>
  <property name="kdenlive:id">61</property>
  <property name="kdenlive:clip_type">2</property>
  <property name="kdenlive:file_hash">49e56119acfcb50a221941286956578e</property>
  <property name="force_reload">0</property>
  <property name="kdenlive:monitorPosition">6</property>
  <property name="kdenlive:control_uuid">{e7c56e73-4c40-4894-b68e-eacccefd3806}</property>
  <property name="kdenlive:uniqueId">{172d1cac-5c75-4d1b-801d-3cb4e8a45627}</property>
  <property name="meta.media.width">1920</property>
  <property name="meta.media.height">1080</property>
 </producer>
 <producer id="producer55" in="00:00:00.000" out="00:00:04.967">
  <property name="length">150</property>
  <property name="eof">pause</property>
  <property name="resource"/>
  <property name="meta.media.progressive">1</property>
  <property name="aspect_ratio">1</property>
  <property name="seekable">1</property>
  <property name="mlt_service">kdenlivetitle</property>
  <property name="kdenlive:duration">00:00:05:00</property>
  <property name="kdenlive:clipname">Use</property>
  <property name="xmldata">&lt;kdenlivetitle LC_NUMERIC="C" duration="150" height="1080" out="149" width="1920">
 &lt;item type="QGraphicsTextItem" z-index="0">
  &lt;position x="930" y="501">
   &lt;transform>1,0,0,0,1,0,0,0,1&lt;/transform>
  &lt;/position>
  &lt;content alignment="1" box-height="90" box-width="117.063" font="Noto Sans" font-color="255,255,255,255" font-italic="0" font-pixel-size="66" font-underline="0" font-weight="400" letter-spacing="0" shadow="0;#64000000;3;3;3" tab-width="80" typewriter="0;2;1;0;0">Use&lt;/content>
 &lt;/item>
 &lt;startviewport rect="0,0,1920,1080"/>
 &lt;endviewport rect="0,0,1920,1080"/>
 &lt;background color="0,0,0,57"/>
&lt;/kdenlivetitle>
</property>
  <property name="xml">was here</property>
  <property name="kdenlive:folderid">-1</property>
  <property name="kdenlive:id">62</property>
  <property name="kdenlive:clip_type">2</property>
  <property name="kdenlive:file_hash">9c7913a0c1aa45c085ebc1a3140fb001</property>
  <property name="force_reload">0</property>
  <property name="kdenlive:monitorPosition">9</property>
  <property name="kdenlive:control_uuid">{433d3591-3acd-40da-89c9-55dc82b923d8}</property>
  <property name="kdenlive:uniqueId">{c6849cfe-95aa-4b63-bb19-66dac9efefd1}</property>
  <property name="meta.media.width">1920</property>
  <property name="meta.media.height">1080</property>
 </producer>
 <producer id="producer56" in="00:00:00.000" out="00:00:04.967">
  <property name="length">150</property>
  <property name="eof">pause</property>
  <property name="resource"/>
  <property name="meta.media.progressive">1</property>
  <property name="aspect_ratio">1</property>
  <property name="seekable">1</property>
  <property name="mlt_service">kdenlivetitle</property>
  <property name="kdenlive:duration">00:00:05:00</property>
  <property name="kdenlive:clipname">This</property>
  <property name="xmldata">&lt;kdenlivetitle LC_NUMERIC="C" duration="150" height="1080" out="149" width="1920">
 &lt;item type="QGraphicsTextItem" z-index="0">
  &lt;position x="922" y="501">
   &lt;transform>1,0,0,0,1,0,0,0,1&lt;/transform>
  &lt;/position>
  &lt;content alignment="1" box-height="90" box-width="126.094" font="Noto Sans" font-color="255,255,255,255" font-italic="0" font-pixel-size="66" font-underline="0" font-weight="400" letter-spacing="0" shadow="0;#64000000;3;3;3" tab-width="80" typewriter="0;2;1;0;0">This&lt;/content>
 &lt;/item>
 &lt;startviewport rect="0,0,1920,1080"/>
 &lt;endviewport rect="0,0,1920,1080"/>
 &lt;background color="0,0,0,57"/>
&lt;/kdenlivetitle>
</property>
  <property name="xml">was here</property>
  <property name="kdenlive:folderid">-1</property>
  <property name="kdenlive:id">63</property>
  <property name="kdenlive:clip_type">2</property>
  <property name="kdenlive:file_hash">78d152fa056a91b23a879e4887da2ed3</property>
  <property name="force_reload">0</property>
  <property name="kdenlive:monitorPosition">6</property>
  <property name="kdenlive:control_uuid">{3eef49a1-49d3-4daa-a8ac-15d48ef045a1}</property>
  <property name="kdenlive:uniqueId">{08ab8416-576c-47b6-a1e7-9b2747e171a2}</property>
  <property name="meta.media.width">1920</property>
  <property name="meta.media.height">1080</property>
 </producer>
 <producer id="producer57" in="00:00:00.000" out="00:00:04.967">
  <property name="length">150</property>
  <property name="eof">pause</property>
  <property name="resource"/>
  <property name="meta.media.progressive">1</property>
  <property name="aspect_ratio">1</property>
  <property name="seekable">1</property>
  <property name="mlt_service">kdenlivetitle</property>
  <property name="kdenlive:duration">00:00:05:00</property>
  <property name="kdenlive:clipname">In</property>
  <property name="xmldata">&lt;kdenlivetitle LC_NUMERIC="C" duration="150" height="1080" out="149" width="1920">
 &lt;item type="QGraphicsTextItem" z-index="0">
  &lt;position x="922" y="501">
   &lt;transform>1,0,0,0,1,0,0,0,1&lt;/transform>
  &lt;/position>
  &lt;content alignment="1" box-height="90" box-width="63.1406" font="Noto Sans" font-color="255,255,255,255" font-italic="0" font-pixel-size="66" font-underline="0" font-weight="400" letter-spacing="0" shadow="0;#64000000;3;3;3" tab-width="80" typewriter="0;2;1;0;0">In&lt;/content>
 &lt;/item>
 &lt;startviewport rect="0,0,1920,1080"/>
 &lt;endviewport rect="0,0,1920,1080"/>
 &lt;background color="0,0,0,57"/>
&lt;/kdenlivetitle>
</property>
  <property name="xml">was here</property>
  <property name="kdenlive:folderid">-1</property>
  <property name="kdenlive:id">64</property>
  <property name="kdenlive:clip_type">2</property>
  <property name="kdenlive:file_hash">2f75a1a36618c7af31aa5a5d83dc9371</property>
  <property name="force_reload">0</property>
  <property name="kdenlive:monitorPosition">0</property>
  <property name="kdenlive:control_uuid">{b34b07d7-66a0-4542-81e8-472c99078e20}</property>
  <property name="kdenlive:uniqueId">{43a9ced7-e8b2-482a-885a-2cd4439edfe6}</property>
  <property name="meta.media.width">1920</property>
  <property name="meta.media.height">1080</property>
 </producer>
 <producer id="producer58" in="00:00:00.000" out="00:00:04.967">
  <property name="length">150</property>
  <property name="eof">pause</property>
  <property name="resource"/>
  <property name="meta.media.progressive">1</property>
  <property name="aspect_ratio">1</property>
  <property name="seekable">1</property>
  <property name="mlt_service">kdenlivetitle</property>
  <property name="kdenlive:duration">00:00:05:00</property>
  <property name="kdenlive:clipname">Your</property>
  <property name="xmldata">&lt;kdenlivetitle LC_NUMERIC="C" duration="150" height="1080" out="149" width="1920">
 &lt;item type="QGraphicsTextItem" z-index="0">
  &lt;position x="914" y="501">
   &lt;transform>1,0,0,0,1,0,0,0,1&lt;/transform>
  &lt;/position>
  &lt;content alignment="1" box-height="90" box-width="142" font="Noto Sans" font-color="255,255,255,255" font-italic="0" font-pixel-size="66" font-underline="0" font-weight="400" letter-spacing="0" shadow="0;#64000000;3;3;3" tab-width="80" typewriter="0;2;1;0;0">Your&lt;/content>
 &lt;/item>
 &lt;startviewport rect="0,0,1920,1080"/>
 &lt;endviewport rect="0,0,1920,1080"/>
 &lt;background color="0,0,0,57"/>
&lt;/kdenlivetitle>
</property>
  <property name="xml">was here</property>
  <property name="kdenlive:folderid">-1</property>
  <property name="kdenlive:id">65</property>
  <property name="kdenlive:clip_type">2</property>
  <property name="kdenlive:file_hash">450232a3db9ab4429db00e9687e6b42f</property>
  <property name="force_reload">0</property>
  <property name="kdenlive:monitorPosition">6</property>
  <property name="kdenlive:control_uuid">{786fc74b-6c18-4d19-9086-a2f534d0af9d}</property>
  <property name="kdenlive:uniqueId">{f09eee75-656b-442b-b1ed-6ddd5080e528}</property>
  <property name="meta.media.width">1920</property>
  <property name="meta.media.height">1080</property>
 </producer>
 <producer id="producer59" in="00:00:00.000" out="00:00:04.967">
  <property name="length">150</property>
  <property name="eof">pause</property>
  <property name="resource"/>
  <property name="meta.media.progressive">1</property>
  <property name="aspect_ratio">1</property>
  <property name="seekable">1</property>
  <property name="mlt_service">kdenlivetitle</property>
  <property name="kdenlive:duration">00:00:05:00</property>
  <property name="kdenlive:clipname">Day</property>
  <property name="xmldata">&lt;kdenlivetitle LC_NUMERIC="C" duration="150" height="1080" out="149" width="1920">
 &lt;item type="QGraphicsTextItem" z-index="0">
  &lt;position x="931" y="501">
   &lt;transform>1,0,0,0,1,0,0,0,1&lt;/transform>
  &lt;/position>
  &lt;content alignment="1" box-height="90" box-width="118.844" font="Noto Sans" font-color="255,255,255,255" font-italic="0" font-pixel-size="66" font-underline="0" font-weight="400" letter-spacing="0" shadow="0;#64000000;3;3;3" tab-width="80" typewriter="0;2;1;0;0">Day&lt;/content>
 &lt;/item>
 &lt;startviewport rect="0,0,1920,1080"/>
 &lt;endviewport rect="0,0,1920,1080"/>
 &lt;background color="0,0,0,57"/>
&lt;/kdenlivetitle>
</property>
  <property name="xml">was here</property>
  <property name="kdenlive:folderid">-1</property>
  <property name="kdenlive:id">66</property>
  <property name="kdenlive:clip_type">2</property>
  <property name="kdenlive:file_hash">2cdc530c8aedce8c0bad27fc932ddc27</property>
  <property name="force_reload">0</property>
  <property name="kdenlive:monitorPosition">6</property>
  <property name="kdenlive:control_uuid">{881dedf1-9db9-483b-8ae8-cd25669b5190}</property>
  <property name="kdenlive:uniqueId">{0bccce22-10ab-45cc-8fa7-7a82db3b79cc}</property>
  <property name="meta.media.width">1920</property>
  <property name="meta.media.height">1080</property>
 </producer>
 <producer id="producer60" in="00:00:00.000" out="00:00:04.967">
  <property name="length">150</property>
  <property name="eof">pause</property>
  <property name="resource"/>
  <property name="meta.media.progressive">1</property>
  <property name="aspect_ratio">1</property>
  <property name="seekable">1</property>
  <property name="mlt_service">kdenlivetitle</property>
  <property name="kdenlive:duration">00:00:05:00</property>
  <property name="kdenlive:clipname">To</property>
  <property name="xmldata">&lt;kdenlivetitle LC_NUMERIC="C" duration="150" height="1080" out="149" width="1920">
 &lt;item type="QGraphicsTextItem" z-index="0">
  &lt;position x="931" y="501">
   &lt;transform>1,0,0,0,1,0,0,0,1&lt;/transform>
  &lt;/position>
  &lt;content alignment="1" box-height="90" box-width="71.9844" font="Noto Sans" font-color="255,255,255,255" font-italic="0" font-pixel-size="66" font-underline="0" font-weight="400" letter-spacing="0" shadow="0;#64000000;3;3;3" tab-width="80" typewriter="0;2;1;0;0">To&lt;/content>
 &lt;/item>
 &lt;startviewport rect="0,0,1920,1080"/>
 &lt;endviewport rect="0,0,1920,1080"/>
 &lt;background color="0,0,0,57"/>
&lt;/kdenlivetitle>
</property>
  <property name="xml">was here</property>
  <property name="kdenlive:folderid">-1</property>
  <property name="kdenlive:id">67</property>
  <property name="kdenlive:clip_type">2</property>
  <property name="kdenlive:file_hash">2134b669d49946bfa67b0f4873a37109</property>
  <property name="force_reload">0</property>
  <property name="kdenlive:monitorPosition">6</property>
  <property name="kdenlive:control_uuid">{e863bedd-a556-472e-b145-04472ee0c994}</property>
  <property name="kdenlive:uniqueId">{3f6b18c6-e181-4503-938c-29a5073337d9}</property>
  <property name="meta.media.width">1920</property>
  <property name="meta.media.height">1080</property>
 </producer>
 <producer id="producer61" in="00:00:00.000" out="00:00:04.967">
  <property name="length">00:00:05.000</property>
  <property name="eof">pause</property>
  <property name="resource">images/FullMoon2010.jpg</property>
  <property name="ttl">25</property>
  <property name="aspect_ratio">1</property>
  <property name="meta.media.progressive">1</property>
  <property name="seekable">1</property>
  <property name="format">1</property>
  <property name="meta.media.width">2580</property>
  <property name="meta.media.height">2452</property>
  <property name="mlt_service">qimage</property>
  <property name="kdenlive:duration">00:00:05:00</property>
  <property name="xml">was here</property>
  <property name="kdenlive:folderid">-1</property>
  <property name="kdenlive:id">68</property>
  <property name="kdenlive:control_uuid">{1b6d3694-6769-42db-b84a-f6c8dfeb5af1}</property>
  <property name="kdenlive:clip_type">2</property>
  <property name="kdenlive:file_size">2143958</property>
  <property name="kdenlive:file_hash">571d0954ec32f3d581afde0a15460a21</property>
  <property name="kdenlive:kextractor">1</property>
  <property name="kdenlive:meta.extractor.Exposure Time">0.0015625</property>
  <property name="kdenlive:meta.extractor.Manufacturer">Canon</property>
  <property name="kdenlive:meta.extractor.Model">Canon EOS REBEL T1i</property>
  <property name="kdenlive:meta.extractor.White Balance">1</property>
  <property name="kdenlive:monitorPosition">0</property>
 </producer>
 <producer id="producer62" in="00:00:00.000" out="00:00:11.533">
  <property name="length">347</property>
  <property name="eof">pause</property>
  <property name="resource">images/Pictures/2025-11-10_00-11-1762712321.ppm</property>
  <property name="ttl">25</property>
  <property name="aspect_ratio">1</property>
  <property name="meta.media.progressive">1</property>
  <property name="seekable">1</property>
  <property name="format">1</property>
  <property name="meta.media.width">1440</property>
  <property name="meta.media.height">900</property>
  <property name="mlt_service">qimage</property>
  <property name="kdenlive:duration">00:00:05:00</property>
  <property name="xml">was here</property>
  <property name="kdenlive:folderid">-1</property>
  <property name="kdenlive:id">69</property>
  <property name="kdenlive:control_uuid">{ff4b3717-c283-411e-8fb5-5360d3a5fee3}</property>
  <property name="kdenlive:clip_type">2</property>
  <property name="kdenlive:file_size">3888016</property>
  <property name="kdenlive:file_hash">f8d348f1ce535dce1637b51fc4a7ff03</property>
  <property name="kdenlive:monitorPosition">53</property>
  <property name="kdenlive:kextractor">1</property>
 </producer>
 <producer id="producer63" in="00:00:00.000" out="00:00:15.200">
  <property name="length">457</property>
  <property name="eof">pause</property>
  <property name="resource">images/Pictures/2025-11-10_01-11-1762714990.ppm</property>
  <property name="ttl">25</property>
  <property name="aspect_ratio">1</property>
  <property name="meta.media.progressive">1</property>
  <property name="seekable">1</property>
  <property name="format">1</property>
  <property name="meta.media.width">1440</property>
  <property name="meta.media.height">900</property>
  <property name="mlt_service">qimage</property>
  <property name="kdenlive:duration">00:00:05:00</property>
  <property name="xml">was here</property>
  <property name="kdenlive:folderid">-1</property>
  <property name="kdenlive:id">70</property>
  <property name="kdenlive:control_uuid">{10d40b38-b4bb-4c89-9ab6-a173920169bd}</property>
  <property name="kdenlive:clip_type">2</property>
  <property name="kdenlive:file_size">3888016</property>
  <property name="kdenlive:file_hash">8d343c2c9b4e0e47b2ef44cb4c57c37a</property>
  <property name="kdenlive:monitorPosition">53</property>
  <property name="kdenlive:kextractor">1</property>
 </producer>
 <producer id="producer64" in="00:00:00.000" out="00:00:25.933">
  <property name="length">779</property>
  <property name="eof">pause</property>
  <property name="resource">images/Pictures/2025-11-10_01-11-1762715518.ppm</property>
  <property name="ttl">25</property>
  <property name="aspect_ratio">1</property>
  <property name="meta.media.progressive">1</property>
  <property name="seekable">1</property>
  <property name="format">1</property>
  <property name="meta.media.width">1440</property>
  <property name="meta.media.height">900</property>
  <property name="mlt_service">qimage</property>
  <property name="kdenlive:duration">00:00:05:00</property>
  <property name="xml">was here</property>
  <property name="kdenlive:folderid">-1</property>
  <property name="kdenlive:id">71</property>
  <property name="kdenlive:control_uuid">{a5918745-d53f-4430-a782-643bed13fdc2}</property>
  <property name="kdenlive:clip_type">2</property>
  <property name="kdenlive:file_size">3888016</property>
  <property name="kdenlive:file_hash">4c9edc685ad73101921159b0adc5bf19</property>
  <property name="kdenlive:monitorPosition">0</property>
  <property name="kdenlive:kextractor">1</property>
 </producer>
 <producer id="producer65" in="00:00:00.000" out="00:00:04.967">
  <property name="length">00:00:05.000</property>
  <property name="eof">pause</property>
  <property name="resource">images/Pictures/2025-11-10_12-11-1762756629.ppm</property>
  <property name="ttl">25</property>
  <property name="aspect_ratio">1</property>
  <property name="meta.media.progressive">1</property>
  <property name="seekable">1</property>
  <property name="format">1</property>
  <property name="meta.media.width">1440</property>
  <property name="meta.media.height">900</property>
  <property name="mlt_service">qimage</property>
  <property name="kdenlive:duration">00:00:05:00</property>
  <property name="xml">was here</property>
  <property name="kdenlive:folderid">-1</property>
  <property name="kdenlive:id">72</property>
  <property name="kdenlive:control_uuid">{052b8cbc-72d8-4f1d-addf-2177f6a9d6a1}</property>
  <property name="kdenlive:clip_type">2</property>
  <property name="kdenlive:file_size">3888016</property>
  <property name="kdenlive:file_hash">c16e9e4b9ee390da74156ecc0220ffd1</property>
  <property name="kdenlive:monitorPosition">0</property>
  <property name="kdenlive:kextractor">1</property>
 </producer>
 <producer id="producer66" in="00:00:00.000" out="00:00:09.767">
  <property name="length">294</property>
  <property name="eof">pause</property>
  <property name="resource">images/Pictures/2025-11-10_12-11-1762756899.ppm</property>
  <property name="ttl">25</property>
  <property name="aspect_ratio">1</property>
  <property name="meta.media.progressive">1</property>
  <property name="seekable">1</property>
  <property name="format">1</property>
  <property name="meta.media.width">1440</property>
  <property name="meta.media.height">900</property>
  <property name="mlt_service">qimage</property>
  <property name="kdenlive:duration">00:00:05:00</property>
  <property name="xml">was here</property>
  <property name="kdenlive:folderid">-1</property>
  <property name="kdenlive:id">73</property>
  <property name="kdenlive:control_uuid">{e050fd2c-98cc-4e3e-bdeb-79a36be0e9c6}</property>
  <property name="kdenlive:clip_type">2</property>
  <property name="kdenlive:file_size">3888016</property>
  <property name="kdenlive:file_hash">16d1b27e8c3694e2ef960b2c610395fc</property>
  <property name="kdenlive:monitorPosition">0</property>
  <property name="kdenlive:kextractor">1</property>
 </producer>
 <producer id="producer67" in="00:00:00.000" out="00:00:08.700">
  <property name="length">262</property>
  <property name="eof">pause</property>
  <property name="resource">images/Pictures/2025-11-10_12-11-1762757246.ppm</property>
  <property name="ttl">25</property>
  <property name="aspect_ratio">1</property>
  <property name="meta.media.progressive">1</property>
  <property name="seekable">1</property>
  <property name="format">1</property>
  <property name="meta.media.width">1440</property>
  <property name="meta.media.height">900</property>
  <property name="mlt_service">qimage</property>
  <property name="kdenlive:duration">00:00:05:00</property>
  <property name="xml">was here</property>
  <property name="kdenlive:folderid">-1</property>
  <property name="kdenlive:id">74</property>
  <property name="kdenlive:control_uuid">{3c2a4435-c398-421e-b8cc-72b4c6434b14}</property>
  <property name="kdenlive:clip_type">2</property>
  <property name="kdenlive:file_size">3888016</property>
  <property name="kdenlive:file_hash">ebc1f90f7f6fc9443f9e02d8f731179e</property>
  <property name="kdenlive:kextractor">1</property>
  <property name="kdenlive:monitorPosition">0</property>
 </producer>
 <producer id="producer68" in="00:00:00.000" out="00:00:04.967">
  <property name="length">150</property>
  <property name="eof">pause</property>
  <property name="resource"/>
  <property name="meta.media.progressive">1</property>
  <property name="aspect_ratio">1</property>
  <property name="seekable">1</property>
  <property name="mlt_service">kdenlivetitle</property>
  <property name="kdenlive:duration">00:00:05:00</property>
  <property name="kdenlive:clipname">Take notes.....</property>
  <property name="xmldata">&lt;kdenlivetitle LC_NUMERIC="C" duration="150" height="1080" out="149" width="1920">
 &lt;item type="QGraphicsTextItem" z-index="0">
  &lt;position x="739" y="487">
   &lt;transform>1,0,0,0,1,0,0,0,1&lt;/transform>
  &lt;/position>
  &lt;content alignment="1" box-height="87" box-width="419.813" font="Noto Sans" font-color="255,255,255,255" font-italic="0" font-pixel-size="66" font-underline="0" font-weight="400" letter-spacing="0" line-spacing="-3" shadow="0;#64000000;3;3;3" tab-width="80" typewriter="1;2;1;0;0">Take notes.....&lt;/content>
 &lt;/item>
 &lt;startviewport rect="0,0,1920,1080"/>
 &lt;endviewport rect="0,0,1920,1080"/>
 &lt;background color="0,0,0,57"/>
&lt;/kdenlivetitle>
</property>
  <property name="xml">was here</property>
  <property name="kdenlive:folderid">-1</property>
  <property name="kdenlive:id">75</property>
  <property name="kdenlive:control_uuid">{6fdb0c4a-8f52-4488-ba38-342599152d9e}</property>
  <property name="kdenlive:clip_type">2</property>
  <property name="kdenlive:uniqueId">{a98a1d76-250c-4e33-a1c4-84276031fe41}</property>
  <property name="kdenlive:file_hash">b45f279a24e8b379bc33ba5f24dc1be1</property>
  <property name="force_reload">0</property>
  <property name="meta.media.width">1920</property>
  <property name="meta.media.height">1080</property>
  <property name="kdenlive:monitorPosition">0</property>
 </producer>
 <producer id="producer69" in="00:00:00.000" out="00:00:08.833">
  <property name="length">266</property>
  <property name="eof">pause</property>
  <property name="resource">images/Pictures/2025-11-10_13-11-1762758530.ppm</property>
  <property name="ttl">25</property>
  <property name="aspect_ratio">1</property>
  <property name="meta.media.progressive">1</property>
  <property name="seekable">1</property>
  <property name="format">1</property>
  <property name="meta.media.width">1440</property>
  <property name="meta.media.height">900</property>
  <property name="mlt_service">qimage</property>
  <property name="kdenlive:duration">00:00:05:00</property>
  <property name="xml">was here</property>
  <property name="kdenlive:folderid">-1</property>
  <property name="kdenlive:id">76</property>
  <property name="kdenlive:control_uuid">{b2d94722-589c-447d-b052-bd59304620b9}</property>
  <property name="kdenlive:clip_type">2</property>
  <property name="kdenlive:file_size">3888016</property>
  <property name="kdenlive:file_hash">833d321e0d3ce2fe5f4751808ffe8670</property>
  <property name="kdenlive:monitorPosition">54</property>
  <property name="kdenlive:kextractor">1</property>
 </producer>
 <producer id="producer70" in="00:00:00.000" out="00:00:04.967">
  <property name="length">00:00:05.000</property>
  <property name="eof">pause</property>
  <property name="resource">images/Pictures/2025-11-10_13-11-1762759771.ppm</property>
  <property name="ttl">25</property>
  <property name="aspect_ratio">1</property>
  <property name="meta.media.progressive">1</property>
  <property name="seekable">1</property>
  <property name="format">1</property>
  <property name="meta.media.width">1440</property>
  <property name="meta.media.height">900</property>
  <property name="mlt_service">qimage</property>
  <property name="kdenlive:duration">00:00:05:00</property>
  <property name="xml">was here</property>
  <property name="kdenlive:folderid">-1</property>
  <property name="kdenlive:id">77</property>
  <property name="kdenlive:control_uuid">{39e0a996-74f9-4ede-9064-d253e8614ed2}</property>
  <property name="kdenlive:clip_type">2</property>
  <property name="kdenlive:file_size">3888016</property>
  <property name="kdenlive:file_hash">52d3d98a03c91a77f3aa27726232cf81</property>
  <property name="kdenlive:monitorPosition">55</property>
  <property name="kdenlive:kextractor">1</property>
 </producer>
 <producer id="producer71" in="00:00:00.000" out="00:00:04.967">
  <property name="length">00:00:05.000</property>
  <property name="eof">pause</property>
  <property name="resource">images/Pictures/2025-11-10_13-11-1762759834.ppm</property>
  <property name="ttl">25</property>
  <property name="aspect_ratio">1</property>
  <property name="meta.media.progressive">1</property>
  <property name="seekable">1</property>
  <property name="format">1</property>
  <property name="meta.media.width">1440</property>
  <property name="meta.media.height">900</property>
  <property name="mlt_service">qimage</property>
  <property name="kdenlive:duration">00:00:05:00</property>
  <property name="xml">was here</property>
  <property name="kdenlive:folderid">-1</property>
  <property name="kdenlive:id">78</property>
  <property name="kdenlive:control_uuid">{80589458-6575-4aea-adbb-ad2c94ec6b76}</property>
  <property name="kdenlive:clip_type">2</property>
  <property name="kdenlive:file_size">3888016</property>
  <property name="kdenlive:file_hash">d00d2bd0dcdc20b0e6132f9821c35bff</property>
  <property name="kdenlive:kextractor">1</property>
  <property name="kdenlive:monitorPosition">0</property>
 </producer>
 <producer id="producer72" in="00:00:00.000" out="00:00:04.967">
  <property name="length">00:00:05.000</property>
  <property name="eof">pause</property>
  <property name="resource">images/Pictures/2025-11-10_13-11-1762760015.ppm</property>
  <property name="ttl">25</property>
  <property name="aspect_ratio">1</property>
  <property name="meta.media.progressive">1</property>
  <property name="seekable">1</property>
  <property name="format">1</property>
  <property name="meta.media.width">1440</property>
  <property name="meta.media.height">900</property>
  <property name="mlt_service">qimage</property>
  <property name="kdenlive:duration">00:00:05:00</property>
  <property name="xml">was here</property>
  <property name="kdenlive:folderid">-1</property>
  <property name="kdenlive:id">79</property>
  <property name="kdenlive:control_uuid">{579ac7a4-e09f-4a38-a886-950feb196348}</property>
  <property name="kdenlive:clip_type">2</property>
  <property name="kdenlive:file_size">3888016</property>
  <property name="kdenlive:file_hash">09f1c89566a7e2bbf00c76e178903caa</property>
  <property name="kdenlive:kextractor">1</property>
  <property name="kdenlive:monitorPosition">0</property>
 </producer>
 <producer id="producer73" in="00:00:00.000" out="00:00:04.967">
  <property name="length">150</property>
  <property name="eof">pause</property>
  <property name="resource"/>
  <property name="meta.media.progressive">1</property>
  <property name="aspect_ratio">1</property>
  <property name="seekable">1</property>
  <property name="mlt_service">kdenlivetitle</property>
  <property name="kdenlive:duration">00:00:05:00</property>
  <property name="kdenlive:clipname">Why modulari...</property>
  <property name="xmldata">&lt;kdenlivetitle LC_NUMERIC="C" duration="150" height="1080" out="149" width="1920">
 &lt;item type="QGraphicsTextItem" z-index="0">
  &lt;position x="693" y="487">
   &lt;transform>1,0,0,0,1,0,0,0,1&lt;/transform>
  &lt;/position>
  &lt;content alignment="1" box-height="90" box-width="521.672" font="Noto Sans" font-color="255,255,255,255" font-italic="0" font-outline="0" font-outline-color="0,0,0,255" font-pixel-size="66" font-underline="0" font-weight="400" letter-spacing="0" shadow="0;#64000000;3;3;3" tab-width="80" typewriter="0;2;1;0;0">Why modularity?&lt;/content>
 &lt;/item>
 &lt;startviewport rect="0,0,1920,1080"/>
 &lt;endviewport rect="0,0,1920,1080"/>
 &lt;background color="0,0,0,57"/>
&lt;/kdenlivetitle>
</property>
  <property name="xml">was here</property>
  <property name="kdenlive:folderid">-1</property>
  <property name="kdenlive:id">80</property>
  <property name="kdenlive:control_uuid">{d751c075-5c8a-4bea-8e6a-80ed63e02f24}</property>
  <property name="kdenlive:clip_type">2</property>
  <property name="kdenlive:uniqueId">{111665bb-101e-4cc0-90d5-18feddb638a7}</property>
  <property name="kdenlive:file_hash">888a23975772a306aaa4221ed13a1549</property>
  <property name="force_reload">0</property>
  <property name="meta.media.width">1920</property>
  <property name="meta.media.height">1080</property>
  <property name="kdenlive:monitorPosition">49</property>
 </producer>
 <producer id="producer74" in="00:00:00.000" out="00:00:07.033">
  <property name="length">212</property>
  <property name="eof">pause</property>
  <property name="resource">images/Pictures/2025-11-10_13-11-1762760219.ppm</property>
  <property name="ttl">25</property>
  <property name="aspect_ratio">1</property>
  <property name="meta.media.progressive">1</property>
  <property name="seekable">1</property>
  <property name="format">1</property>
  <property name="meta.media.width">1440</property>
  <property name="meta.media.height">900</property>
  <property name="mlt_service">qimage</property>
  <property name="kdenlive:duration">00:00:05:00</property>
  <property name="xml">was here</property>
  <property name="kdenlive:folderid">-1</property>
  <property name="kdenlive:id">81</property>
  <property name="kdenlive:control_uuid">{90a17ce3-af7b-44b2-a89b-6e26d71f11a7}</property>
  <property name="kdenlive:clip_type">2</property>
  <property name="kdenlive:file_size">3888016</property>
  <property name="kdenlive:file_hash">ea214ab593ce890be26d5e2ba099cd00</property>
  <property name="kdenlive:kextractor">1</property>
  <property name="kdenlive:monitorPosition">0</property>
 </producer>
 <producer id="producer101" in="00:00:00.000" out="00:00:04.967">
  <property name="length">00:00:05.000</property>
  <property name="eof">pause</property>
  <property name="resource">images/Pictures/2025-11-10_13-11-1762760492.png</property>
  <property name="ttl">25</property>
  <property name="aspect_ratio">1</property>
  <property name="meta.media.progressive">1</property>
  <property name="seekable">1</property>
  <property name="format">2</property>
  <property name="meta.media.width">955</property>
  <property name="meta.media.height">711</property>
  <property name="mlt_service">qimage</property>
  <property name="kdenlive:duration">00:00:05:00</property>
  <property name="xml">was here</property>
  <property name="kdenlive:folderid">-1</property>
  <property name="kdenlive:id">82</property>
  <property name="kdenlive:control_uuid">{a12f1a16-be07-47b4-8afc-77b1d9f43651}</property>
  <property name="kdenlive:clip_type">2</property>
  <property name="kdenlive:file_size">296575</property>
  <property name="kdenlive:file_hash">778b59c1f2babeae335a5154a0e40008</property>
  <property name="kdenlive:kextractor">1</property>
  <property name="kdenlive:monitorPosition">0</property>
 </producer>
 <producer id="producer106" in="00:00:00.000" out="00:00:04.967">
  <property name="length">00:00:05.000</property>
  <property name="eof">pause</property>
  <property name="resource">images/Pictures/2025-11-10_13-11-1762760952.ppm</property>
  <property name="ttl">25</property>
  <property name="aspect_ratio">1</property>
  <property name="meta.media.progressive">1</property>
  <property name="seekable">1</property>
  <property name="format">1</property>
  <property name="meta.media.width">1440</property>
  <property name="meta.media.height">900</property>
  <property name="mlt_service">qimage</property>
  <property name="kdenlive:duration">00:00:05:00</property>
  <property name="xml">was here</property>
  <property name="kdenlive:folderid">-1</property>
  <property name="kdenlive:id">83</property>
  <property name="kdenlive:control_uuid">{17f1772d-d800-4fda-97ed-3aa7c5afad52}</property>
  <property name="kdenlive:clip_type">2</property>
  <property name="kdenlive:file_size">3888016</property>
  <property name="kdenlive:file_hash">3088b3c5983fe6f7ee60fed525495dd9</property>
  <property name="kdenlive:kextractor">1</property>
  <property name="kdenlive:activeeffect">-1</property>
  <property name="kdenlive:monitorPosition">15</property>
 </producer>
 <producer id="producer108" in="00:00:00.000" out="00:00:04.967">
  <property name="length">00:00:05.000</property>
  <property name="eof">pause</property>
  <property name="resource">images/Pictures/2025-11-10_13-11-1762761089.png</property>
  <property name="ttl">25</property>
  <property name="aspect_ratio">1</property>
  <property name="meta.media.progressive">1</property>
  <property name="seekable">1</property>
  <property name="format">2</property>
  <property name="meta.media.width">851</property>
  <property name="meta.media.height">633</property>
  <property name="mlt_service">qimage</property>
  <property name="kdenlive:duration">00:00:05:00</property>
  <property name="xml">was here</property>
  <property name="kdenlive:folderid">-1</property>
  <property name="kdenlive:id">84</property>
  <property name="kdenlive:control_uuid">{52f36da8-a2cb-4179-9fb8-2e94d301052a}</property>
  <property name="kdenlive:clip_type">2</property>
  <property name="kdenlive:file_size">104040</property>
  <property name="kdenlive:file_hash">8af4bf23095ea1d580fbdd373e278bf6</property>
  <property name="kdenlive:kextractor">1</property>
  <property name="kdenlive:monitorPosition">0</property>
 </producer>
 <producer id="producer109" in="00:00:00.000" out="00:00:04.967">
  <property name="length">00:00:05.000</property>
  <property name="eof">pause</property>
  <property name="resource">images/Pictures/2025-11-10_13-11-1762761205.png</property>
  <property name="ttl">25</property>
  <property name="aspect_ratio">1</property>
  <property name="meta.media.progressive">1</property>
  <property name="seekable">1</property>
  <property name="format">2</property>
  <property name="meta.media.width">874</property>
  <property name="meta.media.height">758</property>
  <property name="mlt_service">qimage</property>
  <property name="kdenlive:duration">00:00:05:00</property>
  <property name="xml">was here</property>
  <property name="kdenlive:folderid">-1</property>
  <property name="kdenlive:id">85</property>
  <property name="kdenlive:control_uuid">{5a942a0e-234e-4317-9bb7-bf575b255e9a}</property>
  <property name="kdenlive:clip_type">2</property>
  <property name="kdenlive:file_size">432587</property>
  <property name="kdenlive:file_hash">1207287579fead23e85fa754331800d6</property>
  <property name="kdenlive:kextractor">1</property>
  <property name="kdenlive:monitorPosition">0</property>
 </producer>
 <producer id="producer110" in="00:00:00.000" out="00:00:04.967">
  <property name="length">00:00:05.000</property>
  <property name="eof">pause</property>
  <property name="resource">images/Pictures/2025-11-10_13-11-1762761304.png</property>
  <property name="ttl">25</property>
  <property name="aspect_ratio">1</property>
  <property name="meta.media.progressive">1</property>
  <property name="seekable">1</property>
  <property name="format">2</property>
  <property name="meta.media.width">992</property>
  <property name="meta.media.height">643</property>
  <property name="mlt_service">qimage</property>
  <property name="kdenlive:duration">00:00:05:00</property>
  <property name="xml">was here</property>
  <property name="kdenlive:folderid">-1</property>
  <property name="kdenlive:id">86</property>
  <property name="kdenlive:control_uuid">{45084a3a-66d3-4b0a-bfe5-c38bae581974}</property>
  <property name="kdenlive:clip_type">2</property>
  <property name="kdenlive:file_size">63192</property>
  <property name="kdenlive:file_hash">1b5519146217de17b45f35b661b8adb9</property>
  <property name="kdenlive:monitorPosition">15</property>
  <property name="kdenlive:kextractor">1</property>
 </producer>
 <producer id="producer111" in="00:00:00.000" out="00:00:04.967">
  <property name="length">00:00:05.000</property>
  <property name="eof">pause</property>
  <property name="resource">images/Pictures/2025-11-10_13-11-1762761407.png</property>
  <property name="ttl">25</property>
  <property name="aspect_ratio">1</property>
  <property name="meta.media.progressive">1</property>
  <property name="seekable">1</property>
  <property name="format">2</property>
  <property name="meta.media.width">951</property>
  <property name="meta.media.height">373</property>
  <property name="mlt_service">qimage</property>
  <property name="kdenlive:duration">00:00:05:00</property>
  <property name="xml">was here</property>
  <property name="kdenlive:folderid">-1</property>
  <property name="kdenlive:id">87</property>
  <property name="kdenlive:control_uuid">{8fc0d30c-45f7-4862-b100-05d2396bcf10}</property>
  <property name="kdenlive:clip_type">2</property>
  <property name="kdenlive:file_size">61049</property>
  <property name="kdenlive:file_hash">ff34c625e5297d8b533157c677ed31e5</property>
  <property name="kdenlive:monitorPosition">15</property>
  <property name="kdenlive:kextractor">1</property>
 </producer>
 <producer id="producer112" in="00:00:00.000" out="00:00:04.967">
  <property name="length">00:00:05.000</property>
  <property name="eof">pause</property>
  <property name="resource">images/Pictures/2025-11-10_13-11-1762761559.png</property>
  <property name="ttl">25</property>
  <property name="aspect_ratio">1</property>
  <property name="meta.media.progressive">1</property>
  <property name="seekable">1</property>
  <property name="format">2</property>
  <property name="meta.media.width">948</property>
  <property name="meta.media.height">270</property>
  <property name="mlt_service">qimage</property>
  <property name="kdenlive:duration">00:00:05:00</property>
  <property name="xml">was here</property>
  <property name="kdenlive:folderid">-1</property>
  <property name="kdenlive:id">88</property>
  <property name="kdenlive:control_uuid">{b44ef0ce-fd8e-494c-90c6-5bc784201263}</property>
  <property name="kdenlive:clip_type">2</property>
  <property name="kdenlive:file_size">98018</property>
  <property name="kdenlive:file_hash">9d7cba6bf87251c34801d4d53adc2433</property>
  <property name="kdenlive:monitorPosition">0</property>
  <property name="kdenlive:kextractor">1</property>
 </producer>
 <producer id="producer113" in="00:00:00.000" out="00:00:04.967">
  <property name="length">00:00:05.000</property>
  <property name="eof">pause</property>
  <property name="resource">images/Pictures/2025-11-10_14-11-1762761750.png</property>
  <property name="ttl">25</property>
  <property name="aspect_ratio">1</property>
  <property name="meta.media.progressive">1</property>
  <property name="seekable">1</property>
  <property name="format">2</property>
  <property name="meta.media.width">946</property>
  <property name="meta.media.height">386</property>
  <property name="mlt_service">qimage</property>
  <property name="kdenlive:duration">00:00:05:00</property>
  <property name="xml">was here</property>
  <property name="kdenlive:folderid">-1</property>
  <property name="kdenlive:id">89</property>
  <property name="kdenlive:control_uuid">{cb67235c-5898-48f6-b136-3908621edfae}</property>
  <property name="kdenlive:clip_type">2</property>
  <property name="kdenlive:file_size">79423</property>
  <property name="kdenlive:file_hash">3e76a6659c6e2add9288524def472e8e</property>
  <property name="kdenlive:kextractor">1</property>
  <property name="kdenlive:monitorPosition">0</property>
 </producer>
 <producer id="producer114" in="00:00:00.000" out="00:00:04.967">
  <property name="length">00:00:05.000</property>
  <property name="eof">pause</property>
  <property name="resource">images/Pictures/2025-11-10_14-11-1762761866.png</property>
  <property name="ttl">25</property>
  <property name="aspect_ratio">1</property>
  <property name="meta.media.progressive">1</property>
  <property name="seekable">1</property>
  <property name="format">2</property>
  <property name="meta.media.width">840</property>
  <property name="meta.media.height">174</property>
  <property name="mlt_service">qimage</property>
  <property name="kdenlive:duration">00:00:05:00</property>
  <property name="xml">was here</property>
  <property name="kdenlive:folderid">-1</property>
  <property name="kdenlive:id">90</property>
  <property name="kdenlive:control_uuid">{963d10fd-e017-4b1c-a1c4-93eb179ed26a}</property>
  <property name="kdenlive:clip_type">2</property>
  <property name="kdenlive:file_size">22842</property>
  <property name="kdenlive:file_hash">eb633904a5deba565a5655776cc8b76e</property>
  <property name="kdenlive:kextractor">1</property>
  <property name="kdenlive:monitorPosition">0</property>
 </producer>
 <producer id="producer115" in="00:00:00.000" out="00:00:04.967">
  <property name="length">00:00:05.000</property>
  <property name="eof">pause</property>
  <property name="resource">images/Pictures/2025-11-10_14-11-1762762000.ppm</property>
  <property name="ttl">25</property>
  <property name="aspect_ratio">1</property>
  <property name="meta.media.progressive">1</property>
  <property name="seekable">1</property>
  <property name="format">1</property>
  <property name="meta.media.width">1440</property>
  <property name="meta.media.height">900</property>
  <property name="mlt_service">qimage</property>
  <property name="kdenlive:duration">00:00:05:00</property>
  <property name="xml">was here</property>
  <property name="kdenlive:folderid">-1</property>
  <property name="kdenlive:id">91</property>
  <property name="kdenlive:control_uuid">{ee1f618b-b413-4d1e-9701-d7d4453e8bda}</property>
  <property name="kdenlive:clip_type">2</property>
  <property name="kdenlive:file_size">3888016</property>
  <property name="kdenlive:file_hash">2979747ab6569c4a61336567ef5b9131</property>
  <property name="kdenlive:kextractor">1</property>
  <property name="kdenlive:monitorPosition">0</property>
 </producer>
 <producer id="producer75" in="00:00:00.000" out="00:00:05.300">
  <property name="length">160</property>
  <property name="eof">pause</property>
  <property name="resource">images/Pictures/2025-11-10_14-11-1762762801.ppm</property>
  <property name="ttl">25</property>
  <property name="aspect_ratio">1</property>
  <property name="meta.media.progressive">1</property>
  <property name="seekable">1</property>
  <property name="format">1</property>
  <property name="meta.media.width">1440</property>
  <property name="meta.media.height">900</property>
  <property name="mlt_service">qimage</property>
  <property name="kdenlive:duration">00:00:05:00</property>
  <property name="xml">was here</property>
  <property name="kdenlive:folderid">-1</property>
  <property name="kdenlive:id">92</property>
  <property name="kdenlive:control_uuid">{8d7e849d-3fbd-4ee5-abf5-9e28a5b05fc6}</property>
  <property name="kdenlive:clip_type">2</property>
  <property name="kdenlive:file_size">3888016</property>
  <property name="kdenlive:file_hash">fa25b0dae33ca727467e848f45ecb1c9</property>
  <property name="kdenlive:kextractor">1</property>
  <property name="kdenlive:monitorPosition">0</property>
 </producer>
 <producer id="producer76" in="00:00:00.000" out="00:00:04.967">
  <property name="length">00:00:05.000</property>
  <property name="eof">pause</property>
  <property name="resource">images/208301737-68fb279c-ba70-43ef-a369-8c3e8367d6b1.png</property>
  <property name="ttl">25</property>
  <property name="aspect_ratio">1</property>
  <property name="meta.media.progressive">1</property>
  <property name="seekable">1</property>
  <property name="format">1</property>
  <property name="meta.media.width">1272</property>
  <property name="meta.media.height">754</property>
  <property name="mlt_service">qimage</property>
  <property name="kdenlive:duration">00:00:05:00</property>
  <property name="xml">was here</property>
  <property name="kdenlive:folderid">-1</property>
  <property name="kdenlive:id">93</property>
  <property name="kdenlive:control_uuid">{8512ae16-4f28-457c-b34a-24def80279df}</property>
  <property name="kdenlive:clip_type">2</property>
  <property name="kdenlive:file_size">153063</property>
  <property name="kdenlive:file_hash">345a3198dfde010dd6f9a7583424bfc6</property>
  <property name="kdenlive:kextractor">1</property>
  <property name="kdenlive:monitorPosition">0</property>
 </producer>
 <producer id="producer77" in="00:00:00.000" out="00:00:05.300">
  <property name="length">160</property>
  <property name="eof">pause</property>
  <property name="resource">images/Pictures/2025-11-10_14-11-1762763658.ppm</property>
  <property name="ttl">25</property>
  <property name="aspect_ratio">1</property>
  <property name="meta.media.progressive">1</property>
  <property name="seekable">1</property>
  <property name="format">1</property>
  <property name="meta.media.width">1440</property>
  <property name="meta.media.height">900</property>
  <property name="mlt_service">qimage</property>
  <property name="kdenlive:duration">00:00:05:00</property>
  <property name="xml">was here</property>
  <property name="kdenlive:folderid">-1</property>
  <property name="kdenlive:id">94</property>
  <property name="kdenlive:control_uuid">{d1a90ee1-8a42-4564-8093-5e175e85e8eb}</property>
  <property name="kdenlive:clip_type">2</property>
  <property name="kdenlive:file_size">3888016</property>
  <property name="kdenlive:file_hash">e7cf30b22a6ed3f0d942772c8f8607b0</property>
  <property name="kdenlive:kextractor">1</property>
  <property name="kdenlive:monitorPosition">0</property>
 </producer>
 <producer id="producer78" in="00:00:00.000" out="00:00:04.967">
  <property name="length">00:00:05.000</property>
  <property name="eof">pause</property>
  <property name="resource">images/Pictures/2025-11-10_15-11-1762767623.ppm</property>
  <property name="ttl">25</property>
  <property name="aspect_ratio">1</property>
  <property name="meta.media.progressive">1</property>
  <property name="seekable">1</property>
  <property name="format">1</property>
  <property name="meta.media.width">1440</property>
  <property name="meta.media.height">900</property>
  <property name="mlt_service">qimage</property>
  <property name="kdenlive:duration">00:00:05:00</property>
  <property name="xml">was here</property>
  <property name="kdenlive:folderid">-1</property>
  <property name="kdenlive:id">95</property>
  <property name="kdenlive:control_uuid">{9cbbcfd8-240b-47b3-a8e3-871cdb0aec20}</property>
  <property name="kdenlive:clip_type">2</property>
  <property name="kdenlive:file_size">3888016</property>
  <property name="kdenlive:file_hash">8f7ae77f3ab1fc3eebb99ff3b9d99568</property>
  <property name="kdenlive:kextractor">1</property>
  <property name="kdenlive:monitorPosition">0</property>
 </producer>
 <producer id="producer79" in="00:00:00.000" out="00:00:06.700">
  <property name="length">202</property>
  <property name="eof">pause</property>
  <property name="resource">images/Pictures/2025-11-10_15-11-1762767721.ppm</property>
  <property name="ttl">25</property>
  <property name="aspect_ratio">1</property>
  <property name="meta.media.progressive">1</property>
  <property name="seekable">1</property>
  <property name="format">1</property>
  <property name="meta.media.width">1440</property>
  <property name="meta.media.height">900</property>
  <property name="mlt_service">qimage</property>
  <property name="kdenlive:duration">00:00:05:00</property>
  <property name="xml">was here</property>
  <property name="kdenlive:folderid">-1</property>
  <property name="kdenlive:id">96</property>
  <property name="kdenlive:control_uuid">{3a2b9d9d-c29e-421b-b317-1b51e826ea1e}</property>
  <property name="kdenlive:clip_type">2</property>
  <property name="kdenlive:file_size">3888016</property>
  <property name="kdenlive:file_hash">b55bfefd2e280a0cab7e8fe0e44a47f2</property>
  <property name="kdenlive:kextractor">1</property>
  <property name="kdenlive:monitorPosition">0</property>
 </producer>
 <producer id="producer80" in="00:00:00.000" out="00:00:04.967">
  <property name="length">00:00:05.000</property>
  <property name="eof">pause</property>
  <property name="resource">images/Pictures/2025-11-10_15-11-1762768317.ppm</property>
  <property name="ttl">25</property>
  <property name="aspect_ratio">1</property>
  <property name="meta.media.progressive">1</property>
  <property name="seekable">1</property>
  <property name="format">1</property>
  <property name="meta.media.width">1440</property>
  <property name="meta.media.height">900</property>
  <property name="mlt_service">qimage</property>
  <property name="kdenlive:duration">00:00:05:00</property>
  <property name="xml">was here</property>
  <property name="kdenlive:folderid">-1</property>
  <property name="kdenlive:id">97</property>
  <property name="kdenlive:control_uuid">{60da88da-bc23-45b0-a472-6ab7e28d5617}</property>
  <property name="kdenlive:clip_type">2</property>
  <property name="kdenlive:file_size">3888016</property>
  <property name="kdenlive:file_hash">65c7bd95fbb657a3e91efb9db93bd1aa</property>
  <property name="kdenlive:kextractor">1</property>
  <property name="kdenlive:monitorPosition">0</property>
 </producer>
 <producer id="producer81" in="00:00:00.000" out="00:00:04.967">
  <property name="length">00:00:05.000</property>
  <property name="eof">pause</property>
  <property name="resource">images/Pictures/2025-11-10_15-11-1762768451.ppm</property>
  <property name="ttl">25</property>
  <property name="aspect_ratio">1</property>
  <property name="meta.media.progressive">1</property>
  <property name="seekable">1</property>
  <property name="format">1</property>
  <property name="meta.media.width">1440</property>
  <property name="meta.media.height">900</property>
  <property name="mlt_service">qimage</property>
  <property name="kdenlive:duration">00:00:05:00</property>
  <property name="xml">was here</property>
  <property name="kdenlive:folderid">-1</property>
  <property name="kdenlive:id">98</property>
  <property name="kdenlive:control_uuid">{ffa95ca9-1c54-4240-b610-517576fb9f70}</property>
  <property name="kdenlive:clip_type">2</property>
  <property name="kdenlive:file_size">3888016</property>
  <property name="kdenlive:file_hash">975b2b62fa184157e343eca4c8d7814f</property>
  <property name="kdenlive:kextractor">1</property>
  <property name="kdenlive:monitorPosition">0</property>
 </producer>
 <producer id="producer82" in="00:00:00.000" out="00:00:06.767">
  <property name="length">204</property>
  <property name="eof">pause</property>
  <property name="resource">images/Pictures/2025-11-10_15-11-1762768603.ppm</property>
  <property name="ttl">25</property>
  <property name="aspect_ratio">1</property>
  <property name="meta.media.progressive">1</property>
  <property name="seekable">1</property>
  <property name="format">1</property>
  <property name="meta.media.width">1440</property>
  <property name="meta.media.height">900</property>
  <property name="mlt_service">qimage</property>
  <property name="kdenlive:duration">00:00:05:00</property>
  <property name="xml">was here</property>
  <property name="kdenlive:folderid">-1</property>
  <property name="kdenlive:id">99</property>
  <property name="kdenlive:control_uuid">{e678ba4e-bc5f-46a6-91fe-4d8a53ce23d3}</property>
  <property name="kdenlive:clip_type">2</property>
  <property name="kdenlive:file_size">3888016</property>
  <property name="kdenlive:file_hash">c0a8d7c5514a1d49214ef5852225a42e</property>
  <property name="kdenlive:kextractor">1</property>
  <property name="kdenlive:monitorPosition">0</property>
 </producer>
 <chain id="chain28" out="00:00:01.833">
  <property name="length">56</property>
  <property name="eof">pause</property>
  <property name="resource">images/michael-vsauce.mp4</property>
  <property name="mlt_service">avformat-novalidate</property>
  <property name="meta.media.nb_streams">1</property>
  <property name="meta.media.0.stream.type">video</property>
  <property name="meta.media.0.stream.frame_rate">15</property>
  <property name="meta.media.0.stream.sample_aspect_ratio">0</property>
  <property name="meta.media.0.codec.width">160</property>
  <property name="meta.media.0.codec.height">160</property>
  <property name="meta.media.0.codec.rotate">0</property>
  <property name="meta.media.0.codec.pix_fmt">yuv420p</property>
  <property name="meta.media.0.codec.sample_aspect_ratio">0</property>
  <property name="meta.media.0.codec.colorspace">601</property>
  <property name="meta.media.0.codec.name">h264</property>
  <property name="meta.media.0.codec.long_name">H.264 / AVC / MPEG-4 AVC / MPEG-4 part 10</property>
  <property name="meta.media.0.codec.bit_rate">44108</property>
  <property name="meta.attr.0.stream.handler_name.markup">VideoHandler</property>
  <property name="meta.attr.0.stream.vendor_id.markup">[0][0][0][0]</property>
  <property name="meta.attr.major_brand.markup">isom</property>
  <property name="meta.attr.minor_version.markup">512</property>
  <property name="meta.attr.compatible_brands.markup">isomiso2avc1mp41</property>
  <property name="meta.attr.encoder.markup">Google</property>
  <property name="seekable">1</property>
  <property name="meta.media.sample_aspect_num">1</property>
  <property name="meta.media.sample_aspect_den">1</property>
  <property name="format">3</property>
  <property name="audio_index">-1</property>
  <property name="video_index">0</property>
  <property name="vstream">0</property>
  <property name="meta.media.frame_rate_num">15</property>
  <property name="meta.media.frame_rate_den">1</property>
  <property name="meta.media.colorspace">601</property>
  <property name="meta.media.color_trc">2</property>
  <property name="meta.media.has_b_frames">2</property>
  <property name="meta.media.width">160</property>
  <property name="meta.media.height">160</property>
  <property name="meta.media.aspect_ratio">1</property>
  <property name="meta.media.color_range">mpeg</property>
  <property name="meta.media.top_field_first">0</property>
  <property name="meta.media.progressive">1</property>
  <property name="kdenlive:folderid">-1</property>
  <property name="kdenlive:id">100</property>
  <property name="kdenlive:control_uuid">{46f5887d-55d0-483c-a5e4-cd364fe5d780}</property>
  <property name="mute_on_pause">0</property>
  <property name="kdenlive:clip_type">2</property>
  <property name="kdenlive:file_size">11396</property>
  <property name="kdenlive:file_hash">989d104f762c1152bd080fb904bf3635</property>
  <property name="kdenlive:kextractor">1</property>
  <property name="kdenlive:meta.extractor.Bitrate">48 kb/s</property>
  <property name="kdenlive:monitorPosition">0</property>
 </chain>
 <producer id="producer102" in="00:00:00.000" out="00:00:04.967">
  <property name="length">150</property>
  <property name="eof">pause</property>
  <property name="resource"/>
  <property name="meta.media.progressive">1</property>
  <property name="aspect_ratio">1</property>
  <property name="seekable">1</property>
  <property name="mlt_service">kdenlivetitle</property>
  <property name="kdenlive:duration">00:00:05:00</property>
  <property name="kdenlive:clipname">Or have you?</property>
  <property name="xmldata">&lt;kdenlivetitle LC_NUMERIC="C" duration="150" height="1080" out="149" width="1920">
 &lt;item type="QGraphicsTextItem" z-index="0">
  &lt;position x="764" y="93">
   &lt;transform>1,0,0,0,1,0,0,0,1&lt;/transform>
  &lt;/position>
  &lt;content alignment="1" box-height="90" box-width="404.625" font="Noto Sans" font-color="255,255,255,255" font-italic="0" font-pixel-size="66" font-underline="0" font-weight="400" letter-spacing="0" shadow="1;#64000000;99;3;3" tab-width="80" typewriter="0;2;1;0;0">Or have you?&lt;/content>
 &lt;/item>
 &lt;startviewport rect="0,0,1920,1080"/>
 &lt;endviewport rect="0,0,1920,1080"/>
 &lt;background color="0,0,0,0"/>
&lt;/kdenlivetitle>
</property>
  <property name="xml">was here</property>
  <property name="kdenlive:folderid">-1</property>
  <property name="kdenlive:id">101</property>
  <property name="kdenlive:control_uuid">{287fc0f8-3ccc-4cf0-9138-28710d6a93e1}</property>
  <property name="kdenlive:clip_type">2</property>
  <property name="kdenlive:uniqueId">{398748d7-e754-4bb9-bc8b-bbbae616f5c2}</property>
  <property name="kdenlive:file_hash">a13425e1a5d0a10ec3f1879d20a95dde</property>
  <property name="force_reload">0</property>
  <property name="meta.media.width">1920</property>
  <property name="meta.media.height">1080</property>
  <property name="kdenlive:monitorPosition">0</property>
 </producer>
 <chain id="chain29" out="00:00:02.067">
  <property name="length">63</property>
  <property name="eof">pause</property>
  <property name="resource">images/lets-talk-about-me-selfish.mp4</property>
  <property name="mlt_service">avformat-novalidate</property>
  <property name="meta.media.nb_streams">1</property>
  <property name="meta.media.0.stream.type">video</property>
  <property name="meta.media.0.stream.frame_rate">16.6667</property>
  <property name="meta.media.0.stream.sample_aspect_ratio">0</property>
  <property name="meta.media.0.codec.width">640</property>
  <property name="meta.media.0.codec.height">360</property>
  <property name="meta.media.0.codec.rotate">0</property>
  <property name="meta.media.0.codec.pix_fmt">yuv420p</property>
  <property name="meta.media.0.codec.sample_aspect_ratio">0</property>
  <property name="meta.media.0.codec.colorspace">601</property>
  <property name="meta.media.0.codec.name">h264</property>
  <property name="meta.media.0.codec.long_name">H.264 / AVC / MPEG-4 AVC / MPEG-4 part 10</property>
  <property name="meta.media.0.codec.bit_rate">1210468</property>
  <property name="meta.attr.0.stream.handler_name.markup">VideoHandler</property>
  <property name="meta.attr.0.stream.vendor_id.markup">[0][0][0][0]</property>
  <property name="meta.attr.major_brand.markup">isom</property>
  <property name="meta.attr.minor_version.markup">512</property>
  <property name="meta.attr.compatible_brands.markup">isomiso2avc1mp41</property>
  <property name="meta.attr.encoder.markup">Lavf58.20.100</property>
  <property name="seekable">1</property>
  <property name="meta.media.sample_aspect_num">1</property>
  <property name="meta.media.sample_aspect_den">1</property>
  <property name="format">3</property>
  <property name="audio_index">-1</property>
  <property name="video_index">0</property>
  <property name="vstream">0</property>
  <property name="meta.media.frame_rate_num">50</property>
  <property name="meta.media.frame_rate_den">3</property>
  <property name="meta.media.colorspace">601</property>
  <property name="meta.media.color_trc">2</property>
  <property name="meta.media.has_b_frames">0</property>
  <property name="meta.media.width">640</property>
  <property name="meta.media.height">360</property>
  <property name="meta.media.aspect_ratio">1</property>
  <property name="meta.media.color_range">mpeg</property>
  <property name="meta.media.top_field_first">0</property>
  <property name="meta.media.progressive">1</property>
  <property name="kdenlive:folderid">-1</property>
  <property name="kdenlive:id">102</property>
  <property name="kdenlive:control_uuid">{b2bbf022-5e4b-423b-9668-1a355833588f}</property>
  <property name="mute_on_pause">0</property>
  <property name="kdenlive:clip_type">2</property>
  <property name="kdenlive:file_size">318704</property>
  <property name="kdenlive:file_hash">0363107ecfce1d1deb21d9ac68622744</property>
  <property name="kdenlive:monitorPosition">13</property>
  <property name="kdenlive:kextractor">1</property>
  <property name="kdenlive:meta.extractor.Bitrate">1214 kb/s</property>
 </chain>
 <producer id="producer83" in="00:00:00.000" out="00:01:06.233">
  <property name="length">1988</property>
  <property name="eof">pause</property>
  <property name="resource">images/Pictures/2025-11-10_16-11-1762769874.ppm</property>
  <property name="ttl">25</property>
  <property name="aspect_ratio">1</property>
  <property name="meta.media.progressive">1</property>
  <property name="seekable">1</property>
  <property name="format">1</property>
  <property name="meta.media.width">1440</property>
  <property name="meta.media.height">900</property>
  <property name="mlt_service">qimage</property>
  <property name="kdenlive:duration">00:00:05:00</property>
  <property name="xml">was here</property>
  <property name="kdenlive:folderid">-1</property>
  <property name="kdenlive:id">103</property>
  <property name="kdenlive:control_uuid">{0805c4e1-e09f-44e5-b533-d8775717fd6d}</property>
  <property name="kdenlive:clip_type">2</property>
  <property name="kdenlive:file_size">3888016</property>
  <property name="kdenlive:file_hash">e28cd30eb9709ecdb578aef2b9a4b406</property>
  <property name="kdenlive:kextractor">1</property>
  <property name="kdenlive:monitorPosition">0</property>
 </producer>
 <producer id="producer84" in="00:00:00.000" out="00:00:10.733">
  <property name="length">323</property>
  <property name="eof">pause</property>
  <property name="resource">images/Pictures/2025-11-10_16-11-1762770063.ppm</property>
  <property name="ttl">25</property>
  <property name="aspect_ratio">1</property>
  <property name="meta.media.progressive">1</property>
  <property name="seekable">1</property>
  <property name="format">1</property>
  <property name="meta.media.width">1440</property>
  <property name="meta.media.height">900</property>
  <property name="mlt_service">qimage</property>
  <property name="kdenlive:duration">00:00:05:00</property>
  <property name="xml">was here</property>
  <property name="kdenlive:folderid">-1</property>
  <property name="kdenlive:id">104</property>
  <property name="kdenlive:control_uuid">{13b18249-0bb1-4687-bdc0-3be18d86e751}</property>
  <property name="kdenlive:clip_type">2</property>
  <property name="kdenlive:file_size">3888016</property>
  <property name="kdenlive:file_hash">2a7a8e963e0c105e73e94840329f14d1</property>
  <property name="kdenlive:kextractor">1</property>
  <property name="kdenlive:monitorPosition">0</property>
 </producer>
 <producer id="producer103" in="00:00:00.000" out="00:00:04.967">
  <property name="length">150</property>
  <property name="eof">pause</property>
  <property name="resource"/>
  <property name="meta.media.progressive">1</property>
  <property name="aspect_ratio">1</property>
  <property name="seekable">1</property>
  <property name="mlt_service">kdenlivetitle</property>
  <property name="kdenlive:duration">00:00:05:00</property>
  <property name="kdenlive:clipname">*top of your...</property>
  <property name="xmldata">&lt;kdenlivetitle LC_NUMERIC="C" duration="150" height="1080" out="149" width="1920">
 &lt;item type="QGraphicsTextItem" z-index="0">
  &lt;position x="698" y="494">
   &lt;transform>1,0,0,0,1,0,0,0,1&lt;/transform>
  &lt;/position>
  &lt;content alignment="1" box-height="90" box-width="602.297" font="Noto Sans" font-color="255,255,255,255" font-italic="0" font-outline="0" font-outline-color="0,0,0,255" font-pixel-size="66" font-underline="0" font-weight="400" letter-spacing="0" shadow="0;#64000000;3;3;3" tab-width="80" typewriter="0;2;1;0;0">*top of your lua file&lt;/content>
 &lt;/item>
 &lt;startviewport rect="0,0,1920,1080"/>
 &lt;endviewport rect="0,0,1920,1080"/>
 &lt;background color="0,0,0,108"/>
&lt;/kdenlivetitle>
</property>
  <property name="xml">was here</property>
  <property name="kdenlive:folderid">-1</property>
  <property name="kdenlive:id">105</property>
  <property name="kdenlive:control_uuid">{761be391-7e34-470d-9dcc-c57c08c0a1a1}</property>
  <property name="kdenlive:clip_type">2</property>
  <property name="kdenlive:uniqueId">{c10e6a16-bc24-4dee-8084-8be88c172f35}</property>
  <property name="kdenlive:file_hash">3d98c8720d3d03dfeb4d83a78ae81440</property>
  <property name="force_reload">0</property>
  <property name="meta.media.width">1920</property>
  <property name="meta.media.height">1080</property>
  <property name="kdenlive:monitorPosition">0</property>
 </producer>
 <producer id="producer85" in="00:00:00.000" out="00:00:11.600">
  <property name="length">349</property>
  <property name="eof">pause</property>
  <property name="resource">images/Pictures/2025-11-10_16-11-1762770171.ppm</property>
  <property name="ttl">25</property>
  <property name="aspect_ratio">1</property>
  <property name="meta.media.progressive">1</property>
  <property name="seekable">1</property>
  <property name="format">1</property>
  <property name="meta.media.width">1440</property>
  <property name="meta.media.height">900</property>
  <property name="mlt_service">qimage</property>
  <property name="kdenlive:duration">00:00:05:00</property>
  <property name="xml">was here</property>
  <property name="kdenlive:folderid">-1</property>
  <property name="kdenlive:id">106</property>
  <property name="kdenlive:control_uuid">{df454a7b-4c81-4f90-bc4d-2246fe4a228a}</property>
  <property name="kdenlive:clip_type">2</property>
  <property name="kdenlive:file_size">3888016</property>
  <property name="kdenlive:file_hash">82a1833cd93933e4a31d99aae350e78b</property>
  <property name="kdenlive:kextractor">1</property>
  <property name="kdenlive:monitorPosition">0</property>
 </producer>
 <chain id="chain30" out="00:00:16.400">
  <property name="length">493</property>
  <property name="eof">pause</property>
  <property name="resource">/home/ingenarel/Videos/2025-11-10 16-24-45.mp4</property>
  <property name="mlt_service">avformat-novalidate</property>
  <property name="meta.media.nb_streams">2</property>
  <property name="meta.media.0.stream.type">video</property>
  <property name="meta.media.0.stream.frame_rate">30</property>
  <property name="meta.media.0.stream.sample_aspect_ratio">0</property>
  <property name="meta.media.0.codec.width">1440</property>
  <property name="meta.media.0.codec.height">900</property>
  <property name="meta.media.0.codec.rotate">0</property>
  <property name="meta.media.0.codec.pix_fmt">yuv420p</property>
  <property name="meta.media.0.codec.sample_aspect_ratio">1</property>
  <property name="meta.media.0.codec.colorspace">709</property>
  <property name="meta.media.0.codec.color_trc">1</property>
  <property name="meta.media.0.codec.name">h264</property>
  <property name="meta.media.0.codec.long_name">H.264 / AVC / MPEG-4 AVC / MPEG-4 part 10</property>
  <property name="meta.media.0.codec.bit_rate">318584</property>
  <property name="meta.attr.0.stream.handler_name.markup">VideoHandler</property>
  <property name="meta.attr.0.stream.vendor_id.markup">[0][0][0][0]</property>
  <property name="meta.media.1.stream.type">audio</property>
  <property name="meta.media.1.codec.sample_fmt">fltp</property>
  <property name="meta.media.1.codec.sample_rate">48000</property>
  <property name="meta.media.1.codec.channels">2</property>
  <property name="meta.media.1.codec.layout">stereo</property>
  <property name="meta.media.1.codec.name">aac</property>
  <property name="meta.media.1.codec.long_name">AAC (Advanced Audio Coding)</property>
  <property name="meta.media.1.codec.bit_rate">159999</property>
  <property name="meta.attr.1.stream.handler_name.markup">SoundHandler</property>
  <property name="meta.attr.1.stream.vendor_id.markup">[0][0][0][0]</property>
  <property name="meta.attr.major_brand.markup">isom</property>
  <property name="meta.attr.minor_version.markup">512</property>
  <property name="meta.attr.compatible_brands.markup">isomiso2avc1mp41</property>
  <property name="meta.attr.encoder.markup">Lavf62.3.100</property>
  <property name="seekable">1</property>
  <property name="meta.media.sample_aspect_num">1</property>
  <property name="meta.media.sample_aspect_den">1</property>
  <property name="format">3</property>
  <property name="audio_index">1</property>
  <property name="video_index">0</property>
  <property name="vstream">0</property>
  <property name="meta.media.frame_rate_num">30</property>
  <property name="meta.media.frame_rate_den">1</property>
  <property name="meta.media.colorspace">709</property>
  <property name="meta.media.color_trc">1</property>
  <property name="meta.media.has_b_frames">2</property>
  <property name="meta.media.width">1440</property>
  <property name="meta.media.height">900</property>
  <property name="meta.media.aspect_ratio">1</property>
  <property name="meta.media.color_range">mpeg</property>
  <property name="astream">0</property>
  <property name="meta.media.top_field_first">0</property>
  <property name="meta.media.progressive">1</property>
  <property name="kdenlive:folderid">-1</property>
  <property name="kdenlive:id">107</property>
  <property name="kdenlive:control_uuid">{c32d884d-70a2-4719-aaa6-c607d12e620f}</property>
  <property name="mute_on_pause">0</property>
  <property name="kdenlive:clip_type">0</property>
  <property name="kdenlive:file_size">1002047</property>
  <property name="kdenlive:file_hash">b9a9cbb90da18f1dfabdc58d2178e24d</property>
  <property name="kdenlive:kextractor">1</property>
  <property name="kdenlive:meta.extractor.Bitrate">487 kb/s</property>
  <property name="kdenlive:monitorPosition">0</property>
 </chain>
 <producer id="producer88" in="00:00:00.000" out="00:00:04.967">
  <property name="length">00:00:05.000</property>
  <property name="eof">pause</property>
  <property name="resource">images/duke_cover-3217233041.jpg</property>
  <property name="ttl">25</property>
  <property name="aspect_ratio">1</property>
  <property name="meta.media.progressive">1</property>
  <property name="seekable">1</property>
  <property name="format">1</property>
  <property name="meta.media.width">2500</property>
  <property name="meta.media.height">1668</property>
  <property name="mlt_service">qimage</property>
  <property name="kdenlive:duration">00:00:05:00</property>
  <property name="xml">was here</property>
  <property name="kdenlive:folderid">-1</property>
  <property name="kdenlive:id">108</property>
  <property name="kdenlive:control_uuid">{48e991b0-3131-48d5-b17e-4e59f1705861}</property>
  <property name="kdenlive:clip_type">2</property>
  <property name="kdenlive:file_size">361807</property>
  <property name="kdenlive:file_hash">a2b9d0863dbd43d3c7ad37d8b91302ea</property>
  <property name="kdenlive:kextractor">1</property>
  <property name="kdenlive:monitorPosition">0</property>
 </producer>
 <producer id="producer107" in="00:00:00.000" out="00:00:04.967">
  <property name="length">150</property>
  <property name="eof">pause</property>
  <property name="resource"/>
  <property name="meta.media.progressive">1</property>
  <property name="aspect_ratio">1</property>
  <property name="seekable">1</property>
  <property name="mlt_service">kdenlivetitle</property>
  <property name="kdenlive:duration">00:00:05:00</property>
  <property name="kdenlive:clipname">One small st...</property>
  <property name="xmldata">&lt;kdenlivetitle LC_NUMERIC="C" duration="150" height="1080" out="149" width="1920">
 &lt;item type="QGraphicsTextItem" z-index="0">
  &lt;position x="401" y="694">
   &lt;transform>1,0,0,0,1,0,0,0,1&lt;/transform>
  &lt;/position>
  &lt;content alignment="4" box-height="180" box-width="1176.5" font="Noto Sans" font-color="255,255,255,255" font-italic="0" font-pixel-size="66" font-underline="0" font-weight="400" letter-spacing="0" line-spacing="0" shadow="1;#ff000000;99;3;3" tab-width="80" typewriter="0;2;1;0;0">One small step for you
One giant leap for your neovim config&lt;/content>
 &lt;/item>
 &lt;startviewport rect="0,0,1920,1080"/>
 &lt;endviewport rect="0,0,1920,1080"/>
 &lt;background color="0,0,0,0"/>
&lt;/kdenlivetitle>
</property>
  <property name="xml">was here</property>
  <property name="kdenlive:folderid">-1</property>
  <property name="kdenlive:id">109</property>
  <property name="kdenlive:control_uuid">{e456ef6c-ca2f-4983-842a-1f897a41f39a}</property>
  <property name="kdenlive:clip_type">2</property>
  <property name="kdenlive:uniqueId">{d069bf4f-9455-47a7-a9f1-589eef37804d}</property>
  <property name="kdenlive:file_hash">7b1b9b99b5e4d6e528a4d3685304ed21</property>
  <property name="force_reload">0</property>
  <property name="meta.media.width">1920</property>
  <property name="meta.media.height">1080</property>
  <property name="kdenlive:monitorPosition">84</property>
  <property name="kdenlive:activeeffect">-1</property>
 </producer>
 <producer id="producer89" in="00:00:00.000" out="00:00:04.967">
  <property name="length">00:00:05.000</property>
  <property name="eof">pause</property>
  <property name="resource">images/Pictures/2025-11-10_16-11-1762771607.ppm</property>
  <property name="ttl">25</property>
  <property name="aspect_ratio">1</property>
  <property name="meta.media.progressive">1</property>
  <property name="seekable">1</property>
  <property name="format">1</property>
  <property name="meta.media.width">1440</property>
  <property name="meta.media.height">900</property>
  <property name="mlt_service">qimage</property>
  <property name="kdenlive:duration">00:00:05:00</property>
  <property name="xml">was here</property>
  <property name="kdenlive:folderid">-1</property>
  <property name="kdenlive:id">110</property>
  <property name="kdenlive:control_uuid">{c055e15c-448c-4751-98f0-167fe8e8596b}</property>
  <property name="kdenlive:clip_type">2</property>
  <property name="kdenlive:file_size">3888016</property>
  <property name="kdenlive:file_hash">44878bcb3fabcde928fc41c92e1f38f2</property>
  <property name="kdenlive:monitorPosition">22</property>
  <property name="kdenlive:kextractor">1</property>
 </producer>
 <producer id="producer90" in="00:00:00.000" out="00:00:11.533">
  <property name="length">347</property>
  <property name="eof">pause</property>
  <property name="resource">images/Pictures/2025-11-10_16-11-1762771635.ppm</property>
  <property name="ttl">25</property>
  <property name="aspect_ratio">1</property>
  <property name="meta.media.progressive">1</property>
  <property name="seekable">1</property>
  <property name="format">1</property>
  <property name="meta.media.width">1440</property>
  <property name="meta.media.height">900</property>
  <property name="mlt_service">qimage</property>
  <property name="kdenlive:duration">00:00:05:00</property>
  <property name="xml">was here</property>
  <property name="kdenlive:folderid">-1</property>
  <property name="kdenlive:id">111</property>
  <property name="kdenlive:control_uuid">{0183aa49-cc15-432f-a811-ddbe27041768}</property>
  <property name="kdenlive:clip_type">2</property>
  <property name="kdenlive:file_size">3888016</property>
  <property name="kdenlive:file_hash">e851ba791e028aa13efff1d220e72e61</property>
  <property name="kdenlive:monitorPosition">23</property>
  <property name="kdenlive:kextractor">1</property>
 </producer>
 <producer id="producer91" in="00:00:00.000" out="00:00:08.533">
  <property name="length">257</property>
  <property name="eof">pause</property>
  <property name="resource">images/Pictures/2025-11-10_16-11-1762771694.ppm</property>
  <property name="ttl">25</property>
  <property name="aspect_ratio">1</property>
  <property name="meta.media.progressive">1</property>
  <property name="seekable">1</property>
  <property name="format">1</property>
  <property name="meta.media.width">1440</property>
  <property name="meta.media.height">900</property>
  <property name="mlt_service">qimage</property>
  <property name="kdenlive:duration">00:00:05:00</property>
  <property name="xml">was here</property>
  <property name="kdenlive:folderid">-1</property>
  <property name="kdenlive:id">112</property>
  <property name="kdenlive:control_uuid">{cc225d2b-3022-4649-9b71-509a3e6a0005}</property>
  <property name="kdenlive:clip_type">2</property>
  <property name="kdenlive:file_size">3888016</property>
  <property name="kdenlive:file_hash">d9fbcd341bdc52832bfd5938cf034e87</property>
  <property name="kdenlive:monitorPosition">23</property>
  <property name="kdenlive:kextractor">1</property>
 </producer>
 <chain id="chain31" out="00:00:01.167">
  <property name="length">36</property>
  <property name="eof">pause</property>
  <property name="resource">images/taking-bow-bowing.gif</property>
  <property name="mlt_service">avformat-novalidate</property>
  <property name="meta.media.nb_streams">1</property>
  <property name="meta.media.0.stream.type">video</property>
  <property name="meta.media.0.stream.frame_rate">16.6667</property>
  <property name="meta.media.0.stream.sample_aspect_ratio">0</property>
  <property name="meta.media.0.codec.width">498</property>
  <property name="meta.media.0.codec.height">326</property>
  <property name="meta.media.0.codec.rotate">0</property>
  <property name="meta.media.0.codec.pix_fmt">bgra</property>
  <property name="meta.media.0.codec.sample_aspect_ratio">0</property>
  <property name="meta.media.0.codec.colorspace">601</property>
  <property name="meta.media.0.codec.name">gif</property>
  <property name="meta.media.0.codec.long_name">GIF (Graphics Interchange Format)</property>
  <property name="meta.media.0.codec.bit_rate">0</property>
  <property name="seekable">1</property>
  <property name="meta.media.sample_aspect_num">1</property>
  <property name="meta.media.sample_aspect_den">1</property>
  <property name="format">2</property>
  <property name="audio_index">-1</property>
  <property name="video_index">0</property>
  <property name="vstream">0</property>
  <property name="meta.media.frame_rate_num">50</property>
  <property name="meta.media.frame_rate_den">3</property>
  <property name="meta.media.colorspace">601</property>
  <property name="meta.media.color_trc">2</property>
  <property name="meta.media.has_b_frames">0</property>
  <property name="meta.media.width">498</property>
  <property name="meta.media.height">326</property>
  <property name="meta.media.aspect_ratio">1</property>
  <property name="meta.media.color_range">mpeg</property>
  <property name="meta.media.top_field_first">0</property>
  <property name="meta.media.progressive">1</property>
  <property name="kdenlive:folderid">-1</property>
  <property name="kdenlive:id">113</property>
  <property name="kdenlive:control_uuid">{890eb209-fc1e-4865-bf99-5a392e695e5b}</property>
  <property name="mute_on_pause">0</property>
  <property name="kdenlive:clip_type">2</property>
  <property name="kdenlive:file_size">133317</property>
  <property name="kdenlive:file_hash">85128cea92fc252a8044b1b67802d186</property>
  <property name="kdenlive:kextractor">1</property>
  <property name="kdenlive:monitorPosition">0</property>
 </chain>
 <chain id="chain32" out="00:00:01.767">
  <property name="length">54</property>
  <property name="eof">pause</property>
  <property name="resource">images/seth-meyers-late-night-with-seth-meyers.mp4</property>
  <property name="mlt_service">avformat-novalidate</property>
  <property name="meta.media.nb_streams">1</property>
  <property name="meta.media.0.stream.type">video</property>
  <property name="meta.media.0.stream.frame_rate">10</property>
  <property name="meta.media.0.stream.sample_aspect_ratio">0</property>
  <property name="meta.media.0.codec.width">498</property>
  <property name="meta.media.0.codec.height">498</property>
  <property name="meta.media.0.codec.rotate">0</property>
  <property name="meta.media.0.codec.pix_fmt">yuv420p</property>
  <property name="meta.media.0.codec.sample_aspect_ratio">0</property>
  <property name="meta.media.0.codec.colorspace">601</property>
  <property name="meta.media.0.codec.name">h264</property>
  <property name="meta.media.0.codec.long_name">H.264 / AVC / MPEG-4 AVC / MPEG-4 part 10</property>
  <property name="meta.media.0.codec.bit_rate">662804</property>
  <property name="meta.attr.0.stream.handler_name.markup">VideoHandler</property>
  <property name="meta.attr.0.stream.vendor_id.markup">[0][0][0][0]</property>
  <property name="meta.attr.major_brand.markup">isom</property>
  <property name="meta.attr.minor_version.markup">512</property>
  <property name="meta.attr.compatible_brands.markup">isomiso2avc1mp41</property>
  <property name="meta.attr.encoder.markup">Google</property>
  <property name="seekable">1</property>
  <property name="meta.media.sample_aspect_num">1</property>
  <property name="meta.media.sample_aspect_den">1</property>
  <property name="format">3</property>
  <property name="audio_index">-1</property>
  <property name="video_index">0</property>
  <property name="vstream">0</property>
  <property name="meta.media.frame_rate_num">10</property>
  <property name="meta.media.frame_rate_den">1</property>
  <property name="meta.media.colorspace">601</property>
  <property name="meta.media.color_trc">2</property>
  <property name="meta.media.has_b_frames">2</property>
  <property name="meta.media.width">498</property>
  <property name="meta.media.height">498</property>
  <property name="meta.media.aspect_ratio">1</property>
  <property name="meta.media.color_range">mpeg</property>
  <property name="meta.media.top_field_first">0</property>
  <property name="meta.media.progressive">1</property>
  <property name="kdenlive:folderid">-1</property>
  <property name="kdenlive:id">114</property>
  <property name="kdenlive:control_uuid">{ed474896-9dae-4b72-acc6-87cc17ae5330}</property>
  <property name="mute_on_pause">0</property>
  <property name="kdenlive:clip_type">2</property>
  <property name="kdenlive:file_size">150174</property>
  <property name="kdenlive:file_hash">5e5e0eb611e5f8902ca3d95899628215</property>
  <property name="kdenlive:kextractor">1</property>
  <property name="kdenlive:meta.extractor.Bitrate">667 kb/s</property>
  <property name="kdenlive:monitorPosition">0</property>
 </chain>
 <chain id="chain33" out="00:00:04.200">
  <property name="length">127</property>
  <property name="eof">pause</property>
  <property name="resource">images/brain-brain-meme.mp4</property>
  <property name="mlt_service">avformat-novalidate</property>
  <property name="meta.media.nb_streams">1</property>
  <property name="meta.media.0.stream.type">video</property>
  <property name="meta.media.0.stream.frame_rate">30</property>
  <property name="meta.media.0.stream.sample_aspect_ratio">0</property>
  <property name="meta.media.0.codec.width">268</property>
  <property name="meta.media.0.codec.height">200</property>
  <property name="meta.media.0.codec.rotate">0</property>
  <property name="meta.media.0.codec.pix_fmt">yuv420p</property>
  <property name="meta.media.0.codec.sample_aspect_ratio">0</property>
  <property name="meta.media.0.codec.colorspace">601</property>
  <property name="meta.media.0.codec.name">h264</property>
  <property name="meta.media.0.codec.long_name">H.264 / AVC / MPEG-4 AVC / MPEG-4 part 10</property>
  <property name="meta.media.0.codec.bit_rate">445768</property>
  <property name="meta.attr.0.stream.handler_name.markup">VideoHandler</property>
  <property name="meta.attr.0.stream.vendor_id.markup">[0][0][0][0]</property>
  <property name="meta.attr.major_brand.markup">isom</property>
  <property name="meta.attr.minor_version.markup">512</property>
  <property name="meta.attr.compatible_brands.markup">isomiso2avc1mp41</property>
  <property name="meta.attr.encoder.markup">Google</property>
  <property name="seekable">1</property>
  <property name="meta.media.sample_aspect_num">1</property>
  <property name="meta.media.sample_aspect_den">1</property>
  <property name="format">3</property>
  <property name="audio_index">-1</property>
  <property name="video_index">0</property>
  <property name="vstream">0</property>
  <property name="meta.media.frame_rate_num">30</property>
  <property name="meta.media.frame_rate_den">1</property>
  <property name="meta.media.colorspace">601</property>
  <property name="meta.media.color_trc">2</property>
  <property name="meta.media.has_b_frames">2</property>
  <property name="meta.media.width">268</property>
  <property name="meta.media.height">200</property>
  <property name="meta.media.aspect_ratio">1</property>
  <property name="meta.media.color_range">mpeg</property>
  <property name="meta.media.top_field_first">0</property>
  <property name="meta.media.progressive">1</property>
  <property name="kdenlive:folderid">-1</property>
  <property name="kdenlive:id">115</property>
  <property name="kdenlive:control_uuid">{a01c2afb-4bfe-48cd-ad44-bdf0808abf38}</property>
  <property name="mute_on_pause">0</property>
  <property name="kdenlive:clip_type">2</property>
  <property name="kdenlive:file_size">238220</property>
  <property name="kdenlive:file_hash">c0bf9c4c2b1ed51ff591065794b2d82d</property>
  <property name="kdenlive:kextractor">1</property>
  <property name="kdenlive:meta.extractor.Bitrate">450 kb/s</property>
  <property name="kdenlive:monitorPosition">0</property>
 </chain>
 <producer id="producer93" in="00:00:00.000" out="00:00:04.967">
  <property name="length">150</property>
  <property name="eof">pause</property>
  <property name="resource"/>
  <property name="meta.media.progressive">1</property>
  <property name="aspect_ratio">1</property>
  <property name="seekable">1</property>
  <property name="mlt_service">kdenlivetitle</property>
  <property name="kdenlive:duration">00:00:05:00</property>
  <property name="kdenlive:clipname">Thanks a lot...</property>
  <property name="xmldata">&lt;kdenlivetitle LC_NUMERIC="C" duration="150" height="1080" out="149" width="1920">
 &lt;item type="QGraphicsTextItem" z-index="0">
  &lt;position x="337" y="406">
   &lt;transform>1,0,0,0,1,0,0,0,1&lt;/transform>
  &lt;/position>
  &lt;content alignment="4" box-height="270" box-width="1300.44" font="Noto Sans" font-color="255,255,255,255" font-italic="0" font-outline="0" font-outline-color="0,0,0,255" font-pixel-size="66" font-underline="0" font-weight="400" letter-spacing="0" line-spacing="0" shadow="0;#64000000;3;3;3" tab-width="80" typewriter="0;2;1;0;0">Thanks a lot to my friend Koolkid6958
for being there for me always and helping
me in a lot of different ways&lt;/content>
 &lt;/item>
 &lt;startviewport rect="0,0,1920,1080"/>
 &lt;endviewport rect="0,0,1920,1080"/>
 &lt;background color="0,0,0,0"/>
&lt;/kdenlivetitle>
</property>
  <property name="xml">was here</property>
  <property name="kdenlive:folderid">-1</property>
  <property name="kdenlive:id">116</property>
  <property name="kdenlive:control_uuid">{631bf876-c089-440e-82a7-8113421952bd}</property>
  <property name="kdenlive:clip_type">2</property>
  <property name="kdenlive:uniqueId">{97418e57-75b5-4cac-a0a9-ea7d2e5aa426}</property>
  <property name="kdenlive:file_hash">0dcb55a5e8eae37ac291f5a045cb7898</property>
  <property name="force_reload">0</property>
  <property name="meta.media.width">1920</property>
  <property name="meta.media.height">1080</property>
  <property name="kdenlive:monitorPosition">0</property>
 </producer>
 <producer id="producer94" in="00:00:00.000" out="00:00:04.967">
  <property name="length">150</property>
  <property name="eof">pause</property>
  <property name="resource"/>
  <property name="meta.media.progressive">1</property>
  <property name="aspect_ratio">1</property>
  <property name="seekable">1</property>
  <property name="mlt_service">kdenlivetitle</property>
  <property name="kdenlive:duration">00:00:05:00</property>
  <property name="kdenlive:clipname">They were th...</property>
  <property name="xmldata">&lt;kdenlivetitle LC_NUMERIC="C" duration="150" height="1080" out="149" width="1920">
 &lt;item type="QGraphicsTextItem" z-index="0">
  &lt;position x="284" y="454">
   &lt;transform>1,0,0,0,1,0,0,0,1&lt;/transform>
  &lt;/position>
  &lt;content alignment="4" box-height="180" box-width="1373.45" font="Noto Sans" font-color="255,255,255,255" font-italic="0" font-outline="0" font-outline-color="0,0,0,255" font-pixel-size="66" font-underline="0" font-weight="400" letter-spacing="0" line-spacing="0" shadow="0;#64000000;3;3;3" tab-width="80" typewriter="0;2;1;0;0">They were the first one to join my patreon
so that they could help me with my situation&lt;/content>
 &lt;/item>
 &lt;startviewport rect="0,0,1920,1080"/>
 &lt;endviewport rect="0,0,1920,1080"/>
 &lt;background color="0,0,0,0"/>
&lt;/kdenlivetitle>
</property>
  <property name="xml">was here</property>
  <property name="kdenlive:folderid">-1</property>
  <property name="kdenlive:id">117</property>
  <property name="kdenlive:control_uuid">{7b916c89-0647-465d-a808-af13fe5893a4}</property>
  <property name="kdenlive:clip_type">2</property>
  <property name="kdenlive:uniqueId">{1d683252-bc04-4a65-8853-619d62c73ea3}</property>
  <property name="kdenlive:file_hash">956cfef1cda23eb611b1427a52417c12</property>
  <property name="force_reload">0</property>
  <property name="meta.media.width">1920</property>
  <property name="meta.media.height">1080</property>
  <property name="kdenlive:monitorPosition">0</property>
 </producer>
 <producer id="producer95" in="00:00:00.000" out="00:00:04.967">
  <property name="length">00:00:05.000</property>
  <property name="eof">pause</property>
  <property name="resource">images/Pictures/2025-11-10_16-11-1762772352.ppm</property>
  <property name="ttl">25</property>
  <property name="aspect_ratio">1</property>
  <property name="meta.media.progressive">1</property>
  <property name="seekable">1</property>
  <property name="format">1</property>
  <property name="meta.media.width">1440</property>
  <property name="meta.media.height">900</property>
  <property name="mlt_service">qimage</property>
  <property name="kdenlive:duration">00:00:05:00</property>
  <property name="xml">was here</property>
  <property name="kdenlive:folderid">-1</property>
  <property name="kdenlive:id">118</property>
  <property name="kdenlive:control_uuid">{cde94427-6572-4ef2-8490-a114878d2367}</property>
  <property name="kdenlive:clip_type">2</property>
  <property name="kdenlive:file_size">3888016</property>
  <property name="kdenlive:file_hash">8c9f8f9eb98ff8e16ebd17203e91cd0f</property>
  <property name="kdenlive:kextractor">1</property>
  <property name="kdenlive:monitorPosition">0</property>
 </producer>
 <producer id="producer104" in="00:00:00.000" out="00:00:04.967">
  <property name="length">150</property>
  <property name="eof">pause</property>
  <property name="resource"/>
  <property name="meta.media.progressive">1</property>
  <property name="aspect_ratio">1</property>
  <property name="seekable">1</property>
  <property name="mlt_service">kdenlivetitle</property>
  <property name="kdenlive:duration">00:00:05:00</property>
  <property name="kdenlive:clipname">https://www....</property>
  <property name="xmldata">&lt;kdenlivetitle LC_NUMERIC="C" duration="150" height="1080" out="149" width="1920">
 &lt;item type="QGraphicsTextItem" z-index="0">
  &lt;position x="1080" y="248">
   &lt;transform>1,0,0,0,1,0,0,0,1&lt;/transform>
  &lt;/position>
  &lt;content alignment="4" box-height="316" box-width="654.688" font="Noto Sans" font-color="255,255,255,255" font-italic="0" font-pixel-size="58" font-underline="0" font-weight="400" letter-spacing="0" line-spacing="0" shadow="0;#64000000;3;3;3" tab-width="80" typewriter="0;2;1;0;0">Sub to their channel too
they make good
beatsaber videos and 
3d renders with blender&lt;/content>
 &lt;/item>
 &lt;startviewport rect="0,0,1920,1080"/>
 &lt;endviewport rect="0,0,1920,1080"/>
 &lt;background color="0,0,0,0"/>
&lt;/kdenlivetitle>
</property>
  <property name="xml">was here</property>
  <property name="kdenlive:folderid">-1</property>
  <property name="kdenlive:id">119</property>
  <property name="kdenlive:control_uuid">{71e90e61-56b0-4a06-9974-1da75315ed51}</property>
  <property name="kdenlive:clip_type">2</property>
  <property name="kdenlive:uniqueId">{27ee57d2-863e-40e0-a68b-8bb731f56ce4}</property>
  <property name="kdenlive:file_hash">4b3824eea4b183cc2ef5cac880662449</property>
  <property name="force_reload">0</property>
  <property name="meta.media.width">1920</property>
  <property name="meta.media.height">1080</property>
  <property name="kdenlive:monitorPosition">56</property>
 </producer>
 <producer id="producer97" in="00:00:00.000" out="00:00:04.967">
  <property name="length">00:00:05.000</property>
  <property name="eof">pause</property>
  <property name="resource">images/Pictures/2025-11-10_17-11-1762772617.ppm</property>
  <property name="ttl">25</property>
  <property name="aspect_ratio">1</property>
  <property name="meta.media.progressive">1</property>
  <property name="seekable">1</property>
  <property name="format">1</property>
  <property name="meta.media.width">1440</property>
  <property name="meta.media.height">900</property>
  <property name="mlt_service">qimage</property>
  <property name="kdenlive:duration">00:00:05:00</property>
  <property name="xml">was here</property>
  <property name="kdenlive:folderid">-1</property>
  <property name="kdenlive:id">120</property>
  <property name="kdenlive:control_uuid">{ef1f1beb-9db6-478e-94dc-67f30d566045}</property>
  <property name="kdenlive:clip_type">2</property>
  <property name="kdenlive:file_size">3888016</property>
  <property name="kdenlive:file_hash">bc53071fac00861c901e9e6704d0927f</property>
  <property name="kdenlive:kextractor">1</property>
  <property name="kdenlive:monitorPosition">0</property>
 </producer>
 <producer id="producer96" in="00:00:00.000" out="00:00:04.967">
  <property name="length">150</property>
  <property name="eof">pause</property>
  <property name="resource"/>
  <property name="meta.media.progressive">1</property>
  <property name="aspect_ratio">1</property>
  <property name="seekable">1</property>
  <property name="mlt_service">kdenlivetitle</property>
  <property name="kdenlive:duration">00:00:05:00</property>
  <property name="kdenlive:clipname">The motherfu...</property>
  <property name="xmldata">&lt;kdenlivetitle LC_NUMERIC="C" duration="150" height="1080" out="149" width="1920">
 &lt;item type="QGraphicsTextItem" z-index="0">
  &lt;position x="566" y="443">
   &lt;transform>1,0,0,0,1,0,0,0,1&lt;/transform>
  &lt;/position>
  &lt;content alignment="4" box-height="237" box-width="879.672" font="Noto Sans" font-color="255,255,255,255" font-italic="0" font-outline="0" font-outline-color="0,0,0,255" font-pixel-size="58" font-underline="0" font-weight="400" letter-spacing="0" line-spacing="0" shadow="0;#64000000;3;3;3" tab-width="80" typewriter="0;2;1;0;0">The motherfucking legend
Vimjoyer also reached out to me
and is also a sub to my patreon&lt;/content>
 &lt;/item>
 &lt;startviewport rect="0,0,1920,1080"/>
 &lt;endviewport rect="0,0,1920,1080"/>
 &lt;background color="0,0,0,0"/>
&lt;/kdenlivetitle>
</property>
  <property name="xml">was here</property>
  <property name="kdenlive:folderid">-1</property>
  <property name="kdenlive:id">121</property>
  <property name="kdenlive:control_uuid">{f79a47cd-453b-42ae-94dd-769cd2f171d4}</property>
  <property name="kdenlive:clip_type">2</property>
  <property name="kdenlive:uniqueId">{b3b5ecd0-7b29-4fdf-807f-1658776b54bf}</property>
  <property name="kdenlive:file_hash">1df5356d706a2192e7d085aca2b7288c</property>
  <property name="force_reload">0</property>
  <property name="meta.media.width">1920</property>
  <property name="meta.media.height">1080</property>
  <property name="kdenlive:monitorPosition">0</property>
 </producer>
 <producer id="producer105" in="00:00:00.000" out="00:00:04.967">
  <property name="length">150</property>
  <property name="eof">pause</property>
  <property name="resource"/>
  <property name="meta.media.progressive">1</property>
  <property name="aspect_ratio">1</property>
  <property name="seekable">1</property>
  <property name="mlt_service">kdenlivetitle</property>
  <property name="kdenlive:duration">00:00:05:00</property>
  <property name="kdenlive:clipname">SUBSCRIBE TO...</property>
  <property name="xmldata">&lt;kdenlivetitle LC_NUMERIC="C" duration="150" height="1080" out="149" width="1920">
 &lt;item type="QGraphicsTextItem" z-index="0">
  &lt;position x="1296" y="858">
   &lt;transform>1,0,0,0,1,0,0,0,1&lt;/transform>
  &lt;/position>
  &lt;content alignment="4" box-height="158" box-width="397.469" font="Noto Sans" font-color="255,255,255,255" font-italic="0" font-pixel-size="58" font-underline="0" font-weight="400" letter-spacing="0" line-spacing="0" shadow="0;#64000000;3;3;3" tab-width="80" typewriter="0;2;1;0;0">SUBSCRIBE TO
THE LEGEND&lt;/content>
 &lt;/item>
 &lt;startviewport rect="0,0,1920,1080"/>
 &lt;endviewport rect="0,0,1920,1080"/>
 &lt;background color="0,0,0,0"/>
&lt;/kdenlivetitle>
</property>
  <property name="xml">was here</property>
  <property name="kdenlive:folderid">-1</property>
  <property name="kdenlive:id">122</property>
  <property name="kdenlive:control_uuid">{42fcf6dd-e869-4028-b4e2-2d463886937d}</property>
  <property name="kdenlive:clip_type">2</property>
  <property name="kdenlive:uniqueId">{45eb6a61-3431-44ca-a21c-5f2fae40cd1b}</property>
  <property name="kdenlive:file_hash">f824c3c5109954a0cab2cebcd358cf5e</property>
  <property name="force_reload">0</property>
  <property name="meta.media.width">1920</property>
  <property name="meta.media.height">1080</property>
  <property name="kdenlive:monitorPosition">0</property>
 </producer>
 <producer id="producer98" in="00:00:00.000" out="00:00:44.733">
  <property name="length">1343</property>
  <property name="eof">pause</property>
  <property name="resource"/>
  <property name="meta.media.progressive">1</property>
  <property name="aspect_ratio">1</property>
  <property name="seekable">1</property>
  <property name="mlt_service">kdenlivetitle</property>
  <property name="kdenlive:duration">00:00:05:00</property>
  <property name="kdenlive:clipname">Thanks to my...</property>
  <property name="xmldata">&lt;kdenlivetitle LC_NUMERIC="C" duration="150" height="1080" out="149" width="1920">
 &lt;item type="QGraphicsTextItem" z-index="0">
  &lt;position x="660" y="366">
   &lt;transform>1,0,0,0,1,0,0,0,1&lt;/transform>
  &lt;/position>
  &lt;content alignment="4" box-height="316" box-width="639.109" font="Noto Sans" font-color="255,255,255,255" font-italic="0" font-outline="0" font-outline-color="0,0,0,255" font-pixel-size="58" font-underline="0" font-weight="400" letter-spacing="0" line-spacing="0" shadow="0;#64000000;3;3;3" tab-width="80" typewriter="0;2;1;0;0">Thanks to my patreons:
Auritro Khan
Az BT (Koolkid)
Vimjoyer&lt;/content>
 &lt;/item>
 &lt;startviewport rect="0,0,1920,1080"/>
 &lt;endviewport rect="0,0,1920,1080"/>
 &lt;background color="0,0,0,0"/>
&lt;/kdenlivetitle>
</property>
  <property name="xml">was here</property>
  <property name="kdenlive:folderid">-1</property>
  <property name="kdenlive:id">123</property>
  <property name="kdenlive:control_uuid">{cad1012d-3a2c-4c99-abd2-e52700caa640}</property>
  <property name="kdenlive:clip_type">2</property>
  <property name="kdenlive:uniqueId">{b6c5e73a-0c73-4413-a900-ee2f46d25679}</property>
  <property name="kdenlive:file_hash">da7a6de3a3ddd985f9d8cc9dddb5c1f6</property>
  <property name="force_reload">0</property>
  <property name="meta.media.width">1920</property>
  <property name="meta.media.height">1080</property>
  <property name="kdenlive:monitorPosition">0</property>
 </producer>
 <producer id="producer100" in="00:00:00.000" out="00:00:13.233">
  <property name="length">398</property>
  <property name="eof">pause</property>
  <property name="resource">images/Pictures/2025-11-10_17-11-1762773161.ppm</property>
  <property name="ttl">25</property>
  <property name="aspect_ratio">1</property>
  <property name="meta.media.progressive">1</property>
  <property name="seekable">1</property>
  <property name="format">1</property>
  <property name="meta.media.width">1440</property>
  <property name="meta.media.height">900</property>
  <property name="mlt_service">qimage</property>
  <property name="kdenlive:duration">00:00:05:00</property>
  <property name="xml">was here</property>
  <property name="kdenlive:folderid">-1</property>
  <property name="kdenlive:id">124</property>
  <property name="kdenlive:control_uuid">{742d6dac-aca0-4ddd-9182-70228cfe397c}</property>
  <property name="kdenlive:clip_type">2</property>
  <property name="kdenlive:file_size">3888016</property>
  <property name="kdenlive:file_hash">f431d77aa7603630492a78ce0e34e11c</property>
  <property name="kdenlive:kextractor">1</property>
  <property name="kdenlive:monitorPosition">0</property>
 </producer>
 <producer id="producer99" in="00:00:00.000" out="00:00:04.967">
  <property name="length">150</property>
  <property name="eof">pause</property>
  <property name="resource"/>
  <property name="meta.media.progressive">1</property>
  <property name="aspect_ratio">1</property>
  <property name="seekable">1</property>
  <property name="mlt_service">kdenlivetitle</property>
  <property name="kdenlive:duration">00:00:05:00</property>
  <property name="kdenlive:clipname">You can also...</property>
  <property name="xmldata">&lt;kdenlivetitle LC_NUMERIC="C" duration="150" height="1080" out="149" width="1920">
 &lt;item type="QGraphicsTextItem" z-index="0">
  &lt;position x="356" y="354">
   &lt;transform>1,0,0,0,1,0,0,0,1&lt;/transform>
  &lt;/position>
  &lt;content alignment="4" box-height="395" box-width="1138.78" font="Noto Sans" font-color="255,255,255,255" font-italic="0" font-pixel-size="58" font-underline="0" font-weight="400" letter-spacing="0" line-spacing="0" shadow="0;#64000000;3;3;3" tab-width="80" typewriter="0;2;1;0;0">You can also like this video
and subscribe so it helps with the algo
sharing my tutorials with other vimmers
 would also help them out in their journey
and mine&lt;/content>
 &lt;/item>
 &lt;startviewport rect="0,0,1920,1080"/>
 &lt;endviewport rect="0,0,1920,1080"/>
 &lt;background color="0,0,0,0"/>
&lt;/kdenlivetitle>
</property>
  <property name="xml">was here</property>
  <property name="kdenlive:folderid">-1</property>
  <property name="kdenlive:id">125</property>
  <property name="kdenlive:control_uuid">{ad84bf95-624a-4fc4-bee4-130c03d3cd22}</property>
  <property name="kdenlive:clip_type">2</property>
  <property name="kdenlive:uniqueId">{f1ccdbbb-aa27-47f4-9d92-a30799b0713e}</property>
  <property name="kdenlive:file_hash">6947fe6dcea50f81328c8b7f30cb8467</property>
  <property name="force_reload">0</property>
  <property name="meta.media.width">1920</property>
  <property name="meta.media.height">1080</property>
 </producer>
 <producer id="producer36" in="00:00:00.000" out="00:00:04.967">
  <property name="length">00:00:05.000</property>
  <property name="eof">pause</property>
  <property name="resource">images/Pictures/2025-11-10_22-11-1762793955.png</property>
  <property name="ttl">25</property>
  <property name="aspect_ratio">1</property>
  <property name="meta.media.progressive">1</property>
  <property name="seekable">1</property>
  <property name="format">2</property>
  <property name="meta.media.width">601</property>
  <property name="meta.media.height">439</property>
  <property name="mlt_service">qimage</property>
  <property name="kdenlive:duration">00:00:05:00</property>
  <property name="xml">was here</property>
  <property name="kdenlive:folderid">-1</property>
  <property name="kdenlive:id">126</property>
  <property name="kdenlive:control_uuid">{73b61aac-e018-4891-bb3a-5407ed7f93c5}</property>
  <property name="kdenlive:clip_type">2</property>
  <property name="kdenlive:file_size">78052</property>
  <property name="kdenlive:file_hash">89a714845413a9d3e4486922a60eaab4</property>
  <property name="kdenlive:kextractor">1</property>
  <property name="kdenlive:monitorPosition">0</property>
 </producer>
 <producer id="producer50" in="00:00:00.000" out="00:00:06.967">
  <property name="length">210</property>
  <property name="eof">pause</property>
  <property name="resource">images/Pictures/2025-11-10_23-11-1762794125.ppm</property>
  <property name="ttl">25</property>
  <property name="aspect_ratio">1</property>
  <property name="meta.media.progressive">1</property>
  <property name="seekable">1</property>
  <property name="format">1</property>
  <property name="meta.media.width">1440</property>
  <property name="meta.media.height">900</property>
  <property name="mlt_service">qimage</property>
  <property name="kdenlive:duration">00:00:05:00</property>
  <property name="xml">was here</property>
  <property name="kdenlive:folderid">-1</property>
  <property name="kdenlive:id">127</property>
  <property name="kdenlive:control_uuid">{3e8c7f95-67cf-444c-b72f-b9a2477410f4}</property>
  <property name="kdenlive:clip_type">2</property>
  <property name="kdenlive:file_size">3888016</property>
  <property name="kdenlive:file_hash">aa60cd5c08fd282dd157ab3f5179ee57</property>
  <property name="kdenlive:kextractor">1</property>
  <property name="kdenlive:monitorPosition">0</property>
 </producer>
 <producer id="producer116" in="00:00:00.000" out="00:00:09.067">
  <property name="length">273</property>
  <property name="eof">pause</property>
  <property name="resource"/>
  <property name="meta.media.progressive">1</property>
  <property name="aspect_ratio">1</property>
  <property name="seekable">1</property>
  <property name="mlt_service">kdenlivetitle</property>
  <property name="kdenlive:duration">00:00:05:00</property>
  <property name="kdenlive:clipname">If you also ...</property>
  <property name="xmldata">&lt;kdenlivetitle LC_NUMERIC="C" duration="150" height="1080" out="149" width="1920">
 &lt;item type="QGraphicsTextItem" z-index="0">
  &lt;position x="179" y="321">
   &lt;transform>1,0,0,0,1,0,0,0,1&lt;/transform>
  &lt;/position>
  &lt;content alignment="4" box-height="395" box-width="1545.72" font="Noto Sans" font-color="255,255,255,255" font-italic="0" font-outline="0" font-outline-color="0,0,0,255" font-pixel-size="58" font-underline="0" font-weight="400" letter-spacing="0" line-spacing="0" shadow="0;#64000000;3;3;3" tab-width="80" typewriter="0;2;1;0;0">If you also have work that i can do for you and/or other
people related to linux and/or shell scripting/automation
 please lemme know.
Everyone wants degrees where i live and it's nearly
impossible for me to find a job as a high school dropout &lt;/content>
 &lt;/item>
 &lt;startviewport rect="0,0,1920,1080"/>
 &lt;endviewport rect="0,0,1920,1080"/>
 &lt;background color="0,0,0,0"/>
&lt;/kdenlivetitle>
</property>
  <property name="xml">was here</property>
  <property name="kdenlive:folderid">-1</property>
  <property name="kdenlive:id">128</property>
  <property name="kdenlive:control_uuid">{e174402d-3915-4f6f-b96d-7f8f777533fe}</property>
  <property name="kdenlive:clip_type">2</property>
  <property name="kdenlive:uniqueId">{3b48c6f2-2eb7-4170-9d54-1b6f9e127719}</property>
  <property name="kdenlive:file_hash">3cc72b1433aa4a7ad21c8a94dfb21442</property>
  <property name="force_reload">0</property>
  <property name="meta.media.width">1920</property>
  <property name="meta.media.height">1080</property>
  <property name="kdenlive:monitorPosition">0</property>
 </producer>
 <producer id="producer117" in="00:00:00.000" out="00:00:04.967">
  <property name="length">150</property>
  <property name="eof">pause</property>
  <property name="resource"/>
  <property name="meta.media.progressive">1</property>
  <property name="aspect_ratio">1</property>
  <property name="seekable">1</property>
  <property name="mlt_service">kdenlivetitle</property>
  <property name="kdenlive:duration">00:00:05:00</property>
  <property name="kdenlive:clipname">I'm kinda pr...</property>
  <property name="xmldata">&lt;kdenlivetitle LC_NUMERIC="C" duration="150" height="1080" out="149" width="1920">
 &lt;item type="QGraphicsTextItem" z-index="0">
  &lt;position x="148" y="281">
   &lt;transform>1,0,0,0,1,0,0,0,1&lt;/transform>
  &lt;/position>
  &lt;content alignment="4" box-height="395" box-width="1642.81" font="Noto Sans" font-color="255,255,255,255" font-italic="0" font-outline="0" font-outline-color="0,0,0,255" font-pixel-size="58" font-underline="0" font-weight="400" letter-spacing="0" line-spacing="0" shadow="0;#64000000;3;3;3" tab-width="80" typewriter="0;2;1;0;0">I'm kinda proud how this video turned up
I worked my ass off for this
and i hope the production quality was much
better than the previous vids
If you think so too, don't hesitate to tell me in the comments&lt;/content>
 &lt;/item>
 &lt;startviewport rect="0,0,1920,1080"/>
 &lt;endviewport rect="0,0,1920,1080"/>
 &lt;background color="0,0,0,0"/>
&lt;/kdenlivetitle>
</property>
  <property name="xml">was here</property>
  <property name="kdenlive:folderid">-1</property>
  <property name="kdenlive:id">129</property>
  <property name="kdenlive:control_uuid">{2a9b135f-1638-41fc-99b9-bfcd44f02fa0}</property>
  <property name="kdenlive:clip_type">2</property>
  <property name="kdenlive:uniqueId">{7f8d7040-240f-4f4b-8cdf-e43dad2e0795}</property>
  <property name="kdenlive:file_hash">58f4c319dc27ab3d114cc672facebb44</property>
  <property name="force_reload">0</property>
  <property name="meta.media.width">1920</property>
  <property name="meta.media.height">1080</property>
  <property name="kdenlive:monitorPosition">0</property>
 </producer>
 <producer id="producer118" in="00:00:00.000" out="00:00:10.500">
  <property name="length">316</property>
  <property name="eof">pause</property>
  <property name="resource"/>
  <property name="meta.media.progressive">1</property>
  <property name="aspect_ratio">1</property>
  <property name="seekable">1</property>
  <property name="mlt_service">kdenlivetitle</property>
  <property name="kdenlive:duration">00:00:05:00</property>
  <property name="kdenlive:clipname">Lol this par...</property>
  <property name="xmldata">&lt;kdenlivetitle LC_NUMERIC="C" duration="150" height="1080" out="149" width="1920">
 &lt;item type="QGraphicsTextItem" z-index="0">
  &lt;position x="390" y="394">
   &lt;transform>1,0,0,0,1,0,0,0,1&lt;/transform>
  &lt;/position>
  &lt;content alignment="4" box-height="237" box-width="1200.53" font="Noto Sans" font-color="255,255,255,255" font-italic="0" font-outline="0" font-outline-color="0,0,0,255" font-pixel-size="58" font-underline="0" font-weight="400" letter-spacing="0" line-spacing="0" shadow="0;#64000000;3;3;3" tab-width="80" typewriter="0;2;1;0;0">Lol this part was mentally exhausting
for me to record, you can hear my voice
breaking up and nervous laughing and stuff&lt;/content>
 &lt;/item>
 &lt;startviewport rect="0,0,1920,1080"/>
 &lt;endviewport rect="0,0,1920,1080"/>
 &lt;background color="0,0,0,0"/>
&lt;/kdenlivetitle>
</property>
  <property name="xml">was here</property>
  <property name="kdenlive:folderid">-1</property>
  <property name="kdenlive:id">130</property>
  <property name="kdenlive:control_uuid">{2b4075db-fe86-4031-b75d-710b71d3bbad}</property>
  <property name="kdenlive:clip_type">2</property>
  <property name="kdenlive:uniqueId">{c5c49352-1371-4256-929e-9ec8b35d1433}</property>
  <property name="kdenlive:file_hash">ed8e39621406729bd65184d9113027a7</property>
  <property name="force_reload">0</property>
  <property name="meta.media.width">1920</property>
  <property name="meta.media.height">1080</property>
  <property name="kdenlive:monitorPosition">0</property>
 </producer>
 <producer id="producer0" in="00:00:00.000" out="00:15:16.400">
  <property name="length">2147483647</property>
  <property name="eof">continue</property>
  <property name="resource">black</property>
  <property name="aspect_ratio">1</property>
  <property name="mlt_service">color</property>
  <property name="kdenlive:playlistid">black_track</property>
  <property name="mlt_image_format">rgba</property>
  <property name="set.test_audio">0</property>
 </producer>
 <chain id="chain0" out="00:03:11.967">
  <property name="length">5760</property>
  <property name="eof">pause</property>
  <property name="resource">Lesion X - Chasing Stars.mp3</property>
  <property name="mlt_service">avformat-novalidate</property>
  <property name="seekable">1</property>
  <property name="audio_index">0</property>
  <property name="video_index">-1</property>
  <property name="astream">0</property>
  <property name="kdenlive:folderid">-1</property>
  <property name="kdenlive:id">5</property>
  <property name="kdenlive:control_uuid">{b8105c3d-96a5-432b-9594-02cd03012f87}</property>
  <property name="kdenlive:clip_type">1</property>
  <property name="kdenlive:file_size">4609197</property>
  <property name="kdenlive:file_hash">04ccb6c06b3dbd580d3ce5c5e5da6465</property>
  <property name="kdenlive:monitorPosition">0</property>
  <property name="kdenlive:kextractor">1</property>
  <property name="kdenlive:meta.extractor.Bitrate">192 kb/s</property>
  <property name="meta.media.nb_streams">1</property>
  <property name="meta.media.0.stream.type">audio</property>
  <property name="meta.media.0.codec.sample_fmt">fltp</property>
  <property name="meta.media.0.codec.sample_rate">48000</property>
  <property name="meta.media.0.codec.channels">2</property>
  <property name="meta.media.0.codec.layout">stereo</property>
  <property name="meta.media.0.codec.name">mp3float</property>
  <property name="meta.media.0.codec.long_name">MP3 (MPEG audio layer 3)</property>
  <property name="meta.media.0.codec.bit_rate">192000</property>
  <property name="meta.attr.0.stream.encoder.markup">Lavc58.10</property>
  <property name="meta.attr.encoder.markup">Lavf58.51.100</property>
  <property name="xml">was here</property>
  <property name="mute_on_pause">0</property>
  <property name="set.test_audio">0</property>
  <property name="set.test_image">1</property>
 </chain>
 <playlist id="playlist0">
  <property name="kdenlive:audio_track">1</property>
  <entry in="00:00:00.000" out="00:03:11.967" producer="chain0">
   <property name="kdenlive:id">5</property>
  </entry>
  <entry in="00:00:00.000" out="00:03:11.967" producer="chain0">
   <property name="kdenlive:id">5</property>
  </entry>
  <entry in="00:00:00.000" out="00:03:11.967" producer="chain0">
   <property name="kdenlive:id">5</property>
  </entry>
  <entry in="00:00:00.000" out="00:00:40.367" producer="chain0">
   <property name="kdenlive:id">5</property>
  </entry>
 </playlist>
 <playlist id="playlist1">
  <property name="kdenlive:audio_track">1</property>
 </playlist>
 <tractor id="tractor0" in="00:00:00.000" out="00:10:16.367">
  <property name="kdenlive:audio_track">1</property>
  <property name="kdenlive:trackheight">29</property>
  <property name="kdenlive:timeline_active">1</property>
  <property name="kdenlive:collapsed">28</property>
  <property name="kdenlive:thumbs_format"/>
  <property name="kdenlive:audio_rec"/>
  <track hide="video" producer="playlist0"/>
  <track hide="video" producer="playlist1"/>
  <filter id="filter0">
   <property name="window">75</property>
   <property name="max_gain">20dB</property>
   <property name="level">-20.0057</property>
   <property name="channel_mask">-1</property>
   <property name="mlt_service">volume</property>
   <property name="internal_added">237</property>
   <property name="disable">0</property>
  </filter>
  <filter id="filter1">
   <property name="channel">-1</property>
   <property name="mlt_service">panner</property>
   <property name="internal_added">237</property>
   <property name="start">0.5</property>
   <property name="disable">1</property>
  </filter>
  <filter id="filter2">
   <property name="iec_scale">0</property>
   <property name="mlt_service">audiolevel</property>
   <property name="dbpeak">1</property>
   <property name="disable">1</property>
  </filter>
 </tractor>
 <chain id="chain1" out="00:10:28.933">
  <property name="length">18869</property>
  <property name="eof">pause</property>
  <property name="resource">export.flac</property>
  <property name="mlt_service">avformat-novalidate</property>
  <property name="seekable">1</property>
  <property name="audio_index">0</property>
  <property name="video_index">-1</property>
  <property name="astream">0</property>
  <property name="kdenlive:folderid">-1</property>
  <property name="kdenlive:id">4</property>
  <property name="kdenlive:control_uuid">{636cf6fe-aaf1-426c-a09c-e8fac985f3ba}</property>
  <property name="kdenlive:clip_type">1</property>
  <property name="kdenlive:file_size">43847312</property>
  <property name="kdenlive:file_hash">2e17c046029f468f5b26865667d4b435</property>
  <property name="kdenlive:monitorPosition">0</property>
  <property name="kdenlive:kextractor">1</property>
  <property name="kdenlive:meta.extractor.Bitrate">558 kb/s</property>
  <property name="meta.media.nb_streams">1</property>
  <property name="meta.media.0.stream.type">audio</property>
  <property name="meta.media.0.codec.sample_fmt">s16</property>
  <property name="meta.media.0.codec.sample_rate">48000</property>
  <property name="meta.media.0.codec.channels">2</property>
  <property name="meta.media.0.codec.layout">stereo</property>
  <property name="meta.media.0.codec.name">flac</property>
  <property name="meta.media.0.codec.long_name">FLAC (Free Lossless Audio Codec)</property>
  <property name="meta.media.0.codec.bit_rate">0</property>
  <property name="xml">was here</property>
  <property name="mute_on_pause">0</property>
  <property name="set.test_audio">0</property>
  <property name="set.test_image">1</property>
 </chain>
 <playlist id="playlist2">
  <property name="kdenlive:audio_track">1</property>
  <entry in="00:00:02.167" out="00:02:52.300" producer="chain1">
   <property name="kdenlive:id">4</property>
  </entry>
  <entry in="00:03:00.367" out="00:10:26.567" producer="chain1">
   <property name="kdenlive:id">4</property>
  </entry>
 </playlist>
 <playlist id="playlist3">
  <property name="kdenlive:audio_track">1</property>
 </playlist>
 <tractor id="tractor1" in="00:00:00.000" out="00:10:16.367">
  <property name="kdenlive:audio_track">1</property>
  <property name="kdenlive:trackheight">97</property>
  <property name="kdenlive:timeline_active">1</property>
  <property name="kdenlive:collapsed">0</property>
  <property name="kdenlive:thumbs_format"/>
  <property name="kdenlive:audio_rec"/>
  <track hide="video" producer="playlist2"/>
  <track hide="video" producer="playlist3"/>
  <filter id="filter3">
   <property name="window">75</property>
   <property name="max_gain">20dB</property>
   <property name="channel_mask">-1</property>
   <property name="mlt_service">volume</property>
   <property name="internal_added">237</property>
   <property name="disable">1</property>
  </filter>
  <filter id="filter4">
   <property name="channel">-1</property>
   <property name="mlt_service">panner</property>
   <property name="internal_added">237</property>
   <property name="start">0.5</property>
   <property name="disable">1</property>
  </filter>
  <filter id="filter5">
   <property name="iec_scale">0</property>
   <property name="mlt_service">audiolevel</property>
   <property name="dbpeak">1</property>
   <property name="disable">1</property>
  </filter>
 </tractor>
 <producer id="producer3" in="00:00:00.000" out="00:00:04.967">
  <property name="length">00:00:05.000</property>
  <property name="eof">pause</property>
  <property name="resource">images/index.html?u=https:%2F%2Fimage.slidesdocs.com%2Fresponsive-images%2Fbackground%2Ffile-cabinets-of-black-and-white-for-office-stock-photo-powerpoint-background_cf757aa317__960_540.jpg&amp;f=1&amp;nofb=1&amp;ipt=e186122c0b9dd8cc79506bffe88fd0838bb7ad</property>
  <property name="ttl">25</property>
  <property name="aspect_ratio">1</property>
  <property name="meta.media.progressive">1</property>
  <property name="seekable">1</property>
  <property name="begin">0</property>
  <property name="format">1</property>
  <property name="meta.media.width">960</property>
  <property name="meta.media.height">540</property>
  <property name="mlt_service">qimage</property>
  <property name="kdenlive:duration">00:00:05:00</property>
  <property name="xml">was here</property>
  <property name="kdenlive:folderid">-1</property>
  <property name="kdenlive:id">6</property>
  <property name="kdenlive:control_uuid">{7becb524-4ad0-4d2b-ad18-d48352f00616}</property>
  <property name="kdenlive:clip_type">2</property>
  <property name="kdenlive:file_hash">97f3c7821825d7a53ebc6b9b5177563d</property>
  <property name="set.test_audio">1</property>
  <property name="set.test_image">0</property>
 </producer>
 <chain id="chain4" out="00:00:01.967">
  <property name="length">60</property>
  <property name="eof">pause</property>
  <property name="resource">images/cryaboutit.gif</property>
  <property name="mlt_service">avformat-novalidate</property>
  <property name="seekable">1</property>
  <property name="format">2</property>
  <property name="audio_index">-1</property>
  <property name="video_index">0</property>
  <property name="vstream">0</property>
  <property name="kdenlive:folderid">-1</property>
  <property name="kdenlive:id">16</property>
  <property name="kdenlive:control_uuid">{b593392d-7dcd-4e3d-8e80-da2f55ca9398}</property>
  <property name="mute_on_pause">0</property>
  <property name="kdenlive:clip_type">2</property>
  <property name="kdenlive:file_size">498686</property>
  <property name="kdenlive:file_hash">c56d39dc431e81a01abd54ce07bfc8b0</property>
  <property name="kdenlive:kextractor">1</property>
  <property name="kdenlive:monitorPosition">0</property>
  <property name="meta.media.nb_streams">1</property>
  <property name="meta.media.0.stream.type">video</property>
  <property name="meta.media.0.stream.frame_rate">10</property>
  <property name="meta.media.0.stream.sample_aspect_ratio">0</property>
  <property name="meta.media.0.codec.width">441</property>
  <property name="meta.media.0.codec.height">498</property>
  <property name="meta.media.0.codec.rotate">0</property>
  <property name="meta.media.0.codec.pix_fmt">bgra</property>
  <property name="meta.media.0.codec.sample_aspect_ratio">0</property>
  <property name="meta.media.0.codec.colorspace">601</property>
  <property name="meta.media.0.codec.name">gif</property>
  <property name="meta.media.0.codec.long_name">GIF (Graphics Interchange Format)</property>
  <property name="meta.media.0.codec.bit_rate">0</property>
  <property name="meta.media.sample_aspect_num">1</property>
  <property name="meta.media.sample_aspect_den">1</property>
  <property name="meta.media.frame_rate_num">10</property>
  <property name="meta.media.frame_rate_den">1</property>
  <property name="meta.media.colorspace">601</property>
  <property name="meta.media.color_trc">2</property>
  <property name="meta.media.has_b_frames">0</property>
  <property name="meta.media.width">441</property>
  <property name="meta.media.height">498</property>
  <property name="meta.media.aspect_ratio">1</property>
  <property name="meta.media.color_range">mpeg</property>
  <property name="xml">was here</property>
  <property name="meta.media.top_field_first">0</property>
  <property name="meta.media.progressive">1</property>
  <property name="set.test_audio">1</property>
  <property name="set.test_image">0</property>
 </chain>
 <producer id="producer11" in="00:00:00.000" out="00:00:03.900">
  <property name="length">118</property>
  <property name="eof">pause</property>
  <property name="resource">0.813559:images/hearties-gustave.mp4</property>
  <property name="aspect_ratio">1</property>
  <property name="meta.media.nb_streams">1</property>
  <property name="meta.media.0.stream.type">video</property>
  <property name="meta.media.0.stream.frame_rate">10</property>
  <property name="meta.media.0.stream.sample_aspect_ratio">0</property>
  <property name="meta.media.0.codec.width">640</property>
  <property name="meta.media.0.codec.height">360</property>
  <property name="meta.media.0.codec.rotate">0</property>
  <property name="meta.media.0.codec.pix_fmt">yuv420p</property>
  <property name="meta.media.0.codec.sample_aspect_ratio">0</property>
  <property name="meta.media.0.codec.colorspace">601</property>
  <property name="meta.media.0.codec.name">h264</property>
  <property name="meta.media.0.codec.long_name">H.264 / AVC / MPEG-4 AVC / MPEG-4 part 10</property>
  <property name="meta.media.0.codec.bit_rate">698057</property>
  <property name="meta.attr.0.stream.handler_name.markup">VideoHandler</property>
  <property name="meta.attr.0.stream.vendor_id.markup">[0][0][0][0]</property>
  <property name="meta.attr.major_brand.markup">isom</property>
  <property name="meta.attr.minor_version.markup">512</property>
  <property name="meta.attr.compatible_brands.markup">isomiso2avc1mp41</property>
  <property name="meta.attr.encoder.markup">Lavf58.20.100</property>
  <property name="seekable">1</property>
  <property name="meta.media.sample_aspect_num">1</property>
  <property name="meta.media.sample_aspect_den">1</property>
  <property name="format">3</property>
  <property name="audio_index">-1</property>
  <property name="video_index">0</property>
  <property name="warp_speed">0.813559</property>
  <property name="warp_resource">images/hearties-gustave.mp4</property>
  <property name="mlt_service">timewarp</property>
  <property name="kdenlive:control_uuid">{2fdd54fa-40ea-4eaf-9ce8-d874fca7432d}</property>
  <property name="vstream">0</property>
  <property name="astream">-1</property>
  <property name="set.test_audio">1</property>
  <property name="set.test_image">0</property>
  <property name="kdenlive:id">17</property>
  <property name="warp_pitch">0</property>
  <property name="meta.media.frame_rate_num">10</property>
  <property name="meta.media.frame_rate_den">1</property>
  <property name="meta.media.colorspace">601</property>
  <property name="meta.media.color_trc">2</property>
  <property name="meta.media.has_b_frames">0</property>
  <property name="meta.media.width">640</property>
  <property name="meta.media.height">360</property>
  <property name="meta.media.aspect_ratio">1</property>
  <property name="meta.media.color_range">mpeg</property>
  <property name="meta.media.top_field_first">0</property>
  <property name="meta.media.progressive">1</property>
 </producer>
 <chain id="chain5" out="00:00:00.533">
  <property name="length">17</property>
  <property name="eof">pause</property>
  <property name="resource">images/do-you-own-things-eric-cartman.gif</property>
  <property name="mlt_service">avformat-novalidate</property>
  <property name="seekable">1</property>
  <property name="format">2</property>
  <property name="audio_index">-1</property>
  <property name="video_index">0</property>
  <property name="vstream">0</property>
  <property name="kdenlive:folderid">-1</property>
  <property name="kdenlive:id">18</property>
  <property name="kdenlive:control_uuid">{64c4bd8b-762a-4487-8c65-9546cd95738f}</property>
  <property name="mute_on_pause">0</property>
  <property name="kdenlive:clip_type">2</property>
  <property name="kdenlive:file_size">349661</property>
  <property name="kdenlive:file_hash">20da2de969fc0e6bbe5c6d7ab9c82a1d</property>
  <property name="kdenlive:kextractor">1</property>
  <property name="meta.media.nb_streams">1</property>
  <property name="meta.media.0.stream.type">video</property>
  <property name="meta.media.0.stream.frame_rate">25</property>
  <property name="meta.media.0.stream.sample_aspect_ratio">0</property>
  <property name="meta.media.0.codec.width">498</property>
  <property name="meta.media.0.codec.height">473</property>
  <property name="meta.media.0.codec.rotate">0</property>
  <property name="meta.media.0.codec.pix_fmt">bgra</property>
  <property name="meta.media.0.codec.sample_aspect_ratio">0</property>
  <property name="meta.media.0.codec.colorspace">601</property>
  <property name="meta.media.0.codec.name">gif</property>
  <property name="meta.media.0.codec.long_name">GIF (Graphics Interchange Format)</property>
  <property name="meta.media.0.codec.bit_rate">0</property>
  <property name="meta.media.sample_aspect_num">1</property>
  <property name="meta.media.sample_aspect_den">1</property>
  <property name="meta.media.frame_rate_num">25</property>
  <property name="meta.media.frame_rate_den">1</property>
  <property name="meta.media.colorspace">601</property>
  <property name="meta.media.color_trc">2</property>
  <property name="meta.media.has_b_frames">0</property>
  <property name="meta.media.width">498</property>
  <property name="meta.media.height">473</property>
  <property name="meta.media.aspect_ratio">1</property>
  <property name="meta.media.color_range">mpeg</property>
  <property name="xml">was here</property>
  <property name="meta.media.top_field_first">0</property>
  <property name="meta.media.progressive">1</property>
  <property name="set.test_audio">1</property>
  <property name="set.test_image">0</property>
 </chain>
 <producer id="producer12" in="00:00:00.000" out="00:00:01.400">
  <property name="length">43</property>
  <property name="eof">pause</property>
  <property name="resource">1.140000:images/penguinz0-moist-critical.mp4</property>
  <property name="aspect_ratio">1</property>
  <property name="meta.media.nb_streams">1</property>
  <property name="meta.media.0.stream.type">video</property>
  <property name="meta.media.0.stream.frame_rate">30</property>
  <property name="meta.media.0.stream.sample_aspect_ratio">1.00669</property>
  <property name="meta.media.0.codec.width">498</property>
  <property name="meta.media.0.codec.height">282</property>
  <property name="meta.media.0.codec.rotate">0</property>
  <property name="meta.media.0.codec.pix_fmt">yuv420p</property>
  <property name="meta.media.0.codec.sample_aspect_ratio">1.00669</property>
  <property name="meta.media.0.codec.colorspace">601</property>
  <property name="meta.media.0.codec.name">h264</property>
  <property name="meta.media.0.codec.long_name">H.264 / AVC / MPEG-4 AVC / MPEG-4 part 10</property>
  <property name="meta.media.0.codec.bit_rate">213164</property>
  <property name="meta.attr.0.stream.handler_name.markup">VideoHandler</property>
  <property name="meta.attr.0.stream.vendor_id.markup">[0][0][0][0]</property>
  <property name="meta.attr.major_brand.markup">isom</property>
  <property name="meta.attr.minor_version.markup">512</property>
  <property name="meta.attr.compatible_brands.markup">isomiso2avc1mp41</property>
  <property name="meta.attr.encoder.markup">Google</property>
  <property name="seekable">1</property>
  <property name="meta.media.sample_aspect_num">752</property>
  <property name="meta.media.sample_aspect_den">747</property>
  <property name="format">3</property>
  <property name="audio_index">-1</property>
  <property name="video_index">0</property>
  <property name="warp_speed">1.14</property>
  <property name="warp_resource">images/penguinz0-moist-critical.mp4</property>
  <property name="mlt_service">timewarp</property>
  <property name="kdenlive:control_uuid">{d6c1dbc2-0e69-4a90-a696-e9ea7a151c0a}</property>
  <property name="vstream">0</property>
  <property name="astream">-1</property>
  <property name="set.test_audio">1</property>
  <property name="set.test_image">0</property>
  <property name="kdenlive:id">19</property>
  <property name="warp_pitch">0</property>
  <property name="meta.media.frame_rate_num">30</property>
  <property name="meta.media.frame_rate_den">1</property>
  <property name="meta.media.colorspace">601</property>
  <property name="meta.media.color_trc">2</property>
  <property name="meta.media.has_b_frames">2</property>
  <property name="meta.media.width">498</property>
  <property name="meta.media.height">282</property>
  <property name="meta.media.aspect_ratio">1.00669</property>
  <property name="meta.media.color_range">mpeg</property>
  <property name="meta.media.top_field_first">0</property>
  <property name="meta.media.progressive">1</property>
 </producer>
 <producer id="producer13" in="00:00:00.000" out="00:00:01.567">
  <property name="length">48</property>
  <property name="eof">pause</property>
  <property name="resource">1.460000:images/let-me-show-how-it's-done-butt-head.mp4</property>
  <property name="aspect_ratio">1</property>
  <property name="meta.media.nb_streams">1</property>
  <property name="meta.media.0.stream.type">video</property>
  <property name="meta.media.0.stream.frame_rate">16.6667</property>
  <property name="meta.media.0.stream.sample_aspect_ratio">0</property>
  <property name="meta.media.0.codec.width">498</property>
  <property name="meta.media.0.codec.height">498</property>
  <property name="meta.media.0.codec.rotate">0</property>
  <property name="meta.media.0.codec.pix_fmt">yuv420p</property>
  <property name="meta.media.0.codec.sample_aspect_ratio">0</property>
  <property name="meta.media.0.codec.colorspace">601</property>
  <property name="meta.media.0.codec.name">h264</property>
  <property name="meta.media.0.codec.long_name">H.264 / AVC / MPEG-4 AVC / MPEG-4 part 10</property>
  <property name="meta.media.0.codec.bit_rate">333740</property>
  <property name="meta.attr.0.stream.handler_name.markup">VideoHandler</property>
  <property name="meta.attr.0.stream.vendor_id.markup">[0][0][0][0]</property>
  <property name="meta.attr.major_brand.markup">isom</property>
  <property name="meta.attr.minor_version.markup">512</property>
  <property name="meta.attr.compatible_brands.markup">isomiso2avc1mp41</property>
  <property name="meta.attr.encoder.markup">Google</property>
  <property name="seekable">1</property>
  <property name="meta.media.sample_aspect_num">1</property>
  <property name="meta.media.sample_aspect_den">1</property>
  <property name="format">3</property>
  <property name="audio_index">-1</property>
  <property name="video_index">0</property>
  <property name="warp_speed">1.46</property>
  <property name="warp_resource">images/let-me-show-how-it's-done-butt-head.mp4</property>
  <property name="mlt_service">timewarp</property>
  <property name="kdenlive:control_uuid">{817a037e-400a-4ae2-b557-81567b0e65f1}</property>
  <property name="vstream">0</property>
  <property name="astream">-1</property>
  <property name="set.test_audio">1</property>
  <property name="set.test_image">0</property>
  <property name="kdenlive:id">20</property>
  <property name="warp_pitch">0</property>
  <property name="meta.media.frame_rate_num">50</property>
  <property name="meta.media.frame_rate_den">3</property>
  <property name="meta.media.colorspace">601</property>
  <property name="meta.media.color_trc">2</property>
  <property name="meta.media.has_b_frames">2</property>
  <property name="meta.media.width">498</property>
  <property name="meta.media.height">498</property>
  <property name="meta.media.aspect_ratio">1</property>
  <property name="meta.media.color_range">mpeg</property>
  <property name="meta.media.top_field_first">0</property>
  <property name="meta.media.progressive">1</property>
 </producer>
 <chain id="chain6" out="00:00:00.933">
  <property name="length">29</property>
  <property name="eof">pause</property>
  <property name="resource">images/ozzy-ozzy-osbourne.mp4</property>
  <property name="mlt_service">avformat-novalidate</property>
  <property name="seekable">1</property>
  <property name="format">3</property>
  <property name="audio_index">-1</property>
  <property name="video_index">0</property>
  <property name="vstream">0</property>
  <property name="kdenlive:folderid">-1</property>
  <property name="kdenlive:id">21</property>
  <property name="kdenlive:control_uuid">{b73ea79a-2652-4d39-8540-c5a88712bfc5}</property>
  <property name="mute_on_pause">0</property>
  <property name="kdenlive:clip_type">2</property>
  <property name="kdenlive:file_size">44539</property>
  <property name="kdenlive:file_hash">b1ef524aec0960df269e7b0a9e3b9c17</property>
  <property name="kdenlive:kextractor">1</property>
  <property name="kdenlive:meta.extractor.Bitrate">371 kb/s</property>
  <property name="meta.media.nb_streams">1</property>
  <property name="meta.media.0.stream.type">video</property>
  <property name="meta.media.0.stream.frame_rate">8.33333</property>
  <property name="meta.media.0.stream.sample_aspect_ratio">0</property>
  <property name="meta.media.0.codec.width">500</property>
  <property name="meta.media.0.codec.height">282</property>
  <property name="meta.media.0.codec.rotate">0</property>
  <property name="meta.media.0.codec.pix_fmt">yuv420p</property>
  <property name="meta.media.0.codec.sample_aspect_ratio">0</property>
  <property name="meta.media.0.codec.colorspace">601</property>
  <property name="meta.media.0.codec.name">h264</property>
  <property name="meta.media.0.codec.long_name">H.264 / AVC / MPEG-4 AVC / MPEG-4 part 10</property>
  <property name="meta.media.0.codec.bit_rate">363391</property>
  <property name="meta.attr.0.stream.handler_name.markup">VideoHandler</property>
  <property name="meta.attr.0.stream.vendor_id.markup">[0][0][0][0]</property>
  <property name="meta.attr.major_brand.markup">isom</property>
  <property name="meta.attr.minor_version.markup">512</property>
  <property name="meta.attr.compatible_brands.markup">isomiso2avc1mp41</property>
  <property name="meta.attr.encoder.markup">Lavf56.36.100</property>
  <property name="meta.media.sample_aspect_num">1</property>
  <property name="meta.media.sample_aspect_den">1</property>
  <property name="meta.media.frame_rate_num">25</property>
  <property name="meta.media.frame_rate_den">3</property>
  <property name="meta.media.colorspace">601</property>
  <property name="meta.media.color_trc">2</property>
  <property name="meta.media.has_b_frames">2</property>
  <property name="meta.media.width">500</property>
  <property name="meta.media.height">282</property>
  <property name="meta.media.aspect_ratio">1</property>
  <property name="meta.media.color_range">mpeg</property>
  <property name="xml">was here</property>
  <property name="meta.media.top_field_first">0</property>
  <property name="meta.media.progressive">1</property>
  <property name="set.test_audio">1</property>
  <property name="set.test_image">0</property>
 </chain>
 <chain id="chain7" out="00:00:01.333">
  <property name="length">41</property>
  <property name="eof">pause</property>
  <property name="resource">images/you-fucking-idiot-roger-guenveur-smith.mp4</property>
  <property name="mlt_service">avformat-novalidate</property>
  <property name="seekable">1</property>
  <property name="format">3</property>
  <property name="audio_index">-1</property>
  <property name="video_index">0</property>
  <property name="vstream">0</property>
  <property name="kdenlive:folderid">-1</property>
  <property name="kdenlive:id">24</property>
  <property name="kdenlive:control_uuid">{976de20d-6277-46ec-ad58-294697da6d28}</property>
  <property name="mute_on_pause">0</property>
  <property name="kdenlive:clip_type">2</property>
  <property name="kdenlive:file_size">357145</property>
  <property name="kdenlive:file_hash">fdf6990230f7f76ae503b8dbf91fb7e7</property>
  <property name="kdenlive:kextractor">1</property>
  <property name="kdenlive:meta.extractor.Bitrate">2070 kb/s</property>
  <property name="meta.media.nb_streams">1</property>
  <property name="meta.media.0.stream.type">video</property>
  <property name="meta.media.0.stream.frame_rate">16.6667</property>
  <property name="meta.media.0.stream.sample_aspect_ratio">0</property>
  <property name="meta.media.0.codec.width">640</property>
  <property name="meta.media.0.codec.height">640</property>
  <property name="meta.media.0.codec.rotate">0</property>
  <property name="meta.media.0.codec.pix_fmt">yuv420p</property>
  <property name="meta.media.0.codec.sample_aspect_ratio">0</property>
  <property name="meta.media.0.codec.colorspace">601</property>
  <property name="meta.media.0.codec.name">h264</property>
  <property name="meta.media.0.codec.long_name">H.264 / AVC / MPEG-4 AVC / MPEG-4 part 10</property>
  <property name="meta.media.0.codec.bit_rate">2065147</property>
  <property name="meta.attr.0.stream.handler_name.markup">VideoHandler</property>
  <property name="meta.attr.0.stream.vendor_id.markup">[0][0][0][0]</property>
  <property name="meta.attr.major_brand.markup">isom</property>
  <property name="meta.attr.minor_version.markup">512</property>
  <property name="meta.attr.compatible_brands.markup">isomiso2avc1mp41</property>
  <property name="meta.attr.encoder.markup">Lavf58.20.100</property>
  <property name="meta.media.sample_aspect_num">1</property>
  <property name="meta.media.sample_aspect_den">1</property>
  <property name="meta.media.frame_rate_num">50</property>
  <property name="meta.media.frame_rate_den">3</property>
  <property name="meta.media.colorspace">601</property>
  <property name="meta.media.color_trc">2</property>
  <property name="meta.media.has_b_frames">0</property>
  <property name="meta.media.width">640</property>
  <property name="meta.media.height">640</property>
  <property name="meta.media.aspect_ratio">1</property>
  <property name="meta.media.color_range">mpeg</property>
  <property name="xml">was here</property>
  <property name="meta.media.top_field_first">0</property>
  <property name="meta.media.progressive">1</property>
  <property name="set.test_audio">1</property>
  <property name="set.test_image">0</property>
 </chain>
 <producer id="producer16" in="00:00:00.000" out="00:00:01.100">
  <property name="length">34</property>
  <property name="eof">pause</property>
  <property name="resource">1.250000:images/please-dont-do-that.mp4</property>
  <property name="aspect_ratio">1</property>
  <property name="meta.media.nb_streams">1</property>
  <property name="meta.media.0.stream.type">video</property>
  <property name="meta.media.0.stream.frame_rate">25</property>
  <property name="meta.media.0.stream.sample_aspect_ratio">0</property>
  <property name="meta.media.0.codec.width">640</property>
  <property name="meta.media.0.codec.height">318</property>
  <property name="meta.media.0.codec.rotate">0</property>
  <property name="meta.media.0.codec.pix_fmt">yuv420p</property>
  <property name="meta.media.0.codec.sample_aspect_ratio">0</property>
  <property name="meta.media.0.codec.colorspace">601</property>
  <property name="meta.media.0.codec.name">h264</property>
  <property name="meta.media.0.codec.long_name">H.264 / AVC / MPEG-4 AVC / MPEG-4 part 10</property>
  <property name="meta.media.0.codec.bit_rate">1878038</property>
  <property name="meta.attr.0.stream.handler_name.markup">VideoHandler</property>
  <property name="meta.attr.0.stream.vendor_id.markup">[0][0][0][0]</property>
  <property name="meta.attr.major_brand.markup">isom</property>
  <property name="meta.attr.minor_version.markup">512</property>
  <property name="meta.attr.compatible_brands.markup">isomiso2avc1mp41</property>
  <property name="meta.attr.encoder.markup">Lavf58.20.100</property>
  <property name="seekable">1</property>
  <property name="meta.media.sample_aspect_num">1</property>
  <property name="meta.media.sample_aspect_den">1</property>
  <property name="format">3</property>
  <property name="audio_index">-1</property>
  <property name="video_index">0</property>
  <property name="warp_speed">1.25</property>
  <property name="warp_resource">images/please-dont-do-that.mp4</property>
  <property name="mlt_service">timewarp</property>
  <property name="kdenlive:control_uuid">{df6494d5-42fb-413b-a54b-611d05d08730}</property>
  <property name="vstream">0</property>
  <property name="astream">-1</property>
  <property name="set.test_audio">1</property>
  <property name="set.test_image">0</property>
  <property name="kdenlive:id">25</property>
  <property name="warp_pitch">0</property>
  <property name="meta.media.frame_rate_num">25</property>
  <property name="meta.media.frame_rate_den">1</property>
  <property name="meta.media.colorspace">601</property>
  <property name="meta.media.color_trc">2</property>
  <property name="meta.media.has_b_frames">0</property>
  <property name="meta.media.width">640</property>
  <property name="meta.media.height">318</property>
  <property name="meta.media.aspect_ratio">1</property>
  <property name="meta.media.color_range">mpeg</property>
  <property name="meta.media.top_field_first">0</property>
  <property name="meta.media.progressive">1</property>
 </producer>
 <producer id="producer17" in="00:00:00.000" out="00:00:02.333">
  <property name="length">71</property>
  <property name="eof">pause</property>
  <property name="resource">0.816901:images/i-need-you-to-come-back-omar-adom-zidan.mp4</property>
  <property name="aspect_ratio">1</property>
  <property name="meta.media.nb_streams">1</property>
  <property name="meta.media.0.stream.type">video</property>
  <property name="meta.media.0.stream.frame_rate">12.5</property>
  <property name="meta.media.0.stream.sample_aspect_ratio">0</property>
  <property name="meta.media.0.codec.width">640</property>
  <property name="meta.media.0.codec.height">640</property>
  <property name="meta.media.0.codec.rotate">0</property>
  <property name="meta.media.0.codec.pix_fmt">yuv420p</property>
  <property name="meta.media.0.codec.sample_aspect_ratio">0</property>
  <property name="meta.media.0.codec.colorspace">601</property>
  <property name="meta.media.0.codec.name">h264</property>
  <property name="meta.media.0.codec.long_name">H.264 / AVC / MPEG-4 AVC / MPEG-4 part 10</property>
  <property name="meta.media.0.codec.bit_rate">860900</property>
  <property name="meta.attr.0.stream.handler_name.markup">VideoHandler</property>
  <property name="meta.attr.0.stream.vendor_id.markup">[0][0][0][0]</property>
  <property name="meta.attr.major_brand.markup">isom</property>
  <property name="meta.attr.minor_version.markup">512</property>
  <property name="meta.attr.compatible_brands.markup">isomiso2avc1mp41</property>
  <property name="meta.attr.encoder.markup">Lavf58.20.100</property>
  <property name="seekable">1</property>
  <property name="meta.media.sample_aspect_num">1</property>
  <property name="meta.media.sample_aspect_den">1</property>
  <property name="format">3</property>
  <property name="audio_index">-1</property>
  <property name="video_index">0</property>
  <property name="warp_speed">0.816901</property>
  <property name="warp_resource">images/i-need-you-to-come-back-omar-adom-zidan.mp4</property>
  <property name="mlt_service">timewarp</property>
  <property name="kdenlive:control_uuid">{9033f9d2-b21e-44bc-88e8-a97a84f1834e}</property>
  <property name="vstream">0</property>
  <property name="astream">-1</property>
  <property name="set.test_audio">1</property>
  <property name="set.test_image">0</property>
  <property name="kdenlive:id">26</property>
  <property name="warp_pitch">0</property>
  <property name="meta.media.frame_rate_num">25</property>
  <property name="meta.media.frame_rate_den">2</property>
  <property name="meta.media.colorspace">601</property>
  <property name="meta.media.color_trc">2</property>
  <property name="meta.media.has_b_frames">0</property>
  <property name="meta.media.width">640</property>
  <property name="meta.media.height">640</property>
  <property name="meta.media.aspect_ratio">1</property>
  <property name="meta.media.color_range">mpeg</property>
  <property name="meta.media.top_field_first">0</property>
  <property name="meta.media.progressive">1</property>
 </producer>
 <producer id="producer18" in="00:00:00.000" out="00:00:02.000">
  <property name="length">62</property>
  <property name="eof">pause</property>
  <property name="resource">1.670000:images/enough-of-this-yapping-grog-strongjaw.mp4</property>
  <property name="aspect_ratio">1</property>
  <property name="meta.media.nb_streams">1</property>
  <property name="meta.media.0.stream.type">video</property>
  <property name="meta.media.0.stream.frame_rate">16.6667</property>
  <property name="meta.media.0.stream.sample_aspect_ratio">0</property>
  <property name="meta.media.0.codec.width">498</property>
  <property name="meta.media.0.codec.height">498</property>
  <property name="meta.media.0.codec.rotate">0</property>
  <property name="meta.media.0.codec.pix_fmt">yuv420p</property>
  <property name="meta.media.0.codec.sample_aspect_ratio">0</property>
  <property name="meta.media.0.codec.colorspace">601</property>
  <property name="meta.media.0.codec.name">h264</property>
  <property name="meta.media.0.codec.long_name">H.264 / AVC / MPEG-4 AVC / MPEG-4 part 10</property>
  <property name="meta.media.0.codec.bit_rate">490907</property>
  <property name="meta.attr.0.stream.handler_name.markup">VideoHandler</property>
  <property name="meta.attr.0.stream.vendor_id.markup">[0][0][0][0]</property>
  <property name="meta.attr.major_brand.markup">isom</property>
  <property name="meta.attr.minor_version.markup">512</property>
  <property name="meta.attr.compatible_brands.markup">isomiso2avc1mp41</property>
  <property name="meta.attr.encoder.markup">Google</property>
  <property name="seekable">1</property>
  <property name="meta.media.sample_aspect_num">1</property>
  <property name="meta.media.sample_aspect_den">1</property>
  <property name="format">3</property>
  <property name="audio_index">-1</property>
  <property name="video_index">0</property>
  <property name="warp_speed">1.67</property>
  <property name="warp_resource">images/enough-of-this-yapping-grog-strongjaw.mp4</property>
  <property name="mlt_service">timewarp</property>
  <property name="kdenlive:control_uuid">{e1fb9be5-593b-4d4b-b5dc-28c2d8a10886}</property>
  <property name="vstream">0</property>
  <property name="astream">-1</property>
  <property name="set.test_audio">1</property>
  <property name="set.test_image">0</property>
  <property name="kdenlive:id">27</property>
  <property name="warp_pitch">0</property>
  <property name="meta.media.frame_rate_num">50</property>
  <property name="meta.media.frame_rate_den">3</property>
  <property name="meta.media.colorspace">601</property>
  <property name="meta.media.color_trc">2</property>
  <property name="meta.media.has_b_frames">2</property>
  <property name="meta.media.width">498</property>
  <property name="meta.media.height">498</property>
  <property name="meta.media.aspect_ratio">1</property>
  <property name="meta.media.color_range">mpeg</property>
  <property name="meta.media.top_field_first">0</property>
  <property name="meta.media.progressive">1</property>
 </producer>
 <chain id="chain18" out="00:00:01.433">
  <property name="length">44</property>
  <property name="eof">pause</property>
  <property name="resource">images/tinkering.gif</property>
  <property name="mlt_service">avformat-novalidate</property>
  <property name="seekable">1</property>
  <property name="format">2</property>
  <property name="audio_index">-1</property>
  <property name="video_index">0</property>
  <property name="vstream">0</property>
  <property name="kdenlive:folderid">-1</property>
  <property name="kdenlive:id">30</property>
  <property name="kdenlive:control_uuid">{44808fe0-c524-431d-8583-812356a3dc69}</property>
  <property name="mute_on_pause">0</property>
  <property name="kdenlive:clip_type">2</property>
  <property name="kdenlive:file_size">1398426</property>
  <property name="kdenlive:file_hash">b89db75ff05074939d898c9116239194</property>
  <property name="kdenlive:monitorPosition">0</property>
  <property name="kdenlive:kextractor">1</property>
  <property name="meta.media.nb_streams">1</property>
  <property name="meta.media.0.stream.type">video</property>
  <property name="meta.media.0.stream.frame_rate">25</property>
  <property name="meta.media.0.stream.sample_aspect_ratio">0</property>
  <property name="meta.media.0.codec.width">480</property>
  <property name="meta.media.0.codec.height">480</property>
  <property name="meta.media.0.codec.rotate">0</property>
  <property name="meta.media.0.codec.pix_fmt">bgra</property>
  <property name="meta.media.0.codec.sample_aspect_ratio">0</property>
  <property name="meta.media.0.codec.colorspace">601</property>
  <property name="meta.media.0.codec.name">gif</property>
  <property name="meta.media.0.codec.long_name">GIF (Graphics Interchange Format)</property>
  <property name="meta.media.0.codec.bit_rate">0</property>
  <property name="meta.media.sample_aspect_num">1</property>
  <property name="meta.media.sample_aspect_den">1</property>
  <property name="meta.media.frame_rate_num">25</property>
  <property name="meta.media.frame_rate_den">1</property>
  <property name="meta.media.colorspace">601</property>
  <property name="meta.media.color_trc">2</property>
  <property name="meta.media.has_b_frames">0</property>
  <property name="meta.media.width">480</property>
  <property name="meta.media.height">480</property>
  <property name="meta.media.aspect_ratio">1</property>
  <property name="meta.media.color_range">mpeg</property>
  <property name="xml">was here</property>
  <property name="meta.media.top_field_first">0</property>
  <property name="meta.media.progressive">1</property>
  <property name="set.test_audio">1</property>
  <property name="set.test_image">0</property>
 </chain>
 <producer id="producer51" in="00:00:00.000" out="00:00:02.433">
  <property name="length">74</property>
  <property name="eof">pause</property>
  <property name="resource">1.180000:images/trump-reading.mp4</property>
  <property name="aspect_ratio">1</property>
  <property name="meta.media.nb_streams">1</property>
  <property name="meta.media.0.stream.type">video</property>
  <property name="meta.media.0.stream.frame_rate">10</property>
  <property name="meta.media.0.stream.sample_aspect_ratio">0</property>
  <property name="meta.media.0.codec.width">478</property>
  <property name="meta.media.0.codec.height">360</property>
  <property name="meta.media.0.codec.rotate">0</property>
  <property name="meta.media.0.codec.pix_fmt">yuv420p</property>
  <property name="meta.media.0.codec.sample_aspect_ratio">0</property>
  <property name="meta.media.0.codec.colorspace">601</property>
  <property name="meta.media.0.codec.name">h264</property>
  <property name="meta.media.0.codec.long_name">H.264 / AVC / MPEG-4 AVC / MPEG-4 part 10</property>
  <property name="meta.media.0.codec.bit_rate">393089</property>
  <property name="meta.attr.0.stream.handler_name.markup">VideoHandler</property>
  <property name="meta.attr.0.stream.vendor_id.markup">[0][0][0][0]</property>
  <property name="meta.attr.major_brand.markup">isom</property>
  <property name="meta.attr.minor_version.markup">512</property>
  <property name="meta.attr.compatible_brands.markup">isomiso2avc1mp41</property>
  <property name="meta.attr.encoder.markup">Lavf56.36.100</property>
  <property name="seekable">1</property>
  <property name="meta.media.sample_aspect_num">1</property>
  <property name="meta.media.sample_aspect_den">1</property>
  <property name="format">3</property>
  <property name="audio_index">-1</property>
  <property name="video_index">0</property>
  <property name="warp_speed">1.18</property>
  <property name="warp_resource">images/trump-reading.mp4</property>
  <property name="mlt_service">timewarp</property>
  <property name="kdenlive:control_uuid">{23e6080f-f8d6-413c-b998-9756d495b201}</property>
  <property name="vstream">0</property>
  <property name="astream">-1</property>
  <property name="set.test_audio">1</property>
  <property name="set.test_image">0</property>
  <property name="kdenlive:id">58</property>
  <property name="warp_pitch">0</property>
  <property name="meta.media.frame_rate_num">10</property>
  <property name="meta.media.frame_rate_den">1</property>
  <property name="meta.media.colorspace">601</property>
  <property name="meta.media.color_trc">2</property>
  <property name="meta.media.has_b_frames">2</property>
  <property name="meta.media.width">478</property>
  <property name="meta.media.height">360</property>
  <property name="meta.media.aspect_ratio">1</property>
  <property name="meta.media.color_range">mpeg</property>
  <property name="meta.media.top_field_first">0</property>
  <property name="meta.media.progressive">1</property>
 </producer>
 <chain id="chain23" out="00:00:01.833">
  <property name="length">56</property>
  <property name="eof">pause</property>
  <property name="resource">images/michael-vsauce.mp4</property>
  <property name="mlt_service">avformat-novalidate</property>
  <property name="seekable">1</property>
  <property name="format">3</property>
  <property name="audio_index">-1</property>
  <property name="video_index">0</property>
  <property name="vstream">0</property>
  <property name="kdenlive:folderid">-1</property>
  <property name="kdenlive:id">100</property>
  <property name="kdenlive:control_uuid">{46f5887d-55d0-483c-a5e4-cd364fe5d780}</property>
  <property name="mute_on_pause">0</property>
  <property name="kdenlive:clip_type">2</property>
  <property name="kdenlive:file_size">11396</property>
  <property name="kdenlive:file_hash">989d104f762c1152bd080fb904bf3635</property>
  <property name="kdenlive:kextractor">1</property>
  <property name="kdenlive:meta.extractor.Bitrate">48 kb/s</property>
  <property name="meta.media.nb_streams">1</property>
  <property name="meta.media.0.stream.type">video</property>
  <property name="meta.media.0.stream.frame_rate">15</property>
  <property name="meta.media.0.stream.sample_aspect_ratio">0</property>
  <property name="meta.media.0.codec.width">160</property>
  <property name="meta.media.0.codec.height">160</property>
  <property name="meta.media.0.codec.rotate">0</property>
  <property name="meta.media.0.codec.pix_fmt">yuv420p</property>
  <property name="meta.media.0.codec.sample_aspect_ratio">0</property>
  <property name="meta.media.0.codec.colorspace">601</property>
  <property name="meta.media.0.codec.name">h264</property>
  <property name="meta.media.0.codec.long_name">H.264 / AVC / MPEG-4 AVC / MPEG-4 part 10</property>
  <property name="meta.media.0.codec.bit_rate">44108</property>
  <property name="meta.attr.0.stream.handler_name.markup">VideoHandler</property>
  <property name="meta.attr.0.stream.vendor_id.markup">[0][0][0][0]</property>
  <property name="meta.attr.major_brand.markup">isom</property>
  <property name="meta.attr.minor_version.markup">512</property>
  <property name="meta.attr.compatible_brands.markup">isomiso2avc1mp41</property>
  <property name="meta.attr.encoder.markup">Google</property>
  <property name="meta.media.sample_aspect_num">1</property>
  <property name="meta.media.sample_aspect_den">1</property>
  <property name="meta.media.frame_rate_num">15</property>
  <property name="meta.media.frame_rate_den">1</property>
  <property name="meta.media.colorspace">601</property>
  <property name="meta.media.color_trc">2</property>
  <property name="meta.media.has_b_frames">2</property>
  <property name="meta.media.width">160</property>
  <property name="meta.media.height">160</property>
  <property name="meta.media.aspect_ratio">1</property>
  <property name="meta.media.color_range">mpeg</property>
  <property name="xml">was here</property>
  <property name="meta.media.top_field_first">0</property>
  <property name="meta.media.progressive">1</property>
  <property name="set.test_audio">1</property>
  <property name="set.test_image">0</property>
 </chain>
 <chain id="chain24" out="00:00:02.067">
  <property name="length">63</property>
  <property name="eof">pause</property>
  <property name="resource">images/lets-talk-about-me-selfish.mp4</property>
  <property name="mlt_service">avformat-novalidate</property>
  <property name="seekable">1</property>
  <property name="format">3</property>
  <property name="audio_index">-1</property>
  <property name="video_index">0</property>
  <property name="vstream">0</property>
  <property name="kdenlive:folderid">-1</property>
  <property name="kdenlive:id">102</property>
  <property name="kdenlive:control_uuid">{b2bbf022-5e4b-423b-9668-1a355833588f}</property>
  <property name="mute_on_pause">0</property>
  <property name="kdenlive:clip_type">2</property>
  <property name="kdenlive:file_size">318704</property>
  <property name="kdenlive:file_hash">0363107ecfce1d1deb21d9ac68622744</property>
  <property name="kdenlive:monitorPosition">0</property>
  <property name="kdenlive:kextractor">1</property>
  <property name="kdenlive:meta.extractor.Bitrate">1214 kb/s</property>
  <property name="meta.media.nb_streams">1</property>
  <property name="meta.media.0.stream.type">video</property>
  <property name="meta.media.0.stream.frame_rate">16.6667</property>
  <property name="meta.media.0.stream.sample_aspect_ratio">0</property>
  <property name="meta.media.0.codec.width">640</property>
  <property name="meta.media.0.codec.height">360</property>
  <property name="meta.media.0.codec.rotate">0</property>
  <property name="meta.media.0.codec.pix_fmt">yuv420p</property>
  <property name="meta.media.0.codec.sample_aspect_ratio">0</property>
  <property name="meta.media.0.codec.colorspace">601</property>
  <property name="meta.media.0.codec.name">h264</property>
  <property name="meta.media.0.codec.long_name">H.264 / AVC / MPEG-4 AVC / MPEG-4 part 10</property>
  <property name="meta.media.0.codec.bit_rate">1210468</property>
  <property name="meta.attr.0.stream.handler_name.markup">VideoHandler</property>
  <property name="meta.attr.0.stream.vendor_id.markup">[0][0][0][0]</property>
  <property name="meta.attr.major_brand.markup">isom</property>
  <property name="meta.attr.minor_version.markup">512</property>
  <property name="meta.attr.compatible_brands.markup">isomiso2avc1mp41</property>
  <property name="meta.attr.encoder.markup">Lavf58.20.100</property>
  <property name="meta.media.sample_aspect_num">1</property>
  <property name="meta.media.sample_aspect_den">1</property>
  <property name="meta.media.frame_rate_num">50</property>
  <property name="meta.media.frame_rate_den">3</property>
  <property name="meta.media.colorspace">601</property>
  <property name="meta.media.color_trc">2</property>
  <property name="meta.media.has_b_frames">0</property>
  <property name="meta.media.width">640</property>
  <property name="meta.media.height">360</property>
  <property name="meta.media.aspect_ratio">1</property>
  <property name="meta.media.color_range">mpeg</property>
  <property name="xml">was here</property>
  <property name="meta.media.top_field_first">0</property>
  <property name="meta.media.progressive">1</property>
  <property name="set.test_audio">1</property>
  <property name="set.test_image">0</property>
 </chain>
 <producer id="producer86" in="00:00:00.000" out="00:00:04.567">
  <property name="length">138</property>
  <property name="eof">pause</property>
  <property name="resource">3.560000:/home/ingenarel/Videos/2025-11-10 16-24-45.mp4</property>
  <property name="aspect_ratio">1</property>
  <property name="meta.media.nb_streams">2</property>
  <property name="meta.media.0.stream.type">video</property>
  <property name="meta.media.0.stream.frame_rate">30</property>
  <property name="meta.media.0.stream.sample_aspect_ratio">0</property>
  <property name="meta.media.0.codec.width">1440</property>
  <property name="meta.media.0.codec.height">900</property>
  <property name="meta.media.0.codec.rotate">0</property>
  <property name="meta.media.0.codec.pix_fmt">yuv420p</property>
  <property name="meta.media.0.codec.sample_aspect_ratio">1</property>
  <property name="meta.media.0.codec.colorspace">709</property>
  <property name="meta.media.0.codec.color_trc">1</property>
  <property name="meta.media.0.codec.name">h264</property>
  <property name="meta.media.0.codec.long_name">H.264 / AVC / MPEG-4 AVC / MPEG-4 part 10</property>
  <property name="meta.media.0.codec.bit_rate">318584</property>
  <property name="meta.attr.0.stream.handler_name.markup">VideoHandler</property>
  <property name="meta.attr.0.stream.vendor_id.markup">[0][0][0][0]</property>
  <property name="meta.media.1.stream.type">audio</property>
  <property name="meta.media.1.codec.sample_fmt">fltp</property>
  <property name="meta.media.1.codec.sample_rate">48000</property>
  <property name="meta.media.1.codec.channels">2</property>
  <property name="meta.media.1.codec.layout">stereo</property>
  <property name="meta.media.1.codec.name">aac</property>
  <property name="meta.media.1.codec.long_name">AAC (Advanced Audio Coding)</property>
  <property name="meta.media.1.codec.bit_rate">159999</property>
  <property name="meta.attr.1.stream.handler_name.markup">SoundHandler</property>
  <property name="meta.attr.1.stream.vendor_id.markup">[0][0][0][0]</property>
  <property name="meta.attr.major_brand.markup">isom</property>
  <property name="meta.attr.minor_version.markup">512</property>
  <property name="meta.attr.compatible_brands.markup">isomiso2avc1mp41</property>
  <property name="meta.attr.encoder.markup">Lavf62.3.100</property>
  <property name="seekable">1</property>
  <property name="meta.media.sample_aspect_num">1</property>
  <property name="meta.media.sample_aspect_den">1</property>
  <property name="format">3</property>
  <property name="audio_index">1</property>
  <property name="video_index">0</property>
  <property name="warp_speed">3.56</property>
  <property name="warp_resource">/home/ingenarel/Videos/2025-11-10 16-24-45.mp4</property>
  <property name="mlt_service">timewarp</property>
  <property name="kdenlive:control_uuid">{c32d884d-70a2-4719-aaa6-c607d12e620f}</property>
  <property name="vstream">0</property>
  <property name="astream">0</property>
  <property name="set.test_audio">1</property>
  <property name="set.test_image">0</property>
  <property name="kdenlive:id">107</property>
  <property name="warp_pitch">0</property>
  <property name="meta.media.frame_rate_num">30</property>
  <property name="meta.media.frame_rate_den">1</property>
  <property name="meta.media.colorspace">709</property>
  <property name="meta.media.color_trc">1</property>
  <property name="meta.media.has_b_frames">2</property>
  <property name="meta.media.width">1440</property>
  <property name="meta.media.height">900</property>
  <property name="meta.media.aspect_ratio">1</property>
  <property name="meta.media.color_range">mpeg</property>
  <property name="meta.media.top_field_first">0</property>
  <property name="meta.media.progressive">1</property>
 </producer>
 <producer id="producer87" in="00:00:00.000" out="00:00:06.800">
  <property name="length">205</property>
  <property name="eof">pause</property>
  <property name="resource">2.410000:/home/ingenarel/Videos/2025-11-10 16-24-45.mp4</property>
  <property name="aspect_ratio">1</property>
  <property name="meta.media.nb_streams">2</property>
  <property name="meta.media.0.stream.type">video</property>
  <property name="meta.media.0.stream.frame_rate">30</property>
  <property name="meta.media.0.stream.sample_aspect_ratio">0</property>
  <property name="meta.media.0.codec.width">1440</property>
  <property name="meta.media.0.codec.height">900</property>
  <property name="meta.media.0.codec.rotate">0</property>
  <property name="meta.media.0.codec.pix_fmt">yuv420p</property>
  <property name="meta.media.0.codec.sample_aspect_ratio">1</property>
  <property name="meta.media.0.codec.colorspace">709</property>
  <property name="meta.media.0.codec.color_trc">1</property>
  <property name="meta.media.0.codec.name">h264</property>
  <property name="meta.media.0.codec.long_name">H.264 / AVC / MPEG-4 AVC / MPEG-4 part 10</property>
  <property name="meta.media.0.codec.bit_rate">318584</property>
  <property name="meta.attr.0.stream.handler_name.markup">VideoHandler</property>
  <property name="meta.attr.0.stream.vendor_id.markup">[0][0][0][0]</property>
  <property name="meta.media.1.stream.type">audio</property>
  <property name="meta.media.1.codec.sample_fmt">fltp</property>
  <property name="meta.media.1.codec.sample_rate">48000</property>
  <property name="meta.media.1.codec.channels">2</property>
  <property name="meta.media.1.codec.layout">stereo</property>
  <property name="meta.media.1.codec.name">aac</property>
  <property name="meta.media.1.codec.long_name">AAC (Advanced Audio Coding)</property>
  <property name="meta.media.1.codec.bit_rate">159999</property>
  <property name="meta.attr.1.stream.handler_name.markup">SoundHandler</property>
  <property name="meta.attr.1.stream.vendor_id.markup">[0][0][0][0]</property>
  <property name="meta.attr.major_brand.markup">isom</property>
  <property name="meta.attr.minor_version.markup">512</property>
  <property name="meta.attr.compatible_brands.markup">isomiso2avc1mp41</property>
  <property name="meta.attr.encoder.markup">Lavf62.3.100</property>
  <property name="seekable">1</property>
  <property name="meta.media.sample_aspect_num">1</property>
  <property name="meta.media.sample_aspect_den">1</property>
  <property name="format">3</property>
  <property name="audio_index">1</property>
  <property name="video_index">0</property>
  <property name="warp_speed">2.41</property>
  <property name="warp_resource">/home/ingenarel/Videos/2025-11-10 16-24-45.mp4</property>
  <property name="mlt_service">timewarp</property>
  <property name="kdenlive:control_uuid">{c32d884d-70a2-4719-aaa6-c607d12e620f}</property>
  <property name="vstream">0</property>
  <property name="astream">0</property>
  <property name="set.test_audio">1</property>
  <property name="set.test_image">0</property>
  <property name="kdenlive:id">107</property>
  <property name="warp_pitch">0</property>
  <property name="meta.media.frame_rate_num">30</property>
  <property name="meta.media.frame_rate_den">1</property>
  <property name="meta.media.colorspace">709</property>
  <property name="meta.media.color_trc">1</property>
  <property name="meta.media.has_b_frames">2</property>
  <property name="meta.media.width">1440</property>
  <property name="meta.media.height">900</property>
  <property name="meta.media.aspect_ratio">1</property>
  <property name="meta.media.color_range">mpeg</property>
  <property name="meta.media.top_field_first">0</property>
  <property name="meta.media.progressive">1</property>
 </producer>
 <chain id="chain25" out="00:00:16.400">
  <property name="length">493</property>
  <property name="eof">pause</property>
  <property name="resource">/home/ingenarel/Videos/2025-11-10 16-24-45.mp4</property>
  <property name="mlt_service">avformat-novalidate</property>
  <property name="seekable">1</property>
  <property name="format">3</property>
  <property name="audio_index">1</property>
  <property name="video_index">0</property>
  <property name="vstream">0</property>
  <property name="astream">0</property>
  <property name="kdenlive:folderid">-1</property>
  <property name="kdenlive:id">107</property>
  <property name="kdenlive:control_uuid">{c32d884d-70a2-4719-aaa6-c607d12e620f}</property>
  <property name="mute_on_pause">0</property>
  <property name="kdenlive:clip_type">0</property>
  <property name="kdenlive:file_size">1002047</property>
  <property name="kdenlive:file_hash">b9a9cbb90da18f1dfabdc58d2178e24d</property>
  <property name="kdenlive:kextractor">1</property>
  <property name="kdenlive:meta.extractor.Bitrate">487 kb/s</property>
  <property name="meta.media.nb_streams">2</property>
  <property name="meta.media.0.stream.type">video</property>
  <property name="meta.media.0.stream.frame_rate">30</property>
  <property name="meta.media.0.stream.sample_aspect_ratio">0</property>
  <property name="meta.media.0.codec.width">1440</property>
  <property name="meta.media.0.codec.height">900</property>
  <property name="meta.media.0.codec.rotate">0</property>
  <property name="meta.media.0.codec.pix_fmt">yuv420p</property>
  <property name="meta.media.0.codec.sample_aspect_ratio">1</property>
  <property name="meta.media.0.codec.colorspace">709</property>
  <property name="meta.media.0.codec.color_trc">1</property>
  <property name="meta.media.0.codec.name">h264</property>
  <property name="meta.media.0.codec.long_name">H.264 / AVC / MPEG-4 AVC / MPEG-4 part 10</property>
  <property name="meta.media.0.codec.bit_rate">318584</property>
  <property name="meta.attr.0.stream.handler_name.markup">VideoHandler</property>
  <property name="meta.attr.0.stream.vendor_id.markup">[0][0][0][0]</property>
  <property name="meta.media.1.stream.type">audio</property>
  <property name="meta.media.1.codec.sample_fmt">fltp</property>
  <property name="meta.media.1.codec.sample_rate">48000</property>
  <property name="meta.media.1.codec.channels">2</property>
  <property name="meta.media.1.codec.layout">stereo</property>
  <property name="meta.media.1.codec.name">aac</property>
  <property name="meta.media.1.codec.long_name">AAC (Advanced Audio Coding)</property>
  <property name="meta.media.1.codec.bit_rate">159999</property>
  <property name="meta.attr.1.stream.handler_name.markup">SoundHandler</property>
  <property name="meta.attr.1.stream.vendor_id.markup">[0][0][0][0]</property>
  <property name="meta.attr.major_brand.markup">isom</property>
  <property name="meta.attr.minor_version.markup">512</property>
  <property name="meta.attr.compatible_brands.markup">isomiso2avc1mp41</property>
  <property name="meta.attr.encoder.markup">Lavf62.3.100</property>
  <property name="meta.media.sample_aspect_num">1</property>
  <property name="meta.media.sample_aspect_den">1</property>
  <property name="meta.media.frame_rate_num">30</property>
  <property name="meta.media.frame_rate_den">1</property>
  <property name="meta.media.colorspace">709</property>
  <property name="meta.media.color_trc">1</property>
  <property name="meta.media.has_b_frames">2</property>
  <property name="meta.media.width">1440</property>
  <property name="meta.media.height">900</property>
  <property name="meta.media.aspect_ratio">1</property>
  <property name="meta.media.color_range">mpeg</property>
  <property name="xml">was here</property>
  <property name="meta.media.top_field_first">0</property>
  <property name="meta.media.progressive">1</property>
  <property name="set.test_audio">1</property>
  <property name="set.test_image">0</property>
 </chain>
 <producer id="producer92" in="00:00:00.000" out="00:00:01.533">
  <property name="length">47</property>
  <property name="eof">pause</property>
  <property name="resource">0.760000:images/taking-bow-bowing.gif</property>
  <property name="aspect_ratio">1</property>
  <property name="meta.media.nb_streams">1</property>
  <property name="meta.media.0.stream.type">video</property>
  <property name="meta.media.0.stream.frame_rate">16.6667</property>
  <property name="meta.media.0.stream.sample_aspect_ratio">0</property>
  <property name="meta.media.0.codec.width">498</property>
  <property name="meta.media.0.codec.height">326</property>
  <property name="meta.media.0.codec.rotate">0</property>
  <property name="meta.media.0.codec.pix_fmt">bgra</property>
  <property name="meta.media.0.codec.sample_aspect_ratio">0</property>
  <property name="meta.media.0.codec.colorspace">601</property>
  <property name="meta.media.0.codec.name">gif</property>
  <property name="meta.media.0.codec.long_name">GIF (Graphics Interchange Format)</property>
  <property name="meta.media.0.codec.bit_rate">0</property>
  <property name="seekable">1</property>
  <property name="meta.media.sample_aspect_num">1</property>
  <property name="meta.media.sample_aspect_den">1</property>
  <property name="format">2</property>
  <property name="audio_index">-1</property>
  <property name="video_index">0</property>
  <property name="warp_speed">0.76</property>
  <property name="warp_resource">images/taking-bow-bowing.gif</property>
  <property name="mlt_service">timewarp</property>
  <property name="kdenlive:control_uuid">{890eb209-fc1e-4865-bf99-5a392e695e5b}</property>
  <property name="vstream">0</property>
  <property name="astream">-1</property>
  <property name="set.test_audio">1</property>
  <property name="set.test_image">0</property>
  <property name="kdenlive:id">113</property>
  <property name="warp_pitch">0</property>
  <property name="meta.media.frame_rate_num">50</property>
  <property name="meta.media.frame_rate_den">3</property>
  <property name="meta.media.colorspace">601</property>
  <property name="meta.media.color_trc">2</property>
  <property name="meta.media.has_b_frames">0</property>
  <property name="meta.media.width">498</property>
  <property name="meta.media.height">326</property>
  <property name="meta.media.aspect_ratio">1</property>
  <property name="meta.media.color_range">mpeg</property>
  <property name="meta.media.top_field_first">0</property>
  <property name="meta.media.progressive">1</property>
 </producer>
 <chain id="chain26" out="00:00:01.767">
  <property name="length">54</property>
  <property name="eof">pause</property>
  <property name="resource">images/seth-meyers-late-night-with-seth-meyers.mp4</property>
  <property name="mlt_service">avformat-novalidate</property>
  <property name="seekable">1</property>
  <property name="format">3</property>
  <property name="audio_index">-1</property>
  <property name="video_index">0</property>
  <property name="vstream">0</property>
  <property name="kdenlive:folderid">-1</property>
  <property name="kdenlive:id">114</property>
  <property name="kdenlive:control_uuid">{ed474896-9dae-4b72-acc6-87cc17ae5330}</property>
  <property name="mute_on_pause">0</property>
  <property name="kdenlive:clip_type">2</property>
  <property name="kdenlive:file_size">150174</property>
  <property name="kdenlive:file_hash">5e5e0eb611e5f8902ca3d95899628215</property>
  <property name="kdenlive:kextractor">1</property>
  <property name="kdenlive:meta.extractor.Bitrate">667 kb/s</property>
  <property name="meta.media.nb_streams">1</property>
  <property name="meta.media.0.stream.type">video</property>
  <property name="meta.media.0.stream.frame_rate">10</property>
  <property name="meta.media.0.stream.sample_aspect_ratio">0</property>
  <property name="meta.media.0.codec.width">498</property>
  <property name="meta.media.0.codec.height">498</property>
  <property name="meta.media.0.codec.rotate">0</property>
  <property name="meta.media.0.codec.pix_fmt">yuv420p</property>
  <property name="meta.media.0.codec.sample_aspect_ratio">0</property>
  <property name="meta.media.0.codec.colorspace">601</property>
  <property name="meta.media.0.codec.name">h264</property>
  <property name="meta.media.0.codec.long_name">H.264 / AVC / MPEG-4 AVC / MPEG-4 part 10</property>
  <property name="meta.media.0.codec.bit_rate">662804</property>
  <property name="meta.attr.0.stream.handler_name.markup">VideoHandler</property>
  <property name="meta.attr.0.stream.vendor_id.markup">[0][0][0][0]</property>
  <property name="meta.attr.major_brand.markup">isom</property>
  <property name="meta.attr.minor_version.markup">512</property>
  <property name="meta.attr.compatible_brands.markup">isomiso2avc1mp41</property>
  <property name="meta.attr.encoder.markup">Google</property>
  <property name="meta.media.sample_aspect_num">1</property>
  <property name="meta.media.sample_aspect_den">1</property>
  <property name="meta.media.frame_rate_num">10</property>
  <property name="meta.media.frame_rate_den">1</property>
  <property name="meta.media.colorspace">601</property>
  <property name="meta.media.color_trc">2</property>
  <property name="meta.media.has_b_frames">2</property>
  <property name="meta.media.width">498</property>
  <property name="meta.media.height">498</property>
  <property name="meta.media.aspect_ratio">1</property>
  <property name="meta.media.color_range">mpeg</property>
  <property name="xml">was here</property>
  <property name="meta.media.top_field_first">0</property>
  <property name="meta.media.progressive">1</property>
  <property name="set.test_audio">1</property>
  <property name="set.test_image">0</property>
 </chain>
 <chain id="chain27" out="00:00:04.200">
  <property name="length">127</property>
  <property name="eof">pause</property>
  <property name="resource">images/brain-brain-meme.mp4</property>
  <property name="mlt_service">avformat-novalidate</property>
  <property name="seekable">1</property>
  <property name="format">3</property>
  <property name="audio_index">-1</property>
  <property name="video_index">0</property>
  <property name="vstream">0</property>
  <property name="kdenlive:folderid">-1</property>
  <property name="kdenlive:id">115</property>
  <property name="kdenlive:control_uuid">{a01c2afb-4bfe-48cd-ad44-bdf0808abf38}</property>
  <property name="mute_on_pause">0</property>
  <property name="kdenlive:clip_type">2</property>
  <property name="kdenlive:file_size">238220</property>
  <property name="kdenlive:file_hash">c0bf9c4c2b1ed51ff591065794b2d82d</property>
  <property name="kdenlive:kextractor">1</property>
  <property name="kdenlive:meta.extractor.Bitrate">450 kb/s</property>
  <property name="meta.media.nb_streams">1</property>
  <property name="meta.media.0.stream.type">video</property>
  <property name="meta.media.0.stream.frame_rate">30</property>
  <property name="meta.media.0.stream.sample_aspect_ratio">0</property>
  <property name="meta.media.0.codec.width">268</property>
  <property name="meta.media.0.codec.height">200</property>
  <property name="meta.media.0.codec.rotate">0</property>
  <property name="meta.media.0.codec.pix_fmt">yuv420p</property>
  <property name="meta.media.0.codec.sample_aspect_ratio">0</property>
  <property name="meta.media.0.codec.colorspace">601</property>
  <property name="meta.media.0.codec.name">h264</property>
  <property name="meta.media.0.codec.long_name">H.264 / AVC / MPEG-4 AVC / MPEG-4 part 10</property>
  <property name="meta.media.0.codec.bit_rate">445768</property>
  <property name="meta.attr.0.stream.handler_name.markup">VideoHandler</property>
  <property name="meta.attr.0.stream.vendor_id.markup">[0][0][0][0]</property>
  <property name="meta.attr.major_brand.markup">isom</property>
  <property name="meta.attr.minor_version.markup">512</property>
  <property name="meta.attr.compatible_brands.markup">isomiso2avc1mp41</property>
  <property name="meta.attr.encoder.markup">Google</property>
  <property name="meta.media.sample_aspect_num">1</property>
  <property name="meta.media.sample_aspect_den">1</property>
  <property name="meta.media.frame_rate_num">30</property>
  <property name="meta.media.frame_rate_den">1</property>
  <property name="meta.media.colorspace">601</property>
  <property name="meta.media.color_trc">2</property>
  <property name="meta.media.has_b_frames">2</property>
  <property name="meta.media.width">268</property>
  <property name="meta.media.height">200</property>
  <property name="meta.media.aspect_ratio">1</property>
  <property name="meta.media.color_range">mpeg</property>
  <property name="xml">was here</property>
  <property name="meta.media.top_field_first">0</property>
  <property name="meta.media.progressive">1</property>
  <property name="set.test_audio">1</property>
  <property name="set.test_image">0</property>
 </chain>
 <playlist id="playlist4">
  <entry in="00:00:00.000" out="00:00:01.700" producer="producer1">
   <property name="kdenlive:id">7</property>
  </entry>
  <entry in="00:00:00.000" out="00:00:01.367" producer="producer2">
   <property name="kdenlive:id">8</property>
  </entry>
  <entry in="00:00:00.000" out="00:00:02.667" producer="producer3">
   <property name="kdenlive:id">6</property>
  </entry>
  <entry in="00:00:00.000" out="00:00:05.800" producer="producer5">
   <property name="kdenlive:id">22</property>
  </entry>
  <entry in="00:00:00.000" out="00:00:02.800" producer="producer6">
   <property name="kdenlive:id">10</property>
  </entry>
  <entry in="00:00:00.000" out="00:00:03.900" producer="producer7">
   <property name="kdenlive:id">11</property>
   <filter id="filter6">
    <property name="filter">frei0r.alphaspot</property>
    <property name="mlt_service">mask_start</property>
    <property name="kdenlive_id">mask_start-frei0r.alphaspot</property>
    <property name="filter.Shape">0</property>
    <property name="filter.Position X">00:00:00.000=0.452266</property>
    <property name="filter.Position Y">00:00:00.000=0.326778</property>
    <property name="filter.Size X">00:00:00.000=0.311039</property>
    <property name="filter.Size Y">00:00:00.000=0.086</property>
    <property name="filter.Tilt">0=0.5</property>
    <property name="filter.Transition width">00:00:00.000=0.2</property>
    <property name="filter.Min">00:00:00.000=0</property>
    <property name="filter.Max">0=1</property>
    <property name="filter.Operation">1</property>
    <property name="kdenlive:collapsed">0</property>
   </filter>
   <filter id="filter7">
    <property name="mlt_service">avfilter.gblur</property>
    <property name="kdenlive_id">avfilter.gblur</property>
    <property name="av.steps">1</property>
    <property name="av.planes">7</property>
    <property name="av.sigma">00:00:00.000=10</property>
    <property name="av.sigmaV">00:00:00.000=7</property>
    <property name="kdenlive:collapsed">1</property>
   </filter>
   <filter id="filter8">
    <property name="transition">qtblend</property>
    <property name="mlt_image_format">rgba</property>
    <property name="mlt_service">mask_apply</property>
    <property name="kdenlive_id">mask_apply</property>
    <property name="kdenlive:collapsed">0</property>
   </filter>
  </entry>
  <entry in="00:00:00.000" out="00:00:03.233" producer="producer8">
   <property name="kdenlive:id">12</property>
   <filter id="filter9">
    <property name="filter">frei0r.alphaspot</property>
    <property name="mlt_service">mask_start</property>
    <property name="kdenlive_id">mask_start-frei0r.alphaspot</property>
    <property name="filter.Shape">0</property>
    <property name="filter.Position X">00:00:00.000=0.439743</property>
    <property name="filter.Position Y">00:00:00.000=0.644331</property>
    <property name="filter.Size X">00:00:00.000=0.306939</property>
    <property name="filter.Size Y">00:00:00.000=0.214246</property>
    <property name="filter.Tilt">0=0.5</property>
    <property name="filter.Transition width">0=0.2</property>
    <property name="filter.Min">0=0</property>
    <property name="filter.Max">0=1</property>
    <property name="filter.Operation">1</property>
    <property name="kdenlive:collapsed">1</property>
   </filter>
   <filter id="filter10">
    <property name="mlt_service">avfilter.gblur</property>
    <property name="kdenlive_id">avfilter.gblur</property>
    <property name="av.steps">1</property>
    <property name="av.planes">7</property>
    <property name="av.sigma">00:00:00.000=10</property>
    <property name="av.sigmaV">00:00:00.000=10</property>
    <property name="kdenlive:collapsed">1</property>
   </filter>
   <filter id="filter11">
    <property name="transition">qtblend</property>
    <property name="mlt_image_format">rgba</property>
    <property name="mlt_service">mask_apply</property>
    <property name="kdenlive_id">mask_apply</property>
    <property name="kdenlive:collapsed">0</property>
   </filter>
  </entry>
  <entry in="00:00:00.000" out="00:00:04.967" producer="producer9">
   <property name="kdenlive:id">13</property>
  </entry>
  <entry in="00:00:00.000" out="00:00:01.600" producer="producer10">
   <property name="kdenlive:id">14</property>
   <filter id="filter12">
    <property name="rotate_center">1</property>
    <property name="mlt_service">qtblend</property>
    <property name="kdenlive_id">qtblend</property>
    <property name="compositing">0</property>
    <property name="distort">0</property>
    <property name="rect">00:00:00.000=0 226 1920 846 1.000000</property>
    <property name="rotation">00:00:00.000=0</property>
    <property name="kdenlive:collapsed">0</property>
   </filter>
  </entry>
  <entry in="00:00:00.000" out="00:00:01.867" producer="chain4">
   <property name="kdenlive:id">16</property>
  </entry>
  <entry in="00:00:00.000" out="00:00:03.900" producer="producer11">
   <property name="kdenlive:id">17</property>
  </entry>
  <entry in="00:00:00.000" out="00:00:00.533" producer="chain5">
   <property name="kdenlive:id">18</property>
  </entry>
  <entry in="00:00:00.000" out="00:00:00.533" producer="chain5">
   <property name="kdenlive:id">18</property>
  </entry>
  <entry in="00:00:00.000" out="00:00:00.167" producer="chain5">
   <property name="kdenlive:id">18</property>
  </entry>
  <entry in="00:00:00.000" out="00:00:01.367" producer="producer12">
   <property name="kdenlive:id">19</property>
  </entry>
  <entry in="00:00:00.000" out="00:00:01.567" producer="producer13">
   <property name="kdenlive:id">20</property>
  </entry>
  <entry in="00:00:00.000" out="00:00:00.933" producer="chain6">
   <property name="kdenlive:id">21</property>
  </entry>
  <entry in="00:00:00.000" out="00:00:00.933" producer="chain6">
   <property name="kdenlive:id">21</property>
  </entry>
  <entry in="00:00:00.000" out="00:00:00.467" producer="chain6">
   <property name="kdenlive:id">21</property>
  </entry>
  <entry in="00:00:00.000" out="00:00:04.967" producer="producer14">
   <property name="kdenlive:id">9</property>
  </entry>
  <entry in="00:00:00.000" out="00:00:02.733" producer="producer15">
   <property name="kdenlive:id">23</property>
  </entry>
  <entry in="00:00:00.000" out="00:00:01.333" producer="chain7">
   <property name="kdenlive:id">24</property>
  </entry>
  <entry in="00:00:00.000" out="00:00:01.333" producer="chain7">
   <property name="kdenlive:id">24</property>
  </entry>
  <entry in="00:00:00.000" out="00:00:00.600" producer="chain7">
   <property name="kdenlive:id">24</property>
  </entry>
  <entry in="00:00:00.000" out="00:00:01.100" producer="producer16">
   <property name="kdenlive:id">25</property>
  </entry>
  <entry in="00:00:00.000" out="00:00:02.333" producer="producer17">
   <property name="kdenlive:id">26</property>
  </entry>
  <entry in="00:00:00.000" out="00:00:02.000" producer="producer18">
   <property name="kdenlive:id">27</property>
  </entry>
  <entry in="00:00:00.000" out="00:00:02.267" producer="producer19">
   <property name="kdenlive:id">28</property>
  </entry>
  <entry in="00:00:00.000" out="00:00:01.433" producer="chain18">
   <property name="kdenlive:id">30</property>
  </entry>
  <entry in="00:00:00.000" out="00:00:01.367" producer="chain18">
   <property name="kdenlive:id">30</property>
  </entry>
  <entry in="00:00:00.000" out="00:00:02.167" producer="producer21">
   <property name="kdenlive:id">31</property>
  </entry>
  <entry in="00:00:00.000" out="00:00:03.567" producer="producer22">
   <property name="kdenlive:id">32</property>
  </entry>
  <entry in="00:00:00.000" out="00:00:02.433" producer="producer23">
   <property name="kdenlive:id">33</property>
  </entry>
  <entry in="00:00:00.000" out="00:00:02.267" producer="producer24">
   <property name="kdenlive:id">34</property>
  </entry>
  <entry in="00:00:00.000" out="00:00:01.233" producer="producer25">
   <property name="kdenlive:id">35</property>
   <property name="kdenlive:activeeffect">1</property>
   <filter id="filter13">
    <property name="filter">frei0r.alphaspot</property>
    <property name="mlt_service">mask_start</property>
    <property name="kdenlive_id">mask_start-frei0r.alphaspot</property>
    <property name="filter.Shape">0</property>
    <property name="filter.Position X">00:00:00.000=0.491431</property>
    <property name="filter.Position Y">00:00:00.000=0.719919</property>
    <property name="filter.Size X">00:00:00.000=0.455976</property>
    <property name="filter.Size Y">00:00:00.000=0.155623</property>
    <property name="filter.Tilt">0=0.5</property>
    <property name="filter.Transition width">0=0.2</property>
    <property name="filter.Min">0=0</property>
    <property name="filter.Max">0=1</property>
    <property name="filter.Operation">1</property>
    <property name="kdenlive:collapsed">1</property>
   </filter>
   <filter id="filter14">
    <property name="mlt_service">avfilter.gblur</property>
    <property name="kdenlive_id">avfilter.gblur</property>
    <property name="av.steps">1</property>
    <property name="av.planes">7</property>
    <property name="av.sigma">00:00:00.000=10</property>
    <property name="av.sigmaV">00:00:00.000=10</property>
    <property name="kdenlive:collapsed">1</property>
   </filter>
   <filter id="filter15">
    <property name="transition">qtblend</property>
    <property name="mlt_image_format">rgba</property>
    <property name="mlt_service">mask_apply</property>
    <property name="kdenlive_id">mask_apply</property>
    <property name="kdenlive:collapsed">0</property>
   </filter>
  </entry>
  <entry in="00:00:00.000" out="00:00:05.100" producer="producer26">
   <property name="kdenlive:id">36</property>
  </entry>
  <entry in="00:00:00.000" out="00:00:08.867" producer="producer27">
   <property name="kdenlive:id">37</property>
   <filter id="filter16">
    <property name="filter">frei0r.alphaspot</property>
    <property name="mlt_service">mask_start</property>
    <property name="kdenlive_id">mask_start-frei0r.alphaspot</property>
    <property name="filter.Shape">0</property>
    <property name="filter.Position X">00:00:00.000=0.168191;00:00:02.467$=0.168191;00:00:02.700=0.4263;00:00:05.367$=0.4263;00:00:06.333=0.287296</property>
    <property name="filter.Position Y">00:00:00.000=0.826891;00:00:02.467$=0.826891;00:00:02.700=0.176542;00:00:05.367$=0.176542;00:00:06.333=0.400479</property>
    <property name="filter.Size X">00:00:00.000=0.140235;00:00:02.467$=0.140235;00:00:02.700=0.320192;00:00:05.367$=0.320192;00:00:06.333=0.210579</property>
    <property name="filter.Size Y">00:00:00.000=0.0503691;00:00:02.467$=0.0503691;00:00:02.700=0.103587;00:00:05.367$=0.103587;00:00:06.333=0.102674</property>
    <property name="filter.Tilt">00:00:00.000=0.502;00:00:02.467$=0.502;00:00:02.700=0.502;00:00:05.367$=0.502;00:00:06.333=0.502</property>
    <property name="filter.Transition width">00:00:00.000=0.2;00:00:02.467$=0.2;00:00:02.700=0.2;00:00:05.367$=0.2;00:00:06.333=0.2</property>
    <property name="filter.Min">00:00:00.000=0;00:00:02.467$=0;00:00:02.700=0;00:00:05.367$=0;00:00:06.333=0</property>
    <property name="filter.Max">00:00:00.000=1;00:00:02.467$=1;00:00:02.700=1;00:00:05.367$=1;00:00:06.333=1</property>
    <property name="filter.Operation">1</property>
    <property name="kdenlive:collapsed">0</property>
   </filter>
   <filter id="filter17">
    <property name="mlt_service">avfilter.gblur</property>
    <property name="kdenlive_id">avfilter.gblur</property>
    <property name="av.steps">1</property>
    <property name="av.planes">7</property>
    <property name="av.sigma">00:00:00.000=10</property>
    <property name="av.sigmaV">00:00:00.000=10</property>
    <property name="kdenlive:collapsed">1</property>
   </filter>
   <filter id="filter18">
    <property name="transition">qtblend</property>
    <property name="mlt_image_format">rgba</property>
    <property name="mlt_service">mask_apply</property>
    <property name="kdenlive_id">mask_apply</property>
    <property name="kdenlive:collapsed">0</property>
   </filter>
  </entry>
  <entry in="00:00:00.000" out="00:00:00.467" producer="producer28">
   <property name="kdenlive:id">39</property>
  </entry>
  <entry in="00:00:00.000" out="00:00:00.433" producer="producer29">
   <property name="kdenlive:id">38</property>
  </entry>
  <entry in="00:00:00.000" out="00:00:00.833" producer="producer30">
   <property name="kdenlive:id">40</property>
  </entry>
  <entry in="00:00:00.000" out="00:00:00.167" producer="producer31">
   <property name="kdenlive:id">41</property>
  </entry>
  <entry in="00:00:00.000" out="00:00:00.300" producer="producer32">
   <property name="kdenlive:id">42</property>
  </entry>
  <entry in="00:00:00.000" out="00:00:00.800" producer="producer33">
   <property name="kdenlive:id">43</property>
  </entry>
  <entry in="00:00:00.000" out="00:00:12.700" producer="producer34">
   <property name="kdenlive:id">44</property>
   <filter id="filter19">
    <property name="filter">frei0r.alphaspot</property>
    <property name="mlt_service">mask_start</property>
    <property name="kdenlive_id">mask_start-frei0r.alphaspot</property>
    <property name="filter.Shape">0</property>
    <property name="filter.Position X">00:00:00.000=0.123316;00:00:02.900$=0.123316;00:00:03.100=0.441877;00:00:03.933$=0.441877;00:00:04.100=0.487942</property>
    <property name="filter.Position Y">00:00:00.000=0.944567;00:00:02.900$=0.944567;00:00:03.100=0.339689;00:00:03.933$=0.339689;00:00:04.100=0.435888</property>
    <property name="filter.Size X">00:00:00.000=0.0831215;00:00:02.900$=0.0831215;00:00:03.100=0.34787;00:00:03.933$=0.34787;00:00:04.100=0.393671</property>
    <property name="filter.Size Y">00:00:00.000=0.0325289;00:00:02.900$=0.0325289;00:00:03.100=0.0285416;00:00:03.933$=0.0285416;00:00:04.100=0.124776</property>
    <property name="filter.Tilt">00:00:00.000=0.5;00:00:02.900$=0.5;00:00:03.100=0.5;00:00:03.933$=0.5;00:00:04.100=0.5</property>
    <property name="filter.Transition width">00:00:00.000=0.2;00:00:02.900$=0.2;00:00:03.100=0.2;00:00:03.933$=0.2;00:00:04.100=0.2</property>
    <property name="filter.Min">00:00:00.000=0;00:00:02.900$=0;00:00:03.100=0;00:00:03.933$=0;00:00:04.100=0</property>
    <property name="filter.Max">00:00:00.000=1;00:00:02.900$=1;00:00:03.100=1;00:00:03.933$=1;00:00:04.100=1</property>
    <property name="filter.Operation">1</property>
    <property name="kdenlive:collapsed">0</property>
   </filter>
   <filter id="filter20">
    <property name="mlt_service">avfilter.gblur</property>
    <property name="kdenlive_id">avfilter.gblur</property>
    <property name="av.steps">1</property>
    <property name="av.planes">7</property>
    <property name="av.sigma">00:00:00.000=10</property>
    <property name="av.sigmaV">00:00:00.000=10</property>
    <property name="kdenlive:collapsed">1</property>
   </filter>
   <filter id="filter21">
    <property name="transition">qtblend</property>
    <property name="mlt_image_format">rgba</property>
    <property name="mlt_service">mask_apply</property>
    <property name="kdenlive_id">mask_apply</property>
    <property name="kdenlive:collapsed">0</property>
   </filter>
  </entry>
  <entry in="00:00:00.000" out="00:00:00.433" producer="producer28">
   <property name="kdenlive:id">39</property>
  </entry>
  <entry in="00:00:00.000" out="00:00:00.300" producer="producer29">
   <property name="kdenlive:id">38</property>
  </entry>
  <entry in="00:00:00.000" out="00:00:00.667" producer="producer30">
   <property name="kdenlive:id">40</property>
  </entry>
  <entry in="00:00:00.000" out="00:00:00.200" producer="producer31">
   <property name="kdenlive:id">41</property>
  </entry>
  <entry in="00:00:00.000" out="00:00:02.133" producer="producer37">
   <property name="kdenlive:id">45</property>
  </entry>
  <entry in="00:00:00.000" out="00:00:25.000" producer="producer38">
   <property name="kdenlive:id">46</property>
   <filter id="filter22">
    <property name="filter">frei0r.alphaspot</property>
    <property name="mlt_service">mask_start</property>
    <property name="kdenlive_id">mask_start-frei0r.alphaspot</property>
    <property name="filter.Shape">0</property>
    <property name="filter.Position X">00:00:00.000=0.160928;00:00:03.733$=0.160928;00:00:03.900=0.503288</property>
    <property name="filter.Position Y">00:00:00.000=0.944135;00:00:03.733$=0.944135;00:00:03.900=0.502616</property>
    <property name="filter.Size X">00:00:00.000=0.130487;00:00:03.733$=0.130487;00:00:03.900=0.414738</property>
    <property name="filter.Size Y">00:00:00.000=0.03463;00:00:03.733$=0.03463;00:00:03.900=0.0973212</property>
    <property name="filter.Tilt">00:00:00.000=0.5;00:00:03.733$=0.5;00:00:03.900=0.5</property>
    <property name="filter.Transition width">00:00:00.000=0.2;00:00:03.733$=0.2;00:00:03.900=0.2</property>
    <property name="filter.Min">00:00:00.000=0;00:00:03.733$=0;00:00:03.900=0</property>
    <property name="filter.Max">00:00:00.000=1;00:00:03.733$=1;00:00:03.900=1</property>
    <property name="filter.Operation">1</property>
    <property name="kdenlive:collapsed">0</property>
   </filter>
   <filter id="filter23">
    <property name="mlt_service">avfilter.gblur</property>
    <property name="kdenlive_id">avfilter.gblur</property>
    <property name="av.steps">1</property>
    <property name="av.planes">7</property>
    <property name="av.sigma">00:00:00.000=10</property>
    <property name="av.sigmaV">00:00:00.000=10</property>
    <property name="kdenlive:collapsed">0</property>
   </filter>
   <filter id="filter24">
    <property name="transition">qtblend</property>
    <property name="mlt_image_format">rgba</property>
    <property name="mlt_service">mask_apply</property>
    <property name="kdenlive_id">mask_apply</property>
    <property name="kdenlive:collapsed">0</property>
   </filter>
  </entry>
  <entry in="00:00:00.000" out="00:00:14.067" producer="producer34">
   <property name="kdenlive:id">44</property>
   <filter id="filter25">
    <property name="filter">frei0r.alphaspot</property>
    <property name="mlt_service">mask_start</property>
    <property name="kdenlive_id">mask_start-frei0r.alphaspot</property>
    <property name="filter.Shape">0</property>
    <property name="filter.Position X">00:00:00.000=0.487942;00:00:08.767$=0.487942;00:00:09.300=0.48776</property>
    <property name="filter.Position Y">00:00:00.000=0.435888;00:00:08.767$=0.435888;00:00:09.300=0.571106</property>
    <property name="filter.Size X">00:00:00.000=0.393671;00:00:08.767$=0.393671;00:00:09.300=0.39349</property>
    <property name="filter.Size Y">00:00:00.000=0.124776;00:00:08.767$=0.124776;00:00:09.300=0.259995</property>
    <property name="filter.Tilt">00:00:00.000=0.5;00:00:08.767$=0.5;00:00:09.300=0.5</property>
    <property name="filter.Transition width">00:00:00.000=0.2;00:00:08.767$=0.2;00:00:09.300=0.2</property>
    <property name="filter.Min">00:00:00.000=0;00:00:08.767$=0;00:00:09.300=0</property>
    <property name="filter.Max">00:00:00.000=1;00:00:08.767$=1;00:00:09.300=1</property>
    <property name="filter.Operation">1</property>
    <property name="kdenlive:collapsed">0</property>
   </filter>
   <filter id="filter26">
    <property name="mlt_service">avfilter.gblur</property>
    <property name="kdenlive_id">avfilter.gblur</property>
    <property name="av.steps">1</property>
    <property name="av.planes">7</property>
    <property name="av.sigma">00:00:00.000=10</property>
    <property name="av.sigmaV">00:00:00.000=10</property>
    <property name="kdenlive:collapsed">1</property>
   </filter>
   <filter id="filter27">
    <property name="transition">qtblend</property>
    <property name="mlt_image_format">rgba</property>
    <property name="mlt_service">mask_apply</property>
    <property name="kdenlive_id">mask_apply</property>
    <property name="kdenlive:collapsed">0</property>
   </filter>
  </entry>
  <entry in="00:00:00.000" out="00:00:07.967" producer="producer39">
   <property name="kdenlive:id">47</property>
   <filter id="filter28">
    <property name="filter">frei0r.alphaspot</property>
    <property name="mlt_service">mask_start</property>
    <property name="kdenlive_id">mask_start-frei0r.alphaspot</property>
    <property name="filter.Shape">0</property>
    <property name="filter.Position X">00:00:00.000=0.162118;00:00:02.533$=0.162118;00:00:03.167=0.496707</property>
    <property name="filter.Position Y">00:00:00.000=0.923896;00:00:02.533$=0.923896;00:00:03.167=0.462965</property>
    <property name="filter.Size X">00:00:00.000=0.128403;00:00:02.533$=0.128403;00:00:03.167=0.421437</property>
    <property name="filter.Size Y">00:00:00.000=0.0485279;00:00:02.533$=0.0485279;00:00:03.167=0.0668571</property>
    <property name="filter.Tilt">00:00:00.000=0.5;00:00:02.533$=0.5;00:00:03.167=0.5</property>
    <property name="filter.Transition width">00:00:00.000=0.2;00:00:02.533$=0.2;00:00:03.167=0.2</property>
    <property name="filter.Min">00:00:00.000=0;00:00:02.533$=0;00:00:03.167=0</property>
    <property name="filter.Max">00:00:00.000=1;00:00:02.533$=1;00:00:03.167=1</property>
    <property name="filter.Operation">1</property>
    <property name="kdenlive:collapsed">0</property>
   </filter>
   <filter id="filter29">
    <property name="mlt_service">avfilter.gblur</property>
    <property name="kdenlive_id">avfilter.gblur</property>
    <property name="av.steps">1</property>
    <property name="av.planes">7</property>
    <property name="av.sigma">00:00:00.000=10</property>
    <property name="av.sigmaV">00:00:00.000=10</property>
    <property name="kdenlive:collapsed">0</property>
   </filter>
   <filter id="filter30">
    <property name="transition">qtblend</property>
    <property name="mlt_image_format">rgba</property>
    <property name="mlt_service">mask_apply</property>
    <property name="kdenlive_id">mask_apply</property>
    <property name="kdenlive:collapsed">0</property>
   </filter>
  </entry>
  <entry in="00:00:00.000" out="00:00:14.533" producer="producer40">
   <property name="kdenlive:id">48</property>
   <filter id="filter31">
    <property name="filter">frei0r.alphaspot</property>
    <property name="mlt_service">mask_start</property>
    <property name="kdenlive_id">mask_start-frei0r.alphaspot</property>
    <property name="filter.Shape">0</property>
    <property name="filter.Position X">00:00:00.000=0.515296</property>
    <property name="filter.Position Y">00:00:00.000=0.132092</property>
    <property name="filter.Size X">00:00:00.000=0.455729</property>
    <property name="filter.Size Y">00:00:00.000=0.142908</property>
    <property name="filter.Tilt">0=0.5</property>
    <property name="filter.Transition width">0=0.2</property>
    <property name="filter.Min">0=0</property>
    <property name="filter.Max">0=1</property>
    <property name="filter.Operation">1</property>
    <property name="kdenlive:collapsed">0</property>
   </filter>
   <filter id="filter32">
    <property name="mlt_service">avfilter.gblur</property>
    <property name="kdenlive_id">avfilter.gblur</property>
    <property name="av.steps">1</property>
    <property name="av.planes">7</property>
    <property name="av.sigma">00:00:00.000=10</property>
    <property name="av.sigmaV">00:00:00.000=10</property>
    <property name="kdenlive:collapsed">0</property>
   </filter>
   <filter id="filter33">
    <property name="transition">qtblend</property>
    <property name="mlt_image_format">rgba</property>
    <property name="mlt_service">mask_apply</property>
    <property name="kdenlive_id">mask_apply</property>
    <property name="kdenlive:collapsed">0</property>
   </filter>
  </entry>
  <entry in="00:00:00.000" out="00:00:16.100" producer="producer41">
   <property name="kdenlive:id">49</property>
   <filter id="filter34">
    <property name="filter">frei0r.alphaspot</property>
    <property name="mlt_service">mask_start</property>
    <property name="kdenlive_id">mask_start-frei0r.alphaspot</property>
    <property name="filter.Shape">0</property>
    <property name="filter.Position X">00:00:00.000=0.170226;00:00:02.833$=0.170226;00:00:03.567=0.508196;00:00:07.833$=0.508196;00:00:08.300=0.508073;00:00:10.900$=0.508073;00:00:11.233=0.508073;00:00:13.700=0.508002</property>
    <property name="filter.Position Y">00:00:00.000=0.929228;00:00:02.833$=0.929228;00:00:03.567=0.181613;00:00:07.833$=0.181613;00:00:08.300=0.271597;00:00:10.900$=0.271597;00:00:11.233=0.489843;00:00:13.700=0.489815</property>
    <property name="filter.Size X">00:00:00.000=0.145489;00:00:02.833$=0.145489;00:00:03.567=0.414878;00:00:07.833$=0.414878;00:00:08.300=0.414844;00:00:10.900$=0.414844;00:00:11.233=0.414844;00:00:13.700=0.414915</property>
    <property name="filter.Size Y">00:00:00.000=0.0494668;00:00:02.833$=0.0494668;00:00:03.567=0.0613142;00:00:07.833$=0.0613142;00:00:08.300=0.151226;00:00:10.900$=0.151226;00:00:11.233=0.369472;00:00:13.700=0.369444</property>
    <property name="filter.Tilt">00:00:00.000=0.5;00:00:02.833$=0.5;00:00:03.567=0.5;00:00:07.833$=0.5;00:00:08.300=0.5;00:00:10.900$=0.5;00:00:11.233=0.5;00:00:13.700=0.5</property>
    <property name="filter.Transition width">00:00:00.000=0.2;00:00:02.833$=0.2;00:00:03.567=0.2;00:00:07.833$=0.2;00:00:08.300=0.2;00:00:10.900$=0.2;00:00:11.233=0;00:00:13.700=0</property>
    <property name="filter.Min">00:00:00.000=0;00:00:02.833$=0;00:00:03.567=0;00:00:07.833$=0;00:00:08.300=0;00:00:10.900$=0;00:00:11.233=0;00:00:13.700=0</property>
    <property name="filter.Max">00:00:00.000=1;00:00:02.833$=1;00:00:03.567=1;00:00:07.833$=1;00:00:08.300=1;00:00:10.900$=1;00:00:11.233=1;00:00:13.700=1</property>
    <property name="filter.Operation">1</property>
    <property name="kdenlive:collapsed">0</property>
   </filter>
   <filter id="filter35">
    <property name="mlt_service">avfilter.gblur</property>
    <property name="kdenlive_id">avfilter.gblur</property>
    <property name="av.steps">1</property>
    <property name="av.planes">7</property>
    <property name="av.sigma">00:00:00.000=10</property>
    <property name="av.sigmaV">00:00:00.000=10</property>
    <property name="kdenlive:collapsed">0</property>
   </filter>
   <filter id="filter36">
    <property name="transition">qtblend</property>
    <property name="mlt_image_format">rgba</property>
    <property name="mlt_service">mask_apply</property>
    <property name="kdenlive_id">mask_apply</property>
    <property name="kdenlive:collapsed">0</property>
   </filter>
  </entry>
  <entry in="00:00:00.000" out="00:00:03.400" producer="producer42">
   <property name="kdenlive:id">50</property>
  </entry>
  <entry in="00:00:00.000" out="00:00:01.467" producer="producer43">
   <property name="kdenlive:id">51</property>
   <filter id="filter37">
    <property name="filter">frei0r.alphaspot</property>
    <property name="mlt_service">mask_start</property>
    <property name="kdenlive_id">mask_start-frei0r.alphaspot</property>
    <property name="filter.Shape">0</property>
    <property name="filter.Position X">00:00:00.000=0.498462</property>
    <property name="filter.Position Y">00:00:00.000=0.526863</property>
    <property name="filter.Size X">00:00:00.000=0.354663</property>
    <property name="filter.Size Y">00:00:00.000=0.40848</property>
    <property name="filter.Tilt">0=0.5</property>
    <property name="filter.Transition width">00:00:00.000=0</property>
    <property name="filter.Min">0=0</property>
    <property name="filter.Max">0=1</property>
    <property name="filter.Operation">1</property>
    <property name="kdenlive:collapsed">0</property>
   </filter>
   <filter id="filter38">
    <property name="mlt_service">avfilter.gblur</property>
    <property name="kdenlive_id">avfilter.gblur</property>
    <property name="av.steps">1</property>
    <property name="av.planes">7</property>
    <property name="av.sigma">00:00:00.000=10</property>
    <property name="av.sigmaV">00:00:00.000=10</property>
    <property name="kdenlive:collapsed">0</property>
   </filter>
   <filter id="filter39">
    <property name="transition">qtblend</property>
    <property name="mlt_image_format">rgba</property>
    <property name="mlt_service">mask_apply</property>
    <property name="kdenlive_id">mask_apply</property>
    <property name="kdenlive:collapsed">0</property>
   </filter>
  </entry>
  <entry in="00:00:00.000" out="00:00:01.100" producer="producer44">
   <property name="kdenlive:id">52</property>
  </entry>
  <blank length="00:00:01.767"/>
  <entry in="00:00:00.000" out="00:00:05.133" producer="producer45">
   <property name="kdenlive:id">53</property>
   <filter id="filter40">
    <property name="filter">frei0r.alphaspot</property>
    <property name="mlt_service">mask_start</property>
    <property name="kdenlive_id">mask_start-frei0r.alphaspot</property>
    <property name="filter.Shape">0</property>
    <property name="filter.Position X">00:00:00.000=0.355434;00:00:02.233=0.355469;00:00:02.467=0.456243;00:00:05.133=0.459375;00:00:05.233=0.462972;00:00:07.367=0.355469;00:00:07.567=0.463202;00:00:10.267=0.355434;00:00:10.367=0.462972;00:00:12.500=0.355469;00:00:12.700=0.463202;00:00:15.400=0.355434;00:00:15.500=0.462972;00:00:17.633=0.355469;00:00:17.833=0.463202;00:00:20.633=0.462972</property>
    <property name="filter.Position Y">00:00:00.000=0.378316;00:00:02.233=0.376271;00:00:02.467=0.436161;00:00:05.133=0.432405;00:00:05.233=0.528039;00:00:07.367=0.376271;00:00:07.567=0.433828;00:00:10.267=0.378316;00:00:10.367=0.528039;00:00:12.500=0.376271;00:00:12.700=0.433828;00:00:15.400=0.378316;00:00:15.500=0.528039;00:00:17.633=0.376271;00:00:17.833=0.433828;00:00:20.633=0.528039</property>
    <property name="filter.Size X">00:00:00.000=0.206095;00:00:02.233=0.20599;00:00:02.467=0.306764;00:00:05.133=0.309896;00:00:05.233=0.313493;00:00:07.367=0.20599;00:00:07.567=0.313722;00:00:10.267=0.206095;00:00:10.367=0.313493;00:00:12.500=0.20599;00:00:12.700=0.313722;00:00:15.400=0.206095;00:00:15.500=0.313493;00:00:17.633=0.20599;00:00:17.833=0.313722;00:00:20.633=0.313493</property>
    <property name="filter.Size Y">00:00:00.000=0.0713695;00:00:02.233=0.0697893;00:00:02.467=0.129679;00:00:05.133=0.125924;00:00:05.233=0.221557;00:00:07.367=0.0697893;00:00:07.567=0.127347;00:00:10.267=0.0713695;00:00:10.367=0.221557;00:00:12.500=0.0697893;00:00:12.700=0.127347;00:00:15.400=0.0713695;00:00:15.500=0.221557;00:00:17.633=0.0697893;00:00:17.833=0.127347;00:00:20.633=0.221557</property>
    <property name="filter.Tilt">00:00:00.000=0.499;00:00:02.233=0.499;00:00:02.467=0.499;00:00:05.133=0.499;00:00:05.233=0.499;00:00:07.367=0.499;00:00:07.567=0.499;00:00:10.267=0.499;00:00:10.367=0.499;00:00:12.500=0.499;00:00:12.700=0.499;00:00:15.400=0.499;00:00:15.500=0.499;00:00:17.633=0.499;00:00:17.833=0.499;00:00:20.633=0.499</property>
    <property name="filter.Transition width">00:00:00.000=0;00:00:02.233=0;00:00:02.467=0;00:00:05.133=0;00:00:05.233=0;00:00:07.367=0;00:00:07.567=0;00:00:10.267=0;00:00:10.367=0;00:00:12.500=0;00:00:12.700=0;00:00:15.400=0;00:00:15.500=0;00:00:17.633=0;00:00:17.833=0;00:00:20.633=0</property>
    <property name="filter.Min">00:00:00.000=0;00:00:02.233=0;00:00:02.467=0;00:00:05.133=0;00:00:05.233=0;00:00:07.367=0;00:00:07.567=0;00:00:10.267=0;00:00:10.367=0;00:00:12.500=0;00:00:12.700=0;00:00:15.400=0;00:00:15.500=0;00:00:17.633=0;00:00:17.833=0;00:00:20.633=0</property>
    <property name="filter.Max">00:00:00.000=1;00:00:02.233=1;00:00:02.467=1;00:00:05.133=1;00:00:05.233=1;00:00:07.367=1;00:00:07.567=1;00:00:10.267=1;00:00:10.367=1;00:00:12.500=1;00:00:12.700=1;00:00:15.400=1;00:00:15.500=1;00:00:17.633=1;00:00:17.833=1;00:00:20.633=1</property>
    <property name="filter.Operation">1</property>
    <property name="kdenlive:collapsed">1</property>
   </filter>
   <filter id="filter41">
    <property name="mlt_service">avfilter.gblur</property>
    <property name="kdenlive_id">avfilter.gblur</property>
    <property name="av.steps">1</property>
    <property name="av.planes">7</property>
    <property name="av.sigma">00:00:00.000=25</property>
    <property name="av.sigmaV">00:00:00.000=25</property>
    <property name="kdenlive:collapsed">1</property>
   </filter>
   <filter id="filter42">
    <property name="transition">qtblend</property>
    <property name="mlt_image_format">rgba</property>
    <property name="mlt_service">mask_apply</property>
    <property name="kdenlive_id">mask_apply</property>
    <property name="kdenlive:collapsed">0</property>
   </filter>
  </entry>
  <entry in="00:00:00.000" out="00:00:05.233" producer="producer34">
   <property name="kdenlive:id">44</property>
   <filter id="filter43">
    <property name="filter">frei0r.alphaspot</property>
    <property name="mlt_service">mask_start</property>
    <property name="kdenlive_id">mask_start-frei0r.alphaspot</property>
    <property name="filter.Shape">0</property>
    <property name="filter.Position X">00:00:00.000=0.518823</property>
    <property name="filter.Position Y">00:00:00.000=0.717006</property>
    <property name="filter.Size X">00:00:00.000=0.356011</property>
    <property name="filter.Size Y">00:00:00.000=0.0411772</property>
    <property name="filter.Tilt">0=0.5</property>
    <property name="filter.Transition width">00:00:00.000=0</property>
    <property name="filter.Min">0=0</property>
    <property name="filter.Max">0=1</property>
    <property name="filter.Operation">1</property>
    <property name="kdenlive:collapsed">0</property>
   </filter>
   <filter id="filter44">
    <property name="mlt_service">avfilter.gblur</property>
    <property name="kdenlive_id">avfilter.gblur</property>
    <property name="av.steps">1</property>
    <property name="av.planes">7</property>
    <property name="av.sigma">00:00:00.000=10</property>
    <property name="av.sigmaV">00:00:00.000=10</property>
    <property name="kdenlive:collapsed">0</property>
   </filter>
   <filter id="filter45">
    <property name="transition">qtblend</property>
    <property name="mlt_image_format">rgba</property>
    <property name="mlt_service">mask_apply</property>
    <property name="kdenlive_id">mask_apply</property>
    <property name="kdenlive:collapsed">0</property>
   </filter>
  </entry>
  <entry in="00:00:00.000" out="00:00:02.667" producer="producer46">
   <property name="kdenlive:id">54</property>
  </entry>
  <entry in="00:00:00.000" out="00:00:21.633" producer="producer38">
   <property name="kdenlive:id">46</property>
   <filter id="filter46">
    <property name="filter">frei0r.alphaspot</property>
    <property name="mlt_service">mask_start</property>
    <property name="kdenlive_id">mask_start-frei0r.alphaspot</property>
    <property name="filter.Shape">0</property>
    <property name="filter.Position X">00:00:00.000=0.508644</property>
    <property name="filter.Position Y">00:00:00.000=0.268587</property>
    <property name="filter.Size X">00:00:00.000=0.455729</property>
    <property name="filter.Size Y">00:00:00.000=0.155556</property>
    <property name="filter.Tilt">0=0.5</property>
    <property name="filter.Transition width">0=0.2</property>
    <property name="filter.Min">0=0</property>
    <property name="filter.Max">0=1</property>
    <property name="filter.Operation">1</property>
    <property name="kdenlive:collapsed">0</property>
   </filter>
   <filter id="filter47">
    <property name="mlt_service">avfilter.gblur</property>
    <property name="kdenlive_id">avfilter.gblur</property>
    <property name="av.steps">1</property>
    <property name="av.planes">7</property>
    <property name="av.sigma">00:00:00.000=10</property>
    <property name="av.sigmaV">00:00:00.000=10</property>
    <property name="kdenlive:collapsed">0</property>
   </filter>
   <filter id="filter48">
    <property name="transition">qtblend</property>
    <property name="mlt_image_format">rgba</property>
    <property name="mlt_service">mask_apply</property>
    <property name="kdenlive_id">mask_apply</property>
    <property name="kdenlive:collapsed">0</property>
   </filter>
  </entry>
  <entry in="00:00:00.000" out="00:00:06.233" producer="producer47">
   <property name="kdenlive:id">55</property>
   <filter id="filter49">
    <property name="filter">frei0r.alphaspot</property>
    <property name="mlt_service">mask_start</property>
    <property name="kdenlive_id">mask_start-frei0r.alphaspot</property>
    <property name="filter.Shape">0</property>
    <property name="filter.Position X">00:00:00.000=0.307285;00:00:01.533$=0.307285;00:00:01.767=0.320017;00:00:03.800=0.320017;00:00:04.033=0.336906</property>
    <property name="filter.Position Y">00:00:00.000=0.208431;00:00:01.533$=0.208431;00:00:01.767=0.261515;00:00:03.800=0.261515;00:00:04.033=0.352177</property>
    <property name="filter.Size X">00:00:00.000=0.177826;00:00:01.533$=0.177826;00:00:01.767=0.19085;00:00:03.800=0.19085;00:00:04.033=0.213449</property>
    <property name="filter.Size Y">00:00:00.000=0.0673363;00:00:01.533$=0.0673363;00:00:01.767=0.119848;00:00:03.800=0.119848;00:00:04.033=0.21051</property>
    <property name="filter.Tilt">00:00:00.000=0.5;00:00:01.533$=0.5;00:00:01.767=0.5;00:00:03.800=0.5;00:00:04.033=0.5</property>
    <property name="filter.Transition width">00:00:00.000=0.2;00:00:01.533$=0.2;00:00:01.767=0.2;00:00:03.800=0.2;00:00:04.033=0.2</property>
    <property name="filter.Min">00:00:00.000=0;00:00:01.533$=0;00:00:01.767=0;00:00:03.800=0;00:00:04.033=0</property>
    <property name="filter.Max">00:00:00.000=1;00:00:01.533$=1;00:00:01.767=1;00:00:03.800=1;00:00:04.033=1</property>
    <property name="filter.Operation">1</property>
    <property name="kdenlive:collapsed">0</property>
   </filter>
   <filter id="filter50">
    <property name="mlt_service">avfilter.gblur</property>
    <property name="kdenlive_id">avfilter.gblur</property>
    <property name="av.steps">1</property>
    <property name="av.planes">7</property>
    <property name="av.sigma">00:00:00.000=10</property>
    <property name="av.sigmaV">00:00:00.000=10</property>
    <property name="kdenlive:collapsed">0</property>
   </filter>
   <filter id="filter51">
    <property name="transition">qtblend</property>
    <property name="mlt_image_format">rgba</property>
    <property name="mlt_service">mask_apply</property>
    <property name="kdenlive_id">mask_apply</property>
    <property name="kdenlive:collapsed">0</property>
   </filter>
  </entry>
  <entry in="00:00:00.000" out="00:00:20.233" producer="producer40">
   <property name="kdenlive:id">48</property>
   <filter id="filter52">
    <property name="filter">frei0r.alphaspot</property>
    <property name="mlt_service">mask_start</property>
    <property name="kdenlive_id">mask_start-frei0r.alphaspot</property>
    <property name="filter.Shape">0</property>
    <property name="filter.Position X">00:00:00.000=0.526042;00:00:04.767$=0.526042;00:00:04.900=0.526302</property>
    <property name="filter.Position Y">00:00:00.000=0.153206;00:00:04.767$=0.153206;00:00:04.900=0.490453</property>
    <property name="filter.Size X">00:00:00.000=0.401562;00:00:04.767$=0.401562;00:00:04.900=0.401302</property>
    <property name="filter.Size Y">00:00:00.000=0.115321;00:00:04.767$=0.115321;00:00:04.900=0.45249</property>
    <property name="filter.Tilt">00:00:00.000=0.5;00:00:04.767$=0.5;00:00:04.900=0.5</property>
    <property name="filter.Transition width">00:00:00.000=0;00:00:04.767$=0;00:00:04.900=0</property>
    <property name="filter.Min">00:00:00.000=0;00:00:04.767$=0;00:00:04.900=0</property>
    <property name="filter.Max">00:00:00.000=1;00:00:04.767$=1;00:00:04.900=1</property>
    <property name="filter.Operation">1</property>
    <property name="kdenlive:collapsed">0</property>
   </filter>
   <filter id="filter53">
    <property name="mlt_service">avfilter.gblur</property>
    <property name="kdenlive_id">avfilter.gblur</property>
    <property name="av.steps">1</property>
    <property name="av.planes">7</property>
    <property name="av.sigma">00:00:00.000=10</property>
    <property name="av.sigmaV">00:00:00.000=10</property>
    <property name="kdenlive:collapsed">0</property>
   </filter>
   <filter id="filter54">
    <property name="transition">qtblend</property>
    <property name="mlt_image_format">rgba</property>
    <property name="mlt_service">mask_apply</property>
    <property name="kdenlive_id">mask_apply</property>
    <property name="kdenlive:collapsed">0</property>
   </filter>
  </entry>
  <entry in="00:00:00.000" out="00:00:31.700" producer="producer48">
   <property name="kdenlive:id">57</property>
   <filter id="filter55">
    <property name="filter">frei0r.alphaspot</property>
    <property name="mlt_service">mask_start</property>
    <property name="kdenlive_id">mask_start-frei0r.alphaspot</property>
    <property name="filter.Shape">0</property>
    <property name="filter.Position X">00:00:00.000=0.516881</property>
    <property name="filter.Position Y">00:00:00.000=0.448647</property>
    <property name="filter.Size X">00:00:00.000=0.357616</property>
    <property name="filter.Size Y">00:00:00.000=0.155556</property>
    <property name="filter.Tilt">0=0.5</property>
    <property name="filter.Transition width">0=0.2</property>
    <property name="filter.Min">0=0</property>
    <property name="filter.Max">0=1</property>
    <property name="filter.Operation">1</property>
    <property name="kdenlive:collapsed">0</property>
   </filter>
   <filter id="filter56">
    <property name="mlt_service">avfilter.gblur</property>
    <property name="kdenlive_id">avfilter.gblur</property>
    <property name="av.steps">1</property>
    <property name="av.planes">7</property>
    <property name="av.sigma">00:00:00.000=10</property>
    <property name="av.sigmaV">00:00:00.000=10</property>
    <property name="kdenlive:collapsed">0</property>
   </filter>
   <filter id="filter57">
    <property name="transition">qtblend</property>
    <property name="mlt_image_format">rgba</property>
    <property name="mlt_service">mask_apply</property>
    <property name="kdenlive_id">mask_apply</property>
    <property name="kdenlive:collapsed">0</property>
   </filter>
  </entry>
  <entry in="00:00:00.000" out="00:00:02.400" producer="producer51">
   <property name="kdenlive:id">58</property>
  </entry>
  <entry in="00:00:00.000" out="00:00:00.233" producer="producer52">
   <property name="kdenlive:id">59</property>
  </entry>
  <entry in="00:00:00.000" out="00:00:00.167" producer="producer53">
   <property name="kdenlive:id">60</property>
  </entry>
  <entry in="00:00:00.000" out="00:00:00.167" producer="producer54">
   <property name="kdenlive:id">61</property>
  </entry>
  <entry in="00:00:00.000" out="00:00:00.267" producer="producer55">
   <property name="kdenlive:id">62</property>
  </entry>
  <entry in="00:00:00.000" out="00:00:00.167" producer="producer56">
   <property name="kdenlive:id">63</property>
  </entry>
  <entry in="00:00:00.000" out="00:00:00.067" producer="producer57">
   <property name="kdenlive:id">64</property>
  </entry>
  <entry in="00:00:00.000" out="00:00:00.100" producer="producer58">
   <property name="kdenlive:id">65</property>
  </entry>
  <entry in="00:00:00.000" out="00:00:00.133" producer="producer59">
   <property name="kdenlive:id">66</property>
  </entry>
  <entry in="00:00:00.000" out="00:00:00.067" producer="producer60">
   <property name="kdenlive:id">67</property>
  </entry>
  <entry in="00:00:00.000" out="00:00:00.167" producer="producer59">
   <property name="kdenlive:id">66</property>
  </entry>
  <entry in="00:00:00.000" out="00:00:00.433" producer="producer61">
   <property name="kdenlive:id">68</property>
  </entry>
  <entry in="00:00:00.000" out="00:00:09.967" producer="producer62">
   <property name="kdenlive:id">69</property>
   <filter id="filter58">
    <property name="filter">frei0r.alphaspot</property>
    <property name="mlt_service">mask_start</property>
    <property name="kdenlive_id">mask_start-frei0r.alphaspot</property>
    <property name="filter.Shape">0</property>
    <property name="filter.Position X">00:00:00.000=0.150001;00:00:02.700$=0.150001;00:00:02.800=0.149125;00:00:06.600$=0.149125;00:00:06.767=0.164797;00:00:07.233g=0.164797;00:00:07.733=0.164583;00:00:08.667$=0.164583;00:00:08.833=0.164323</property>
    <property name="filter.Position Y">00:00:00.000=0.255569;00:00:02.700$=0.255569;00:00:02.800=0.278409;00:00:06.600$=0.278409;00:00:06.767=0.302705;00:00:07.233g=0.302705;00:00:07.733=0.327505;00:00:08.667$=0.327505;00:00:08.833=0.36018</property>
    <property name="filter.Size X">00:00:00.000=0.10352;00:00:02.700$=0.10352;00:00:02.800=0.10225;00:00:06.600$=0.10225;00:00:06.767=0.117922;00:00:07.233g=0.117922;00:00:07.733=0.117708;00:00:08.667$=0.117708;00:00:08.833=0.117448</property>
    <property name="filter.Size Y">00:00:00.000=0.0542538;00:00:02.700$=0.0542538;00:00:02.800=0.0765572;00:00:06.600$=0.0765572;00:00:06.767=0.100853;00:00:07.233g=0.100853;00:00:07.733=0.125653;00:00:08.667$=0.125653;00:00:08.833=0.158328</property>
    <property name="filter.Tilt">00:00:00.000=0.5;00:00:02.700$=0.5;00:00:02.800=0.5;00:00:06.600$=0.5;00:00:06.767=0.5;00:00:07.233g=0.5;00:00:07.733=0.5;00:00:08.667$=0.5;00:00:08.833=0.5</property>
    <property name="filter.Transition width">00:00:00.000=0;00:00:02.700$=0;00:00:02.800=0;00:00:06.600$=0;00:00:06.767=0;00:00:07.233g=0;00:00:07.733=0;00:00:08.667$=0;00:00:08.833=0</property>
    <property name="filter.Min">00:00:00.000=0;00:00:02.700$=0;00:00:02.800=0;00:00:06.600$=0;00:00:06.767=0;00:00:07.233g=0;00:00:07.733=0;00:00:08.667$=0;00:00:08.833=0</property>
    <property name="filter.Max">00:00:00.000=1;00:00:02.700$=1;00:00:02.800=1;00:00:06.600$=1;00:00:06.767=1;00:00:07.233g=1;00:00:07.733=1;00:00:08.667$=1;00:00:08.833=1</property>
    <property name="filter.Operation">1</property>
    <property name="kdenlive:collapsed">0</property>
   </filter>
   <filter id="filter59">
    <property name="mlt_service">avfilter.gblur</property>
    <property name="kdenlive_id">avfilter.gblur</property>
    <property name="av.steps">1</property>
    <property name="av.planes">7</property>
    <property name="av.sigma">00:00:00.000=0;00:00:01.267$=0;00:00:01.433=10</property>
    <property name="av.sigmaV">00:00:00.000=0;00:00:01.267$=0;00:00:01.433=10</property>
    <property name="kdenlive:collapsed">1</property>
   </filter>
   <filter id="filter60">
    <property name="transition">qtblend</property>
    <property name="mlt_image_format">rgba</property>
    <property name="mlt_service">mask_apply</property>
    <property name="kdenlive_id">mask_apply</property>
    <property name="kdenlive:collapsed">0</property>
   </filter>
  </entry>
  <entry in="00:00:00.000" out="00:00:07.467" producer="producer63">
   <property name="kdenlive:id">70</property>
   <filter id="filter61">
    <property name="filter">frei0r.alphaspot</property>
    <property name="mlt_service">mask_start</property>
    <property name="kdenlive_id">mask_start-frei0r.alphaspot</property>
    <property name="filter.Shape">0</property>
    <property name="filter.Position X">00:00:00.000=0.382692;00:00:03.067$=0.382692;00:00:03.300=0.382292;00:00:05.600$=0.382292;00:00:05.733=0.382552;00:00:06.167$=0.382552;00:00:06.333=0.382552</property>
    <property name="filter.Position Y">00:00:00.000=0.0838347;00:00:03.067$=0.0838347;00:00:03.300=0.113806;00:00:05.600$=0.113806;00:00:05.733=0.202828;00:00:06.167$=0.202828;00:00:06.333=0.290639</property>
    <property name="filter.Size X">00:00:00.000=0.255364;00:00:03.067$=0.255364;00:00:03.300=0.255208;00:00:05.600$=0.255208;00:00:05.733=0.254948;00:00:06.167$=0.254948;00:00:06.333=0.254948</property>
    <property name="filter.Size Y">00:00:00.000=0.0404207;00:00:03.067$=0.0404207;00:00:03.300=0.0702879;00:00:05.600$=0.0702879;00:00:05.733=0.159309;00:00:06.167$=0.159309;00:00:06.333=0.24712</property>
    <property name="filter.Tilt">00:00:00.000=0.5;00:00:03.067$=0.5;00:00:03.300=0.5;00:00:05.600$=0.5;00:00:05.733=0.5;00:00:06.167$=0.5;00:00:06.333=0.5</property>
    <property name="filter.Transition width">00:00:00.000=0;00:00:03.067$=0;00:00:03.300=0;00:00:05.600$=0;00:00:05.733=0;00:00:06.167$=0;00:00:06.333=0</property>
    <property name="filter.Min">00:00:00.000=0;00:00:03.067$=0;00:00:03.300=0;00:00:05.600$=0;00:00:05.733=0;00:00:06.167$=0;00:00:06.333=0</property>
    <property name="filter.Max">00:00:00.000=1;00:00:03.067$=1;00:00:03.300=1;00:00:05.600$=1;00:00:05.733=1;00:00:06.167$=1;00:00:06.333=1</property>
    <property name="filter.Operation">1</property>
    <property name="kdenlive:collapsed">0</property>
   </filter>
   <filter id="filter62">
    <property name="mlt_service">avfilter.gblur</property>
    <property name="kdenlive_id">avfilter.gblur</property>
    <property name="av.steps">1</property>
    <property name="av.planes">7</property>
    <property name="av.sigma">00:00:00.000=10</property>
    <property name="av.sigmaV">00:00:00.000=10</property>
    <property name="kdenlive:collapsed">0</property>
   </filter>
   <filter id="filter63">
    <property name="transition">qtblend</property>
    <property name="mlt_image_format">rgba</property>
    <property name="mlt_service">mask_apply</property>
    <property name="kdenlive_id">mask_apply</property>
    <property name="kdenlive:collapsed">0</property>
   </filter>
  </entry>
  <entry in="00:00:00.000" out="00:00:23.267" producer="producer64">
   <property name="kdenlive:id">71</property>
   <property name="kdenlive:activeeffect">3</property>
   <filter id="filter64">
    <property name="filter">frei0r.alphaspot</property>
    <property name="mlt_service">mask_start</property>
    <property name="kdenlive_id">mask_start-frei0r.alphaspot</property>
    <property name="filter.Shape">0</property>
    <property name="filter.Position X">00:00:00.000=0.171682;00:00:04.000=0.171682;00:00:04.533$=0.171682;00:00:04.633=0.183542;00:00:05.033$=0.183542;00:00:05.233=-0.026;00:00:08.733$=-0.026;00:00:08.867=0.192484;00:00:09.200$=0.192484;00:00:09.333=0.191607;00:00:09.600$=0.191607;00:00:09.733=0.194393</property>
    <property name="filter.Position Y">00:00:00.000=0.306481;00:00:04.000=0.306481;00:00:04.533$=0.306481;00:00:04.633=0.783154;00:00:05.033$=0.783154;00:00:05.233=0.783154;00:00:08.733$=0.783154;00:00:08.867=0.194326;00:00:09.200$=0.194326;00:00:09.333=0.346621;00:00:09.600$=0.346621;00:00:09.733=0.487736</property>
    <property name="filter.Size X">00:00:00.000=0.123426;00:00:04.000=0.123426;00:00:04.533$=0.123426;00:00:04.633=0.0987166;00:00:05.033$=0.0987166;00:00:05.233=0.001;00:00:08.733$=0.001;00:00:08.867=0.0804461;00:00:09.200$=0.0804461;00:00:09.333=0.0802083;00:00:09.600$=0.0802083;00:00:09.733=0.0799479</property>
    <property name="filter.Size Y">00:00:00.000=0.28273;00:00:04.000=0.28273;00:00:04.533$=0.28273;00:00:04.633=0.206969;00:00:05.033$=0.206969;00:00:05.233=0.001;00:00:08.733$=0.001;00:00:08.867=0.0850762;00:00:09.200$=0.0850762;00:00:09.333=0.0735118;00:00:09.600$=0.0735118;00:00:09.733=0.0731481</property>
    <property name="filter.Tilt">00:00:00.000=0.5;00:00:04.000=0.5;00:00:04.533$=0.5;00:00:04.633=0.5;00:00:05.033$=0.5;00:00:05.233=0.5;00:00:08.733$=0.5;00:00:08.867=0.5;00:00:09.200$=0.5;00:00:09.333=0.5;00:00:09.600$=0.5;00:00:09.733=0.5</property>
    <property name="filter.Transition width">00:00:00.000=0;00:00:04.000=0;00:00:04.533$=0;00:00:04.633=0;00:00:05.033$=0;00:00:05.233=0;00:00:08.733$=0;00:00:08.867=0;00:00:09.200$=0;00:00:09.333=0;00:00:09.600$=0;00:00:09.733=0</property>
    <property name="filter.Min">00:00:00.000=0;00:00:04.000=0;00:00:04.533$=0;00:00:04.633=0;00:00:05.033$=0;00:00:05.233=0;00:00:08.733$=0;00:00:08.867=0;00:00:09.200$=0;00:00:09.333=0;00:00:09.600$=0;00:00:09.733=0</property>
    <property name="filter.Max">00:00:00.000=1;00:00:04.000=1;00:00:04.533$=1;00:00:04.633=1;00:00:05.033$=1;00:00:05.233=1;00:00:08.733$=1;00:00:08.867=1;00:00:09.200$=1;00:00:09.333=1;00:00:09.600$=1;00:00:09.733=1</property>
    <property name="filter.Operation">1</property>
    <property name="kdenlive:collapsed">1</property>
   </filter>
   <filter id="filter65">
    <property name="filter">frei0r.alphaspot</property>
    <property name="mlt_service">mask_start</property>
    <property name="kdenlive_id">mask_start-frei0r.alphaspot</property>
    <property name="filter.Shape">0</property>
    <property name="filter.Position X">00:00:00.000=0.646259;00:00:04.533=0.646259;00:00:04.633=0.646259;00:00:05.033$=0.646259;00:00:05.233=0.642063;00:00:08.733$=0.642063;00:00:08.867=0.641667;00:00:09.200$=0.641667;00:00:09.333=0.655299;00:00:09.600$=0.655299;00:00:09.733=0.656179</property>
    <property name="filter.Position Y">00:00:00.000=0.191331;00:00:04.533=-0.026;00:00:04.633=0.191331;00:00:05.033$=0.191331;00:00:05.233=0.631192;00:00:08.733$=0.631192;00:00:08.867=0.471793;00:00:09.200$=0.471793;00:00:09.333=0.624167;00:00:09.600$=0.624167;00:00:09.733=0.765818</property>
    <property name="filter.Size X">00:00:00.000=0.109896;00:00:04.533=0.001;00:00:04.633=0.109896;00:00:05.033$=0.109896;00:00:05.233=0.109896;00:00:08.733$=0.109896;00:00:08.867=0.109896;00:00:09.200$=0.109896;00:00:09.333=0.0843953;00:00:09.600$=0.0843953;00:00:09.733=0.084375</property>
    <property name="filter.Size Y">00:00:00.000=0.200233;00:00:04.533=0.001;00:00:04.633=0.200233;00:00:05.033$=0.200233;00:00:05.233=0.246884;00:00:08.733$=0.246884;00:00:08.867=0.0875333;00:00:09.200$=0.0875333;00:00:09.333=0.0718051;00:00:09.600$=0.0718051;00:00:09.733=0.0717593</property>
    <property name="filter.Tilt">00:00:00.000=0.5;00:00:04.533=0.5;00:00:04.633=0.5;00:00:05.033$=0.5;00:00:05.233=0.5;00:00:08.733$=0.5;00:00:08.867=0.5;00:00:09.200$=0.5;00:00:09.333=0.5;00:00:09.600$=0.5;00:00:09.733=0.5</property>
    <property name="filter.Transition width">00:00:00.000=0;00:00:04.533=0;00:00:04.633=0;00:00:05.033$=0;00:00:05.233=0;00:00:08.733$=0;00:00:08.867=0;00:00:09.200$=0;00:00:09.333=0;00:00:09.600$=0;00:00:09.733=0</property>
    <property name="filter.Min">00:00:00.000=0;00:00:04.533=0;00:00:04.633=0;00:00:05.033$=0;00:00:05.233=0;00:00:08.733$=0;00:00:08.867=0;00:00:09.200$=0;00:00:09.333=0;00:00:09.600$=0;00:00:09.733=0</property>
    <property name="filter.Max">00:00:00.000=1;00:00:04.533=1;00:00:04.633=1;00:00:05.033$=1;00:00:05.233=1;00:00:08.733$=1;00:00:08.867=1;00:00:09.200$=1;00:00:09.333=1;00:00:09.600$=1;00:00:09.733=1</property>
    <property name="filter.Operation">1</property>
    <property name="kdenlive:collapsed">1</property>
   </filter>
   <filter id="filter66">
    <property name="filter">frei0r.alphaspot</property>
    <property name="mlt_service">mask_start</property>
    <property name="kdenlive_id">mask_start-frei0r.alphaspot</property>
    <property name="filter.Shape">0</property>
    <property name="filter.Position X">00:00:00.000=0.190396;00:00:08.733$=0.036;00:00:08.867=0.188799;00:00:09.200$=0.188799;00:00:09.333=0.190167;00:00:09.600$=0.190167;00:00:09.733=0.653524</property>
    <property name="filter.Position Y">00:00:00.000=0.668728;00:00:08.733$=0.686;00:00:08.867=0.667655;00:00:09.200$=0.667655;00:00:09.333=0.817514;00:00:09.600$=0.817514;00:00:09.733=0.293162</property>
    <property name="filter.Size X">00:00:00.000=0.1;00:00:08.733$=0.001;00:00:08.867=0.0860701;00:00:09.200$=0.0860701;00:00:09.333=0.0859375;00:00:09.600$=0.0859375;00:00:09.733=0.0859375</property>
    <property name="filter.Size Y">00:00:00.000=0.1;00:00:08.733$=0.001;00:00:08.867=0.0888546;00:00:09.200$=0.0888546;00:00:09.333=0.076196;00:00:09.600$=0.076196;00:00:09.733=0.0759259</property>
    <property name="filter.Tilt">00:00:00.000=0.5;00:00:08.733$=0.5;00:00:08.867=0.5;00:00:09.200$=0.5;00:00:09.333=0.5;00:00:09.600$=0.5;00:00:09.733=0.5</property>
    <property name="filter.Transition width">00:00:00.000=0.2;00:00:08.733$=0.00300752;00:00:08.867=0;00:00:09.200$=0;00:00:09.333=0;00:00:09.600$=0;00:00:09.733=0</property>
    <property name="filter.Min">00:00:00.000=0;00:00:08.733$=0;00:00:08.867=0;00:00:09.200$=0;00:00:09.333=0;00:00:09.600$=0;00:00:09.733=0</property>
    <property name="filter.Max">00:00:00.000=1;00:00:08.733$=1;00:00:08.867=1;00:00:09.200$=1;00:00:09.333=1;00:00:09.600$=1;00:00:09.733=1</property>
    <property name="filter.Operation">1</property>
    <property name="kdenlive:collapsed">1</property>
   </filter>
   <filter id="filter67">
    <property name="mlt_service">avfilter.gblur</property>
    <property name="kdenlive_id">avfilter.gblur</property>
    <property name="av.steps">1</property>
    <property name="av.planes">7</property>
    <property name="av.sigma">00:00:00.000=0;00:00:04.000$=0;00:00:04.133=10;00:00:12.067$=10;00:00:12.367=0</property>
    <property name="av.sigmaV">00:00:00.000=0;00:00:04.000$=0;00:00:04.133=10;00:00:12.067$=10;00:00:12.367=0</property>
    <property name="kdenlive:collapsed">0</property>
   </filter>
   <filter id="filter68">
    <property name="transition">qtblend</property>
    <property name="mlt_image_format">rgba</property>
    <property name="mlt_service">mask_apply</property>
    <property name="kdenlive_id">mask_apply</property>
    <property name="kdenlive:collapsed">0</property>
   </filter>
  </entry>
  <entry in="00:00:00.000" out="00:00:04.967" producer="producer65">
   <property name="kdenlive:id">72</property>
   <filter id="filter69">
    <property name="filter">frei0r.alphaspot</property>
    <property name="mlt_service">mask_start</property>
    <property name="kdenlive_id">mask_start-frei0r.alphaspot</property>
    <property name="filter.Shape">0</property>
    <property name="filter.Position X">00:00:00.000=0.29712;00:00:02.100$=0.29712;00:00:02.333=0.297135</property>
    <property name="filter.Position Y">00:00:00.000=0.0537939;00:00:02.100$=0.0537939;00:00:02.333=0.0801307</property>
    <property name="filter.Size X">00:00:00.000=0.20311;00:00:02.100$=0.20311;00:00:02.333=0.202865</property>
    <property name="filter.Size Y">00:00:00.000=0.0251307;00:00:02.100$=0.0251307;00:00:02.333=0.051427</property>
    <property name="filter.Tilt">00:00:00.000=0.5;00:00:02.100$=0.5;00:00:02.333=0.5</property>
    <property name="filter.Transition width">00:00:00.000=0;00:00:02.100$=0;00:00:02.333=0</property>
    <property name="filter.Min">00:00:00.000=0;00:00:02.100$=0;00:00:02.333=0</property>
    <property name="filter.Max">00:00:00.000=1;00:00:02.100$=1;00:00:02.333=1</property>
    <property name="filter.Operation">1</property>
    <property name="kdenlive:collapsed">0</property>
   </filter>
   <filter id="filter70">
    <property name="mlt_service">avfilter.gblur</property>
    <property name="kdenlive_id">avfilter.gblur</property>
    <property name="av.steps">1</property>
    <property name="av.planes">7</property>
    <property name="av.sigma">00:00:00.000=10</property>
    <property name="av.sigmaV">00:00:00.000=10</property>
    <property name="kdenlive:collapsed">1</property>
   </filter>
   <filter id="filter71">
    <property name="transition">qtblend</property>
    <property name="mlt_image_format">rgba</property>
    <property name="mlt_service">mask_apply</property>
    <property name="kdenlive_id">mask_apply</property>
    <property name="kdenlive:collapsed">0</property>
   </filter>
  </entry>
  <entry in="00:00:00.000" out="00:00:08.767" producer="producer66">
   <property name="kdenlive:id">73</property>
   <property name="kdenlive:activeeffect">1</property>
   <filter id="filter72">
    <property name="filter">frei0r.alphaspot</property>
    <property name="mlt_service">mask_start</property>
    <property name="kdenlive_id">mask_start-frei0r.alphaspot</property>
    <property name="filter.Shape">0</property>
    <property name="filter.Position X">00:00:00.000=0.571296;00:00:00.700=0.571296</property>
    <property name="filter.Position Y">00:00:00.000=0.23817;00:00:00.700=0.23817</property>
    <property name="filter.Size X">00:00:00.000=0.0678532;00:00:00.700=0.0678532</property>
    <property name="filter.Size Y">00:00:00.000=0.0847213;00:00:00.700=0.0847213</property>
    <property name="filter.Tilt">00:00:00.000=0.5;00:00:00.700=0.5</property>
    <property name="filter.Transition width">00:00:00.000=0;00:00:00.700=0</property>
    <property name="filter.Min">00:00:00.000=0;00:00:00.700=0</property>
    <property name="filter.Max">00:00:00.000=1;00:00:00.700=1</property>
    <property name="filter.Operation">1</property>
    <property name="kdenlive:collapsed">1</property>
   </filter>
   <filter id="filter73">
    <property name="mlt_service">avfilter.gblur</property>
    <property name="kdenlive_id">avfilter.gblur</property>
    <property name="av.steps">1</property>
    <property name="av.planes">7</property>
    <property name="av.sigma">00:00:00.000=0;00:00:00.700=0;00:00:01.267=10</property>
    <property name="av.sigmaV">00:00:00.000=0;00:00:00.700=0;00:00:01.267=10</property>
    <property name="kdenlive:collapsed">0</property>
   </filter>
   <filter id="filter74">
    <property name="transition">qtblend</property>
    <property name="mlt_image_format">rgba</property>
    <property name="mlt_service">mask_apply</property>
    <property name="kdenlive_id">mask_apply</property>
    <property name="kdenlive:collapsed">0</property>
   </filter>
  </entry>
  <entry in="00:00:00.000" out="00:00:08.700" producer="producer67">
   <property name="kdenlive:id">74</property>
   <filter id="filter75">
    <property name="filter">frei0r.alphaspot</property>
    <property name="mlt_service">mask_start</property>
    <property name="kdenlive_id">mask_start-frei0r.alphaspot</property>
    <property name="filter.Shape">0</property>
    <property name="filter.Position X">00:00:00.000=0.299312;00:00:00.967$=0.299312;00:00:01.133=0.377122;00:00:02.267$=0.377122;00:00:02.600=0.450824;00:00:03.500$=0.450824;00:00:03.767=0.51483;00:00:05.300$=0.51483;00:00:05.433=0.514583</property>
    <property name="filter.Position Y">00:00:00.000=0.204524;00:00:00.967$=0.204524;00:00:01.133=0.203704;00:00:02.267$=0.203704;00:00:02.600=0.203704;00:00:03.500$=0.203704;00:00:03.767=0.203704;00:00:05.300$=0.203704;00:00:05.433=0.231252</property>
    <property name="filter.Size X">00:00:00.000=0.183977;00:00:00.967$=0.183977;00:00:01.133=0.262018;00:00:02.267$=0.262018;00:00:02.600=0.33572;00:00:03.500$=0.33572;00:00:03.767=0.399726;00:00:05.300$=0.399726;00:00:05.433=0.399479</property>
    <property name="filter.Size Y">00:00:00.000=0.0281914;00:00:00.967$=0.0281914;00:00:01.133=0.0277778;00:00:02.267$=0.0277778;00:00:02.600=0.0277778;00:00:03.500$=0.0277778;00:00:03.767=0.0277778;00:00:05.300$=0.0277778;00:00:05.433=0.055326</property>
    <property name="filter.Tilt">00:00:00.000=0.5;00:00:00.967$=0.5;00:00:01.133=0.5;00:00:02.267$=0.5;00:00:02.600=0.5;00:00:03.500$=0.5;00:00:03.767=0.5;00:00:05.300$=0.5;00:00:05.433=0.5</property>
    <property name="filter.Transition width">00:00:00.000=0;00:00:00.967$=0;00:00:01.133=0;00:00:02.267$=0;00:00:02.600=0;00:00:03.500$=0;00:00:03.767=0;00:00:05.300$=0;00:00:05.433=0</property>
    <property name="filter.Min">00:00:00.000=0;00:00:00.967$=0;00:00:01.133=0;00:00:02.267$=0;00:00:02.600=0;00:00:03.500$=0;00:00:03.767=0;00:00:05.300$=0;00:00:05.433=0</property>
    <property name="filter.Max">00:00:00.000=1;00:00:00.967$=1;00:00:01.133=1;00:00:02.267$=1;00:00:02.600=1;00:00:03.500$=1;00:00:03.767=1;00:00:05.300$=1;00:00:05.433=1</property>
    <property name="filter.Operation">1</property>
    <property name="kdenlive:collapsed">0</property>
   </filter>
   <filter id="filter76">
    <property name="mlt_service">avfilter.gblur</property>
    <property name="kdenlive_id">avfilter.gblur</property>
    <property name="av.steps">1</property>
    <property name="av.planes">7</property>
    <property name="av.sigma">00:00:00.000=10</property>
    <property name="av.sigmaV">00:00:00.000=10</property>
    <property name="kdenlive:collapsed">0</property>
   </filter>
   <filter id="filter77">
    <property name="transition">qtblend</property>
    <property name="mlt_image_format">rgba</property>
    <property name="mlt_service">mask_apply</property>
    <property name="kdenlive_id">mask_apply</property>
    <property name="kdenlive:collapsed">0</property>
   </filter>
  </entry>
  <entry in="00:00:00.000" out="00:00:02.700" producer="producer68">
   <property name="kdenlive:id">75</property>
  </entry>
  <entry in="00:00:00.000" out="00:00:08.767" producer="producer69">
   <property name="kdenlive:id">76</property>
   <filter id="filter78">
    <property name="filter">frei0r.alphaspot</property>
    <property name="mlt_service">mask_start</property>
    <property name="kdenlive_id">mask_start-frei0r.alphaspot</property>
    <property name="filter.Shape">0</property>
    <property name="filter.Position X">00:00:00.000=0.164694;00:00:04.000$=0.164694;00:00:04.200=0.189231</property>
    <property name="filter.Position Y">00:00:00.000=0.918139;00:00:04.000$=0.918139;00:00:04.200=0.114272</property>
    <property name="filter.Size X">00:00:00.000=0.135518;00:00:04.000$=0.135518;00:00:04.200=0.104148</property>
    <property name="filter.Size Y">00:00:00.000=0.0561511;00:00:04.000$=0.0561511;00:00:04.200=0.0695531</property>
    <property name="filter.Tilt">00:00:00.000=0.5;00:00:04.000$=0.5;00:00:04.200=0.5</property>
    <property name="filter.Transition width">00:00:00.000=0;00:00:04.000$=0;00:00:04.200=0</property>
    <property name="filter.Min">00:00:00.000=0;00:00:04.000$=0;00:00:04.200=0</property>
    <property name="filter.Max">00:00:00.000=1;00:00:04.000$=1;00:00:04.200=1</property>
    <property name="filter.Operation">1</property>
    <property name="kdenlive:collapsed">0</property>
   </filter>
   <filter id="filter79">
    <property name="mlt_service">avfilter.gblur</property>
    <property name="kdenlive_id">avfilter.gblur</property>
    <property name="av.steps">1</property>
    <property name="av.planes">7</property>
    <property name="av.sigma">00:00:00.000=10</property>
    <property name="av.sigmaV">00:00:00.000=10</property>
    <property name="kdenlive:collapsed">0</property>
   </filter>
   <filter id="filter80">
    <property name="transition">qtblend</property>
    <property name="mlt_image_format">rgba</property>
    <property name="mlt_service">mask_apply</property>
    <property name="kdenlive_id">mask_apply</property>
    <property name="kdenlive:collapsed">0</property>
   </filter>
  </entry>
  <entry in="00:00:00.000" out="00:00:01.333" producer="producer70">
   <property name="kdenlive:id">77</property>
  </entry>
  <entry in="00:00:00.000" out="00:00:01.867" producer="producer71">
   <property name="kdenlive:id">78</property>
  </entry>
  <entry in="00:00:00.000" out="00:00:04.100" producer="producer72">
   <property name="kdenlive:id">79</property>
  </entry>
  <entry in="00:00:00.000" out="00:00:03.600" producer="producer73">
   <property name="kdenlive:id">80</property>
  </entry>
  <entry in="00:00:00.000" out="00:00:07.033" producer="producer74">
   <property name="kdenlive:id">81</property>
  </entry>
  <entry in="00:00:00.000" out="00:00:05.300" producer="producer75">
   <property name="kdenlive:id">92</property>
  </entry>
  <entry in="00:00:00.000" out="00:00:01.233" producer="producer76">
   <property name="kdenlive:id">93</property>
  </entry>
  <entry in="00:00:00.000" out="00:00:05.300" producer="producer77">
   <property name="kdenlive:id">94</property>
   <property name="kdenlive:activeeffect">1</property>
   <filter id="filter81">
    <property name="filter">frei0r.alphaspot</property>
    <property name="mlt_service">mask_start</property>
    <property name="kdenlive_id">mask_start-frei0r.alphaspot</property>
    <property name="filter.Shape">0</property>
    <property name="filter.Position X">00:00:00.000=0.370308</property>
    <property name="filter.Position Y">00:00:00.000=0.127184</property>
    <property name="filter.Size X">00:00:00.000=0.245341</property>
    <property name="filter.Size Y">00:00:00.000=0.0228202</property>
    <property name="filter.Tilt">0=0.5</property>
    <property name="filter.Transition width">0=0</property>
    <property name="filter.Min">0=0</property>
    <property name="filter.Max">0=1</property>
    <property name="filter.Operation">1</property>
    <property name="kdenlive:collapsed">1</property>
   </filter>
   <filter id="filter82">
    <property name="mlt_service">avfilter.gblur</property>
    <property name="kdenlive_id">avfilter.gblur</property>
    <property name="av.steps">1</property>
    <property name="av.planes">7</property>
    <property name="av.sigma">00:00:00.000=0;00:00:01.500$=0;00:00:01.600=10</property>
    <property name="av.sigmaV">00:00:00.000=0;00:00:01.500$=0;00:00:01.600=10</property>
    <property name="kdenlive:collapsed">0</property>
   </filter>
   <filter id="filter83">
    <property name="transition">qtblend</property>
    <property name="mlt_image_format">rgba</property>
    <property name="mlt_service">mask_apply</property>
    <property name="kdenlive_id">mask_apply</property>
    <property name="kdenlive:collapsed">0</property>
   </filter>
  </entry>
  <entry in="00:00:00.000" out="00:00:03.867" producer="producer78">
   <property name="kdenlive:id">95</property>
  </entry>
  <entry in="00:00:00.000" out="00:00:06.700" producer="producer79">
   <property name="kdenlive:id">96</property>
   <property name="kdenlive:activeeffect">1</property>
   <filter id="filter84">
    <property name="filter">frei0r.alphaspot</property>
    <property name="mlt_service">mask_start</property>
    <property name="kdenlive_id">mask_start-frei0r.alphaspot</property>
    <property name="filter.Shape">0</property>
    <property name="filter.Position X">00:00:00.000=0.223703</property>
    <property name="filter.Position Y">00:00:00.000=0.165088</property>
    <property name="filter.Size X">00:00:00.000=0.147303</property>
    <property name="filter.Size Y">00:00:00.000=0.0991792</property>
    <property name="filter.Tilt">0=0.5</property>
    <property name="filter.Transition width">0=0</property>
    <property name="filter.Min">0=0</property>
    <property name="filter.Max">0=1</property>
    <property name="filter.Operation">1</property>
    <property name="kdenlive:collapsed">1</property>
   </filter>
   <filter id="filter85">
    <property name="filter">frei0r.alphaspot</property>
    <property name="mlt_service">mask_start</property>
    <property name="kdenlive_id">mask_start-frei0r.alphaspot</property>
    <property name="filter.Shape">0</property>
    <property name="filter.Position X">00:00:00.000=0.348612</property>
    <property name="filter.Position Y">00:00:00.000=0.656481</property>
    <property name="filter.Size X">00:00:00.000=0.16979</property>
    <property name="filter.Size Y">00:00:00.000=0.0772285</property>
    <property name="filter.Tilt">0=0.5</property>
    <property name="filter.Transition width">00:00:00.000=0</property>
    <property name="filter.Min">0=0</property>
    <property name="filter.Max">0=1</property>
    <property name="filter.Operation">1</property>
    <property name="kdenlive:collapsed">0</property>
   </filter>
   <filter id="filter86">
    <property name="mlt_service">avfilter.gblur</property>
    <property name="kdenlive_id">avfilter.gblur</property>
    <property name="av.steps">1</property>
    <property name="av.planes">7</property>
    <property name="av.sigma">00:00:00.000=10</property>
    <property name="av.sigmaV">00:00:00.000=10</property>
    <property name="kdenlive:collapsed">0</property>
   </filter>
   <filter id="filter87">
    <property name="transition">qtblend</property>
    <property name="mlt_image_format">rgba</property>
    <property name="mlt_service">mask_apply</property>
    <property name="kdenlive_id">mask_apply</property>
    <property name="kdenlive:collapsed">0</property>
   </filter>
  </entry>
  <entry in="00:00:00.000" out="00:00:04.433" producer="producer80">
   <property name="kdenlive:id">97</property>
  </entry>
  <entry in="00:00:00.000" out="00:00:04.400" producer="producer81">
   <property name="kdenlive:id">98</property>
  </entry>
  <entry in="00:00:00.000" out="00:00:06.467" producer="producer82">
   <property name="kdenlive:id">99</property>
  </entry>
  <entry in="00:00:00.000" out="00:00:01.833" producer="chain23">
   <property name="kdenlive:id">100</property>
  </entry>
  <entry in="00:00:01.833" out="00:00:01.833" producer="chain23">
   <property name="kdenlive:id">100</property>
  </entry>
  <entry in="00:00:01.833" out="00:00:01.833" producer="chain23">
   <property name="kdenlive:id">100</property>
  </entry>
  <entry in="00:00:01.833" out="00:00:01.833" producer="chain23">
   <property name="kdenlive:id">100</property>
  </entry>
  <entry in="00:00:01.833" out="00:00:01.833" producer="chain23">
   <property name="kdenlive:id">100</property>
  </entry>
  <entry in="00:00:01.833" out="00:00:01.833" producer="chain23">
   <property name="kdenlive:id">100</property>
  </entry>
  <entry in="00:00:01.833" out="00:00:01.833" producer="chain23">
   <property name="kdenlive:id">100</property>
  </entry>
  <entry in="00:00:01.833" out="00:00:01.833" producer="chain23">
   <property name="kdenlive:id">100</property>
  </entry>
  <entry in="00:00:01.833" out="00:00:01.833" producer="chain23">
   <property name="kdenlive:id">100</property>
  </entry>
  <entry in="00:00:01.833" out="00:00:01.833" producer="chain23">
   <property name="kdenlive:id">100</property>
  </entry>
  <entry in="00:00:01.833" out="00:00:01.833" producer="chain23">
   <property name="kdenlive:id">100</property>
  </entry>
  <entry in="00:00:01.833" out="00:00:01.833" producer="chain23">
   <property name="kdenlive:id">100</property>
  </entry>
  <entry in="00:00:01.833" out="00:00:01.833" producer="chain23">
   <property name="kdenlive:id">100</property>
  </entry>
  <entry in="00:00:01.833" out="00:00:01.833" producer="chain23">
   <property name="kdenlive:id">100</property>
  </entry>
  <entry in="00:00:01.833" out="00:00:01.833" producer="chain23">
   <property name="kdenlive:id">100</property>
  </entry>
  <entry in="00:00:01.833" out="00:00:01.833" producer="chain23">
   <property name="kdenlive:id">100</property>
  </entry>
  <entry in="00:00:01.833" out="00:00:01.833" producer="chain23">
   <property name="kdenlive:id">100</property>
  </entry>
  <entry in="00:00:01.833" out="00:00:01.833" producer="chain23">
   <property name="kdenlive:id">100</property>
  </entry>
  <entry in="00:00:01.833" out="00:00:01.833" producer="chain23">
   <property name="kdenlive:id">100</property>
  </entry>
  <entry in="00:00:01.833" out="00:00:01.833" producer="chain23">
   <property name="kdenlive:id">100</property>
  </entry>
  <entry in="00:00:01.833" out="00:00:01.833" producer="chain23">
   <property name="kdenlive:id">100</property>
  </entry>
  <entry in="00:00:01.833" out="00:00:01.833" producer="chain23">
   <property name="kdenlive:id">100</property>
  </entry>
  <entry in="00:00:01.833" out="00:00:01.833" producer="chain23">
   <property name="kdenlive:id">100</property>
  </entry>
  <entry in="00:00:01.833" out="00:00:01.833" producer="chain23">
   <property name="kdenlive:id">100</property>
  </entry>
  <entry in="00:00:01.833" out="00:00:01.833" producer="chain23">
   <property name="kdenlive:id">100</property>
  </entry>
  <entry in="00:00:01.833" out="00:00:01.833" producer="chain23">
   <property name="kdenlive:id">100</property>
  </entry>
  <entry in="00:00:01.833" out="00:00:01.833" producer="chain23">
   <property name="kdenlive:id">100</property>
  </entry>
  <entry in="00:00:01.833" out="00:00:01.833" producer="chain23">
   <property name="kdenlive:id">100</property>
  </entry>
  <entry in="00:00:01.833" out="00:00:01.833" producer="chain23">
   <property name="kdenlive:id">100</property>
  </entry>
  <entry in="00:00:01.833" out="00:00:01.833" producer="chain23">
   <property name="kdenlive:id">100</property>
  </entry>
  <entry in="00:00:01.833" out="00:00:01.833" producer="chain23">
   <property name="kdenlive:id">100</property>
  </entry>
  <entry in="00:00:01.833" out="00:00:01.833" producer="chain23">
   <property name="kdenlive:id">100</property>
  </entry>
  <entry in="00:00:01.833" out="00:00:01.833" producer="chain23">
   <property name="kdenlive:id">100</property>
  </entry>
  <entry in="00:00:01.833" out="00:00:01.833" producer="chain23">
   <property name="kdenlive:id">100</property>
  </entry>
  <entry in="00:00:01.833" out="00:00:01.833" producer="chain23">
   <property name="kdenlive:id">100</property>
  </entry>
  <entry in="00:00:01.833" out="00:00:01.833" producer="chain23">
   <property name="kdenlive:id">100</property>
  </entry>
  <entry in="00:00:01.833" out="00:00:01.833" producer="chain23">
   <property name="kdenlive:id">100</property>
  </entry>
  <entry in="00:00:01.833" out="00:00:01.833" producer="chain23">
   <property name="kdenlive:id">100</property>
  </entry>
  <entry in="00:00:01.833" out="00:00:01.833" producer="chain23">
   <property name="kdenlive:id">100</property>
  </entry>
  <entry in="00:00:01.833" out="00:00:01.833" producer="chain23">
   <property name="kdenlive:id">100</property>
  </entry>
  <entry in="00:00:01.833" out="00:00:01.833" producer="chain23">
   <property name="kdenlive:id">100</property>
  </entry>
  <entry in="00:00:01.833" out="00:00:01.833" producer="chain23">
   <property name="kdenlive:id">100</property>
  </entry>
  <entry in="00:00:01.833" out="00:00:01.833" producer="chain23">
   <property name="kdenlive:id">100</property>
  </entry>
  <entry in="00:00:01.833" out="00:00:01.833" producer="chain23">
   <property name="kdenlive:id">100</property>
  </entry>
  <entry in="00:00:01.833" out="00:00:01.833" producer="chain23">
   <property name="kdenlive:id">100</property>
  </entry>
  <entry in="00:00:01.833" out="00:00:01.833" producer="chain23">
   <property name="kdenlive:id">100</property>
  </entry>
  <entry in="00:00:01.833" out="00:00:01.833" producer="chain23">
   <property name="kdenlive:id">100</property>
  </entry>
  <entry in="00:00:01.833" out="00:00:01.833" producer="chain23">
   <property name="kdenlive:id">100</property>
  </entry>
  <entry in="00:00:01.833" out="00:00:01.833" producer="chain23">
   <property name="kdenlive:id">100</property>
  </entry>
  <entry in="00:00:01.833" out="00:00:01.833" producer="chain23">
   <property name="kdenlive:id">100</property>
  </entry>
  <entry in="00:00:01.833" out="00:00:01.833" producer="chain23">
   <property name="kdenlive:id">100</property>
  </entry>
  <entry in="00:00:01.833" out="00:00:01.833" producer="chain23">
   <property name="kdenlive:id">100</property>
  </entry>
  <entry in="00:00:01.833" out="00:00:01.833" producer="chain23">
   <property name="kdenlive:id">100</property>
  </entry>
  <entry in="00:00:01.833" out="00:00:01.833" producer="chain23">
   <property name="kdenlive:id">100</property>
  </entry>
  <entry in="00:00:01.833" out="00:00:01.833" producer="chain23">
   <property name="kdenlive:id">100</property>
  </entry>
  <entry in="00:00:01.833" out="00:00:01.833" producer="chain23">
   <property name="kdenlive:id">100</property>
  </entry>
  <entry in="00:00:01.833" out="00:00:01.833" producer="chain23">
   <property name="kdenlive:id">100</property>
  </entry>
  <entry in="00:00:01.833" out="00:00:01.833" producer="chain23">
   <property name="kdenlive:id">100</property>
  </entry>
  <entry in="00:00:01.833" out="00:00:01.833" producer="chain23">
   <property name="kdenlive:id">100</property>
  </entry>
  <entry in="00:00:01.833" out="00:00:01.833" producer="chain23">
   <property name="kdenlive:id">100</property>
  </entry>
  <entry in="00:00:01.833" out="00:00:01.833" producer="chain23">
   <property name="kdenlive:id">100</property>
  </entry>
  <entry in="00:00:01.833" out="00:00:01.833" producer="chain23">
   <property name="kdenlive:id">100</property>
  </entry>
  <entry in="00:00:01.833" out="00:00:01.833" producer="chain23">
   <property name="kdenlive:id">100</property>
  </entry>
  <entry in="00:00:01.833" out="00:00:01.833" producer="chain23">
   <property name="kdenlive:id">100</property>
  </entry>
  <entry in="00:00:01.833" out="00:00:01.833" producer="chain23">
   <property name="kdenlive:id">100</property>
  </entry>
  <entry in="00:00:01.833" out="00:00:01.833" producer="chain23">
   <property name="kdenlive:id">100</property>
  </entry>
  <entry in="00:00:01.833" out="00:00:01.833" producer="chain23">
   <property name="kdenlive:id">100</property>
  </entry>
  <entry in="00:00:01.833" out="00:00:01.833" producer="chain23">
   <property name="kdenlive:id">100</property>
  </entry>
  <entry in="00:00:01.833" out="00:00:01.833" producer="chain23">
   <property name="kdenlive:id">100</property>
  </entry>
  <entry in="00:00:01.833" out="00:00:01.833" producer="chain23">
   <property name="kdenlive:id">100</property>
  </entry>
  <entry in="00:00:01.833" out="00:00:01.833" producer="chain23">
   <property name="kdenlive:id">100</property>
  </entry>
  <entry in="00:00:01.833" out="00:00:01.833" producer="chain23">
   <property name="kdenlive:id">100</property>
  </entry>
  <entry in="00:00:01.833" out="00:00:01.833" producer="chain23">
   <property name="kdenlive:id">100</property>
  </entry>
  <entry in="00:00:01.833" out="00:00:01.833" producer="chain23">
   <property name="kdenlive:id">100</property>
  </entry>
  <entry in="00:00:01.833" out="00:00:01.833" producer="chain23">
   <property name="kdenlive:id">100</property>
  </entry>
  <entry in="00:00:01.833" out="00:00:01.833" producer="chain23">
   <property name="kdenlive:id">100</property>
  </entry>
  <entry in="00:00:01.833" out="00:00:01.833" producer="chain23">
   <property name="kdenlive:id">100</property>
  </entry>
  <entry in="00:00:01.833" out="00:00:01.833" producer="chain23">
   <property name="kdenlive:id">100</property>
  </entry>
  <entry in="00:00:01.833" out="00:00:01.833" producer="chain23">
   <property name="kdenlive:id">100</property>
  </entry>
  <entry in="00:00:01.833" out="00:00:01.833" producer="chain23">
   <property name="kdenlive:id">100</property>
  </entry>
  <entry in="00:00:01.833" out="00:00:01.833" producer="chain23">
   <property name="kdenlive:id">100</property>
  </entry>
  <entry in="00:00:01.833" out="00:00:01.833" producer="chain23">
   <property name="kdenlive:id">100</property>
  </entry>
  <entry in="00:00:01.833" out="00:00:01.833" producer="chain23">
   <property name="kdenlive:id">100</property>
  </entry>
  <entry in="00:00:00.000" out="00:00:02.067" producer="chain24">
   <property name="kdenlive:id">102</property>
  </entry>
  <entry in="00:00:00.000" out="00:00:01.600" producer="chain24">
   <property name="kdenlive:id">102</property>
  </entry>
  <entry in="00:00:00.000" out="00:01:05.900" producer="producer83">
   <property name="kdenlive:id">103</property>
  </entry>
  <entry in="00:00:00.000" out="00:00:05.000" producer="producer84">
   <property name="kdenlive:id">104</property>
  </entry>
  <entry in="00:00:00.000" out="00:00:10.733" producer="producer85">
   <property name="kdenlive:id">106</property>
  </entry>
  <entry in="00:00:00.167" out="00:00:01.067" producer="producer86">
   <property name="kdenlive:id">107</property>
  </entry>
  <entry in="00:00:01.700" out="00:00:02.367" producer="producer87">
   <property name="kdenlive:id">107</property>
  </entry>
  <entry in="00:00:05.767" out="00:00:08.700" producer="chain25">
   <property name="kdenlive:id">107</property>
  </entry>
  <entry in="00:00:00.000" out="00:00:03.467" producer="producer88">
   <property name="kdenlive:id">108</property>
  </entry>
  <entry in="00:00:00.000" out="00:00:03.033" producer="producer89">
   <property name="kdenlive:id">110</property>
  </entry>
  <entry in="00:00:00.000" out="00:00:07.000" producer="producer90">
   <property name="kdenlive:id">111</property>
  </entry>
  <entry in="00:00:00.000" out="00:00:08.533" producer="producer91">
   <property name="kdenlive:id">112</property>
  </entry>
  <entry in="00:00:00.000" out="00:00:01.533" producer="producer92">
   <property name="kdenlive:id">113</property>
  </entry>
  <entry in="00:00:00.000" out="00:00:01.767" producer="chain26">
   <property name="kdenlive:id">114</property>
  </entry>
  <entry in="00:00:00.000" out="00:00:02.867" producer="chain27">
   <property name="kdenlive:id">115</property>
  </entry>
  <blank length="00:00:00.433"/>
  <entry in="00:00:00.000" out="00:00:02.267" producer="producer93">
   <property name="kdenlive:id">116</property>
  </entry>
  <entry in="00:00:00.000" out="00:00:01.933" producer="producer94">
   <property name="kdenlive:id">117</property>
  </entry>
  <entry in="00:00:00.000" out="00:00:02.233" producer="producer95">
   <property name="kdenlive:id">118</property>
  </entry>
  <entry in="00:00:00.000" out="00:00:02.067" producer="producer96">
   <property name="kdenlive:id">121</property>
  </entry>
  <entry in="00:00:00.000" out="00:00:02.100" producer="producer97">
   <property name="kdenlive:id">120</property>
  </entry>
  <entry in="00:00:00.000" out="00:00:05.933" producer="producer98">
   <property name="kdenlive:id">123</property>
  </entry>
  <entry in="00:00:00.000" out="00:00:02.700" producer="producer36">
   <property name="kdenlive:id">126</property>
  </entry>
  <entry in="00:00:00.000" out="00:00:06.967" producer="producer50">
   <property name="kdenlive:id">127</property>
  </entry>
  <entry in="00:00:00.000" out="00:00:03.200" producer="producer99">
   <property name="kdenlive:id">125</property>
  </entry>
  <entry in="00:00:00.000" out="00:00:07.900" producer="producer116">
   <property name="kdenlive:id">128</property>
  </entry>
  <entry in="00:00:00.000" out="00:00:04.967" producer="producer117">
   <property name="kdenlive:id">129</property>
  </entry>
  <entry in="00:00:00.000" out="00:00:10.500" producer="producer118">
   <property name="kdenlive:id">130</property>
  </entry>
  <entry in="00:00:00.000" out="00:00:11.200" producer="producer100">
   <property name="kdenlive:id">124</property>
  </entry>
 </playlist>
 <playlist id="playlist5"/>
 <tractor id="tractor2" in="00:00:00.000" out="00:10:10.800">
  <property name="kdenlive:trackheight">54</property>
  <property name="kdenlive:timeline_active">1</property>
  <property name="kdenlive:collapsed">0</property>
  <property name="kdenlive:thumbs_format"/>
  <property name="kdenlive:audio_rec"/>
  <track hide="audio" producer="playlist4"/>
  <track hide="audio" producer="playlist5"/>
 </tractor>
 <playlist id="playlist6">
  <blank length="00:00:26.700"/>
  <entry in="00:00:00.000" out="00:00:01.600" producer="producer20">
   <property name="kdenlive:id">15</property>
  </entry>
  <blank length="00:00:31.567"/>
  <entry in="00:00:00.000" out="00:00:02.833" producer="producer35">
   <property name="kdenlive:id">29</property>
   <filter id="filter88">
    <property name="rotate_center">1</property>
    <property name="mlt_service">qtblend</property>
    <property name="kdenlive_id">qtblend</property>
    <property name="compositing">0</property>
    <property name="distort">0</property>
    <property name="rect">00:00:00.000=948 507 635 357 1.000000</property>
    <property name="rotation">00:00:00.000=0</property>
    <property name="kdenlive:collapsed">0</property>
    <property name="">947 507 635 356 1.000000</property>
   </filter>
  </entry>
  <blank length="00:03:09.333"/>
  <entry in="00:00:00.000" out="00:00:03.333" producer="producer49">
   <property name="kdenlive:id">56</property>
  </entry>
  <blank length="00:02:04.900"/>
  <entry in="00:00:00.000" out="00:00:04.533" producer="producer101">
   <property name="kdenlive:id">82</property>
   <filter id="filter89">
    <property name="rotate_center">1</property>
    <property name="mlt_service">qtblend</property>
    <property name="kdenlive_id">qtblend</property>
    <property name="compositing">0</property>
    <property name="distort">0</property>
    <property name="rect">00:00:00.000=72 158 1229 735 1.000000</property>
    <property name="rotation">00:00:00.000=-7.2</property>
    <property name="kdenlive:collapsed">0</property>
    <property name="">71 158 1229 735 1.000000</property>
   </filter>
  </entry>
  <blank length="00:00:39.133"/>
  <entry in="00:00:00.000" out="00:00:03.400" producer="producer102">
   <property name="kdenlive:id">101</property>
  </entry>
  <blank length="00:01:10.267"/>
  <entry in="00:00:00.000" out="00:00:01.533" producer="producer103">
   <property name="kdenlive:id">105</property>
  </entry>
  <blank length="00:00:18.233"/>
  <entry in="00:00:00.000" out="00:00:03.467" producer="producer35">
   <property name="kdenlive:id">29</property>
   <filter id="filter90">
    <property name="rotate_center">1</property>
    <property name="mlt_service">qtblend</property>
    <property name="kdenlive_id">qtblend</property>
    <property name="compositing">0</property>
    <property name="distort">0</property>
    <property name="rect">00:00:00.000=208 143 345 432 1.000000</property>
    <property name="rotation">00:00:00.000=0</property>
    <property name="kdenlive:collapsed">1</property>
    <property name="">208 142 345 431 1.000000</property>
   </filter>
   <filter id="filter91">
    <property name="color">00:00:00.000=0x000000b4</property>
    <property name="radius">00:00:00.000=100</property>
    <property name="x">00:00:00.000=8</property>
    <property name="y">00:00:00.000=8</property>
    <property name="mlt_service">dropshadow</property>
    <property name="kdenlive_id">dropshadow</property>
    <property name="kdenlive:collapsed">0</property>
   </filter>
  </entry>
  <blank length="00:00:29.633"/>
  <entry in="00:00:00.000" out="00:00:02.233" producer="producer104">
   <property name="kdenlive:id">119</property>
   <filter id="filter92">
    <property name="color">00:00:00.000=0x000000b4</property>
    <property name="radius">00:00:00.000=100</property>
    <property name="x">00:00:00.000=8</property>
    <property name="y">00:00:00.000=8</property>
    <property name="mlt_service">dropshadow</property>
    <property name="kdenlive_id">dropshadow</property>
    <property name="kdenlive:collapsed">0</property>
   </filter>
  </entry>
  <blank length="00:00:02.100"/>
  <entry in="00:00:00.000" out="00:00:02.100" producer="producer105">
   <property name="kdenlive:id">122</property>
  </entry>
 </playlist>
 <playlist id="playlist7"/>
 <tractor id="tractor3" in="00:00:00.000" out="00:09:17.167">
  <property name="kdenlive:trackheight">29</property>
  <property name="kdenlive:timeline_active">1</property>
  <property name="kdenlive:collapsed">28</property>
  <property name="kdenlive:thumbs_format"/>
  <property name="kdenlive:audio_rec"/>
  <track hide="audio" producer="playlist6"/>
  <track hide="audio" producer="playlist7"/>
 </tractor>
 <playlist id="playlist8">
  <blank length="00:06:20.633"/>
  <entry in="00:00:00.000" out="00:00:04.267" producer="producer106">
   <property name="kdenlive:id">83</property>
   <filter id="filter93">
    <property name="rotate_center">1</property>
    <property name="mlt_service">qtblend</property>
    <property name="kdenlive_id">qtblend</property>
    <property name="compositing">0</property>
    <property name="distort">0</property>
    <property name="rect">00:00:00.000=322 100 1288 897 1.000000</property>
    <property name="rotation">00:00:00.000=0</property>
    <property name="kdenlive:collapsed">0</property>
    <property name="">322 100 1287 896 1.000000</property>
   </filter>
  </entry>
  <blank length="00:02:12.633"/>
  <entry in="00:00:00.000" out="00:00:03.467" producer="producer107">
   <property name="kdenlive:id">109</property>
   <filter id="filter94">
    <property name="color">00:00:00.000=0x000000b4</property>
    <property name="radius">00:00:00.000=100</property>
    <property name="x">00:00:00.000=8</property>
    <property name="y">00:00:00.000=8</property>
    <property name="mlt_service">dropshadow</property>
    <property name="kdenlive_id">dropshadow</property>
    <property name="kdenlive:collapsed">0</property>
   </filter>
  </entry>
 </playlist>
 <playlist id="playlist9"/>
 <tractor id="tractor4" in="00:00:00.000" out="00:08:41.033">
  <property name="kdenlive:trackheight">29</property>
  <property name="kdenlive:timeline_active">1</property>
  <property name="kdenlive:collapsed">28</property>
  <property name="kdenlive:thumbs_format"/>
  <property name="kdenlive:audio_rec"/>
  <track hide="audio" producer="playlist8"/>
  <track hide="audio" producer="playlist9"/>
 </tractor>
 <playlist id="playlist10">
  <blank length="00:06:20.900"/>
  <entry in="00:00:00.000" out="00:00:04.000" producer="producer108">
   <property name="kdenlive:id">84</property>
   <filter id="filter95">
    <property name="rotate_center">1</property>
    <property name="mlt_service">qtblend</property>
    <property name="kdenlive_id">qtblend</property>
    <property name="compositing">0</property>
    <property name="distort">0</property>
    <property name="rect">00:00:00.000=411 160 1256 816 1.000000</property>
    <property name="rotation">00:00:00.000=7.2</property>
    <property name="kdenlive:collapsed">0</property>
    <property name="">410 160 1256 816 1.000000</property>
   </filter>
  </entry>
 </playlist>
 <playlist id="playlist11"/>
 <tractor id="tractor5" in="00:00:00.000" out="00:06:24.900">
  <property name="kdenlive:trackheight">29</property>
  <property name="kdenlive:timeline_active">1</property>
  <property name="kdenlive:collapsed">28</property>
  <property name="kdenlive:thumbs_format"/>
  <property name="kdenlive:audio_rec"/>
  <track hide="audio" producer="playlist10"/>
  <track hide="audio" producer="playlist11"/>
 </tractor>
 <playlist id="playlist12">
  <blank length="00:06:21.167"/>
  <entry in="00:00:00.000" out="00:00:03.733" producer="producer109">
   <property name="kdenlive:id">85</property>
   <filter id="filter96">
    <property name="rotate_center">1</property>
    <property name="mlt_service">qtblend</property>
    <property name="kdenlive_id">qtblend</property>
    <property name="compositing">0</property>
    <property name="distort">0</property>
    <property name="rect">00:00:00.000=403 148 1361 793 1.000000</property>
    <property name="rotation">00:00:00.000=14.4</property>
    <property name="kdenlive:collapsed">0</property>
    <property name="">402 148 1361 793 1.000000</property>
   </filter>
  </entry>
 </playlist>
 <playlist id="playlist13"/>
 <tractor id="tractor6" in="00:00:00.000" out="00:06:24.900">
  <property name="kdenlive:trackheight">29</property>
  <property name="kdenlive:timeline_active">1</property>
  <property name="kdenlive:collapsed">28</property>
  <property name="kdenlive:thumbs_format"/>
  <property name="kdenlive:audio_rec"/>
  <track hide="audio" producer="playlist12"/>
  <track hide="audio" producer="playlist13"/>
 </tractor>
 <playlist id="playlist14">
  <blank length="00:06:21.433"/>
  <entry in="00:00:00.000" out="00:00:03.467" producer="producer110">
   <property name="kdenlive:id">86</property>
   <filter id="filter97">
    <property name="rotate_center">1</property>
    <property name="mlt_service">qtblend</property>
    <property name="kdenlive_id">qtblend</property>
    <property name="compositing">0</property>
    <property name="distort">0</property>
    <property name="rect">00:00:00.000=629 255 1341 728 1.000000</property>
    <property name="rotation">00:00:00.000=28.8</property>
    <property name="kdenlive:collapsed">0</property>
    <property name="">629 255 1341 728 1.000000</property>
   </filter>
  </entry>
 </playlist>
 <playlist id="playlist15"/>
 <tractor id="tractor7" in="00:00:00.000" out="00:06:24.900">
  <property name="kdenlive:trackheight">30</property>
  <property name="kdenlive:timeline_active">1</property>
  <property name="kdenlive:collapsed">28</property>
  <property name="kdenlive:thumbs_format"/>
  <property name="kdenlive:audio_rec"/>
  <track hide="audio" producer="playlist14"/>
  <track hide="audio" producer="playlist15"/>
 </tractor>
 <playlist id="playlist16">
  <blank length="00:06:21.700"/>
  <entry in="00:00:00.000" out="00:00:03.200" producer="producer111">
   <property name="kdenlive:id">87</property>
   <filter id="filter98">
    <property name="rotate_center">1</property>
    <property name="mlt_service">qtblend</property>
    <property name="kdenlive_id">qtblend</property>
    <property name="compositing">0</property>
    <property name="distort">0</property>
    <property name="rect">00:00:00.000=768 430 1085 499 1.000000</property>
    <property name="rotation">00:00:00.000=36</property>
    <property name="kdenlive:collapsed">0</property>
    <property name="">767 430 1085 499 1.000000</property>
   </filter>
  </entry>
 </playlist>
 <playlist id="playlist17"/>
 <tractor id="tractor8" in="00:00:00.000" out="00:06:24.900">
  <property name="kdenlive:trackheight">31</property>
  <property name="kdenlive:timeline_active">1</property>
  <property name="kdenlive:collapsed">28</property>
  <property name="kdenlive:thumbs_format"/>
  <property name="kdenlive:audio_rec"/>
  <track hide="audio" producer="playlist16"/>
  <track hide="audio" producer="playlist17"/>
 </tractor>
 <playlist id="playlist18">
  <blank length="00:06:21.967"/>
  <entry in="00:00:00.000" out="00:00:02.933" producer="producer112">
   <property name="kdenlive:id">88</property>
   <filter id="filter99">
    <property name="rotate_center">1</property>
    <property name="mlt_service">qtblend</property>
    <property name="kdenlive_id">qtblend</property>
    <property name="compositing">0</property>
    <property name="distort">0</property>
    <property name="rect">00:00:00.000=604 378 1261 624 1.000000</property>
    <property name="rotation">00:00:00.000=28.8</property>
    <property name="kdenlive:collapsed">0</property>
    <property name="">603 377 1261 624 1.000000</property>
   </filter>
  </entry>
 </playlist>
 <playlist id="playlist19"/>
 <tractor id="tractor9" in="00:00:00.000" out="00:06:24.900">
  <property name="kdenlive:trackheight">31</property>
  <property name="kdenlive:timeline_active">1</property>
  <property name="kdenlive:collapsed">28</property>
  <property name="kdenlive:thumbs_format"/>
  <property name="kdenlive:audio_rec"/>
  <track hide="audio" producer="playlist18"/>
  <track hide="audio" producer="playlist19"/>
 </tractor>
 <playlist id="playlist20">
  <blank length="00:06:22.233"/>
  <entry in="00:00:00.000" out="00:00:02.667" producer="producer113">
   <property name="kdenlive:id">89</property>
   <filter id="filter100">
    <property name="rotate_center">1</property>
    <property name="mlt_service">qtblend</property>
    <property name="kdenlive_id">qtblend</property>
    <property name="compositing">0</property>
    <property name="distort">0</property>
    <property name="rect">00:00:00.000=378 449 1256 498 1.000000</property>
    <property name="rotation">00:00:00.000=21.6</property>
    <property name="kdenlive:collapsed">0</property>
    <property name="">378 448 1256 498 1.000000</property>
   </filter>
  </entry>
 </playlist>
 <playlist id="playlist21"/>
 <tractor id="tractor10" in="00:00:00.000" out="00:06:24.900">
  <property name="kdenlive:trackheight">32</property>
  <property name="kdenlive:timeline_active">1</property>
  <property name="kdenlive:collapsed">28</property>
  <property name="kdenlive:thumbs_format"/>
  <property name="kdenlive:audio_rec"/>
  <track hide="audio" producer="playlist20"/>
  <track hide="audio" producer="playlist21"/>
 </tractor>
 <playlist id="playlist22">
  <blank length="00:06:22.500"/>
  <entry in="00:00:00.000" out="00:00:02.400" producer="producer114">
   <property name="kdenlive:id">90</property>
   <filter id="filter101">
    <property name="rotate_center">1</property>
    <property name="mlt_service">qtblend</property>
    <property name="kdenlive_id">qtblend</property>
    <property name="compositing">0</property>
    <property name="distort">0</property>
    <property name="rect">00:00:00.000=241 395 1127 329 1.000000</property>
    <property name="rotation">00:00:00.000=14.4</property>
    <property name="kdenlive:collapsed">0</property>
    <property name="">241 395 1127 329 1.000000</property>
   </filter>
  </entry>
 </playlist>
 <playlist id="playlist23"/>
 <tractor id="tractor11" in="00:00:00.000" out="00:06:24.900">
  <property name="kdenlive:trackheight">32</property>
  <property name="kdenlive:timeline_active">1</property>
  <property name="kdenlive:collapsed">28</property>
  <property name="kdenlive:thumbs_format"/>
  <property name="kdenlive:audio_rec"/>
  <track hide="audio" producer="playlist22"/>
  <track hide="audio" producer="playlist23"/>
 </tractor>
 <playlist id="playlist24">
  <blank length="00:06:22.767"/>
  <entry in="00:00:00.000" out="00:00:02.133" producer="producer115">
   <property name="kdenlive:id">91</property>
   <filter id="filter102">
    <property name="rotate_center">1</property>
    <property name="mlt_service">qtblend</property>
    <property name="kdenlive_id">qtblend</property>
    <property name="compositing">0</property>
    <property name="distort">0</property>
    <property name="rect">00:00:00.000=-9 512 1384 787 1.000000</property>
    <property name="rotation">00:00:00.000=7.2</property>
    <property name="kdenlive:collapsed">0</property>
    <property name="">-8 512 1384 786 1.000000</property>
   </filter>
  </entry>
 </playlist>
 <playlist id="playlist25"/>
 <tractor id="tractor12" in="00:00:00.000" out="00:06:24.900">
  <property name="kdenlive:trackheight">29</property>
  <property name="kdenlive:timeline_active">1</property>
  <property name="kdenlive:collapsed">28</property>
  <property name="kdenlive:thumbs_format"/>
  <property name="kdenlive:audio_rec"/>
  <track hide="audio" producer="playlist24"/>
  <track hide="audio" producer="playlist25"/>
 </tractor>
 <playlist id="playlist26"/>
 <playlist id="playlist27"/>
 <tractor id="tractor13" in="00:00:00.000">
  <property name="kdenlive:trackheight">31</property>
  <property name="kdenlive:timeline_active">1</property>
  <property name="kdenlive:collapsed">28</property>
  <property name="kdenlive:thumbs_format"/>
  <property name="kdenlive:audio_rec"/>
  <track hide="audio" producer="playlist26"/>
  <track hide="audio" producer="playlist27"/>
 </tractor>
 <producer id="producer119" in="00:00:00.000" out="00:00:00.800">
  <property name="length">25</property>
  <property name="eof">pause</property>
  <property name="resource">/home/ingenarel/.cache/kdenlive/1762538205921/preview/0.mov</property>
  <property name="audio_index">-1</property>
  <property name="video_index">0</property>
  <property name="mute_on_pause">0</property>
  <property name="mlt_service">avformat-novalidate</property>
  <property name="meta.media.nb_streams">1</property>
  <property name="meta.media.0.stream.type">video</property>
  <property name="meta.media.0.stream.frame_rate">30</property>
  <property name="meta.media.0.stream.sample_aspect_ratio">1</property>
  <property name="meta.media.0.codec.width">1920</property>
  <property name="meta.media.0.codec.height">1080</property>
  <property name="meta.media.0.codec.rotate">0</property>
  <property name="meta.media.0.codec.pix_fmt">yuv422p</property>
  <property name="meta.media.0.codec.sample_aspect_ratio">0</property>
  <property name="meta.media.0.codec.colorspace">709</property>
  <property name="meta.media.0.codec.color_trc">1</property>
  <property name="meta.media.0.codec.name">dnxhd</property>
  <property name="meta.media.0.codec.long_name">VC3/DNxHD</property>
  <property name="meta.media.0.codec.bit_rate">45219840</property>
  <property name="meta.attr.0.stream.handler_name.markup">VideoHandler</property>
  <property name="meta.attr.0.stream.vendor_id.markup">FFMP</property>
  <property name="meta.attr.major_brand.markup">qt  </property>
  <property name="meta.attr.minor_version.markup">512</property>
  <property name="meta.attr.compatible_brands.markup">qt  </property>
  <property name="meta.attr.encoder.markup">Lavf62.3.100</property>
  <property name="seekable">1</property>
  <property name="meta.media.sample_aspect_num">1</property>
  <property name="meta.media.sample_aspect_den">1</property>
  <property name="aspect_ratio">1</property>
  <property name="format">3</property>
  <property name="kdenlive:remove">1</property>
  <property name="vstream">0</property>
  <property name="meta.media.frame_rate_num">30</property>
  <property name="meta.media.frame_rate_den">1</property>
  <property name="meta.media.colorspace">709</property>
  <property name="meta.media.color_trc">1</property>
  <property name="meta.media.has_b_frames">0</property>
  <property name="meta.media.width">1920</property>
  <property name="meta.media.height">1080</property>
  <property name="meta.media.aspect_ratio">1</property>
  <property name="meta.media.color_range">mpeg</property>
  <property name="meta.media.top_field_first">0</property>
  <property name="meta.media.progressive">1</property>
 </producer>
 <producer id="producer120" in="00:00:00.000" out="00:00:00.800">
  <property name="length">25</property>
  <property name="eof">pause</property>
  <property name="resource">/home/ingenarel/.cache/kdenlive/1762538205921/preview/25.mov</property>
  <property name="audio_index">-1</property>
  <property name="video_index">0</property>
  <property name="mute_on_pause">0</property>
  <property name="mlt_service">avformat-novalidate</property>
  <property name="meta.media.nb_streams">1</property>
  <property name="meta.media.0.stream.type">video</property>
  <property name="meta.media.0.stream.frame_rate">30</property>
  <property name="meta.media.0.stream.sample_aspect_ratio">1</property>
  <property name="meta.media.0.codec.width">1920</property>
  <property name="meta.media.0.codec.height">1080</property>
  <property name="meta.media.0.codec.rotate">0</property>
  <property name="meta.media.0.codec.pix_fmt">yuv422p</property>
  <property name="meta.media.0.codec.sample_aspect_ratio">0</property>
  <property name="meta.media.0.codec.colorspace">709</property>
  <property name="meta.media.0.codec.color_trc">1</property>
  <property name="meta.media.0.codec.name">dnxhd</property>
  <property name="meta.media.0.codec.long_name">VC3/DNxHD</property>
  <property name="meta.media.0.codec.bit_rate">45219840</property>
  <property name="meta.attr.0.stream.handler_name.markup">VideoHandler</property>
  <property name="meta.attr.0.stream.vendor_id.markup">FFMP</property>
  <property name="meta.attr.major_brand.markup">qt  </property>
  <property name="meta.attr.minor_version.markup">512</property>
  <property name="meta.attr.compatible_brands.markup">qt  </property>
  <property name="meta.attr.encoder.markup">Lavf62.3.100</property>
  <property name="seekable">1</property>
  <property name="meta.media.sample_aspect_num">1</property>
  <property name="meta.media.sample_aspect_den">1</property>
  <property name="aspect_ratio">1</property>
  <property name="format">3</property>
  <property name="kdenlive:remove">1</property>
  <property name="vstream">0</property>
  <property name="meta.media.frame_rate_num">30</property>
  <property name="meta.media.frame_rate_den">1</property>
  <property name="meta.media.colorspace">709</property>
  <property name="meta.media.color_trc">1</property>
  <property name="meta.media.has_b_frames">0</property>
  <property name="meta.media.width">1920</property>
  <property name="meta.media.height">1080</property>
  <property name="meta.media.aspect_ratio">1</property>
  <property name="meta.media.color_range">mpeg</property>
  <property name="meta.media.top_field_first">0</property>
  <property name="meta.media.progressive">1</property>
 </producer>
 <producer id="producer121" in="00:00:00.000" out="00:00:00.800">
  <property name="length">25</property>
  <property name="eof">pause</property>
  <property name="resource">/home/ingenarel/.cache/kdenlive/1762538205921/preview/50.mov</property>
  <property name="audio_index">-1</property>
  <property name="video_index">0</property>
  <property name="mute_on_pause">0</property>
  <property name="mlt_service">avformat-novalidate</property>
  <property name="meta.media.nb_streams">1</property>
  <property name="meta.media.0.stream.type">video</property>
  <property name="meta.media.0.stream.frame_rate">30</property>
  <property name="meta.media.0.stream.sample_aspect_ratio">1</property>
  <property name="meta.media.0.codec.width">1920</property>
  <property name="meta.media.0.codec.height">1080</property>
  <property name="meta.media.0.codec.rotate">0</property>
  <property name="meta.media.0.codec.pix_fmt">yuv422p</property>
  <property name="meta.media.0.codec.sample_aspect_ratio">0</property>
  <property name="meta.media.0.codec.colorspace">709</property>
  <property name="meta.media.0.codec.color_trc">1</property>
  <property name="meta.media.0.codec.name">dnxhd</property>
  <property name="meta.media.0.codec.long_name">VC3/DNxHD</property>
  <property name="meta.media.0.codec.bit_rate">45219840</property>
  <property name="meta.attr.0.stream.handler_name.markup">VideoHandler</property>
  <property name="meta.attr.0.stream.vendor_id.markup">FFMP</property>
  <property name="meta.attr.major_brand.markup">qt  </property>
  <property name="meta.attr.minor_version.markup">512</property>
  <property name="meta.attr.compatible_brands.markup">qt  </property>
  <property name="meta.attr.encoder.markup">Lavf62.3.100</property>
  <property name="seekable">1</property>
  <property name="meta.media.sample_aspect_num">1</property>
  <property name="meta.media.sample_aspect_den">1</property>
  <property name="aspect_ratio">1</property>
  <property name="format">3</property>
  <property name="kdenlive:remove">1</property>
  <property name="vstream">0</property>
  <property name="meta.media.frame_rate_num">30</property>
  <property name="meta.media.frame_rate_den">1</property>
  <property name="meta.media.colorspace">709</property>
  <property name="meta.media.color_trc">1</property>
  <property name="meta.media.has_b_frames">0</property>
  <property name="meta.media.width">1920</property>
  <property name="meta.media.height">1080</property>
  <property name="meta.media.aspect_ratio">1</property>
  <property name="meta.media.color_range">mpeg</property>
  <property name="meta.media.top_field_first">0</property>
  <property name="meta.media.progressive">1</property>
 </producer>
 <producer id="producer122" in="00:00:00.000" out="00:00:00.800">
  <property name="length">25</property>
  <property name="eof">pause</property>
  <property name="resource">/home/ingenarel/.cache/kdenlive/1762538205921/preview/75.mov</property>
  <property name="audio_index">-1</property>
  <property name="video_index">0</property>
  <property name="mute_on_pause">0</property>
  <property name="mlt_service">avformat-novalidate</property>
  <property name="meta.media.nb_streams">1</property>
  <property name="meta.media.0.stream.type">video</property>
  <property name="meta.media.0.stream.frame_rate">30</property>
  <property name="meta.media.0.stream.sample_aspect_ratio">1</property>
  <property name="meta.media.0.codec.width">1920</property>
  <property name="meta.media.0.codec.height">1080</property>
  <property name="meta.media.0.codec.rotate">0</property>
  <property name="meta.media.0.codec.pix_fmt">yuv422p</property>
  <property name="meta.media.0.codec.sample_aspect_ratio">0</property>
  <property name="meta.media.0.codec.colorspace">709</property>
  <property name="meta.media.0.codec.color_trc">1</property>
  <property name="meta.media.0.codec.name">dnxhd</property>
  <property name="meta.media.0.codec.long_name">VC3/DNxHD</property>
  <property name="meta.media.0.codec.bit_rate">45219840</property>
  <property name="meta.attr.0.stream.handler_name.markup">VideoHandler</property>
  <property name="meta.attr.0.stream.vendor_id.markup">FFMP</property>
  <property name="meta.attr.major_brand.markup">qt  </property>
  <property name="meta.attr.minor_version.markup">512</property>
  <property name="meta.attr.compatible_brands.markup">qt  </property>
  <property name="meta.attr.encoder.markup">Lavf62.3.100</property>
  <property name="seekable">1</property>
  <property name="meta.media.sample_aspect_num">1</property>
  <property name="meta.media.sample_aspect_den">1</property>
  <property name="aspect_ratio">1</property>
  <property name="format">3</property>
  <property name="kdenlive:remove">1</property>
  <property name="vstream">0</property>
  <property name="meta.media.frame_rate_num">30</property>
  <property name="meta.media.frame_rate_den">1</property>
  <property name="meta.media.colorspace">709</property>
  <property name="meta.media.color_trc">1</property>
  <property name="meta.media.has_b_frames">0</property>
  <property name="meta.media.width">1920</property>
  <property name="meta.media.height">1080</property>
  <property name="meta.media.aspect_ratio">1</property>
  <property name="meta.media.color_range">mpeg</property>
  <property name="meta.media.top_field_first">0</property>
  <property name="meta.media.progressive">1</property>
 </producer>
 <playlist id="playlist28">
  <property name="kdenlive:playlistid">timeline_preview</property>
  <entry in="00:00:00.000" out="00:00:00.800" producer="producer119"/>
  <entry in="00:00:00.000" out="00:00:00.800" producer="producer120"/>
  <entry in="00:00:00.000" out="00:00:00.800" producer="producer121"/>
  <entry in="00:00:00.000" out="00:00:00.800" producer="producer122"/>
 </playlist>
 <tractor id="tractor14" in="00:00:00.000" out="00:10:16.367">
  <property name="kdenlive:duration">00:10:16.400</property>
  <property name="kdenlive:maxduration">18492</property>
  <property name="kdenlive:clipname">Sequence 1</property>
  <property name="kdenlive:description"/>
  <property name="kdenlive:uuid">{39ca0a89-9f61-44e1-b432-0787e5c131d9}</property>
  <property name="kdenlive:producer_type">17</property>
  <property name="kdenlive:control_uuid">{39ca0a89-9f61-44e1-b432-0787e5c131d9}</property>
  <property name="kdenlive:id">3</property>
  <property name="kdenlive:clip_type">0</property>
  <property name="kdenlive:file_hash">1db672fc75a96e32244e3492c4c69a98</property>
  <property name="kdenlive:folderid">2</property>
  <property name="kdenlive:sequenceproperties.activeTrack">2</property>
  <property name="kdenlive:sequenceproperties.audioTarget">1</property>
  <property name="kdenlive:sequenceproperties.disablepreview">0</property>
  <property name="kdenlive:sequenceproperties.documentuuid">{39ca0a89-9f61-44e1-b432-0787e5c131d9}</property>
  <property name="kdenlive:sequenceproperties.hasAudio">1</property>
  <property name="kdenlive:sequenceproperties.hasVideo">1</property>
  <property name="kdenlive:sequenceproperties.position">0</property>
  <property name="kdenlive:sequenceproperties.previewchunks">0-75</property>
  <property name="kdenlive:sequenceproperties.scrollPos">16207</property>
  <property name="kdenlive:sequenceproperties.tracks">4</property>
  <property name="kdenlive:sequenceproperties.tracksCount">13</property>
  <property name="kdenlive:sequenceproperties.verticalzoom">1</property>
  <property name="kdenlive:sequenceproperties.videoTarget">2</property>
  <property name="kdenlive:sequenceproperties.zonein">0</property>
  <property name="kdenlive:sequenceproperties.zoneout">75</property>
  <property name="kdenlive:sequenceproperties.zoom">7</property>
  <property name="kdenlive:sequenceproperties.groups">[
]
</property>
  <property name="kdenlive:sequenceproperties.guides">[
]
</property>
  <property name="kdenlive:sequenceproperties.dirtypreviewchunks"/>
  <track producer="producer0"/>
  <track producer="tractor0"/>
  <track producer="tractor1"/>
  <track producer="tractor2"/>
  <track producer="tractor3"/>
  <track producer="tractor4"/>
  <track producer="tractor5"/>
  <track producer="tractor6"/>
  <track producer="tractor7"/>
  <track producer="tractor8"/>
  <track producer="tractor9"/>
  <track producer="tractor10"/>
  <track producer="tractor11"/>
  <track producer="tractor12"/>
  <track producer="tractor13"/>
  <track hide="both" producer="playlist28"/>
  <transition id="transition0">
   <property name="a_track">0</property>
   <property name="b_track">1</property>
   <property name="mlt_service">mix</property>
   <property name="kdenlive_id">mix</property>
   <property name="internal_added">237</property>
   <property name="always_active">1</property>
   <property name="accepts_blanks">1</property>
   <property name="sum">1</property>
  </transition>
  <transition id="transition1">
   <property name="a_track">0</property>
   <property name="b_track">2</property>
   <property name="mlt_service">mix</property>
   <property name="kdenlive_id">mix</property>
   <property name="internal_added">237</property>
   <property name="always_active">1</property>
   <property name="accepts_blanks">1</property>
   <property name="sum">1</property>
  </transition>
  <transition id="transition2">
   <property name="a_track">0</property>
   <property name="b_track">3</property>
   <property name="compositing">0</property>
   <property name="distort">0</property>
   <property name="rotate_center">0</property>
   <property name="mlt_service">qtblend</property>
   <property name="kdenlive_id">qtblend</property>
   <property name="internal_added">237</property>
   <property name="always_active">1</property>
  </transition>
  <transition id="transition3">
   <property name="a_track">0</property>
   <property name="b_track">4</property>
   <property name="compositing">0</property>
   <property name="distort">0</property>
   <property name="rotate_center">0</property>
   <property name="mlt_service">qtblend</property>
   <property name="kdenlive_id">qtblend</property>
   <property name="internal_added">237</property>
   <property name="always_active">1</property>
  </transition>
  <transition id="transition4">
   <property name="a_track">0</property>
   <property name="b_track">5</property>
   <property name="compositing">0</property>
   <property name="distort">0</property>
   <property name="rotate_center">0</property>
   <property name="mlt_service">qtblend</property>
   <property name="kdenlive_id">qtblend</property>
   <property name="internal_added">237</property>
   <property name="always_active">1</property>
  </transition>
  <transition id="transition5">
   <property name="a_track">0</property>
   <property name="b_track">6</property>
   <property name="compositing">0</property>
   <property name="distort">0</property>
   <property name="rotate_center">0</property>
   <property name="mlt_service">qtblend</property>
   <property name="kdenlive_id">qtblend</property>
   <property name="internal_added">237</property>
   <property name="always_active">1</property>
  </transition>
  <transition id="transition6">
   <property name="a_track">0</property>
   <property name="b_track">7</property>
   <property name="compositing">0</property>
   <property name="distort">0</property>
   <property name="rotate_center">0</property>
   <property name="mlt_service">qtblend</property>
   <property name="kdenlive_id">qtblend</property>
   <property name="internal_added">237</property>
   <property name="always_active">1</property>
  </transition>
  <transition id="transition7">
   <property name="a_track">0</property>
   <property name="b_track">8</property>
   <property name="compositing">0</property>
   <property name="distort">0</property>
   <property name="rotate_center">0</property>
   <property name="mlt_service">qtblend</property>
   <property name="kdenlive_id">qtblend</property>
   <property name="internal_added">237</property>
   <property name="always_active">1</property>
  </transition>
  <transition id="transition8">
   <property name="a_track">0</property>
   <property name="b_track">9</property>
   <property name="compositing">0</property>
   <property name="distort">0</property>
   <property name="rotate_center">0</property>
   <property name="mlt_service">qtblend</property>
   <property name="kdenlive_id">qtblend</property>
   <property name="internal_added">237</property>
   <property name="always_active">1</property>
  </transition>
  <transition id="transition9">
   <property name="a_track">0</property>
   <property name="b_track">10</property>
   <property name="compositing">0</property>
   <property name="distort">0</property>
   <property name="rotate_center">0</property>
   <property name="mlt_service">qtblend</property>
   <property name="kdenlive_id">qtblend</property>
   <property name="internal_added">237</property>
   <property name="always_active">1</property>
  </transition>
  <transition id="transition10">
   <property name="a_track">0</property>
   <property name="b_track">11</property>
   <property name="compositing">0</property>
   <property name="distort">0</property>
   <property name="rotate_center">0</property>
   <property name="mlt_service">qtblend</property>
   <property name="kdenlive_id">qtblend</property>
   <property name="internal_added">237</property>
   <property name="always_active">1</property>
  </transition>
  <transition id="transition11">
   <property name="a_track">0</property>
   <property name="b_track">12</property>
   <property name="compositing">0</property>
   <property name="distort">0</property>
   <property name="rotate_center">0</property>
   <property name="mlt_service">qtblend</property>
   <property name="kdenlive_id">qtblend</property>
   <property name="internal_added">237</property>
   <property name="always_active">1</property>
  </transition>
  <transition id="transition12">
   <property name="a_track">0</property>
   <property name="b_track">13</property>
   <property name="compositing">0</property>
   <property name="distort">0</property>
   <property name="rotate_center">0</property>
   <property name="mlt_service">qtblend</property>
   <property name="kdenlive_id">qtblend</property>
   <property name="internal_added">237</property>
   <property name="always_active">1</property>
  </transition>
  <transition id="transition13">
   <property name="a_track">0</property>
   <property name="b_track">14</property>
   <property name="compositing">0</property>
   <property name="distort">0</property>
   <property name="rotate_center">0</property>
   <property name="mlt_service">qtblend</property>
   <property name="kdenlive_id">qtblend</property>
   <property name="internal_added">237</property>
   <property name="always_active">1</property>
  </transition>
  <filter id="filter103">
   <property name="window">75</property>
   <property name="max_gain">20dB</property>
   <property name="channel_mask">-1</property>
   <property name="mlt_service">volume</property>
   <property name="internal_added">237</property>
   <property name="disable">1</property>
  </filter>
  <filter id="filter104">
   <property name="channel">-1</property>
   <property name="mlt_service">panner</property>
   <property name="internal_added">237</property>
   <property name="start">0.5</property>
   <property name="disable">1</property>
  </filter>
 </tractor>
 <playlist id="main_bin">
  <property name="kdenlive:folder.-1.2">Sequences</property>
  <property name="kdenlive:sequenceFolder">2</property>
  <property name="kdenlive:docproperties.activetimeline">{39ca0a89-9f61-44e1-b432-0787e5c131d9}</property>
  <property name="kdenlive:docproperties.audioChannels">2</property>
  <property name="kdenlive:docproperties.binsort">0</property>
  <property name="kdenlive:docproperties.browserurl">/home/ingenarel/youtube/</property>
  <property name="kdenlive:docproperties.documentid">1762538205921</property>
  <property name="kdenlive:docproperties.enableTimelineZone">0</property>
  <property name="kdenlive:docproperties.enableexternalproxy">0</property>
  <property name="kdenlive:docproperties.enableproxy">0</property>
  <property name="kdenlive:docproperties.externalproxyparams">./;;.LRV;./;;.MP4</property>
  <property name="kdenlive:docproperties.generateimageproxy">0</property>
  <property name="kdenlive:docproperties.generateproxy">0</property>
  <property name="kdenlive:docproperties.guidesCategories">[
    {
        "color": "#9b59b6",
        "comment": "Category 1",
        "index": 0
    },
    {
        "color": "#3daee9",
        "comment": "Category 2",
        "index": 1
    },
    {
        "color": "#1abc9c",
        "comment": "Category 3",
        "index": 2
    },
    {
        "color": "#1cdc9a",
        "comment": "Category 4",
        "index": 3
    },
    {
        "color": "#c9ce3b",
        "comment": "Category 5",
        "index": 4
    },
    {
        "color": "#fdbc4b",
        "comment": "Category 6",
        "index": 5
    },
    {
        "color": "#f39c1f",
        "comment": "Category 7",
        "index": 6
    },
    {
        "color": "#f47750",
        "comment": "Category 8",
        "index": 7
    },
    {
        "color": "#da4453",
        "comment": "Category 9",
        "index": 8
    }
]
</property>
  <property name="kdenlive:docproperties.kdenliveversion">25.08.2</property>
  <property name="kdenlive:docproperties.opensequences">{39ca0a89-9f61-44e1-b432-0787e5c131d9}</property>
  <property name="kdenlive:docproperties.previewextension">mov</property>
  <property name="kdenlive:docproperties.previewparameters">r=30 s=1920x1080 vb=45M threads=0 vcodec=dnxhd progressive=1</property>
  <property name="kdenlive:docproperties.profile">atsc_1080p_30</property>
  <property name="kdenlive:docproperties.proxyextension"/>
  <property name="kdenlive:docproperties.proxyimageminsize">2000</property>
  <property name="kdenlive:docproperties.proxyimagesize">800</property>
  <property name="kdenlive:docproperties.proxyminsize">1000</property>
  <property name="kdenlive:docproperties.proxyparams"/>
  <property name="kdenlive:docproperties.proxyresize">640</property>
  <property name="kdenlive:docproperties.rendercategory">Generic (HD for web, mobile devices...)</property>
  <property name="kdenlive:docproperties.rendercustomquality">-1</property>
  <property name="kdenlive:docproperties.renderendguide">-1</property>
  <property name="kdenlive:docproperties.renderexportaudio">0</property>
  <property name="kdenlive:docproperties.renderfullcolorrange">0</property>
  <property name="kdenlive:docproperties.rendermode">0</property>
  <property name="kdenlive:docproperties.renderplay">0</property>
  <property name="kdenlive:docproperties.renderpreview">0</property>
  <property name="kdenlive:docproperties.renderprofile">MP4-H264/AAC</property>
  <property name="kdenlive:docproperties.renderrescale">0</property>
  <property name="kdenlive:docproperties.renderrescaleheight">540</property>
  <property name="kdenlive:docproperties.renderrescalewidth">960</property>
  <property name="kdenlive:docproperties.renderspeed">6</property>
  <property name="kdenlive:docproperties.renderstartguide">-1</property>
  <property name="kdenlive:docproperties.renderstemaudio">0</property>
  <property name="kdenlive:docproperties.rendertcoverlay">0</property>
  <property name="kdenlive:docproperties.rendertctype">-1</property>
  <property name="kdenlive:docproperties.rendertwopass">0</property>
  <property name="kdenlive:docproperties.renderurl">project.mp4</property>
  <property name="kdenlive:docproperties.seekOffset">7500</property>
  <property name="kdenlive:docproperties.sessionid">{ab529cac-0b4b-481d-8781-af2d6f8d8f8e}</property>
  <property name="kdenlive:docproperties.uuid">{39ca0a89-9f61-44e1-b432-0787e5c131d9}</property>
  <property name="kdenlive:docproperties.version">1.1</property>
  <property name="kdenlive:expandedFolders"/>
  <property name="kdenlive:binZoom">4</property>
  <property name="kdenlive:extraBins">project_bin:-1:0</property>
  <property name="kdenlive:documentnotes"/>
  <property name="kdenlive:documentnotesversion">2</property>
  <property name="xml_retain">1</property>
  <entry in="00:00:00.000" out="00:10:28.933" producer="chain2"/>
  <entry in="00:00:00.000" out="00:03:11.967" producer="chain3"/>
  <entry in="00:00:00.000" out="00:00:04.967" producer="producer4"/>
  <entry in="00:00:00.000" out="00:00:04.967" producer="producer1"/>
  <entry in="00:00:00.000" out="00:00:04.967" producer="producer2"/>
  <entry in="00:00:00.000" out="00:00:05.800" producer="producer14"/>
  <entry in="00:00:00.000" out="00:00:04.967" producer="producer6"/>
  <entry in="00:00:00.000" out="00:00:04.967" producer="producer7"/>
  <entry in="00:00:00.000" out="00:00:04.967" producer="producer8"/>
  <entry in="00:00:00.000" out="00:00:04.967" producer="producer9"/>
  <entry in="00:00:00.000" out="00:00:04.967" producer="producer10"/>
  <entry in="00:00:00.000" out="00:00:04.967" producer="producer20"/>
  <entry in="00:00:00.000" out="00:00:01.967" producer="chain8"/>
  <entry in="00:00:00.000" out="00:00:03.167" producer="chain9"/>
  <entry in="00:00:00.000" out="00:00:00.533" producer="chain10"/>
  <entry in="00:00:00.000" out="00:00:01.600" producer="chain11"/>
  <entry in="00:00:00.000" out="00:00:02.300" producer="chain12"/>
  <entry in="00:00:00.000" out="00:00:00.933" producer="chain13"/>
  <entry in="00:00:00.000" out="00:00:05.800" producer="producer5"/>
  <entry in="00:00:00.000" out="00:00:04.967" producer="producer15"/>
  <entry in="00:00:00.000" out="00:00:01.333" producer="chain14"/>
  <entry in="00:00:00.000" out="00:00:01.400" producer="chain15"/>
  <entry in="00:00:00.000" out="00:00:01.900" producer="chain16"/>
  <entry in="00:00:00.000" out="00:00:03.400" producer="chain17"/>
  <entry in="00:00:00.000" out="00:00:04.967" producer="producer19"/>
  <entry in="00:00:00.000" out="00:00:04.967" producer="producer35"/>
  <entry in="00:00:00.000" out="00:00:01.433" producer="chain19"/>
  <entry in="00:00:00.000" out="00:00:04.967" producer="producer21"/>
  <entry in="00:00:00.000" out="00:00:04.967" producer="producer22"/>
  <entry in="00:00:00.000" out="00:00:04.967" producer="producer23"/>
  <entry in="00:00:00.000" out="00:00:04.967" producer="producer24"/>
  <entry in="00:00:00.000" out="00:00:04.967" producer="producer25"/>
  <entry in="00:00:00.000" out="00:00:05.100" producer="producer26"/>
  <entry in="00:00:00.000" out="00:00:12.433" producer="producer27"/>
  <entry in="00:00:00.000" out="00:00:04.967" producer="producer29"/>
  <entry in="00:00:00.000" out="00:00:04.967" producer="producer28"/>
  <entry in="00:00:00.000" out="00:00:04.967" producer="producer30"/>
  <entry in="00:00:00.000" out="00:00:04.967" producer="producer31"/>
  <entry in="00:00:00.000" out="00:00:04.967" producer="producer32"/>
  <entry in="00:00:00.000" out="00:00:04.967" producer="producer33"/>
  <entry in="00:00:00.000" out="00:00:14.233" producer="producer34"/>
  <entry in="00:00:00.000" out="00:00:04.967" producer="producer37"/>
  <entry in="00:00:00.000" out="00:00:25.767" producer="producer38"/>
  <entry in="00:00:00.000" out="00:00:08.067" producer="producer39"/>
  <entry in="00:00:00.000" out="00:00:20.267" producer="producer40"/>
  <entry in="00:00:00.000" out="00:00:16.367" producer="producer41"/>
  <entry in="00:00:00.000" out="00:00:04.967" producer="producer42"/>
  <entry in="00:00:00.000" out="00:00:04.967" producer="producer43"/>
  <entry in="00:00:00.000" out="00:00:04.967" producer="producer44"/>
  <entry in="00:00:00.000" out="00:00:07.833" producer="producer45"/>
  <entry in="00:00:00.000" out="00:00:04.967" producer="producer46"/>
  <entry in="00:00:00.000" out="00:00:06.333" producer="producer47"/>
  <entry in="00:00:00.000" out="00:00:04.967" producer="producer49"/>
  <entry in="00:00:00.000" out="00:00:31.700" producer="producer48"/>
  <entry in="00:00:00.000" out="00:00:02.867" producer="chain22"/>
  <entry in="00:00:00.000" out="00:00:04.967" producer="producer52"/>
  <entry in="00:00:00.000" out="00:00:04.967" producer="producer53"/>
  <entry in="00:00:00.000" out="00:00:04.967" producer="producer54"/>
  <entry in="00:00:00.000" out="00:00:04.967" producer="producer55"/>
  <entry in="00:00:00.000" out="00:00:04.967" producer="producer56"/>
  <entry in="00:00:00.000" out="00:00:04.967" producer="producer57"/>
  <entry in="00:00:00.000" out="00:00:04.967" producer="producer58"/>
  <entry in="00:00:00.000" out="00:00:04.967" producer="producer59"/>
  <entry in="00:00:00.000" out="00:00:04.967" producer="producer60"/>
  <entry in="00:00:00.000" out="00:00:04.967" producer="producer61"/>
  <entry in="00:00:00.000" out="00:00:11.533" producer="producer62"/>
  <entry in="00:00:00.000" out="00:00:15.200" producer="producer63"/>
  <entry in="00:00:00.000" out="00:00:25.933" producer="producer64"/>
  <entry in="00:00:00.000" out="00:00:04.967" producer="producer65"/>
  <entry in="00:00:00.000" out="00:00:09.767" producer="producer66"/>
  <entry in="00:00:00.000" out="00:00:08.700" producer="producer67"/>
  <entry in="00:00:00.000" out="00:00:04.967" producer="producer68"/>
  <entry in="00:00:00.000" out="00:00:08.833" producer="producer69"/>
  <entry in="00:00:00.000" out="00:00:04.967" producer="producer70"/>
  <entry in="00:00:00.000" out="00:00:04.967" producer="producer71"/>
  <entry in="00:00:00.000" out="00:00:04.967" producer="producer72"/>
  <entry in="00:00:00.000" out="00:00:04.967" producer="producer73"/>
  <entry in="00:00:00.000" out="00:00:07.033" producer="producer74"/>
  <entry in="00:00:00.000" out="00:00:04.967" producer="producer101"/>
  <entry in="00:00:00.000" out="00:00:04.967" producer="producer106"/>
  <entry in="00:00:00.000" out="00:00:04.967" producer="producer108"/>
  <entry in="00:00:00.000" out="00:00:04.967" producer="producer109"/>
  <entry in="00:00:00.000" out="00:00:04.967" producer="producer110"/>
  <entry in="00:00:00.000" out="00:00:04.967" producer="producer111"/>
  <entry in="00:00:00.000" out="00:00:04.967" producer="producer112"/>
  <entry in="00:00:00.000" out="00:00:04.967" producer="producer113"/>
  <entry in="00:00:00.000" out="00:00:04.967" producer="producer114"/>
  <entry in="00:00:00.000" out="00:00:04.967" producer="producer115"/>
  <entry in="00:00:00.000" out="00:00:05.300" producer="producer75"/>
  <entry in="00:00:00.000" out="00:00:04.967" producer="producer76"/>
  <entry in="00:00:00.000" out="00:00:05.300" producer="producer77"/>
  <entry in="00:00:00.000" out="00:00:04.967" producer="producer78"/>
  <entry in="00:00:00.000" out="00:00:06.700" producer="producer79"/>
  <entry in="00:00:00.000" out="00:00:04.967" producer="producer80"/>
  <entry in="00:00:00.000" out="00:00:04.967" producer="producer81"/>
  <entry in="00:00:00.000" out="00:00:06.767" producer="producer82"/>
  <entry in="00:00:00.000" out="00:00:01.833" producer="chain28"/>
  <entry in="00:00:00.000" out="00:00:04.967" producer="producer102"/>
  <entry in="00:00:00.000" out="00:00:02.067" producer="chain29"/>
  <entry in="00:00:00.000" out="00:01:06.233" producer="producer83"/>
  <entry in="00:00:00.000" out="00:00:10.733" producer="producer84"/>
  <entry in="00:00:00.000" out="00:00:04.967" producer="producer103"/>
  <entry in="00:00:00.000" out="00:00:11.600" producer="producer85"/>
  <entry in="00:00:00.000" out="00:00:16.400" producer="chain30"/>
  <entry in="00:00:00.000" out="00:00:04.967" producer="producer88"/>
  <entry in="00:00:00.000" out="00:00:04.967" producer="producer107"/>
  <entry in="00:00:00.000" out="00:00:04.967" producer="producer89"/>
  <entry in="00:00:00.000" out="00:00:11.533" producer="producer90"/>
  <entry in="00:00:00.000" out="00:00:08.533" producer="producer91"/>
  <entry in="00:00:00.000" out="00:00:01.167" producer="chain31"/>
  <entry in="00:00:00.000" out="00:00:01.767" producer="chain32"/>
  <entry in="00:00:00.000" out="00:00:04.200" producer="chain33"/>
  <entry in="00:00:00.000" out="00:00:04.967" producer="producer93"/>
  <entry in="00:00:00.000" out="00:00:04.967" producer="producer94"/>
  <entry in="00:00:00.000" out="00:00:04.967" producer="producer95"/>
  <entry in="00:00:00.000" out="00:00:04.967" producer="producer104"/>
  <entry in="00:00:00.000" out="00:00:04.967" producer="producer97"/>
  <entry in="00:00:00.000" out="00:00:04.967" producer="producer96"/>
  <entry in="00:00:00.000" out="00:00:04.967" producer="producer105"/>
  <entry in="00:00:00.000" out="00:00:44.733" producer="producer98"/>
  <entry in="00:00:00.000" out="00:00:13.233" producer="producer100"/>
  <entry in="00:00:00.000" out="00:00:04.967" producer="producer99"/>
  <entry in="00:00:00.000" out="00:00:04.967" producer="producer36"/>
  <entry in="00:00:00.000" out="00:00:06.967" producer="producer50"/>
  <entry in="00:00:00.000" out="00:00:09.067" producer="producer116"/>
  <entry in="00:00:00.000" out="00:00:04.967" producer="producer117"/>
  <entry in="00:00:00.000" out="00:00:10.500" producer="producer118"/>
  <entry in="00:00:00.000" out="00:10:16.367" producer="tractor14"/>
 </playlist>
 <tractor id="tractor15" in="00:00:00.000" out="00:10:16.367">
  <property name="kdenlive:projectTractor">1</property>
  <track in="00:00:00.000" out="00:10:16.367" producer="tractor14"/>
 </tractor>
</mlt>
