<?xml version='1.0' encoding='utf-8'?>
<mlt LC_NUMERIC="C" producer="main_bin" root="/home/ingenarel/youtube/video_essays/yap/bday-special-q&amp;a" version="7.34.1">
 <profile colorspace="709" description="HD 1080p 60 fps" display_aspect_den="9" display_aspect_num="16" frame_rate_den="1" frame_rate_num="60" height="1080" progressive="1" sample_aspect_den="1" sample_aspect_num="1" width="1920"/>
 <chain id="chain1" out="00:35:51.767">
  <property name="length">00:35:51.800</property>
  <property name="eof">pause</property>
  <property name="resource">audio-post.flac</property>
  <property name="mlt_service">avformat</property>
  <property name="meta.media.nb_streams">1</property>
  <property name="meta.media.0.stream.type">audio</property>
  <property name="meta.media.0.codec.sample_fmt">s16</property>
  <property name="meta.media.0.codec.sample_rate">48000</property>
  <property name="meta.media.0.codec.channels">1</property>
  <property name="meta.media.0.codec.layout">mono</property>
  <property name="meta.media.0.codec.name">flac</property>
  <property name="meta.media.0.codec.long_name">FLAC (Free Lossless Audio Codec)</property>
  <property name="meta.media.0.codec.bit_rate">0</property>
  <property name="seekable">1</property>
  <property name="audio_index">0</property>
  <property name="video_index">-1</property>
  <property name="astream">0</property>
  <property name="kdenlive:folderid">-1</property>
  <property name="kdenlive:id">4</property>
  <property name="kdenlive:control_uuid">{161c2d5e-40b1-42ee-bf96-5f4095ffab23}</property>
  <property name="kdenlive:clip_type">1</property>
  <property name="kdenlive:file_size">47481576</property>
  <property name="kdenlive:file_hash">d5d0df86eed6e171ffb41320135af9cf</property>
  <property name="kdenlive:kextractor">1</property>
  <property name="kdenlive:meta.extractor.Bitrate">177 kb/s</property>
  <property name="kdenlive:monitorPosition">79</property>
 </chain>
 <producer id="producer1" in="00:00:00.000" out="00:00:16.350">
  <property name="length">00:00:16.360</property>
  <property name="eof">pause</property>
  <property name="resource"/>
  <property name="meta.media.progressive">1</property>
  <property name="aspect_ratio">1</property>
  <property name="seekable">1</property>
  <property name="mlt_service">kdenlivetitle</property>
  <property name="kdenlive:duration">00:00:05:00</property>
  <property name="kdenlive:clipname">When editing...</property>
  <property name="xmldata">&lt;kdenlivetitle LC_NUMERIC="C" duration="125" height="1080" out="124" width="1920">
 &lt;item type="QGraphicsTextItem" z-index="0">
  &lt;position x="372" y="325">
   &lt;transform>1,0,0,0,1,0,0,0,1&lt;/transform>
  &lt;/position>
  &lt;content alignment="4" box-height="395" box-width="1197.92" font="Noto Sans" font-color="255,255,255,255" font-italic="0" font-outline="0" font-outline-color="0,0,0,255" font-pixel-size="58" font-underline="0" font-weight="400" letter-spacing="0" line-spacing="0" shadow="0;#64000000;3;3;3" tab-width="80" typewriter="0;2;1;0;0">When editing this vid, i just passed 100 subs
I wanna thank this awesome community,
I don't have a plan for a special video yet
but if you have any ideas
lemme know in the discord server&lt;/content>
 &lt;/item>
 &lt;startviewport rect="0,0,1920,1080"/>
 &lt;endviewport rect="0,0,1920,1080"/>
 &lt;background color="0,0,0,0"/>
&lt;/kdenlivetitle>
</property>
  <property name="xml">was here</property>
  <property name="kdenlive:folderid">-1</property>
  <property name="kdenlive:id">5</property>
  <property name="kdenlive:control_uuid">{c9f08e69-034c-47ea-9601-11269d7455ef}</property>
  <property name="kdenlive:clip_type">2</property>
  <property name="kdenlive:uniqueId">{8cfb595d-b27f-40f6-9aa7-3487513fd1a6}</property>
  <property name="kdenlive:file_hash">50314e27d5fd56fe099f31797af8b368</property>
  <property name="force_reload">0</property>
  <property name="meta.media.width">1920</property>
  <property name="meta.media.height">1080</property>
  <property name="kdenlive:monitorPosition">118</property>
 </producer>
 <producer id="producer2" in="00:00:00.000" out="00:00:47.750">
  <property name="length">00:00:47.760</property>
  <property name="eof">pause</property>
  <property name="resource">Pictures/2025-11-15_01-11-1763148095.png</property>
  <property name="ttl">25</property>
  <property name="aspect_ratio">1</property>
  <property name="meta.media.progressive">1</property>
  <property name="seekable">1</property>
  <property name="format">2</property>
  <property name="meta.media.width">826</property>
  <property name="meta.media.height">95</property>
  <property name="mlt_service">qimage</property>
  <property name="kdenlive:duration">00:00:05:00</property>
  <property name="xml">was here</property>
  <property name="kdenlive:folderid">-1</property>
  <property name="kdenlive:id">6</property>
  <property name="kdenlive:control_uuid">{99e85bdf-e673-4312-8456-f5cc102e4f46}</property>
  <property name="kdenlive:clip_type">2</property>
  <property name="kdenlive:file_size">79230</property>
  <property name="kdenlive:file_hash">e25cbf825716197ba9fe7da7827a61cd</property>
  <property name="kdenlive:kextractor">1</property>
  <property name="kdenlive:monitorPosition">0</property>
 </producer>
 <producer id="producer3" in="00:00:00.000" out="00:01:14.150">
  <property name="length">00:01:14.160</property>
  <property name="eof">pause</property>
  <property name="resource">Pictures/2025-11-15_01-11-1763148227.png</property>
  <property name="ttl">25</property>
  <property name="aspect_ratio">1</property>
  <property name="meta.media.progressive">1</property>
  <property name="seekable">1</property>
  <property name="format">2</property>
  <property name="meta.media.width">900</property>
  <property name="meta.media.height">106</property>
  <property name="mlt_service">qimage</property>
  <property name="kdenlive:duration">00:00:05:00</property>
  <property name="xml">was here</property>
  <property name="kdenlive:folderid">-1</property>
  <property name="kdenlive:id">7</property>
  <property name="kdenlive:control_uuid">{53706adc-332c-4523-a8e6-1fd43641d904}</property>
  <property name="kdenlive:clip_type">2</property>
  <property name="kdenlive:file_size">21006</property>
  <property name="kdenlive:file_hash">b263c0c26a294e06624f8df59262fee9</property>
  <property name="kdenlive:kextractor">1</property>
  <property name="kdenlive:monitorPosition">17</property>
 </producer>
 <producer id="producer16" in="00:00:00.000" out="00:00:04.983">
  <property name="length">00:00:05.000</property>
  <property name="eof">pause</property>
  <property name="resource">images/Gentoo Logo Vector.svg</property>
  <property name="ttl">25</property>
  <property name="aspect_ratio">1</property>
  <property name="meta.media.progressive">1</property>
  <property name="seekable">1</property>
  <property name="format">2</property>
  <property name="meta.media.width">493</property>
  <property name="meta.media.height">519</property>
  <property name="mlt_service">qimage</property>
  <property name="kdenlive:duration">00:00:05:00</property>
  <property name="xml">was here</property>
  <property name="kdenlive:folderid">-1</property>
  <property name="kdenlive:id">8</property>
  <property name="kdenlive:control_uuid">{d0fc4a7b-4663-4cfd-9d9b-0dd21bcdb419}</property>
  <property name="kdenlive:clip_type">2</property>
  <property name="kdenlive:file_size">7078</property>
  <property name="kdenlive:file_hash">a0aebf50d8809aea66e7bac3c081311d</property>
  <property name="kdenlive:kextractor">1</property>
  <property name="kdenlive:meta.extractor.Title">Gentoo Logo Vector</property>
  <property name="kdenlive:monitorPosition">4</property>
 </producer>
 <producer id="producer17" in="00:00:00.000" out="00:00:04.983">
  <property name="length">00:00:05.000</property>
  <property name="eof">pause</property>
  <property name="resource">Pictures/2025-11-15_01-11-1763148502.ppm</property>
  <property name="ttl">25</property>
  <property name="aspect_ratio">1</property>
  <property name="meta.media.progressive">1</property>
  <property name="seekable">1</property>
  <property name="format">1</property>
  <property name="meta.media.width">1440</property>
  <property name="meta.media.height">900</property>
  <property name="mlt_service">qimage</property>
  <property name="kdenlive:duration">00:00:05:00</property>
  <property name="xml">was here</property>
  <property name="kdenlive:folderid">-1</property>
  <property name="kdenlive:id">9</property>
  <property name="kdenlive:control_uuid">{c481a32c-e5cd-448d-b9a6-32802cd11500}</property>
  <property name="kdenlive:clip_type">2</property>
  <property name="kdenlive:file_size">3888016</property>
  <property name="kdenlive:file_hash">1c524681e189cddc0f9fe595ef58a7c6</property>
  <property name="kdenlive:kextractor">1</property>
  <property name="kdenlive:monitorPosition">0</property>
 </producer>
 <producer id="producer18" in="00:00:00.000" out="00:00:04.983">
  <property name="length">00:00:05.000</property>
  <property name="eof">pause</property>
  <property name="resource">images/TempleOS_logo.png</property>
  <property name="ttl">25</property>
  <property name="aspect_ratio">1</property>
  <property name="meta.media.progressive">1</property>
  <property name="seekable">1</property>
  <property name="format">2</property>
  <property name="meta.media.width">650</property>
  <property name="meta.media.height">490</property>
  <property name="mlt_service">qimage</property>
  <property name="kdenlive:duration">00:00:05:00</property>
  <property name="xml">was here</property>
  <property name="kdenlive:folderid">-1</property>
  <property name="kdenlive:id">10</property>
  <property name="kdenlive:control_uuid">{0be12684-205d-48a3-b029-2add6f508528}</property>
  <property name="kdenlive:clip_type">2</property>
  <property name="kdenlive:file_size">20316</property>
  <property name="kdenlive:file_hash">498e0fee91b5f0fadd8d4e3e6a94b6d1</property>
  <property name="kdenlive:kextractor">1</property>
  <property name="kdenlive:monitorPosition">0</property>
 </producer>
 <producer id="producer15" in="00:00:00.000" out="00:01:02.383">
  <property name="length">00:01:02.400</property>
  <property name="eof">pause</property>
  <property name="resource">Pictures/2025-11-15_01-11-1763149193.png</property>
  <property name="ttl">25</property>
  <property name="aspect_ratio">1</property>
  <property name="meta.media.progressive">1</property>
  <property name="seekable">1</property>
  <property name="format">2</property>
  <property name="meta.media.width">834</property>
  <property name="meta.media.height">109</property>
  <property name="mlt_service">qimage</property>
  <property name="kdenlive:duration">00:00:05:00</property>
  <property name="xml">was here</property>
  <property name="kdenlive:folderid">-1</property>
  <property name="kdenlive:id">11</property>
  <property name="kdenlive:control_uuid">{d5fdad3a-b97c-4e62-b817-1dc242b1fa32}</property>
  <property name="kdenlive:clip_type">2</property>
  <property name="kdenlive:file_size">88776</property>
  <property name="kdenlive:file_hash">9467ea12b9e13bc15d2a4d61adc0f3fe</property>
  <property name="kdenlive:kextractor">1</property>
  <property name="kdenlive:monitorPosition">14</property>
 </producer>
 <chain id="chain2" out="00:03:21.000">
  <property name="length">00:03:21.040</property>
  <property name="eof">pause</property>
  <property name="resource">/home/ingenarel/Downloads/odysee_-_terry_a._davis_-_templeos_archive_202009/20200929 - 4737ad132a334b66e59f18ea067d63e3d83ee2e9 - 2018-05-01T10_33_43+00_00 - Royal Revolution (VLGIFIx94aw).mkv/20200929 - 4737ad132a334b66e59f18ea067d63e3d83ee2e9 - 2018-05-01T10_33_43+00_00 - Royal Revolution (VLGIFIx94aw).mkv.mkv</property>
  <property name="mlt_service">avformat-novalidate</property>
  <property name="meta.media.nb_streams">2</property>
  <property name="meta.media.0.stream.type">video</property>
  <property name="meta.media.0.stream.frame_rate">30</property>
  <property name="meta.media.0.stream.sample_aspect_ratio">1</property>
  <property name="meta.media.0.codec.width">1280</property>
  <property name="meta.media.0.codec.height">720</property>
  <property name="meta.media.0.codec.rotate">0</property>
  <property name="meta.media.0.codec.pix_fmt">yuv420p</property>
  <property name="meta.media.0.codec.sample_aspect_ratio">1</property>
  <property name="meta.media.0.codec.colorspace">709</property>
  <property name="meta.media.0.codec.name">h264</property>
  <property name="meta.media.0.codec.long_name">H.264 / AVC / MPEG-4 AVC / MPEG-4 part 10</property>
  <property name="meta.media.0.codec.bit_rate">0</property>
  <property name="meta.attr.0.stream.HANDLER_NAME.markup">VideoHandler</property>
  <property name="meta.attr.0.stream.VENDOR_ID.markup">[0][0][0][0]</property>
  <property name="meta.attr.0.stream.DURATION.markup">00:03:21.021000000</property>
  <property name="meta.media.1.stream.type">audio</property>
  <property name="meta.media.1.codec.sample_fmt">fltp</property>
  <property name="meta.media.1.codec.sample_rate">48000</property>
  <property name="meta.media.1.codec.channels">2</property>
  <property name="meta.media.1.codec.layout">stereo</property>
  <property name="meta.media.1.codec.name">aac</property>
  <property name="meta.media.1.codec.long_name">AAC (Advanced Audio Coding)</property>
  <property name="meta.media.1.codec.bit_rate">0</property>
  <property name="meta.attr.1.stream.language.markup">eng</property>
  <property name="meta.attr.1.stream.HANDLER_NAME.markup">SoundHandler</property>
  <property name="meta.attr.1.stream.VENDOR_ID.markup">[0][0][0][0]</property>
  <property name="meta.attr.1.stream.DURATION.markup">00:03:21.031000000</property>
  <property name="meta.attr.title.markup">2018-05-01T10:33:43+00:00 - Royal Revolution (VLGIFIx94aw).mkv</property>
  <property name="meta.attr.DESCRIPTION.markup">Original video found at https://archive.org/details/TerryADavis_TempleOS_Archive</property>
  <property name="meta.attr.MAJOR_BRAND.markup">isom</property>
  <property name="meta.attr.MINOR_VERSION.markup">512</property>
  <property name="meta.attr.COMPATIBLE_BRANDS.markup">isomiso2avc1mp41</property>
  <property name="meta.attr.DATE.markup">20200929</property>
  <property name="meta.attr.SYNOPSIS.markup">Original video found at https://archive.org/details/TerryADavis_TempleOS_Archive</property>
  <property name="meta.attr.COMMENT.markup">https://odysee.com/TempleOS-2018-05-01T1033430000-RoyalRevolutionVLGIFIx94awmkv:4737ad132a334b66e59f18ea067d63e3d83ee2e9</property>
  <property name="meta.attr.ENCODER.markup">Lavf58.76.100</property>
  <property name="seekable">1</property>
  <property name="meta.media.sample_aspect_num">1</property>
  <property name="meta.media.sample_aspect_den">1</property>
  <property name="format">3</property>
  <property name="audio_index">1</property>
  <property name="video_index">0</property>
  <property name="vstream">0</property>
  <property name="meta.media.frame_rate_num">30</property>
  <property name="meta.media.frame_rate_den">1</property>
  <property name="meta.media.colorspace">709</property>
  <property name="meta.media.color_trc">2</property>
  <property name="meta.media.has_b_frames">2</property>
  <property name="meta.media.width">1280</property>
  <property name="meta.media.height">720</property>
  <property name="meta.media.aspect_ratio">1</property>
  <property name="meta.media.color_range">mpeg</property>
  <property name="astream">0</property>
  <property name="meta.media.top_field_first">0</property>
  <property name="meta.media.progressive">1</property>
  <property name="kdenlive:folderid">-1</property>
  <property name="kdenlive:id">12</property>
  <property name="kdenlive:control_uuid">{9fd514c4-161f-4a6b-8eb2-2056e5e63833}</property>
  <property name="mute_on_pause">0</property>
  <property name="kdenlive:clip_type">0</property>
  <property name="kdenlive:file_size">59370687</property>
  <property name="kdenlive:file_hash">c2b296e8aaa7b4b0260ed35bb715cc6a</property>
  <property name="kdenlive:kextractor">1</property>
  <property name="kdenlive:meta.extractor.Bitrate">2362 kb/s</property>
  <property name="kdenlive:meta.extractor.Comment">https://odysee.com/TempleOS-2018-05-01T1033430000-RoyalRevolutionVLGIFIx94awmkv:4737ad132a334b66e59f18ea067d63e3d83ee2e9</property>
  <property name="kdenlive:meta.extractor.Title">2018-05-01T10:33:43+00:00 - Royal Revolution (VLGIFIx94aw).mkv</property>
  <property name="kdenlive:monitorPosition">0</property>
 </chain>
 <chain id="chain3" out="00:03:28.283">
  <property name="length">00:03:28.320</property>
  <property name="eof">pause</property>
  <property name="resource">/home/ingenarel/Downloads/odysee_-_terry_a._davis_-_templeos_archive_202009/20200929 - 94e7c48287483674b9c61a8fd540cc62c0a3bc18 - 2018-05-01T00_10_52+00_00 - Catholic Magic - Boredom balances with excitement (Gi1a601yALY).webm/20200929 - 94e7c48287483674b9c61a8fd540cc62c0a3bc18 - 2018-05-01T00_10_52+00_00 - Catholic Magic - Boredom balances with excitement (Gi1a601yALY).webm.mkv</property>
  <property name="mlt_service">avformat-novalidate</property>
  <property name="meta.media.nb_streams">2</property>
  <property name="meta.media.0.stream.type">video</property>
  <property name="meta.media.0.stream.frame_rate">30</property>
  <property name="meta.media.0.stream.sample_aspect_ratio">1</property>
  <property name="meta.media.0.codec.width">1280</property>
  <property name="meta.media.0.codec.height">720</property>
  <property name="meta.media.0.codec.rotate">0</property>
  <property name="meta.media.0.codec.pix_fmt">yuv420p</property>
  <property name="meta.media.0.codec.sample_aspect_ratio">1</property>
  <property name="meta.media.0.codec.colorspace">709</property>
  <property name="meta.media.0.codec.name">h264</property>
  <property name="meta.media.0.codec.long_name">H.264 / AVC / MPEG-4 AVC / MPEG-4 part 10</property>
  <property name="meta.media.0.codec.bit_rate">0</property>
  <property name="meta.attr.0.stream.language.markup">eng</property>
  <property name="meta.attr.0.stream.HANDLER_NAME.markup">VideoHandler</property>
  <property name="meta.attr.0.stream.VENDOR_ID.markup">[0][0][0][0]</property>
  <property name="meta.attr.0.stream.DURATION.markup">00:03:28.287000000</property>
  <property name="meta.media.1.stream.type">audio</property>
  <property name="meta.media.1.codec.sample_fmt">fltp</property>
  <property name="meta.media.1.codec.sample_rate">48000</property>
  <property name="meta.media.1.codec.channels">2</property>
  <property name="meta.media.1.codec.layout">stereo</property>
  <property name="meta.media.1.codec.name">aac</property>
  <property name="meta.media.1.codec.long_name">AAC (Advanced Audio Coding)</property>
  <property name="meta.media.1.codec.bit_rate">0</property>
  <property name="meta.attr.1.stream.language.markup">eng</property>
  <property name="meta.attr.1.stream.HANDLER_NAME.markup">SoundHandler</property>
  <property name="meta.attr.1.stream.VENDOR_ID.markup">[0][0][0][0]</property>
  <property name="meta.attr.1.stream.DURATION.markup">00:03:28.320000000</property>
  <property name="meta.attr.title.markup">2018-05-01T00:10:52+00:00 - Catholic Magic - Boredom balances with excitement (Gi1a601yALY).webm</property>
  <property name="meta.attr.DESCRIPTION.markup">Original video found at https://archive.org/details/TerryADavis_TempleOS_Archive</property>
  <property name="meta.attr.MAJOR_BRAND.markup">isom</property>
  <property name="meta.attr.MINOR_VERSION.markup">512</property>
  <property name="meta.attr.COMPATIBLE_BRANDS.markup">isomiso2avc1mp41</property>
  <property name="meta.attr.DATE.markup">20200929</property>
  <property name="meta.attr.SYNOPSIS.markup">Original video found at https://archive.org/details/TerryADavis_TempleOS_Archive</property>
  <property name="meta.attr.COMMENT.markup">https://odysee.com/TempleOS-2018-05-01T0010520000-CatholicMagic-BoredombalanceswithexcitementGi1a601yALYwebm:94e7c48287483674b9c61a8fd540cc62c0a3bc18</property>
  <property name="meta.attr.ENCODER.markup">Lavf58.76.100</property>
  <property name="seekable">1</property>
  <property name="meta.media.sample_aspect_num">1</property>
  <property name="meta.media.sample_aspect_den">1</property>
  <property name="format">3</property>
  <property name="audio_index">1</property>
  <property name="video_index">0</property>
  <property name="vstream">0</property>
  <property name="meta.media.frame_rate_num">30</property>
  <property name="meta.media.frame_rate_den">1</property>
  <property name="meta.media.colorspace">709</property>
  <property name="meta.media.color_trc">2</property>
  <property name="meta.media.has_b_frames">2</property>
  <property name="meta.media.width">1280</property>
  <property name="meta.media.height">720</property>
  <property name="meta.media.aspect_ratio">1</property>
  <property name="meta.media.color_range">mpeg</property>
  <property name="astream">0</property>
  <property name="meta.media.top_field_first">0</property>
  <property name="meta.media.progressive">1</property>
  <property name="kdenlive:folderid">-1</property>
  <property name="kdenlive:id">13</property>
  <property name="kdenlive:control_uuid">{e3efddb9-7d76-4ca3-a411-dcad602ec162}</property>
  <property name="mute_on_pause">0</property>
  <property name="kdenlive:clip_type">0</property>
  <property name="kdenlive:file_size">33786322</property>
  <property name="kdenlive:file_hash">ac6e38efb94c4268a24fa0a1460432b0</property>
  <property name="kdenlive:kextractor">1</property>
  <property name="kdenlive:meta.extractor.Bitrate">1297 kb/s</property>
  <property name="kdenlive:meta.extractor.Comment">https://odysee.com/TempleOS-2018-05-01T0010520000-CatholicMagic-BoredombalanceswithexcitementGi1a601yALYwebm:94e7c48287483674b9c61a8fd540cc62c0a3bc18</property>
  <property name="kdenlive:meta.extractor.Title">2018-05-01T00:10:52+00:00 - Catholic Magic - Boredom balances with excitement (Gi1a601yALY).webm</property>
  <property name="kdenlive:monitorPosition">0</property>
 </chain>
 <chain id="chain4" out="00:00:46.233">
  <property name="length">00:00:46.280</property>
  <property name="eof">pause</property>
  <property name="resource">images/moXX8lbnmHs.mp4</property>
  <property name="mlt_service">avformat-novalidate</property>
  <property name="meta.media.nb_streams">2</property>
  <property name="meta.media.0.stream.type">video</property>
  <property name="meta.media.0.stream.frame_rate">29.97</property>
  <property name="meta.media.0.stream.sample_aspect_ratio">0.999219</property>
  <property name="meta.media.0.codec.width">854</property>
  <property name="meta.media.0.codec.height">480</property>
  <property name="meta.media.0.codec.rotate">0</property>
  <property name="meta.media.0.codec.pix_fmt">yuv420p</property>
  <property name="meta.media.0.codec.sample_aspect_ratio">0.999219</property>
  <property name="meta.media.0.codec.colorspace">601</property>
  <property name="meta.media.0.codec.name">h264</property>
  <property name="meta.media.0.codec.long_name">H.264 / AVC / MPEG-4 AVC / MPEG-4 part 10</property>
  <property name="meta.media.0.codec.bit_rate">695185</property>
  <property name="meta.attr.0.stream.handler_name.markup">VideoHandler</property>
  <property name="meta.attr.0.stream.vendor_id.markup">[0][0][0][0]</property>
  <property name="meta.media.1.stream.type">audio</property>
  <property name="meta.media.1.codec.sample_fmt">fltp</property>
  <property name="meta.media.1.codec.sample_rate">48000</property>
  <property name="meta.media.1.codec.channels">2</property>
  <property name="meta.media.1.codec.layout">stereo</property>
  <property name="meta.media.1.codec.name">aac</property>
  <property name="meta.media.1.codec.long_name">AAC (Advanced Audio Coding)</property>
  <property name="meta.media.1.codec.bit_rate">65859</property>
  <property name="meta.attr.1.stream.handler_name.markup">SoundHandler</property>
  <property name="meta.attr.1.stream.vendor_id.markup">[0][0][0][0]</property>
  <property name="meta.attr.major_brand.markup">isom</property>
  <property name="meta.attr.minor_version.markup">512</property>
  <property name="meta.attr.compatible_brands.markup">isomiso2avc1mp41</property>
  <property name="meta.attr.title.markup">Terry Davis - "Artificial Intelligence Is Going To Be The Pressure Point" - https://archive.org/details/youtube-moXX8lbnmHs</property>
  <property name="meta.attr.encoder.markup">Lavf58.51.100</property>
  <property name="seekable">1</property>
  <property name="meta.media.sample_aspect_num">1280</property>
  <property name="meta.media.sample_aspect_den">1281</property>
  <property name="format">3</property>
  <property name="audio_index">1</property>
  <property name="video_index">0</property>
  <property name="vstream">0</property>
  <property name="meta.media.frame_rate_num">2997</property>
  <property name="meta.media.frame_rate_den">100</property>
  <property name="meta.media.colorspace">601</property>
  <property name="meta.media.color_trc">2</property>
  <property name="meta.media.has_b_frames">2</property>
  <property name="meta.media.width">854</property>
  <property name="meta.media.height">480</property>
  <property name="meta.media.aspect_ratio">0.999219</property>
  <property name="meta.media.color_range">mpeg</property>
  <property name="astream">0</property>
  <property name="meta.media.top_field_first">0</property>
  <property name="meta.media.progressive">1</property>
  <property name="kdenlive:folderid">-1</property>
  <property name="kdenlive:id">14</property>
  <property name="kdenlive:control_uuid">{dbf21d12-ce2c-4705-b4ae-45fb6982cd79}</property>
  <property name="mute_on_pause">0</property>
  <property name="kdenlive:clip_type">0</property>
  <property name="kdenlive:file_size">4452258</property>
  <property name="kdenlive:file_hash">988a13cc55865d57f453598ab3870c52</property>
  <property name="kdenlive:kextractor">1</property>
  <property name="kdenlive:meta.extractor.Bitrate">769 kb/s</property>
  <property name="kdenlive:meta.extractor.Title">Terry Davis - "Artificial Intelligence Is Going To Be The Pressure Point" - https://archive.org/details/youtube-moXX8lbnmHs</property>
  <property name="kdenlive:monitorPosition">0</property>
 </chain>
 <chain id="chain5" out="00:01:50.800">
  <property name="length">00:01:50.840</property>
  <property name="eof">pause</property>
  <property name="resource">images/IXhmu1aQSOY.mp4</property>
  <property name="mlt_service">avformat-novalidate</property>
  <property name="meta.media.nb_streams">2</property>
  <property name="meta.media.0.stream.type">video</property>
  <property name="meta.media.0.stream.frame_rate">29.97</property>
  <property name="meta.media.0.stream.sample_aspect_ratio">1.00104</property>
  <property name="meta.media.0.codec.width">642</property>
  <property name="meta.media.0.codec.height">480</property>
  <property name="meta.media.0.codec.rotate">0</property>
  <property name="meta.media.0.codec.pix_fmt">yuv420p</property>
  <property name="meta.media.0.codec.sample_aspect_ratio">1.00104</property>
  <property name="meta.media.0.codec.colorspace">601</property>
  <property name="meta.media.0.codec.name">h264</property>
  <property name="meta.media.0.codec.long_name">H.264 / AVC / MPEG-4 AVC / MPEG-4 part 10</property>
  <property name="meta.media.0.codec.bit_rate">706967</property>
  <property name="meta.attr.0.stream.handler_name.markup">VideoHandler</property>
  <property name="meta.attr.0.stream.vendor_id.markup">[0][0][0][0]</property>
  <property name="meta.media.1.stream.type">audio</property>
  <property name="meta.media.1.codec.sample_fmt">fltp</property>
  <property name="meta.media.1.codec.sample_rate">48000</property>
  <property name="meta.media.1.codec.channels">2</property>
  <property name="meta.media.1.codec.layout">stereo</property>
  <property name="meta.media.1.codec.name">aac</property>
  <property name="meta.media.1.codec.long_name">AAC (Advanced Audio Coding)</property>
  <property name="meta.media.1.codec.bit_rate">67317</property>
  <property name="meta.attr.1.stream.handler_name.markup">SoundHandler</property>
  <property name="meta.attr.1.stream.vendor_id.markup">[0][0][0][0]</property>
  <property name="meta.attr.major_brand.markup">isom</property>
  <property name="meta.attr.minor_version.markup">512</property>
  <property name="meta.attr.compatible_brands.markup">isomiso2avc1mp41</property>
  <property name="meta.attr.title.markup">Terry Davis - "What do you use Internet Explorer for?" - https://archive.org/details/youtube-IXhmu1aQSOY</property>
  <property name="meta.attr.encoder.markup">Lavf58.51.100</property>
  <property name="seekable">1</property>
  <property name="meta.media.sample_aspect_num">964</property>
  <property name="meta.media.sample_aspect_den">963</property>
  <property name="format">3</property>
  <property name="audio_index">1</property>
  <property name="video_index">0</property>
  <property name="vstream">0</property>
  <property name="meta.media.frame_rate_num">2997</property>
  <property name="meta.media.frame_rate_den">100</property>
  <property name="meta.media.colorspace">601</property>
  <property name="meta.media.color_trc">2</property>
  <property name="meta.media.has_b_frames">2</property>
  <property name="meta.media.width">642</property>
  <property name="meta.media.height">480</property>
  <property name="meta.media.aspect_ratio">1.00104</property>
  <property name="meta.media.color_range">mpeg</property>
  <property name="astream">0</property>
  <property name="meta.media.top_field_first">0</property>
  <property name="meta.media.progressive">1</property>
  <property name="kdenlive:folderid">-1</property>
  <property name="kdenlive:id">15</property>
  <property name="kdenlive:control_uuid">{c9baf07c-38d8-4271-9d9d-1f427c6aa5f5}</property>
  <property name="mute_on_pause">0</property>
  <property name="kdenlive:clip_type">0</property>
  <property name="kdenlive:file_size">10851932</property>
  <property name="kdenlive:file_hash">71fcf4074f852c03079cdf01791cb01b</property>
  <property name="kdenlive:kextractor">1</property>
  <property name="kdenlive:meta.extractor.Bitrate">783 kb/s</property>
  <property name="kdenlive:meta.extractor.Title">Terry Davis - "What do you use Internet Explorer for?" - https://archive.org/details/youtube-IXhmu1aQSOY</property>
  <property name="kdenlive:monitorPosition">0</property>
 </chain>
 <producer id="producer19" in="00:00:00.000" out="00:00:04.983">
  <property name="length">00:00:05.000</property>
  <property name="eof">pause</property>
  <property name="resource">images/HolyC_Logo.svg</property>
  <property name="ttl">25</property>
  <property name="aspect_ratio">1</property>
  <property name="meta.media.progressive">1</property>
  <property name="seekable">1</property>
  <property name="format">2</property>
  <property name="meta.media.width">306</property>
  <property name="meta.media.height">344</property>
  <property name="mlt_service">qimage</property>
  <property name="kdenlive:duration">00:00:05:00</property>
  <property name="xml">was here</property>
  <property name="kdenlive:folderid">-1</property>
  <property name="kdenlive:id">16</property>
  <property name="kdenlive:control_uuid">{7dd0423c-9ff9-4f60-a898-824e8b1bcb2a}</property>
  <property name="kdenlive:clip_type">2</property>
  <property name="kdenlive:file_size">1579</property>
  <property name="kdenlive:file_hash">2f24666e438c7566636bcc89a6f26577</property>
  <property name="kdenlive:kextractor">1</property>
  <property name="kdenlive:monitorPosition">0</property>
 </producer>
 <chain id="chain6" out="00:02:19.400">
  <property name="length">00:02:19.440</property>
  <property name="eof">pause</property>
  <property name="resource">images/Terry Davis： His last video before death [Xb9GBLPCeVw].mp4</property>
  <property name="mlt_service">avformat-novalidate</property>
  <property name="meta.media.nb_streams">1</property>
  <property name="meta.media.0.stream.type">video</property>
  <property name="meta.media.0.stream.frame_rate">30</property>
  <property name="meta.media.0.stream.sample_aspect_ratio">0</property>
  <property name="meta.media.0.codec.width">480</property>
  <property name="meta.media.0.codec.height">360</property>
  <property name="meta.media.0.codec.rotate">0</property>
  <property name="meta.media.0.codec.pix_fmt">yuv420p</property>
  <property name="meta.media.0.codec.sample_aspect_ratio">1</property>
  <property name="meta.media.0.codec.colorspace">601</property>
  <property name="meta.media.0.codec.color_trc">1</property>
  <property name="meta.media.0.codec.name">h264</property>
  <property name="meta.media.0.codec.long_name">H.264 / AVC / MPEG-4 AVC / MPEG-4 part 10</property>
  <property name="meta.media.0.codec.bit_rate">222197</property>
  <property name="meta.attr.0.stream.creation_time.markup">2025-08-11T20:33:35.000000Z</property>
  <property name="meta.attr.0.stream.handler_name.markup">ISO Media file produced by Google Inc.</property>
  <property name="meta.attr.0.stream.vendor_id.markup">[0][0][0][0]</property>
  <property name="meta.attr.major_brand.markup">dash</property>
  <property name="meta.attr.minor_version.markup">0</property>
  <property name="meta.attr.compatible_brands.markup">iso6avc1mp41</property>
  <property name="meta.attr.creation_time.markup">2025-08-11T20:33:35.000000Z</property>
  <property name="seekable">1</property>
  <property name="meta.media.sample_aspect_num">1</property>
  <property name="meta.media.sample_aspect_den">1</property>
  <property name="format">3</property>
  <property name="audio_index">-1</property>
  <property name="video_index">0</property>
  <property name="vstream">0</property>
  <property name="meta.media.frame_rate_num">30</property>
  <property name="meta.media.frame_rate_den">1</property>
  <property name="meta.media.colorspace">601</property>
  <property name="meta.media.color_trc">1</property>
  <property name="meta.media.has_b_frames">1</property>
  <property name="meta.media.width">480</property>
  <property name="meta.media.height">360</property>
  <property name="meta.media.aspect_ratio">1</property>
  <property name="meta.media.color_range">mpeg</property>
  <property name="meta.media.top_field_first">0</property>
  <property name="meta.media.progressive">1</property>
  <property name="kdenlive:folderid">-1</property>
  <property name="kdenlive:id">17</property>
  <property name="kdenlive:control_uuid">{b8cfb4f7-5b7a-477c-8b48-cb7681d884b6}</property>
  <property name="mute_on_pause">0</property>
  <property name="kdenlive:clip_type">2</property>
  <property name="kdenlive:file_size">5685459</property>
  <property name="kdenlive:file_hash">760e5ef2845125924c13ef8b2b633ff8</property>
  <property name="kdenlive:kextractor">1</property>
  <property name="kdenlive:meta.extractor.Bitrate">326 kb/s</property>
  <property name="kdenlive:monitorPosition">0</property>
 </chain>
 <producer id="producer11" in="00:00:00.000" out="00:00:04.983">
  <property name="length">00:00:05.000</property>
  <property name="eof">pause</property>
  <property name="resource">Pictures/2025-11-15_02-11-1763151900.ppm</property>
  <property name="ttl">25</property>
  <property name="aspect_ratio">1</property>
  <property name="meta.media.progressive">1</property>
  <property name="seekable">1</property>
  <property name="format">1</property>
  <property name="meta.media.width">1440</property>
  <property name="meta.media.height">900</property>
  <property name="mlt_service">qimage</property>
  <property name="kdenlive:duration">00:00:05:00</property>
  <property name="xml">was here</property>
  <property name="kdenlive:folderid">-1</property>
  <property name="kdenlive:id">18</property>
  <property name="kdenlive:control_uuid">{745a54ef-b025-47a5-983d-aab20fa0f2f0}</property>
  <property name="kdenlive:clip_type">2</property>
  <property name="kdenlive:file_size">3888016</property>
  <property name="kdenlive:file_hash">09ddce3f6a049598a81c049f2ee4071f</property>
  <property name="kdenlive:kextractor">1</property>
  <property name="kdenlive:monitorPosition">0</property>
 </producer>
 <producer id="producer12" in="00:00:00.000" out="00:00:04.983">
  <property name="length">00:00:05.000</property>
  <property name="eof">pause</property>
  <property name="resource">Pictures/2025-11-15_02-11-1763152055.ppm</property>
  <property name="ttl">25</property>
  <property name="aspect_ratio">1</property>
  <property name="meta.media.progressive">1</property>
  <property name="seekable">1</property>
  <property name="format">1</property>
  <property name="meta.media.width">1440</property>
  <property name="meta.media.height">900</property>
  <property name="mlt_service">qimage</property>
  <property name="kdenlive:duration">00:00:05:00</property>
  <property name="xml">was here</property>
  <property name="kdenlive:folderid">-1</property>
  <property name="kdenlive:id">19</property>
  <property name="kdenlive:control_uuid">{a2c34599-5b86-48fe-bc1d-2d5c7c7bb40a}</property>
  <property name="kdenlive:clip_type">2</property>
  <property name="kdenlive:file_size">3888016</property>
  <property name="kdenlive:file_hash">d84cc8c76557d30eaa70bb0c0afe9f63</property>
  <property name="kdenlive:kextractor">1</property>
  <property name="kdenlive:monitorPosition">0</property>
 </producer>
 <producer id="producer14" in="00:00:00.000" out="00:00:04.983">
  <property name="length">00:00:05.000</property>
  <property name="eof">pause</property>
  <property name="resource">Pictures/2025-11-15_02-11-1763152389.ppm</property>
  <property name="ttl">25</property>
  <property name="aspect_ratio">1</property>
  <property name="meta.media.progressive">1</property>
  <property name="seekable">1</property>
  <property name="format">1</property>
  <property name="meta.media.width">1440</property>
  <property name="meta.media.height">900</property>
  <property name="mlt_service">qimage</property>
  <property name="kdenlive:duration">00:00:05:00</property>
  <property name="xml">was here</property>
  <property name="kdenlive:folderid">-1</property>
  <property name="kdenlive:id">20</property>
  <property name="kdenlive:control_uuid">{2ef58df8-11f1-49ed-845a-a9585a73b964}</property>
  <property name="kdenlive:clip_type">2</property>
  <property name="kdenlive:file_size">3888016</property>
  <property name="kdenlive:file_hash">95f66ac755967ae092cd0c65afc4ebb1</property>
  <property name="kdenlive:kextractor">1</property>
  <property name="kdenlive:monitorPosition">0</property>
 </producer>
 <chain id="chain7" out="00:29:05.517">
  <property name="length">00:29:05.560</property>
  <property name="eof">pause</property>
  <property name="resource">images/The Apostles Keeping TEMPLEOS Alive… [Cyz08j7EchY].mp4</property>
  <property name="mlt_service">avformat-novalidate</property>
  <property name="meta.media.nb_streams">1</property>
  <property name="meta.media.0.stream.type">video</property>
  <property name="meta.media.0.stream.frame_rate">30</property>
  <property name="meta.media.0.stream.sample_aspect_ratio">0</property>
  <property name="meta.media.0.codec.width">1920</property>
  <property name="meta.media.0.codec.height">1080</property>
  <property name="meta.media.0.codec.rotate">0</property>
  <property name="meta.media.0.codec.pix_fmt">yuv420p</property>
  <property name="meta.media.0.codec.sample_aspect_ratio">0</property>
  <property name="meta.media.0.codec.colorspace">709</property>
  <property name="meta.media.0.codec.color_trc">1</property>
  <property name="meta.media.0.codec.name">libdav1d</property>
  <property name="meta.media.0.codec.long_name">dav1d AV1 decoder by VideoLAN</property>
  <property name="meta.media.0.codec.bit_rate">738112</property>
  <property name="meta.attr.0.stream.creation_time.markup">2025-04-08T14:53:40.000000Z</property>
  <property name="meta.attr.0.stream.handler_name.markup">ISO Media file produced by Google Inc.</property>
  <property name="meta.attr.0.stream.vendor_id.markup">[0][0][0][0]</property>
  <property name="meta.attr.major_brand.markup">dash</property>
  <property name="meta.attr.minor_version.markup">0</property>
  <property name="meta.attr.compatible_brands.markup">iso6av01mp41</property>
  <property name="meta.attr.creation_time.markup">2025-04-08T14:53:40.000000Z</property>
  <property name="seekable">1</property>
  <property name="meta.media.sample_aspect_num">1</property>
  <property name="meta.media.sample_aspect_den">1</property>
  <property name="format">3</property>
  <property name="audio_index">-1</property>
  <property name="video_index">0</property>
  <property name="vstream">0</property>
  <property name="meta.media.frame_rate_num">30</property>
  <property name="meta.media.frame_rate_den">1</property>
  <property name="meta.media.colorspace">709</property>
  <property name="meta.media.color_trc">1</property>
  <property name="meta.media.has_b_frames">0</property>
  <property name="meta.media.width">1920</property>
  <property name="meta.media.height">1080</property>
  <property name="meta.media.aspect_ratio">1</property>
  <property name="meta.media.color_range">mpeg</property>
  <property name="meta.media.top_field_first">0</property>
  <property name="meta.media.progressive">1</property>
  <property name="kdenlive:folderid">-1</property>
  <property name="kdenlive:id">21</property>
  <property name="kdenlive:control_uuid">{c459ad63-b28f-4046-90e9-c06c34420d65}</property>
  <property name="mute_on_pause">0</property>
  <property name="kdenlive:clip_type">2</property>
  <property name="kdenlive:file_size">195484304</property>
  <property name="kdenlive:file_hash">f755db69c11ccb8eba53796e4368f16b</property>
  <property name="kdenlive:kextractor">1</property>
  <property name="kdenlive:meta.extractor.Bitrate">895 kb/s</property>
  <property name="kdenlive:monitorPosition">0</property>
 </chain>
 <producer id="producer22" in="00:00:00.000" out="00:00:04.983">
  <property name="length">00:00:05.000</property>
  <property name="eof">pause</property>
  <property name="resource">images/nix-snowflake-colours.svg</property>
  <property name="ttl">25</property>
  <property name="aspect_ratio">1</property>
  <property name="meta.media.progressive">1</property>
  <property name="seekable">1</property>
  <property name="format">2</property>
  <property name="meta.media.width">535</property>
  <property name="meta.media.height">535</property>
  <property name="mlt_service">qimage</property>
  <property name="kdenlive:duration">00:00:05:00</property>
  <property name="xml">was here</property>
  <property name="kdenlive:folderid">-1</property>
  <property name="kdenlive:id">22</property>
  <property name="kdenlive:control_uuid">{0accae70-04a0-4971-be86-8e128d7bf9d7}</property>
  <property name="kdenlive:clip_type">2</property>
  <property name="kdenlive:file_size">5482</property>
  <property name="kdenlive:file_hash">34bcef09388d56e96e73b0d7ec870344</property>
  <property name="kdenlive:kextractor">1</property>
  <property name="kdenlive:monitorPosition">0</property>
 </producer>
 <producer id="producer30" in="00:00:00.000" out="00:00:10.767">
  <property name="length">00:00:10.800</property>
  <property name="eof">pause</property>
  <property name="resource">Pictures/2025-11-15_13-11-1763192274.ppm</property>
  <property name="ttl">25</property>
  <property name="aspect_ratio">1</property>
  <property name="meta.media.progressive">1</property>
  <property name="seekable">1</property>
  <property name="format">1</property>
  <property name="meta.media.width">1440</property>
  <property name="meta.media.height">900</property>
  <property name="mlt_service">qimage</property>
  <property name="kdenlive:duration">00:00:05:00</property>
  <property name="xml">was here</property>
  <property name="kdenlive:folderid">-1</property>
  <property name="kdenlive:id">23</property>
  <property name="kdenlive:control_uuid">{428f6a44-27f4-40a8-9cc9-63f9be47e165}</property>
  <property name="kdenlive:clip_type">2</property>
  <property name="kdenlive:file_size">3888016</property>
  <property name="kdenlive:file_hash">c50c87077492c8712ea7d398082670b7</property>
  <property name="kdenlive:kextractor">1</property>
  <property name="kdenlive:monitorPosition">0</property>
 </producer>
 <producer id="producer20" in="00:00:00.000" out="00:00:38.383">
  <property name="length">00:00:38.400</property>
  <property name="eof">pause</property>
  <property name="resource">Pictures/2025-11-15_13-11-1763192297.ppm</property>
  <property name="ttl">25</property>
  <property name="aspect_ratio">1</property>
  <property name="meta.media.progressive">1</property>
  <property name="seekable">1</property>
  <property name="format">1</property>
  <property name="meta.media.width">1440</property>
  <property name="meta.media.height">900</property>
  <property name="mlt_service">qimage</property>
  <property name="kdenlive:duration">00:00:05:00</property>
  <property name="xml">was here</property>
  <property name="kdenlive:folderid">-1</property>
  <property name="kdenlive:id">24</property>
  <property name="kdenlive:control_uuid">{a433046c-807b-471d-8c69-0a576bc3cac3}</property>
  <property name="kdenlive:clip_type">2</property>
  <property name="kdenlive:file_size">3888016</property>
  <property name="kdenlive:file_hash">c026276d1f3177ea35053eb72cd86cd0</property>
  <property name="kdenlive:kextractor">1</property>
  <property name="kdenlive:monitorPosition">0</property>
 </producer>
 <producer id="producer21" in="00:00:00.000" out="00:09:33.417">
  <property name="length">34406</property>
  <property name="eof">pause</property>
  <property name="resource">Pictures/2025-11-15_13-11-1763192547.png</property>
  <property name="ttl">25</property>
  <property name="aspect_ratio">1</property>
  <property name="meta.media.progressive">1</property>
  <property name="seekable">1</property>
  <property name="format">2</property>
  <property name="meta.media.width">469</property>
  <property name="meta.media.height">206</property>
  <property name="mlt_service">qimage</property>
  <property name="kdenlive:duration">00:00:05:00</property>
  <property name="xml">was here</property>
  <property name="kdenlive:folderid">-1</property>
  <property name="kdenlive:id">25</property>
  <property name="kdenlive:control_uuid">{8a31536d-a66a-44a7-94ca-c7d446f09f03}</property>
  <property name="kdenlive:clip_type">2</property>
  <property name="kdenlive:file_size">93555</property>
  <property name="kdenlive:file_hash">641099cdce0a3d106b659028d1433b4b</property>
  <property name="kdenlive:kextractor">1</property>
  <property name="kdenlive:monitorPosition">40</property>
 </producer>
 <producer id="producer31" in="00:00:00.000" out="00:00:04.967">
  <property name="length">00:00:05.000</property>
  <property name="eof">pause</property>
  <property name="resource">Pictures/2025-11-15_13-11-1763192859.ppm</property>
  <property name="ttl">25</property>
  <property name="aspect_ratio">1</property>
  <property name="meta.media.progressive">1</property>
  <property name="seekable">1</property>
  <property name="format">1</property>
  <property name="meta.media.width">1440</property>
  <property name="meta.media.height">900</property>
  <property name="mlt_service">qimage</property>
  <property name="kdenlive:duration">00:00:05:00</property>
  <property name="xml">was here</property>
  <property name="kdenlive:folderid">-1</property>
  <property name="kdenlive:id">26</property>
  <property name="kdenlive:control_uuid">{5d943423-83e2-4da8-81e6-231a1e40867f}</property>
  <property name="kdenlive:clip_type">2</property>
  <property name="kdenlive:file_size">3888016</property>
  <property name="kdenlive:file_hash">6f16750a67b88a303f1d5601a301d581</property>
  <property name="kdenlive:kextractor">1</property>
  <property name="kdenlive:monitorPosition">0</property>
 </producer>
 <producer id="producer23" in="00:00:00.000" out="00:00:04.983">
  <property name="length">00:00:05.000</property>
  <property name="eof">pause</property>
  <property name="resource">Pictures/2025-11-15_13-11-1763192993.ppm</property>
  <property name="ttl">25</property>
  <property name="aspect_ratio">1</property>
  <property name="meta.media.progressive">1</property>
  <property name="seekable">1</property>
  <property name="format">1</property>
  <property name="meta.media.width">1440</property>
  <property name="meta.media.height">900</property>
  <property name="mlt_service">qimage</property>
  <property name="kdenlive:duration">00:00:05:00</property>
  <property name="xml">was here</property>
  <property name="kdenlive:folderid">-1</property>
  <property name="kdenlive:id">27</property>
  <property name="kdenlive:control_uuid">{8f8b0557-73d8-4248-80b5-5244adb30038}</property>
  <property name="kdenlive:clip_type">2</property>
  <property name="kdenlive:file_size">3888016</property>
  <property name="kdenlive:file_hash">3ada34201cbcda9ef9a6757c77bb341d</property>
  <property name="kdenlive:kextractor">1</property>
  <property name="kdenlive:monitorPosition">9</property>
 </producer>
 <producer id="producer24" in="00:00:00.000" out="00:00:04.983">
  <property name="length">00:00:05.000</property>
  <property name="eof">pause</property>
  <property name="resource">Pictures/2025-11-15_13-11-1763193173.ppm</property>
  <property name="ttl">25</property>
  <property name="aspect_ratio">1</property>
  <property name="meta.media.progressive">1</property>
  <property name="seekable">1</property>
  <property name="format">1</property>
  <property name="meta.media.width">1440</property>
  <property name="meta.media.height">900</property>
  <property name="mlt_service">qimage</property>
  <property name="kdenlive:duration">00:00:05:00</property>
  <property name="xml">was here</property>
  <property name="kdenlive:folderid">-1</property>
  <property name="kdenlive:id">28</property>
  <property name="kdenlive:control_uuid">{6703fc23-4489-4cdb-bc66-b41d2c94863f}</property>
  <property name="kdenlive:clip_type">2</property>
  <property name="kdenlive:file_size">3888016</property>
  <property name="kdenlive:file_hash">57093ccfe613e2eaf1c6fa3d9f6efcec</property>
  <property name="kdenlive:kextractor">1</property>
  <property name="kdenlive:monitorPosition">0</property>
 </producer>
 <producer id="producer25" in="00:00:00.000" out="00:00:27.950">
  <property name="length">00:00:27.960</property>
  <property name="eof">pause</property>
  <property name="resource">Pictures/2025-11-15_13-11-1763193263.ppm</property>
  <property name="ttl">25</property>
  <property name="aspect_ratio">1</property>
  <property name="meta.media.progressive">1</property>
  <property name="seekable">1</property>
  <property name="format">1</property>
  <property name="meta.media.width">1440</property>
  <property name="meta.media.height">900</property>
  <property name="mlt_service">qimage</property>
  <property name="kdenlive:duration">00:00:05:00</property>
  <property name="xml">was here</property>
  <property name="kdenlive:folderid">-1</property>
  <property name="kdenlive:id">29</property>
  <property name="kdenlive:control_uuid">{fa16b011-7dda-42eb-939a-6f3137b39223}</property>
  <property name="kdenlive:clip_type">2</property>
  <property name="kdenlive:file_size">3888016</property>
  <property name="kdenlive:file_hash">5f3e515839cbf8139963c400f3dde339</property>
  <property name="kdenlive:kextractor">1</property>
  <property name="kdenlive:monitorPosition">4</property>
 </producer>
 <producer id="producer26" in="00:00:00.000" out="00:00:10.183">
  <property name="length">00:00:10.200</property>
  <property name="eof">pause</property>
  <property name="resource">Pictures/2025-11-15_13-11-1763193351.ppm</property>
  <property name="ttl">25</property>
  <property name="aspect_ratio">1</property>
  <property name="meta.media.progressive">1</property>
  <property name="seekable">1</property>
  <property name="format">1</property>
  <property name="meta.media.width">1440</property>
  <property name="meta.media.height">900</property>
  <property name="mlt_service">qimage</property>
  <property name="kdenlive:duration">00:00:05:00</property>
  <property name="xml">was here</property>
  <property name="kdenlive:folderid">-1</property>
  <property name="kdenlive:id">30</property>
  <property name="kdenlive:control_uuid">{f964aaca-6bb9-499b-8882-3879558b1de1}</property>
  <property name="kdenlive:clip_type">2</property>
  <property name="kdenlive:file_size">3888016</property>
  <property name="kdenlive:file_hash">b9f4aea6a23a11b77892addffde07a38</property>
  <property name="kdenlive:kextractor">1</property>
  <property name="kdenlive:monitorPosition">4</property>
 </producer>
 <producer id="producer27" in="00:00:00.000" out="00:00:18.500">
  <property name="length">00:00:18.520</property>
  <property name="eof">pause</property>
  <property name="resource">Pictures/2025-11-15_13-11-1763193453.png</property>
  <property name="ttl">25</property>
  <property name="aspect_ratio">1</property>
  <property name="meta.media.progressive">1</property>
  <property name="seekable">1</property>
  <property name="format">2</property>
  <property name="meta.media.width">205</property>
  <property name="meta.media.height">563</property>
  <property name="mlt_service">qimage</property>
  <property name="kdenlive:duration">00:00:05:00</property>
  <property name="xml">was here</property>
  <property name="kdenlive:folderid">-1</property>
  <property name="kdenlive:id">31</property>
  <property name="kdenlive:control_uuid">{01c13924-17b1-4e75-a6ae-25861e100628}</property>
  <property name="kdenlive:clip_type">2</property>
  <property name="kdenlive:file_size">23926</property>
  <property name="kdenlive:file_hash">718d0b1ba0b55e92798f16794d0cc071</property>
  <property name="kdenlive:kextractor">1</property>
  <property name="kdenlive:monitorPosition">0</property>
 </producer>
 <chain id="chain9" out="00:00:17.633">
  <property name="length">00:00:17.680</property>
  <property name="eof">pause</property>
  <property name="resource">/home/ingenarel/Videos/2025-11-15 13-59-20.mp4</property>
  <property name="mlt_service">avformat-novalidate</property>
  <property name="meta.media.nb_streams">2</property>
  <property name="meta.media.0.stream.type">video</property>
  <property name="meta.media.0.stream.frame_rate">30</property>
  <property name="meta.media.0.stream.sample_aspect_ratio">0</property>
  <property name="meta.media.0.codec.width">1440</property>
  <property name="meta.media.0.codec.height">900</property>
  <property name="meta.media.0.codec.rotate">0</property>
  <property name="meta.media.0.codec.pix_fmt">yuv420p</property>
  <property name="meta.media.0.codec.sample_aspect_ratio">1</property>
  <property name="meta.media.0.codec.colorspace">709</property>
  <property name="meta.media.0.codec.color_trc">1</property>
  <property name="meta.media.0.codec.name">h264</property>
  <property name="meta.media.0.codec.long_name">H.264 / AVC / MPEG-4 AVC / MPEG-4 part 10</property>
  <property name="meta.media.0.codec.bit_rate">1063141</property>
  <property name="meta.attr.0.stream.handler_name.markup">VideoHandler</property>
  <property name="meta.attr.0.stream.vendor_id.markup">[0][0][0][0]</property>
  <property name="meta.media.1.stream.type">audio</property>
  <property name="meta.media.1.codec.sample_fmt">fltp</property>
  <property name="meta.media.1.codec.sample_rate">48000</property>
  <property name="meta.media.1.codec.channels">2</property>
  <property name="meta.media.1.codec.layout">stereo</property>
  <property name="meta.media.1.codec.name">aac</property>
  <property name="meta.media.1.codec.long_name">AAC (Advanced Audio Coding)</property>
  <property name="meta.media.1.codec.bit_rate">159999</property>
  <property name="meta.attr.1.stream.handler_name.markup">SoundHandler</property>
  <property name="meta.attr.1.stream.vendor_id.markup">[0][0][0][0]</property>
  <property name="meta.attr.major_brand.markup">isom</property>
  <property name="meta.attr.minor_version.markup">512</property>
  <property name="meta.attr.compatible_brands.markup">isomiso2avc1mp41</property>
  <property name="meta.attr.encoder.markup">Lavf62.3.100</property>
  <property name="seekable">1</property>
  <property name="meta.media.sample_aspect_num">1</property>
  <property name="meta.media.sample_aspect_den">1</property>
  <property name="format">3</property>
  <property name="audio_index">1</property>
  <property name="video_index">0</property>
  <property name="vstream">0</property>
  <property name="meta.media.frame_rate_num">30</property>
  <property name="meta.media.frame_rate_den">1</property>
  <property name="meta.media.colorspace">709</property>
  <property name="meta.media.color_trc">1</property>
  <property name="meta.media.has_b_frames">2</property>
  <property name="meta.media.width">1440</property>
  <property name="meta.media.height">900</property>
  <property name="meta.media.aspect_ratio">1</property>
  <property name="meta.media.color_range">mpeg</property>
  <property name="astream">0</property>
  <property name="meta.media.top_field_first">0</property>
  <property name="meta.media.progressive">1</property>
  <property name="kdenlive:folderid">-1</property>
  <property name="kdenlive:id">32</property>
  <property name="kdenlive:control_uuid">{b79e5601-051e-42d6-b73d-7fc454edcaf4}</property>
  <property name="mute_on_pause">0</property>
  <property name="kdenlive:clip_type">0</property>
  <property name="kdenlive:file_size">2720693</property>
  <property name="kdenlive:file_hash">5671112958c618a9a9bf57d3cc1a1ba1</property>
  <property name="kdenlive:kextractor">1</property>
  <property name="kdenlive:meta.extractor.Bitrate">1232 kb/s</property>
  <property name="kdenlive:monitorPosition">15</property>
 </chain>
 <chain id="chain10" out="00:00:17.483">
  <property name="length">00:00:17.520</property>
  <property name="eof">pause</property>
  <property name="resource">/home/ingenarel/Videos/2025-11-15 14-01-03.mp4</property>
  <property name="mlt_service">avformat-novalidate</property>
  <property name="meta.media.nb_streams">2</property>
  <property name="meta.media.0.stream.type">video</property>
  <property name="meta.media.0.stream.frame_rate">30</property>
  <property name="meta.media.0.stream.sample_aspect_ratio">0</property>
  <property name="meta.media.0.codec.width">1440</property>
  <property name="meta.media.0.codec.height">900</property>
  <property name="meta.media.0.codec.rotate">0</property>
  <property name="meta.media.0.codec.pix_fmt">yuv420p</property>
  <property name="meta.media.0.codec.sample_aspect_ratio">1</property>
  <property name="meta.media.0.codec.colorspace">709</property>
  <property name="meta.media.0.codec.color_trc">1</property>
  <property name="meta.media.0.codec.name">h264</property>
  <property name="meta.media.0.codec.long_name">H.264 / AVC / MPEG-4 AVC / MPEG-4 part 10</property>
  <property name="meta.media.0.codec.bit_rate">1751193</property>
  <property name="meta.attr.0.stream.handler_name.markup">VideoHandler</property>
  <property name="meta.attr.0.stream.vendor_id.markup">[0][0][0][0]</property>
  <property name="meta.media.1.stream.type">audio</property>
  <property name="meta.media.1.codec.sample_fmt">fltp</property>
  <property name="meta.media.1.codec.sample_rate">48000</property>
  <property name="meta.media.1.codec.channels">2</property>
  <property name="meta.media.1.codec.layout">stereo</property>
  <property name="meta.media.1.codec.name">aac</property>
  <property name="meta.media.1.codec.long_name">AAC (Advanced Audio Coding)</property>
  <property name="meta.media.1.codec.bit_rate">159999</property>
  <property name="meta.attr.1.stream.handler_name.markup">SoundHandler</property>
  <property name="meta.attr.1.stream.vendor_id.markup">[0][0][0][0]</property>
  <property name="meta.attr.major_brand.markup">isom</property>
  <property name="meta.attr.minor_version.markup">512</property>
  <property name="meta.attr.compatible_brands.markup">isomiso2avc1mp41</property>
  <property name="meta.attr.encoder.markup">Lavf62.3.100</property>
  <property name="seekable">1</property>
  <property name="meta.media.sample_aspect_num">1</property>
  <property name="meta.media.sample_aspect_den">1</property>
  <property name="format">3</property>
  <property name="audio_index">1</property>
  <property name="video_index">0</property>
  <property name="vstream">0</property>
  <property name="meta.media.frame_rate_num">30</property>
  <property name="meta.media.frame_rate_den">1</property>
  <property name="meta.media.colorspace">709</property>
  <property name="meta.media.color_trc">1</property>
  <property name="meta.media.has_b_frames">2</property>
  <property name="meta.media.width">1440</property>
  <property name="meta.media.height">900</property>
  <property name="meta.media.aspect_ratio">1</property>
  <property name="meta.media.color_range">mpeg</property>
  <property name="astream">0</property>
  <property name="meta.media.top_field_first">0</property>
  <property name="meta.media.progressive">1</property>
  <property name="kdenlive:folderid">-1</property>
  <property name="kdenlive:id">33</property>
  <property name="kdenlive:control_uuid">{2fbe5784-f19c-44bd-bdf0-b4fbf7d604f1}</property>
  <property name="mute_on_pause">0</property>
  <property name="kdenlive:clip_type">0</property>
  <property name="kdenlive:file_size">4208298</property>
  <property name="kdenlive:file_hash">53fcdcf6c176aed6c6ba117e008a1699</property>
  <property name="kdenlive:kextractor">1</property>
  <property name="kdenlive:meta.extractor.Bitrate">1920 kb/s</property>
  <property name="kdenlive:monitorPosition">0</property>
 </chain>
 <chain id="chain11" out="00:07:42.800">
  <property name="length">00:07:42.840</property>
  <property name="eof">pause</property>
  <property name="resource">/home/ingenarel/Videos/2025-11-15 14-06-34.mp4</property>
  <property name="mlt_service">avformat-novalidate</property>
  <property name="meta.media.nb_streams">2</property>
  <property name="meta.media.0.stream.type">video</property>
  <property name="meta.media.0.stream.frame_rate">30</property>
  <property name="meta.media.0.stream.sample_aspect_ratio">0</property>
  <property name="meta.media.0.codec.width">1440</property>
  <property name="meta.media.0.codec.height">900</property>
  <property name="meta.media.0.codec.rotate">0</property>
  <property name="meta.media.0.codec.pix_fmt">yuv420p</property>
  <property name="meta.media.0.codec.sample_aspect_ratio">1</property>
  <property name="meta.media.0.codec.colorspace">709</property>
  <property name="meta.media.0.codec.color_trc">1</property>
  <property name="meta.media.0.codec.name">h264</property>
  <property name="meta.media.0.codec.long_name">H.264 / AVC / MPEG-4 AVC / MPEG-4 part 10</property>
  <property name="meta.media.0.codec.bit_rate">1408694</property>
  <property name="meta.attr.0.stream.handler_name.markup">VideoHandler</property>
  <property name="meta.attr.0.stream.vendor_id.markup">[0][0][0][0]</property>
  <property name="meta.media.1.stream.type">audio</property>
  <property name="meta.media.1.codec.sample_fmt">fltp</property>
  <property name="meta.media.1.codec.sample_rate">48000</property>
  <property name="meta.media.1.codec.channels">2</property>
  <property name="meta.media.1.codec.layout">stereo</property>
  <property name="meta.media.1.codec.name">aac</property>
  <property name="meta.media.1.codec.long_name">AAC (Advanced Audio Coding)</property>
  <property name="meta.media.1.codec.bit_rate">159999</property>
  <property name="meta.attr.1.stream.handler_name.markup">SoundHandler</property>
  <property name="meta.attr.1.stream.vendor_id.markup">[0][0][0][0]</property>
  <property name="meta.attr.major_brand.markup">isom</property>
  <property name="meta.attr.minor_version.markup">512</property>
  <property name="meta.attr.compatible_brands.markup">isomiso2avc1mp41</property>
  <property name="meta.attr.encoder.markup">Lavf62.3.100</property>
  <property name="seekable">1</property>
  <property name="meta.media.sample_aspect_num">1</property>
  <property name="meta.media.sample_aspect_den">1</property>
  <property name="format">3</property>
  <property name="audio_index">1</property>
  <property name="video_index">0</property>
  <property name="vstream">0</property>
  <property name="meta.media.frame_rate_num">30</property>
  <property name="meta.media.frame_rate_den">1</property>
  <property name="meta.media.colorspace">709</property>
  <property name="meta.media.color_trc">1</property>
  <property name="meta.media.has_b_frames">2</property>
  <property name="meta.media.width">1440</property>
  <property name="meta.media.height">900</property>
  <property name="meta.media.aspect_ratio">1</property>
  <property name="meta.media.color_range">mpeg</property>
  <property name="astream">0</property>
  <property name="meta.media.top_field_first">0</property>
  <property name="meta.media.progressive">1</property>
  <property name="kdenlive:folderid">-1</property>
  <property name="kdenlive:id">34</property>
  <property name="kdenlive:control_uuid">{affad997-7532-4e9a-b470-c7870b274296}</property>
  <property name="mute_on_pause">0</property>
  <property name="kdenlive:clip_type">0</property>
  <property name="kdenlive:file_size">91263527</property>
  <property name="kdenlive:file_hash">03585b6e49bdf9e0a862e8afa2b4cb24</property>
  <property name="kdenlive:kextractor">1</property>
  <property name="kdenlive:meta.extractor.Bitrate">1577 kb/s</property>
  <property name="kdenlive:monitorPosition">0</property>
 </chain>
 <producer id="producer80" in="00:00:00.000" out="00:00:15.467">
  <property name="length">929</property>
  <property name="eof">pause</property>
  <property name="resource"/>
  <property name="meta.media.progressive">1</property>
  <property name="aspect_ratio">1</property>
  <property name="seekable">1</property>
  <property name="mlt_service">kdenlivetitle</property>
  <property name="kdenlive:duration">00:00:05:00</property>
  <property name="kdenlive:clipname">x2600 speed</property>
  <property name="xmldata">&lt;kdenlivetitle LC_NUMERIC="C" duration="300" height="1080" out="299" width="1920">
 &lt;item type="QGraphicsTextItem" z-index="0">
  &lt;position x="1562" y="34">
   &lt;transform>1,0,0,0,1,0,0,0,1&lt;/transform>
  &lt;/position>
  &lt;content alignment="1" box-height="79" box-width="342.938" font="Noto Sans" font-color="255,255,255,255" font-italic="0" font-pixel-size="58" font-underline="0" font-weight="400" letter-spacing="0" shadow="1;#64000000;99;3;3" tab-width="80" typewriter="0;2;1;0;0">x2981 speed&lt;/content>
 &lt;/item>
 &lt;startviewport rect="0,0,1920,1080"/>
 &lt;endviewport rect="0,0,1920,1080"/>
 &lt;background color="0,0,0,0"/>
&lt;/kdenlivetitle>
</property>
  <property name="xml">was here</property>
  <property name="kdenlive:folderid">-1</property>
  <property name="kdenlive:id">35</property>
  <property name="kdenlive:control_uuid">{e4e2ee55-eeec-4c57-9444-818e2e10f129}</property>
  <property name="kdenlive:clip_type">2</property>
  <property name="kdenlive:uniqueId">{e2fe82a7-26a2-456e-a48a-200cd3e39bf7}</property>
  <property name="kdenlive:file_hash">c49ef5b0057d3487701a8ecab17fd598</property>
  <property name="force_reload">0</property>
  <property name="meta.media.width">1920</property>
  <property name="meta.media.height">1080</property>
  <property name="kdenlive:monitorPosition">0</property>
 </producer>
 <producer id="producer33" in="00:00:00.000" out="00:00:04.983">
  <property name="length">00:00:05.000</property>
  <property name="eof">pause</property>
  <property name="resource">Pictures/2025-11-15_14-11-1763195115.ppm</property>
  <property name="ttl">25</property>
  <property name="aspect_ratio">1</property>
  <property name="meta.media.progressive">1</property>
  <property name="seekable">1</property>
  <property name="format">1</property>
  <property name="meta.media.width">1440</property>
  <property name="meta.media.height">900</property>
  <property name="mlt_service">qimage</property>
  <property name="kdenlive:duration">00:00:05:00</property>
  <property name="xml">was here</property>
  <property name="kdenlive:folderid">-1</property>
  <property name="kdenlive:id">36</property>
  <property name="kdenlive:control_uuid">{39647ef7-7e97-46d9-b541-213a7ddcfb10}</property>
  <property name="kdenlive:clip_type">2</property>
  <property name="kdenlive:file_size">3888016</property>
  <property name="kdenlive:file_hash">4597d05792230f7d2c95656339d64bfb</property>
  <property name="kdenlive:monitorPosition">23</property>
  <property name="kdenlive:kextractor">1</property>
 </producer>
 <producer id="producer34" in="00:00:00.000" out="00:00:04.983">
  <property name="length">00:00:05.000</property>
  <property name="eof">pause</property>
  <property name="resource">Pictures/2025-11-15_14-11-1763195335.ppm</property>
  <property name="ttl">25</property>
  <property name="aspect_ratio">1</property>
  <property name="meta.media.progressive">1</property>
  <property name="seekable">1</property>
  <property name="format">1</property>
  <property name="meta.media.width">1440</property>
  <property name="meta.media.height">900</property>
  <property name="mlt_service">qimage</property>
  <property name="kdenlive:duration">00:00:05:00</property>
  <property name="xml">was here</property>
  <property name="kdenlive:folderid">-1</property>
  <property name="kdenlive:id">37</property>
  <property name="kdenlive:control_uuid">{1376e6c0-cba0-411d-a79f-47c440acf186}</property>
  <property name="kdenlive:clip_type">2</property>
  <property name="kdenlive:file_size">3888016</property>
  <property name="kdenlive:file_hash">25f30ae6c4f5d6e4062a070d6f678e09</property>
  <property name="kdenlive:monitorPosition">15</property>
  <property name="kdenlive:kextractor">1</property>
 </producer>
 <producer id="producer35" in="00:00:00.000" out="00:00:04.983">
  <property name="length">00:00:05.000</property>
  <property name="eof">pause</property>
  <property name="resource">Pictures/2025-11-15_14-11-1763195378.ppm</property>
  <property name="ttl">25</property>
  <property name="aspect_ratio">1</property>
  <property name="meta.media.progressive">1</property>
  <property name="seekable">1</property>
  <property name="format">1</property>
  <property name="meta.media.width">1440</property>
  <property name="meta.media.height">900</property>
  <property name="mlt_service">qimage</property>
  <property name="kdenlive:duration">00:00:05:00</property>
  <property name="xml">was here</property>
  <property name="kdenlive:folderid">-1</property>
  <property name="kdenlive:id">38</property>
  <property name="kdenlive:control_uuid">{21b0bc3a-a45c-428d-90b1-215d0c258d76}</property>
  <property name="kdenlive:clip_type">2</property>
  <property name="kdenlive:file_size">3888016</property>
  <property name="kdenlive:file_hash">bec3dabc369ed946a1c845e4f58b7015</property>
  <property name="kdenlive:monitorPosition">141</property>
  <property name="kdenlive:kextractor">1</property>
 </producer>
 <producer id="producer36" in="00:00:00.000" out="00:00:04.983">
  <property name="length">00:00:05.000</property>
  <property name="eof">pause</property>
  <property name="resource">Pictures/2025-11-15_14-11-1763195429.ppm</property>
  <property name="ttl">25</property>
  <property name="aspect_ratio">1</property>
  <property name="meta.media.progressive">1</property>
  <property name="seekable">1</property>
  <property name="format">1</property>
  <property name="meta.media.width">1440</property>
  <property name="meta.media.height">900</property>
  <property name="mlt_service">qimage</property>
  <property name="kdenlive:duration">00:00:05:00</property>
  <property name="xml">was here</property>
  <property name="kdenlive:folderid">-1</property>
  <property name="kdenlive:id">39</property>
  <property name="kdenlive:control_uuid">{d65845d4-325c-47d3-ba45-3f0aa72d36c6}</property>
  <property name="kdenlive:clip_type">2</property>
  <property name="kdenlive:file_size">3888016</property>
  <property name="kdenlive:file_hash">ddf1ba075d767ab7fb8107bc430589a7</property>
  <property name="kdenlive:monitorPosition">8</property>
  <property name="kdenlive:kextractor">1</property>
 </producer>
 <producer id="producer37" in="00:00:00.000" out="00:00:14.150">
  <property name="length">850</property>
  <property name="eof">pause</property>
  <property name="resource">Pictures/2025-11-15_14-11-1763195564.png</property>
  <property name="ttl">25</property>
  <property name="aspect_ratio">1</property>
  <property name="meta.media.progressive">1</property>
  <property name="seekable">1</property>
  <property name="format">2</property>
  <property name="meta.media.width">427</property>
  <property name="meta.media.height">246</property>
  <property name="mlt_service">qimage</property>
  <property name="kdenlive:duration">00:00:05:00</property>
  <property name="xml">was here</property>
  <property name="kdenlive:folderid">-1</property>
  <property name="kdenlive:id">40</property>
  <property name="kdenlive:control_uuid">{f4c97f05-d2e9-4706-bb7e-048914badd34}</property>
  <property name="kdenlive:clip_type">2</property>
  <property name="kdenlive:file_size">91708</property>
  <property name="kdenlive:file_hash">3dcbffed0256b27c4fb99e8a08c2d930</property>
  <property name="kdenlive:kextractor">1</property>
  <property name="kdenlive:monitorPosition">18</property>
 </producer>
 <producer id="producer38" in="00:00:00.000" out="00:02:43.317">
  <property name="length">9800</property>
  <property name="eof">pause</property>
  <property name="resource">Pictures/2025-11-15_14-11-1763195844.png</property>
  <property name="ttl">25</property>
  <property name="aspect_ratio">1</property>
  <property name="meta.media.progressive">1</property>
  <property name="seekable">1</property>
  <property name="format">2</property>
  <property name="meta.media.width">511</property>
  <property name="meta.media.height">172</property>
  <property name="mlt_service">qimage</property>
  <property name="kdenlive:duration">00:00:05:00</property>
  <property name="xml">was here</property>
  <property name="kdenlive:folderid">-1</property>
  <property name="kdenlive:id">41</property>
  <property name="kdenlive:control_uuid">{b32e5f14-7f77-41d4-946c-a0d6b3c6f71a}</property>
  <property name="kdenlive:clip_type">2</property>
  <property name="kdenlive:file_size">74825</property>
  <property name="kdenlive:file_hash">b575a210e9ed331704fb86e89448b6ed</property>
  <property name="kdenlive:kextractor">1</property>
  <property name="kdenlive:monitorPosition">34</property>
 </producer>
 <producer id="producer81" in="00:00:00.000" out="00:00:04.983">
  <property name="length">300</property>
  <property name="eof">pause</property>
  <property name="resource"/>
  <property name="meta.media.progressive">1</property>
  <property name="aspect_ratio">1</property>
  <property name="seekable">1</property>
  <property name="mlt_service">kdenlivetitle</property>
  <property name="kdenlive:duration">00:00:05:00</property>
  <property name="kdenlive:clipname">*practitione...</property>
  <property name="xmldata">&lt;kdenlivetitle LC_NUMERIC="C" duration="300" height="1080" out="299" width="1920">
 &lt;item type="QGraphicsTextItem" z-index="0">
  &lt;position x="566" y="558">
   &lt;transform>1,0,0,0,1,0,0,0,1&lt;/transform>
  &lt;/position>
  &lt;content alignment="4" box-height="158" box-width="814.016" font="Noto Sans" font-color="255,255,255,255" font-italic="0" font-outline="0" font-outline-color="0,0,0,255" font-pixel-size="58" font-underline="0" font-weight="400" letter-spacing="0" line-spacing="0" shadow="0;#64000000;3;3;3" tab-width="80" typewriter="0;2;1;0;0">*practitioner
dumb noise filter cut parts off&lt;/content>
 &lt;/item>
 &lt;startviewport rect="0,0,1920,1080"/>
 &lt;endviewport rect="0,0,1920,1080"/>
 &lt;background color="0,0,0,50"/>
&lt;/kdenlivetitle>
</property>
  <property name="xml">was here</property>
  <property name="kdenlive:folderid">-1</property>
  <property name="kdenlive:id">42</property>
  <property name="kdenlive:control_uuid">{9ed7af70-b17e-4620-b0bc-c31044ef1d34}</property>
  <property name="kdenlive:clip_type">2</property>
  <property name="kdenlive:uniqueId">{747d9f3d-8b25-462b-b214-223e3610b668}</property>
  <property name="kdenlive:file_hash">992b1305da474d5766f9af5f5a638a6c</property>
  <property name="force_reload">0</property>
  <property name="meta.media.width">1920</property>
  <property name="meta.media.height">1080</property>
  <property name="kdenlive:monitorPosition">0</property>
 </producer>
 <producer id="producer39" in="00:00:00.000" out="00:01:50.967">
  <property name="length">6659</property>
  <property name="eof">pause</property>
  <property name="resource">Pictures/2025-11-15_14-11-1763196055.png</property>
  <property name="ttl">25</property>
  <property name="aspect_ratio">1</property>
  <property name="meta.media.progressive">1</property>
  <property name="seekable">1</property>
  <property name="format">2</property>
  <property name="meta.media.width">905</property>
  <property name="meta.media.height">146</property>
  <property name="mlt_service">qimage</property>
  <property name="kdenlive:duration">00:00:05:00</property>
  <property name="xml">was here</property>
  <property name="kdenlive:folderid">-1</property>
  <property name="kdenlive:id">43</property>
  <property name="kdenlive:control_uuid">{e4274bc0-25eb-4bfa-8d53-ab2c1a74f571}</property>
  <property name="kdenlive:clip_type">2</property>
  <property name="kdenlive:file_size">120288</property>
  <property name="kdenlive:file_hash">5f85a15efe6a52bf9c7b9bc71805a31a</property>
  <property name="kdenlive:kextractor">1</property>
  <property name="kdenlive:monitorPosition">3</property>
 </producer>
 <producer id="producer40" in="00:00:00.000" out="00:00:29.617">
  <property name="length">1778</property>
  <property name="eof">pause</property>
  <property name="resource">Pictures/2025-11-15_14-11-1763196083.png</property>
  <property name="ttl">25</property>
  <property name="aspect_ratio">1</property>
  <property name="meta.media.progressive">1</property>
  <property name="seekable">1</property>
  <property name="format">2</property>
  <property name="meta.media.width">894</property>
  <property name="meta.media.height">256</property>
  <property name="mlt_service">qimage</property>
  <property name="kdenlive:duration">00:00:05:00</property>
  <property name="xml">was here</property>
  <property name="kdenlive:folderid">-1</property>
  <property name="kdenlive:id">44</property>
  <property name="kdenlive:control_uuid">{6cded5e6-f112-492b-bf1d-d1952f9e6454}</property>
  <property name="kdenlive:clip_type">2</property>
  <property name="kdenlive:file_size">205471</property>
  <property name="kdenlive:file_hash">997de39d0c0f0fc759bfce0acfc3aa7c</property>
  <property name="kdenlive:kextractor">1</property>
  <property name="kdenlive:monitorPosition">0</property>
 </producer>
 <producer id="producer41" in="00:00:00.000" out="00:00:39.833">
  <property name="length">2391</property>
  <property name="eof">pause</property>
  <property name="resource">Pictures/2025-11-15_14-11-1763196281.png</property>
  <property name="ttl">25</property>
  <property name="aspect_ratio">1</property>
  <property name="meta.media.progressive">1</property>
  <property name="seekable">1</property>
  <property name="format">2</property>
  <property name="meta.media.width">615</property>
  <property name="meta.media.height">179</property>
  <property name="mlt_service">qimage</property>
  <property name="kdenlive:duration">00:00:05:00</property>
  <property name="xml">was here</property>
  <property name="kdenlive:folderid">-1</property>
  <property name="kdenlive:id">45</property>
  <property name="kdenlive:control_uuid">{f71ab68a-8a2b-4c27-934a-f018b2aecb0d}</property>
  <property name="kdenlive:clip_type">2</property>
  <property name="kdenlive:file_size">96572</property>
  <property name="kdenlive:file_hash">456a4159de31eed81955e86d501df7d6</property>
  <property name="kdenlive:monitorPosition">3</property>
  <property name="kdenlive:kextractor">1</property>
 </producer>
 <producer id="producer42" in="00:00:00.000" out="00:00:57.550">
  <property name="length">3454</property>
  <property name="eof">pause</property>
  <property name="resource">Pictures/2025-11-15_14-11-1763196364.png</property>
  <property name="ttl">25</property>
  <property name="aspect_ratio">1</property>
  <property name="meta.media.progressive">1</property>
  <property name="seekable">1</property>
  <property name="format">2</property>
  <property name="meta.media.width">807</property>
  <property name="meta.media.height">113</property>
  <property name="mlt_service">qimage</property>
  <property name="kdenlive:duration">00:00:05:00</property>
  <property name="xml">was here</property>
  <property name="kdenlive:folderid">-1</property>
  <property name="kdenlive:id">46</property>
  <property name="kdenlive:control_uuid">{818a68b3-fc2c-4041-9705-19a0dacf4fb6}</property>
  <property name="kdenlive:clip_type">2</property>
  <property name="kdenlive:file_size">86192</property>
  <property name="kdenlive:file_hash">c95b2d4641a8984b94beaed9f1827381</property>
  <property name="kdenlive:monitorPosition">35</property>
  <property name="kdenlive:kextractor">1</property>
 </producer>
 <producer id="producer43" in="00:00:00.000" out="00:04:40.567">
  <property name="length">16835</property>
  <property name="eof">pause</property>
  <property name="resource">Pictures/2025-11-15_14-11-1763196414.png</property>
  <property name="ttl">25</property>
  <property name="aspect_ratio">1</property>
  <property name="meta.media.progressive">1</property>
  <property name="seekable">1</property>
  <property name="format">2</property>
  <property name="meta.media.width">841</property>
  <property name="meta.media.height">315</property>
  <property name="mlt_service">qimage</property>
  <property name="kdenlive:duration">00:00:05:00</property>
  <property name="xml">was here</property>
  <property name="kdenlive:folderid">-1</property>
  <property name="kdenlive:id">47</property>
  <property name="kdenlive:control_uuid">{fdc4f6cc-653c-42c5-a437-e81cde648bcc}</property>
  <property name="kdenlive:clip_type">2</property>
  <property name="kdenlive:file_size">235111</property>
  <property name="kdenlive:file_hash">a8dd8e8dc6facd8320c75b7b00ee4754</property>
  <property name="kdenlive:monitorPosition">36</property>
  <property name="kdenlive:kextractor">1</property>
 </producer>
 <producer id="producer44" in="00:00:00.000" out="00:01:36.967">
  <property name="length">5819</property>
  <property name="eof">pause</property>
  <property name="resource">Pictures/2025-11-15_14-11-1763196678.png</property>
  <property name="ttl">25</property>
  <property name="aspect_ratio">1</property>
  <property name="meta.media.progressive">1</property>
  <property name="seekable">1</property>
  <property name="format">2</property>
  <property name="meta.media.width">668</property>
  <property name="meta.media.height">183</property>
  <property name="mlt_service">qimage</property>
  <property name="kdenlive:duration">00:00:05:00</property>
  <property name="xml">was here</property>
  <property name="kdenlive:folderid">-1</property>
  <property name="kdenlive:id">48</property>
  <property name="kdenlive:control_uuid">{744f8406-9ecb-4668-ad58-89d6ec664c9f}</property>
  <property name="kdenlive:clip_type">2</property>
  <property name="kdenlive:file_size">113985</property>
  <property name="kdenlive:file_hash">afc028af2b846d9822d30fc21abf3e78</property>
  <property name="kdenlive:monitorPosition">36</property>
  <property name="kdenlive:kextractor">1</property>
 </producer>
 <producer id="producer45" in="00:00:00.000" out="00:00:07.317">
  <property name="length">440</property>
  <property name="eof">pause</property>
  <property name="resource">Pictures/2025-11-15_14-11-1763196839.ppm</property>
  <property name="ttl">25</property>
  <property name="aspect_ratio">1</property>
  <property name="meta.media.progressive">1</property>
  <property name="seekable">1</property>
  <property name="format">1</property>
  <property name="meta.media.width">1440</property>
  <property name="meta.media.height">900</property>
  <property name="mlt_service">qimage</property>
  <property name="kdenlive:duration">00:00:05:00</property>
  <property name="xml">was here</property>
  <property name="kdenlive:folderid">-1</property>
  <property name="kdenlive:id">49</property>
  <property name="kdenlive:control_uuid">{b8653860-8c3a-4457-a11b-7a937d0ba959}</property>
  <property name="kdenlive:clip_type">2</property>
  <property name="kdenlive:file_size">3888016</property>
  <property name="kdenlive:file_hash">49bd739b29c6bcee60ed959de84caacd</property>
  <property name="kdenlive:monitorPosition">8</property>
  <property name="kdenlive:kextractor">1</property>
 </producer>
 <producer id="producer86" in="00:00:00.000" out="00:00:04.983">
  <property name="length">00:00:05.000</property>
  <property name="eof">pause</property>
  <property name="resource">Pictures/2025-11-15_14-11-1763196898.ppm</property>
  <property name="ttl">25</property>
  <property name="aspect_ratio">1</property>
  <property name="meta.media.progressive">1</property>
  <property name="seekable">1</property>
  <property name="format">1</property>
  <property name="meta.media.width">1440</property>
  <property name="meta.media.height">900</property>
  <property name="mlt_service">qimage</property>
  <property name="kdenlive:duration">00:00:05:00</property>
  <property name="xml">was here</property>
  <property name="kdenlive:folderid">-1</property>
  <property name="kdenlive:id">50</property>
  <property name="kdenlive:control_uuid">{52459c03-2394-4b6e-9e52-99797f5feb27}</property>
  <property name="kdenlive:clip_type">2</property>
  <property name="kdenlive:file_size">3888016</property>
  <property name="kdenlive:file_hash">7e2b8cdad20067c1a48bb195621adb75</property>
  <property name="kdenlive:monitorPosition">3</property>
  <property name="kdenlive:kextractor">1</property>
 </producer>
 <producer id="producer46" in="00:00:00.000" out="00:00:04.983">
  <property name="length">00:00:05.000</property>
  <property name="eof">pause</property>
  <property name="resource">Pictures/2025-11-15_14-11-1763196916.ppm</property>
  <property name="ttl">25</property>
  <property name="aspect_ratio">1</property>
  <property name="meta.media.progressive">1</property>
  <property name="seekable">1</property>
  <property name="format">1</property>
  <property name="meta.media.width">1440</property>
  <property name="meta.media.height">900</property>
  <property name="mlt_service">qimage</property>
  <property name="kdenlive:duration">00:00:05:00</property>
  <property name="xml">was here</property>
  <property name="kdenlive:folderid">-1</property>
  <property name="kdenlive:id">51</property>
  <property name="kdenlive:control_uuid">{ee84e651-e0a9-477c-af0d-4f7fb3eb46df}</property>
  <property name="kdenlive:clip_type">2</property>
  <property name="kdenlive:file_size">3888016</property>
  <property name="kdenlive:file_hash">cbb72ae538c7a5b19ce0185f2ab83bc2</property>
  <property name="kdenlive:monitorPosition">3</property>
  <property name="kdenlive:kextractor">1</property>
 </producer>
 <producer id="producer47" in="00:00:00.000" out="00:00:41.783">
  <property name="length">2508</property>
  <property name="eof">pause</property>
  <property name="resource">Pictures/2025-11-15_14-11-1763197076.png</property>
  <property name="ttl">25</property>
  <property name="aspect_ratio">1</property>
  <property name="meta.media.progressive">1</property>
  <property name="seekable">1</property>
  <property name="format">2</property>
  <property name="meta.media.width">467</property>
  <property name="meta.media.height">171</property>
  <property name="mlt_service">qimage</property>
  <property name="kdenlive:duration">00:00:05:00</property>
  <property name="xml">was here</property>
  <property name="kdenlive:folderid">-1</property>
  <property name="kdenlive:id">52</property>
  <property name="kdenlive:control_uuid">{e6979a02-47f3-49e3-8f0a-0d1ac445db4c}</property>
  <property name="kdenlive:clip_type">2</property>
  <property name="kdenlive:file_size">66874</property>
  <property name="kdenlive:file_hash">d9488bcf741a25da1771e4615ce2be2a</property>
  <property name="kdenlive:monitorPosition">3</property>
  <property name="kdenlive:kextractor">1</property>
 </producer>
 <producer id="producer48" in="00:00:00.000" out="00:00:28.167">
  <property name="length">1691</property>
  <property name="eof">pause</property>
  <property name="resource">Pictures/2025-11-15_14-11-1763197150.png</property>
  <property name="ttl">25</property>
  <property name="aspect_ratio">1</property>
  <property name="meta.media.progressive">1</property>
  <property name="seekable">1</property>
  <property name="format">2</property>
  <property name="meta.media.width">804</property>
  <property name="meta.media.height">114</property>
  <property name="mlt_service">qimage</property>
  <property name="kdenlive:duration">00:00:05:00</property>
  <property name="xml">was here</property>
  <property name="kdenlive:folderid">-1</property>
  <property name="kdenlive:id">53</property>
  <property name="kdenlive:control_uuid">{44a72400-bcd2-480c-8658-68d08f00c384}</property>
  <property name="kdenlive:clip_type">2</property>
  <property name="kdenlive:file_size">88795</property>
  <property name="kdenlive:file_hash">9a37e9172f0a7b19c523140f06aeb24f</property>
  <property name="kdenlive:monitorPosition">0</property>
  <property name="kdenlive:kextractor">1</property>
 </producer>
 <producer id="producer49" in="00:00:00.000" out="00:00:11.417">
  <property name="length">686</property>
  <property name="eof">pause</property>
  <property name="resource">Pictures/2025-11-15_15-11-1763197214.png</property>
  <property name="ttl">25</property>
  <property name="aspect_ratio">1</property>
  <property name="meta.media.progressive">1</property>
  <property name="seekable">1</property>
  <property name="format">2</property>
  <property name="meta.media.width">478</property>
  <property name="meta.media.height">626</property>
  <property name="mlt_service">qimage</property>
  <property name="kdenlive:duration">00:00:05:00</property>
  <property name="xml">was here</property>
  <property name="kdenlive:folderid">-1</property>
  <property name="kdenlive:id">54</property>
  <property name="kdenlive:control_uuid">{3f688c53-8379-4af2-8fa2-963337763324}</property>
  <property name="kdenlive:clip_type">2</property>
  <property name="kdenlive:file_size">311980</property>
  <property name="kdenlive:file_hash">d008ddf6c6295ddedeeb6fed6eaa0d46</property>
  <property name="kdenlive:monitorPosition">0</property>
  <property name="kdenlive:kextractor">1</property>
 </producer>
 <producer id="producer50" in="00:00:00.000" out="00:00:18.283">
  <property name="length">1098</property>
  <property name="eof">pause</property>
  <property name="resource">Pictures/2025-11-15_15-11-1763197250.png</property>
  <property name="ttl">25</property>
  <property name="aspect_ratio">1</property>
  <property name="meta.media.progressive">1</property>
  <property name="seekable">1</property>
  <property name="format">2</property>
  <property name="meta.media.width">476</property>
  <property name="meta.media.height">118</property>
  <property name="mlt_service">qimage</property>
  <property name="kdenlive:duration">00:00:05:00</property>
  <property name="xml">was here</property>
  <property name="kdenlive:folderid">-1</property>
  <property name="kdenlive:id">55</property>
  <property name="kdenlive:control_uuid">{b1f255ec-5b19-4e27-a576-3e8dbfe4e799}</property>
  <property name="kdenlive:clip_type">2</property>
  <property name="kdenlive:file_size">56184</property>
  <property name="kdenlive:file_hash">c600593774892266cadb25cad259c528</property>
  <property name="kdenlive:monitorPosition">0</property>
  <property name="kdenlive:kextractor">1</property>
 </producer>
 <producer id="producer51" in="00:00:00.000" out="00:00:05.950">
  <property name="length">358</property>
  <property name="eof">pause</property>
  <property name="resource">images/the-elder-scrolls-v-skyrim-9106-1920x1200-384668692.jpg</property>
  <property name="ttl">25</property>
  <property name="aspect_ratio">1</property>
  <property name="meta.media.progressive">1</property>
  <property name="seekable">1</property>
  <property name="format">1</property>
  <property name="meta.media.width">1920</property>
  <property name="meta.media.height">1200</property>
  <property name="mlt_service">qimage</property>
  <property name="kdenlive:duration">00:00:05:00</property>
  <property name="xml">was here</property>
  <property name="kdenlive:folderid">-1</property>
  <property name="kdenlive:id">56</property>
  <property name="kdenlive:control_uuid">{4ab9a714-1f5c-4898-a5b4-eb3966e440f6}</property>
  <property name="kdenlive:clip_type">2</property>
  <property name="kdenlive:file_size">696226</property>
  <property name="kdenlive:file_hash">1477904f770e404dba186fb5717e9d6a</property>
  <property name="kdenlive:kextractor">1</property>
  <property name="kdenlive:monitorPosition">0</property>
 </producer>
 <producer id="producer52" in="00:00:00.000" out="00:00:21.267">
  <property name="length">1277</property>
  <property name="eof">pause</property>
  <property name="resource">Pictures/2025-11-15_17-11-1763205393.ppm</property>
  <property name="ttl">25</property>
  <property name="aspect_ratio">1</property>
  <property name="meta.media.progressive">1</property>
  <property name="seekable">1</property>
  <property name="format">1</property>
  <property name="meta.media.width">1440</property>
  <property name="meta.media.height">900</property>
  <property name="mlt_service">qimage</property>
  <property name="kdenlive:duration">00:00:05:00</property>
  <property name="xml">was here</property>
  <property name="kdenlive:folderid">-1</property>
  <property name="kdenlive:id">57</property>
  <property name="kdenlive:control_uuid">{ac2623f2-a756-4d07-aafc-e88455b9a8d0}</property>
  <property name="kdenlive:clip_type">2</property>
  <property name="kdenlive:file_size">3888016</property>
  <property name="kdenlive:file_hash">67142b2f6d371a0b07e8cc450221e2ef</property>
  <property name="kdenlive:kextractor">1</property>
  <property name="kdenlive:monitorPosition">0</property>
 </producer>
 <producer id="producer53" in="00:00:00.000" out="00:00:04.983">
  <property name="length">00:00:05.000</property>
  <property name="eof">pause</property>
  <property name="resource">images/212336-The_Elder_Scrolls_V_Skyrim-1904302881.jpg</property>
  <property name="ttl">25</property>
  <property name="aspect_ratio">1</property>
  <property name="meta.media.progressive">1</property>
  <property name="seekable">1</property>
  <property name="format">1</property>
  <property name="meta.media.width">1920</property>
  <property name="meta.media.height">1080</property>
  <property name="mlt_service">qimage</property>
  <property name="kdenlive:duration">00:00:05:00</property>
  <property name="xml">was here</property>
  <property name="kdenlive:folderid">-1</property>
  <property name="kdenlive:id">58</property>
  <property name="kdenlive:control_uuid">{fe202404-3e67-488f-89de-ed2ff1d2e887}</property>
  <property name="kdenlive:clip_type">2</property>
  <property name="kdenlive:file_size">508391</property>
  <property name="kdenlive:file_hash">b00bf26ea3a3e99ec1fff655926faba5</property>
  <property name="kdenlive:kextractor">1</property>
  <property name="kdenlive:meta.extractor.Artist">http://wallup.net</property>
  <property name="kdenlive:meta.extractor.Comment">CREATOR: gd-jpeg v1.0 (using IJG JPEG v80), quality = 90
</property>
  <property name="kdenlive:meta.extractor.Copyright">http://wallup.net</property>
  <property name="kdenlive:meta.extractor.Title">wallup.net</property>
  <property name="kdenlive:monitorPosition">0</property>
 </producer>
 <producer id="producer54" in="00:00:00.000" out="00:00:04.983">
  <property name="length">00:00:05.000</property>
  <property name="eof">pause</property>
  <property name="resource">images/apps.60323.14294656681058683.4d17bdd8-7026-429a-846f-cf7836bc9e56-165921312.jpg</property>
  <property name="ttl">25</property>
  <property name="aspect_ratio">1</property>
  <property name="meta.media.progressive">1</property>
  <property name="seekable">1</property>
  <property name="format">1</property>
  <property name="meta.media.width">1920</property>
  <property name="meta.media.height">1080</property>
  <property name="mlt_service">qimage</property>
  <property name="kdenlive:duration">00:00:05:00</property>
  <property name="xml">was here</property>
  <property name="kdenlive:folderid">-1</property>
  <property name="kdenlive:id">59</property>
  <property name="kdenlive:control_uuid">{82ac9dab-f67f-4999-b778-954d22f60745}</property>
  <property name="kdenlive:clip_type">2</property>
  <property name="kdenlive:file_size">386654</property>
  <property name="kdenlive:file_hash">d0bf684a7a0bc8d2a7a8d1388cb4d404</property>
  <property name="kdenlive:kextractor">1</property>
  <property name="kdenlive:monitorPosition">0</property>
 </producer>
 <producer id="producer55" in="00:00:00.000" out="00:00:04.983">
  <property name="length">00:00:05.000</property>
  <property name="eof">pause</property>
  <property name="resource">images/The-Walking-Dead-The-Telltale-Definitive-Series-889409536.jpeg</property>
  <property name="ttl">25</property>
  <property name="aspect_ratio">1</property>
  <property name="meta.media.progressive">1</property>
  <property name="seekable">1</property>
  <property name="format">1</property>
  <property name="meta.media.width">1920</property>
  <property name="meta.media.height">1080</property>
  <property name="mlt_service">qimage</property>
  <property name="kdenlive:duration">00:00:05:00</property>
  <property name="xml">was here</property>
  <property name="kdenlive:folderid">-1</property>
  <property name="kdenlive:id">60</property>
  <property name="kdenlive:control_uuid">{2890f536-a7e4-4e9b-ade1-148aa2810889}</property>
  <property name="kdenlive:clip_type">2</property>
  <property name="kdenlive:file_size">420889</property>
  <property name="kdenlive:file_hash">152b76adc41ee014635f3543db036edf</property>
  <property name="kdenlive:kextractor">1</property>
  <property name="kdenlive:monitorPosition">0</property>
 </producer>
 <producer id="producer56" in="00:00:00.000" out="00:00:04.983">
  <property name="length">00:00:05.000</property>
  <property name="eof">pause</property>
  <property name="resource">images/wp2628146-2882477512.jpg</property>
  <property name="ttl">25</property>
  <property name="aspect_ratio">1</property>
  <property name="meta.media.progressive">1</property>
  <property name="seekable">1</property>
  <property name="format">1</property>
  <property name="meta.media.width">1920</property>
  <property name="meta.media.height">1080</property>
  <property name="mlt_service">qimage</property>
  <property name="kdenlive:duration">00:00:05:00</property>
  <property name="xml">was here</property>
  <property name="kdenlive:folderid">-1</property>
  <property name="kdenlive:id">61</property>
  <property name="kdenlive:control_uuid">{4b8202f3-db74-43d8-a184-bd5311babdc8}</property>
  <property name="kdenlive:clip_type">2</property>
  <property name="kdenlive:file_size">320646</property>
  <property name="kdenlive:file_hash">446eb2a0da5b3b1870d3534849ef16da</property>
  <property name="kdenlive:kextractor">1</property>
  <property name="kdenlive:monitorPosition">0</property>
 </producer>
 <producer id="producer57" in="00:00:00.000" out="00:00:04.983">
  <property name="length">00:00:05.000</property>
  <property name="eof">pause</property>
  <property name="resource">images/fallout-4-1-scaled-344943025.jpg</property>
  <property name="ttl">25</property>
  <property name="aspect_ratio">1</property>
  <property name="meta.media.progressive">1</property>
  <property name="seekable">1</property>
  <property name="format">1</property>
  <property name="meta.media.width">2560</property>
  <property name="meta.media.height">1440</property>
  <property name="mlt_service">qimage</property>
  <property name="kdenlive:duration">00:00:05:00</property>
  <property name="xml">was here</property>
  <property name="kdenlive:folderid">-1</property>
  <property name="kdenlive:id">62</property>
  <property name="kdenlive:control_uuid">{c38dcea9-b108-48c4-a25f-75dc6c3700b5}</property>
  <property name="kdenlive:clip_type">2</property>
  <property name="kdenlive:file_size">326004</property>
  <property name="kdenlive:file_hash">56001d1a26f394b1893d79a660ddb2e3</property>
  <property name="kdenlive:kextractor">1</property>
  <property name="kdenlive:meta.extractor.Comment">CREATOR: gd-jpeg v1.0 (using IJG JPEG v62), quality = 82
</property>
  <property name="kdenlive:monitorPosition">0</property>
 </producer>
 <producer id="producer58" in="00:00:00.000" out="00:00:07.217">
  <property name="length">434</property>
  <property name="eof">pause</property>
  <property name="resource">images/EGS_FalloutNewVegasUltimateEdition_ObsidianEntertainment_Editions_S1_2560x1440-ea034ab626174189b6edc7d38e7c05c4-3778570433.jpg</property>
  <property name="ttl">25</property>
  <property name="aspect_ratio">1</property>
  <property name="meta.media.progressive">1</property>
  <property name="seekable">1</property>
  <property name="format">1</property>
  <property name="meta.media.width">2560</property>
  <property name="meta.media.height">1440</property>
  <property name="mlt_service">qimage</property>
  <property name="kdenlive:duration">00:00:05:00</property>
  <property name="xml">was here</property>
  <property name="kdenlive:folderid">-1</property>
  <property name="kdenlive:id">63</property>
  <property name="kdenlive:control_uuid">{f7fd6e38-c664-4b26-94cf-17157b49f30c}</property>
  <property name="kdenlive:clip_type">2</property>
  <property name="kdenlive:file_size">291727</property>
  <property name="kdenlive:file_hash">ea034ab626174189b6edc7d38e7c05c4</property>
  <property name="kdenlive:kextractor">1</property>
  <property name="kdenlive:monitorPosition">0</property>
 </producer>
 <producer id="producer59" in="00:00:00.000" out="00:00:04.983">
  <property name="length">00:00:05.000</property>
  <property name="eof">pause</property>
  <property name="resource">images/wp4918390-1159330269.jpg</property>
  <property name="ttl">25</property>
  <property name="aspect_ratio">1</property>
  <property name="meta.media.progressive">1</property>
  <property name="seekable">1</property>
  <property name="format">1</property>
  <property name="meta.media.width">1920</property>
  <property name="meta.media.height">1080</property>
  <property name="mlt_service">qimage</property>
  <property name="kdenlive:duration">00:00:05:00</property>
  <property name="xml">was here</property>
  <property name="kdenlive:folderid">-1</property>
  <property name="kdenlive:id">64</property>
  <property name="kdenlive:control_uuid">{e9f42a5b-92bd-426a-b207-87508d4d31d9}</property>
  <property name="kdenlive:clip_type">2</property>
  <property name="kdenlive:file_size">483202</property>
  <property name="kdenlive:file_hash">ec28c1b34dc5b1bab7e80af833d88006</property>
  <property name="kdenlive:kextractor">1</property>
  <property name="kdenlive:monitorPosition">0</property>
 </producer>
 <producer id="producer60" in="00:00:00.000" out="00:00:04.983">
  <property name="length">00:00:05.000</property>
  <property name="eof">pause</property>
  <property name="resource">images/8db4cdb9ccdd8fe03a546723d30a41cb8567034a-2079179048.png</property>
  <property name="ttl">25</property>
  <property name="aspect_ratio">1</property>
  <property name="meta.media.progressive">1</property>
  <property name="seekable">1</property>
  <property name="format">1</property>
  <property name="meta.media.width">1920</property>
  <property name="meta.media.height">1080</property>
  <property name="mlt_service">qimage</property>
  <property name="kdenlive:duration">00:00:05:00</property>
  <property name="xml">was here</property>
  <property name="kdenlive:folderid">-1</property>
  <property name="kdenlive:id">65</property>
  <property name="kdenlive:control_uuid">{43d9f2e7-0f7a-4d68-ba08-c69c8d8f00be}</property>
  <property name="kdenlive:clip_type">2</property>
  <property name="kdenlive:file_size">1258238</property>
  <property name="kdenlive:file_hash">8707247072c92ec6d109842cdd764e1e</property>
  <property name="kdenlive:kextractor">1</property>
  <property name="kdenlive:monitorPosition">0</property>
 </producer>
 <producer id="producer61" in="00:00:00.000" out="00:00:04.983">
  <property name="length">00:00:05.000</property>
  <property name="eof">pause</property>
  <property name="resource">Pictures/2025-11-15_17-11-1763206193.ppm</property>
  <property name="ttl">25</property>
  <property name="aspect_ratio">1</property>
  <property name="meta.media.progressive">1</property>
  <property name="seekable">1</property>
  <property name="format">1</property>
  <property name="meta.media.width">1440</property>
  <property name="meta.media.height">900</property>
  <property name="mlt_service">qimage</property>
  <property name="kdenlive:duration">00:00:05:00</property>
  <property name="xml">was here</property>
  <property name="kdenlive:folderid">-1</property>
  <property name="kdenlive:id">66</property>
  <property name="kdenlive:control_uuid">{f974ce69-01c2-4acb-a49e-81cf0e54271a}</property>
  <property name="kdenlive:clip_type">2</property>
  <property name="kdenlive:file_size">3888016</property>
  <property name="kdenlive:file_hash">2a2a805611db6caeb03b1953f16b2372</property>
  <property name="kdenlive:kextractor">1</property>
  <property name="kdenlive:monitorPosition">0</property>
 </producer>
 <producer id="producer62" in="00:00:00.000" out="00:00:08.900">
  <property name="length">535</property>
  <property name="eof">pause</property>
  <property name="resource">images/299722-blackangel-3417850612.jpg</property>
  <property name="ttl">25</property>
  <property name="aspect_ratio">1</property>
  <property name="meta.media.progressive">1</property>
  <property name="seekable">1</property>
  <property name="format">1</property>
  <property name="meta.media.width">1920</property>
  <property name="meta.media.height">1080</property>
  <property name="mlt_service">qimage</property>
  <property name="kdenlive:duration">00:00:05:00</property>
  <property name="xml">was here</property>
  <property name="kdenlive:folderid">-1</property>
  <property name="kdenlive:id">67</property>
  <property name="kdenlive:control_uuid">{99edca70-ec32-41b4-b8f5-f6f51dc29514}</property>
  <property name="kdenlive:clip_type">2</property>
  <property name="kdenlive:file_size">604841</property>
  <property name="kdenlive:file_hash">3f6cae6a02e71b3a8e3dec2ec55969ef</property>
  <property name="kdenlive:kextractor">1</property>
  <property name="kdenlive:meta.extractor.Comment">GoodFon.ru</property>
  <property name="kdenlive:monitorPosition">0</property>
 </producer>
 <producer id="producer63" in="00:00:00.000" out="00:00:04.983">
  <property name="length">00:00:05.000</property>
  <property name="eof">pause</property>
  <property name="resource">images/9olwosrsa3b31-1724676987.png</property>
  <property name="ttl">25</property>
  <property name="aspect_ratio">1</property>
  <property name="meta.media.progressive">1</property>
  <property name="seekable">1</property>
  <property name="format">1</property>
  <property name="meta.media.width">3301</property>
  <property name="meta.media.height">2160</property>
  <property name="mlt_service">qimage</property>
  <property name="kdenlive:duration">00:00:05:00</property>
  <property name="xml">was here</property>
  <property name="kdenlive:folderid">-1</property>
  <property name="kdenlive:id">68</property>
  <property name="kdenlive:control_uuid">{7e605ae8-8860-4082-ad07-3b6cf8e1e898}</property>
  <property name="kdenlive:clip_type">2</property>
  <property name="kdenlive:file_size">2830096</property>
  <property name="kdenlive:file_hash">718d6a337e5e1cfe92378ac42e59b13e</property>
  <property name="kdenlive:kextractor">1</property>
  <property name="kdenlive:monitorPosition">0</property>
 </producer>
 <producer id="producer64" in="00:00:00.000" out="00:00:05.233">
  <property name="length">315</property>
  <property name="eof">pause</property>
  <property name="resource">images/wp3819859-3352106542.png</property>
  <property name="ttl">25</property>
  <property name="aspect_ratio">1</property>
  <property name="meta.media.progressive">1</property>
  <property name="seekable">1</property>
  <property name="format">1</property>
  <property name="meta.media.width">1920</property>
  <property name="meta.media.height">1080</property>
  <property name="mlt_service">qimage</property>
  <property name="kdenlive:duration">00:00:05:00</property>
  <property name="xml">was here</property>
  <property name="kdenlive:folderid">-1</property>
  <property name="kdenlive:id">69</property>
  <property name="kdenlive:control_uuid">{0fb71967-5a2d-422a-8981-d609b4080004}</property>
  <property name="kdenlive:clip_type">2</property>
  <property name="kdenlive:file_size">662850</property>
  <property name="kdenlive:file_hash">34882d5c0562a398cbf6030171e18dfe</property>
  <property name="kdenlive:kextractor">1</property>
  <property name="kdenlive:monitorPosition">95</property>
 </producer>
 <producer id="producer65" in="00:00:00.000" out="00:00:04.983">
  <property name="length">00:00:05.000</property>
  <property name="eof">pause</property>
  <property name="resource">images/Undertale-Wallpaper-1913955055.jpg</property>
  <property name="ttl">25</property>
  <property name="aspect_ratio">1</property>
  <property name="meta.media.progressive">1</property>
  <property name="seekable">1</property>
  <property name="format">1</property>
  <property name="meta.media.width">3840</property>
  <property name="meta.media.height">2160</property>
  <property name="mlt_service">qimage</property>
  <property name="kdenlive:duration">00:00:05:00</property>
  <property name="xml">was here</property>
  <property name="kdenlive:folderid">-1</property>
  <property name="kdenlive:id">70</property>
  <property name="kdenlive:control_uuid">{fce8f717-d01f-4414-bf49-0c72d0c92f37}</property>
  <property name="kdenlive:clip_type">2</property>
  <property name="kdenlive:file_size">337395</property>
  <property name="kdenlive:file_hash">ca72b99eacd692e1d378ff98156083d2</property>
  <property name="kdenlive:kextractor">1</property>
  <property name="kdenlive:monitorPosition">0</property>
 </producer>
 <producer id="producer66" in="00:00:00.000" out="00:00:10.650">
  <property name="length">640</property>
  <property name="eof">pause</property>
  <property name="resource">images/hollow-knight-silksong-returning-enemies-276951376.jpg</property>
  <property name="ttl">25</property>
  <property name="aspect_ratio">1</property>
  <property name="meta.media.progressive">1</property>
  <property name="seekable">1</property>
  <property name="format">1</property>
  <property name="meta.media.width">2200</property>
  <property name="meta.media.height">1100</property>
  <property name="mlt_service">qimage</property>
  <property name="kdenlive:duration">00:00:05:00</property>
  <property name="xml">was here</property>
  <property name="kdenlive:folderid">-1</property>
  <property name="kdenlive:id">71</property>
  <property name="kdenlive:control_uuid">{fafaf605-51c4-4ac8-90e2-1f7efda48fdf}</property>
  <property name="kdenlive:clip_type">2</property>
  <property name="kdenlive:file_size">347973</property>
  <property name="kdenlive:file_hash">72821037d0a4dcb64d93907d9944156c</property>
  <property name="kdenlive:kextractor">1</property>
  <property name="kdenlive:monitorPosition">0</property>
 </producer>
 <producer id="producer67" in="00:00:00.000" out="00:00:04.983">
  <property name="length">00:00:05.000</property>
  <property name="eof">pause</property>
  <property name="resource">images/4154965-331998141.jpg</property>
  <property name="ttl">25</property>
  <property name="aspect_ratio">1</property>
  <property name="meta.media.progressive">1</property>
  <property name="seekable">1</property>
  <property name="format">1</property>
  <property name="meta.media.width">1920</property>
  <property name="meta.media.height">1080</property>
  <property name="mlt_service">qimage</property>
  <property name="kdenlive:duration">00:00:05:00</property>
  <property name="xml">was here</property>
  <property name="kdenlive:folderid">-1</property>
  <property name="kdenlive:id">72</property>
  <property name="kdenlive:control_uuid">{8b1782dc-1259-4c11-aaea-5ba38b204ce0}</property>
  <property name="kdenlive:clip_type">2</property>
  <property name="kdenlive:file_size">190696</property>
  <property name="kdenlive:file_hash">35fe8ddb41cf2c967fdd1b9d0d14e101</property>
  <property name="kdenlive:kextractor">1</property>
  <property name="kdenlive:monitorPosition">0</property>
 </producer>
 <producer id="producer68" in="00:00:00.000" out="00:00:04.983">
  <property name="length">00:00:05.000</property>
  <property name="eof">pause</property>
  <property name="resource">images/wp5073731-3310852415.jpg</property>
  <property name="ttl">25</property>
  <property name="aspect_ratio">1</property>
  <property name="meta.media.progressive">1</property>
  <property name="seekable">1</property>
  <property name="format">1</property>
  <property name="meta.media.width">1920</property>
  <property name="meta.media.height">1080</property>
  <property name="mlt_service">qimage</property>
  <property name="kdenlive:duration">00:00:05:00</property>
  <property name="xml">was here</property>
  <property name="kdenlive:folderid">-1</property>
  <property name="kdenlive:id">73</property>
  <property name="kdenlive:control_uuid">{d0eb92dc-9e38-49c6-9767-d45e428581a9}</property>
  <property name="kdenlive:clip_type">2</property>
  <property name="kdenlive:file_size">245212</property>
  <property name="kdenlive:file_hash">963cfab085588dc139b43dcfd7f23a37</property>
  <property name="kdenlive:kextractor">1</property>
  <property name="kdenlive:monitorPosition">0</property>
 </producer>
 <producer id="producer69" in="00:00:00.000" out="00:00:04.983">
  <property name="length">00:00:05.000</property>
  <property name="eof">pause</property>
  <property name="resource">images/hero-1744044813.jpg</property>
  <property name="ttl">25</property>
  <property name="aspect_ratio">1</property>
  <property name="meta.media.progressive">1</property>
  <property name="seekable">1</property>
  <property name="format">1</property>
  <property name="meta.media.width">2400</property>
  <property name="meta.media.height">1350</property>
  <property name="mlt_service">qimage</property>
  <property name="kdenlive:duration">00:00:05:00</property>
  <property name="xml">was here</property>
  <property name="kdenlive:folderid">-1</property>
  <property name="kdenlive:id">74</property>
  <property name="kdenlive:control_uuid">{c232df31-dea9-4b63-b627-11e9ec2f17c7}</property>
  <property name="kdenlive:clip_type">2</property>
  <property name="kdenlive:file_size">644595</property>
  <property name="kdenlive:file_hash">d961aeb48610d6981c75b3e83f6097c9</property>
  <property name="kdenlive:kextractor">1</property>
  <property name="kdenlive:monitorPosition">0</property>
 </producer>
 <producer id="producer70" in="00:00:00.000" out="00:00:04.983">
  <property name="length">00:00:05.000</property>
  <property name="eof">pause</property>
  <property name="resource">images/fSRns2YjZk9MdfZKVKc7e12q-246078864.jpg</property>
  <property name="ttl">25</property>
  <property name="aspect_ratio">1</property>
  <property name="meta.media.progressive">1</property>
  <property name="seekable">1</property>
  <property name="format">1</property>
  <property name="meta.media.width">3840</property>
  <property name="meta.media.height">2160</property>
  <property name="mlt_service">qimage</property>
  <property name="kdenlive:duration">00:00:05:00</property>
  <property name="xml">was here</property>
  <property name="kdenlive:folderid">-1</property>
  <property name="kdenlive:id">75</property>
  <property name="kdenlive:control_uuid">{93b116ef-1af3-4d27-8bc1-3cf95ed35866}</property>
  <property name="kdenlive:clip_type">2</property>
  <property name="kdenlive:file_size">925437</property>
  <property name="kdenlive:file_hash">b8b6b864c46f62399a25d4cf14f092a6</property>
  <property name="kdenlive:kextractor">1</property>
  <property name="kdenlive:monitorPosition">0</property>
 </producer>
 <producer id="producer71" in="00:00:00.000" out="00:00:04.983">
  <property name="length">00:00:05.000</property>
  <property name="eof">pause</property>
  <property name="resource">images/prince_of_persia_the_forgotten_sands-wide-2494913977.jpg</property>
  <property name="ttl">25</property>
  <property name="aspect_ratio">1</property>
  <property name="meta.media.progressive">1</property>
  <property name="seekable">1</property>
  <property name="format">1</property>
  <property name="meta.media.width">1920</property>
  <property name="meta.media.height">1200</property>
  <property name="mlt_service">qimage</property>
  <property name="kdenlive:duration">00:00:05:00</property>
  <property name="xml">was here</property>
  <property name="kdenlive:folderid">-1</property>
  <property name="kdenlive:id">76</property>
  <property name="kdenlive:control_uuid">{17b4061e-5748-47e1-b204-4e02c3b9b7d3}</property>
  <property name="kdenlive:clip_type">2</property>
  <property name="kdenlive:file_size">773470</property>
  <property name="kdenlive:file_hash">bcdbb04e69cbe0378256de77d3d7a2c3</property>
  <property name="kdenlive:kextractor">1</property>
  <property name="kdenlive:monitorPosition">0</property>
 </producer>
 <producer id="producer72" in="00:00:00.000" out="00:01:08.883">
  <property name="length">4134</property>
  <property name="eof">pause</property>
  <property name="resource">Pictures/2025-11-15_17-11-1763206981.png</property>
  <property name="ttl">25</property>
  <property name="aspect_ratio">1</property>
  <property name="meta.media.progressive">1</property>
  <property name="seekable">1</property>
  <property name="format">2</property>
  <property name="meta.media.width">511</property>
  <property name="meta.media.height">207</property>
  <property name="mlt_service">qimage</property>
  <property name="kdenlive:duration">00:00:05:00</property>
  <property name="xml">was here</property>
  <property name="kdenlive:folderid">-1</property>
  <property name="kdenlive:id">77</property>
  <property name="kdenlive:control_uuid">{06e4f90e-6cd7-45fe-89a7-34002a0fc2bb}</property>
  <property name="kdenlive:clip_type">2</property>
  <property name="kdenlive:file_size">90404</property>
  <property name="kdenlive:file_hash">05783c2dbbf795e88f8f98dc58783526</property>
  <property name="kdenlive:kextractor">1</property>
  <property name="kdenlive:monitorPosition">0</property>
 </producer>
 <producer id="producer82" in="00:00:00.000" out="00:00:04.983">
  <property name="length">00:00:05.000</property>
  <property name="eof">pause</property>
  <property name="resource">Pictures/2025-11-15_17-11-1763207435.png</property>
  <property name="ttl">25</property>
  <property name="aspect_ratio">1</property>
  <property name="meta.media.progressive">1</property>
  <property name="seekable">1</property>
  <property name="format">2</property>
  <property name="meta.media.width">451</property>
  <property name="meta.media.height">833</property>
  <property name="mlt_service">qimage</property>
  <property name="kdenlive:duration">00:00:05:00</property>
  <property name="xml">was here</property>
  <property name="kdenlive:folderid">-1</property>
  <property name="kdenlive:id">78</property>
  <property name="kdenlive:control_uuid">{3ee8adb9-a9db-4cf2-bdb5-e82208a0529d}</property>
  <property name="kdenlive:clip_type">2</property>
  <property name="kdenlive:file_size">336732</property>
  <property name="kdenlive:file_hash">13b9819fb3c2c97faeb77b239b689874</property>
  <property name="kdenlive:kextractor">1</property>
  <property name="kdenlive:monitorPosition">0</property>
 </producer>
 <producer id="producer83" in="00:00:00.000" out="00:00:04.983">
  <property name="length">300</property>
  <property name="eof">pause</property>
  <property name="resource"/>
  <property name="meta.media.progressive">1</property>
  <property name="aspect_ratio">1</property>
  <property name="seekable">1</property>
  <property name="mlt_service">kdenlivetitle</property>
  <property name="kdenlive:duration">00:00:05:00</property>
  <property name="kdenlive:clipname">I rarely tak...</property>
  <property name="xmldata">&lt;kdenlivetitle LC_NUMERIC="C" duration="300" height="1080" out="299" width="1920">
 &lt;item type="QGraphicsTextItem" z-index="0">
  &lt;position x="596" y="473">
   &lt;transform>1,0,0,0,1,0,0,0,1&lt;/transform>
  &lt;/position>
  &lt;content alignment="4" box-height="158" box-width="824.359" font="Noto Sans" font-color="255,255,255,255" font-italic="0" font-pixel-size="58" font-underline="0" font-weight="400" letter-spacing="0" line-spacing="0" shadow="0;#64000000;3;3;3" tab-width="80" typewriter="0;2;1;0;0">I rarely take pictures of myself
if you haven't guessed already&lt;/content>
 &lt;/item>
 &lt;startviewport rect="0,0,1920,1080"/>
 &lt;endviewport rect="0,0,1920,1080"/>
 &lt;background color="0,0,0,148"/>
&lt;/kdenlivetitle>
</property>
  <property name="xml">was here</property>
  <property name="kdenlive:folderid">-1</property>
  <property name="kdenlive:id">79</property>
  <property name="kdenlive:control_uuid">{2e78a89f-e3c1-46f9-b6f6-95266a0df77f}</property>
  <property name="kdenlive:clip_type">2</property>
  <property name="kdenlive:uniqueId">{d1e4d697-9560-4d0f-a50e-0d460ee0499f}</property>
  <property name="kdenlive:file_hash">c5ad275e5129473a6707a0b2f0062224</property>
  <property name="force_reload">0</property>
  <property name="meta.media.width">1920</property>
  <property name="meta.media.height">1080</property>
  <property name="kdenlive:monitorPosition">0</property>
 </producer>
 <producer id="producer73" in="00:00:00.000" out="00:00:12.600">
  <property name="length">757</property>
  <property name="eof">pause</property>
  <property name="resource">Pictures/2025-11-15_17-11-1763207732.png</property>
  <property name="ttl">25</property>
  <property name="aspect_ratio">1</property>
  <property name="meta.media.progressive">1</property>
  <property name="seekable">1</property>
  <property name="format">2</property>
  <property name="meta.media.width">553</property>
  <property name="meta.media.height">108</property>
  <property name="mlt_service">qimage</property>
  <property name="kdenlive:duration">00:00:05:00</property>
  <property name="xml">was here</property>
  <property name="kdenlive:folderid">-1</property>
  <property name="kdenlive:id">80</property>
  <property name="kdenlive:control_uuid">{c1f74c9d-9fe5-41ee-9e49-ef8208b02bcc}</property>
  <property name="kdenlive:clip_type">2</property>
  <property name="kdenlive:file_size">58137</property>
  <property name="kdenlive:file_hash">94de4b63504121d06a9a358ebc860f6b</property>
  <property name="kdenlive:kextractor">1</property>
  <property name="kdenlive:monitorPosition">0</property>
 </producer>
 <producer id="producer74" in="00:00:00.000" out="00:00:20.917">
  <property name="length">1256</property>
  <property name="eof">pause</property>
  <property name="resource">Pictures/2025-11-15_17-11-1763207770.png</property>
  <property name="ttl">25</property>
  <property name="aspect_ratio">1</property>
  <property name="meta.media.progressive">1</property>
  <property name="seekable">1</property>
  <property name="format">2</property>
  <property name="meta.media.width">507</property>
  <property name="meta.media.height">100</property>
  <property name="mlt_service">qimage</property>
  <property name="kdenlive:duration">00:00:05:00</property>
  <property name="xml">was here</property>
  <property name="kdenlive:folderid">-1</property>
  <property name="kdenlive:id">81</property>
  <property name="kdenlive:control_uuid">{e1ee4a91-bd45-49f7-8ca8-f49be2d32c50}</property>
  <property name="kdenlive:clip_type">2</property>
  <property name="kdenlive:file_size">50204</property>
  <property name="kdenlive:file_hash">294b8c8d2ff3e6aad06c9157e9306f78</property>
  <property name="kdenlive:kextractor">1</property>
  <property name="kdenlive:monitorPosition">0</property>
 </producer>
 <producer id="producer75" in="00:00:00.000" out="00:00:16.767">
  <property name="length">1007</property>
  <property name="eof">pause</property>
  <property name="resource">Pictures/2025-11-15_17-11-1763207888.png</property>
  <property name="ttl">25</property>
  <property name="aspect_ratio">1</property>
  <property name="meta.media.progressive">1</property>
  <property name="seekable">1</property>
  <property name="format">2</property>
  <property name="meta.media.width">479</property>
  <property name="meta.media.height">105</property>
  <property name="mlt_service">qimage</property>
  <property name="kdenlive:duration">00:00:05:00</property>
  <property name="xml">was here</property>
  <property name="kdenlive:folderid">-1</property>
  <property name="kdenlive:id">82</property>
  <property name="kdenlive:control_uuid">{77c801c6-809d-404b-ac3d-6afc30f39737}</property>
  <property name="kdenlive:clip_type">2</property>
  <property name="kdenlive:file_size">49030</property>
  <property name="kdenlive:file_hash">ed12c5c4078a3e9f5f213ddd964e1992</property>
  <property name="kdenlive:kextractor">1</property>
  <property name="kdenlive:monitorPosition">0</property>
 </producer>
 <producer id="producer76" in="00:00:00.000" out="00:00:16.483">
  <property name="length">990</property>
  <property name="eof">pause</property>
  <property name="resource">images/28E247CA-EEC5-49C1-A9A4-B739D7AF40BC-1200x800-3932580851.jpeg</property>
  <property name="ttl">25</property>
  <property name="aspect_ratio">1</property>
  <property name="meta.media.progressive">1</property>
  <property name="seekable">1</property>
  <property name="format">1</property>
  <property name="meta.media.width">1200</property>
  <property name="meta.media.height">800</property>
  <property name="mlt_service">qimage</property>
  <property name="kdenlive:duration">00:00:05:00</property>
  <property name="xml">was here</property>
  <property name="kdenlive:folderid">-1</property>
  <property name="kdenlive:id">83</property>
  <property name="kdenlive:control_uuid">{44870abf-12b6-4c4c-939a-b66ee5cadfc9}</property>
  <property name="kdenlive:clip_type">2</property>
  <property name="kdenlive:file_size">60248</property>
  <property name="kdenlive:file_hash">d995339463a3e0d6fd3574ef399716dd</property>
  <property name="kdenlive:kextractor">1</property>
  <property name="kdenlive:meta.extractor.Comment">CREATOR: gd-jpeg v1.0 (using IJG JPEG v62), quality = 90
</property>
  <property name="kdenlive:monitorPosition">0</property>
 </producer>
 <producer id="producer84" in="00:00:00.000" out="00:00:10.983">
  <property name="length">660</property>
  <property name="eof">pause</property>
  <property name="resource"/>
  <property name="meta.media.progressive">1</property>
  <property name="aspect_ratio">1</property>
  <property name="seekable">1</property>
  <property name="mlt_service">kdenlivetitle</property>
  <property name="kdenlive:duration">00:00:05:00</property>
  <property name="kdenlive:clipname">I don't cond...</property>
  <property name="xmldata">&lt;kdenlivetitle LC_NUMERIC="C" duration="300" height="1080" out="299" width="1920">
 &lt;item type="QGraphicsTextItem" z-index="0">
  &lt;position x="440" y="435">
   &lt;transform>1,0,0,0,1,0,0,0,1&lt;/transform>
  &lt;/position>
  &lt;content alignment="4" box-height="237" box-width="1110.88" font="Noto Sans" font-color="255,255,255,255" font-italic="0" font-pixel-size="58" font-underline="0" font-weight="400" letter-spacing="0" line-spacing="0" shadow="0;#64000000;3;3;3" tab-width="80" typewriter="0;2;1;0;0">I don't condone smoking or drinking
don't smoke kids, and stay out of trouble
and stay in school&lt;/content>
 &lt;/item>
 &lt;startviewport rect="0,0,1920,1080"/>
 &lt;endviewport rect="0,0,1920,1080"/>
 &lt;background color="0,0,0,223"/>
&lt;/kdenlivetitle>
</property>
  <property name="xml">was here</property>
  <property name="kdenlive:folderid">-1</property>
  <property name="kdenlive:id">84</property>
  <property name="kdenlive:control_uuid">{8f99777c-de86-476f-8e57-22f6cb74d8e1}</property>
  <property name="kdenlive:clip_type">2</property>
  <property name="kdenlive:uniqueId">{a35b8fbb-6872-4bd0-82ed-482175954799}</property>
  <property name="kdenlive:file_hash">198ded893501bce504a9a68f3b70fdc9</property>
  <property name="force_reload">0</property>
  <property name="meta.media.width">1920</property>
  <property name="meta.media.height">1080</property>
  <property name="kdenlive:monitorPosition">0</property>
 </producer>
 <producer id="producer77" in="00:00:00.000" out="00:00:10.817">
  <property name="length">650</property>
  <property name="eof">pause</property>
  <property name="resource">images/20170523_064339-2911405866.jpg</property>
  <property name="ttl">25</property>
  <property name="aspect_ratio">1</property>
  <property name="meta.media.progressive">1</property>
  <property name="seekable">1</property>
  <property name="format">1</property>
  <property name="meta.media.width">1200</property>
  <property name="meta.media.height">1600</property>
  <property name="mlt_service">qimage</property>
  <property name="kdenlive:duration">00:00:05:00</property>
  <property name="xml">was here</property>
  <property name="kdenlive:folderid">-1</property>
  <property name="kdenlive:id">85</property>
  <property name="kdenlive:control_uuid">{98b2cee6-0d3a-471c-a4c2-07346ec63bd7}</property>
  <property name="kdenlive:clip_type">2</property>
  <property name="kdenlive:file_size">225276</property>
  <property name="kdenlive:file_hash">ff12c251f2bc348213bbf9e667d0dca2</property>
  <property name="kdenlive:kextractor">1</property>
  <property name="kdenlive:monitorPosition">171</property>
 </producer>
 <producer id="producer78" in="00:00:00.000" out="00:00:07.150">
  <property name="length">430</property>
  <property name="eof">pause</property>
  <property name="resource">Pictures/2025-11-15_18-11-1763208328.ppm</property>
  <property name="ttl">25</property>
  <property name="aspect_ratio">1</property>
  <property name="meta.media.progressive">1</property>
  <property name="seekable">1</property>
  <property name="format">1</property>
  <property name="meta.media.width">1440</property>
  <property name="meta.media.height">900</property>
  <property name="mlt_service">qimage</property>
  <property name="kdenlive:duration">00:00:05:00</property>
  <property name="xml">was here</property>
  <property name="kdenlive:folderid">-1</property>
  <property name="kdenlive:id">86</property>
  <property name="kdenlive:control_uuid">{616b97e0-b74a-433e-9e48-5c4d73974f74}</property>
  <property name="kdenlive:clip_type">2</property>
  <property name="kdenlive:file_size">3888016</property>
  <property name="kdenlive:file_hash">5a5492a80be7ec105b6b4e6cd0f1cd6f</property>
  <property name="kdenlive:kextractor">1</property>
  <property name="kdenlive:monitorPosition">0</property>
 </producer>
 <producer id="producer79" in="00:00:00.000" out="00:00:49.650">
  <property name="length">2980</property>
  <property name="eof">pause</property>
  <property name="resource">Pictures/2025-11-15_18-11-1763208384.png</property>
  <property name="ttl">25</property>
  <property name="aspect_ratio">1</property>
  <property name="meta.media.progressive">1</property>
  <property name="seekable">1</property>
  <property name="format">2</property>
  <property name="meta.media.width">955</property>
  <property name="meta.media.height">244</property>
  <property name="mlt_service">qimage</property>
  <property name="kdenlive:duration">00:00:05:00</property>
  <property name="xml">was here</property>
  <property name="kdenlive:folderid">-1</property>
  <property name="kdenlive:id">87</property>
  <property name="kdenlive:control_uuid">{e9357cdc-dc2f-428c-b4d3-98b5676cda3d}</property>
  <property name="kdenlive:clip_type">2</property>
  <property name="kdenlive:file_size">212050</property>
  <property name="kdenlive:file_hash">26404d3f39ad3da481f68759cafc86c2</property>
  <property name="kdenlive:kextractor">1</property>
  <property name="kdenlive:monitorPosition">1012</property>
 </producer>
 <producer id="producer85" in="00:00:00.000" out="00:00:06.233">
  <property name="length">375</property>
  <property name="eof">pause</property>
  <property name="resource">images/6c27d15382d2b859d785969d5af15b51204ac730-2061324016.jpg</property>
  <property name="ttl">25</property>
  <property name="aspect_ratio">1</property>
  <property name="meta.media.progressive">1</property>
  <property name="seekable">1</property>
  <property name="format">1</property>
  <property name="meta.media.width">1070</property>
  <property name="meta.media.height">778</property>
  <property name="mlt_service">qimage</property>
  <property name="kdenlive:duration">00:00:05:00</property>
  <property name="xml">was here</property>
  <property name="kdenlive:folderid">-1</property>
  <property name="kdenlive:id">88</property>
  <property name="kdenlive:control_uuid">{43248472-8d8b-4e59-83cf-91a90cd79d45}</property>
  <property name="kdenlive:clip_type">2</property>
  <property name="kdenlive:file_size">104842</property>
  <property name="kdenlive:file_hash">77f2bc6d6ef60eeb06a8dc70536e6531</property>
  <property name="kdenlive:kextractor">1</property>
  <property name="kdenlive:monitorPosition">5</property>
 </producer>
 <producer id="producer0" in="00:00:00.000" out="00:40:48.283">
  <property name="length">2147483647</property>
  <property name="eof">continue</property>
  <property name="resource">black</property>
  <property name="aspect_ratio">1</property>
  <property name="mlt_service">color</property>
  <property name="kdenlive:playlistid">black_track</property>
  <property name="mlt_image_format">rgba</property>
  <property name="set.test_audio">0</property>
 </producer>
 <playlist id="playlist0">
  <property name="kdenlive:audio_track">1</property>
 </playlist>
 <playlist id="playlist1">
  <property name="kdenlive:audio_track">1</property>
 </playlist>
 <tractor id="tractor0" in="00:00:00.000">
  <property name="kdenlive:audio_track">1</property>
  <property name="kdenlive:trackheight">75</property>
  <property name="kdenlive:timeline_active">1</property>
  <property name="kdenlive:collapsed">0</property>
  <property name="kdenlive:thumbs_format"/>
  <property name="kdenlive:audio_rec"/>
  <track hide="video" producer="playlist0"/>
  <track hide="video" producer="playlist1"/>
  <filter id="filter0">
   <property name="window">75</property>
   <property name="max_gain">20dB</property>
   <property name="channel_mask">-1</property>
   <property name="mlt_service">volume</property>
   <property name="internal_added">237</property>
   <property name="disable">1</property>
  </filter>
  <filter id="filter1">
   <property name="channel">-1</property>
   <property name="mlt_service">panner</property>
   <property name="internal_added">237</property>
   <property name="start">0.5</property>
   <property name="disable">1</property>
  </filter>
  <filter id="filter2">
   <property name="iec_scale">0</property>
   <property name="mlt_service">audiolevel</property>
   <property name="dbpeak">1</property>
   <property name="disable">1</property>
  </filter>
 </tractor>
 <playlist id="playlist2">
  <property name="kdenlive:audio_track">1</property>
 </playlist>
 <playlist id="playlist3">
  <property name="kdenlive:audio_track">1</property>
 </playlist>
 <tractor id="tractor1" in="00:00:00.000">
  <property name="kdenlive:audio_track">1</property>
  <property name="kdenlive:trackheight">30</property>
  <property name="kdenlive:timeline_active">1</property>
  <property name="kdenlive:collapsed">28</property>
  <property name="kdenlive:thumbs_format"/>
  <property name="kdenlive:audio_rec"/>
  <track hide="video" producer="playlist2"/>
  <track hide="video" producer="playlist3"/>
  <filter id="filter3">
   <property name="window">75</property>
   <property name="max_gain">20dB</property>
   <property name="channel_mask">-1</property>
   <property name="mlt_service">volume</property>
   <property name="internal_added">237</property>
   <property name="disable">1</property>
  </filter>
  <filter id="filter4">
   <property name="channel">-1</property>
   <property name="mlt_service">panner</property>
   <property name="internal_added">237</property>
   <property name="start">0.5</property>
   <property name="disable">1</property>
  </filter>
  <filter id="filter5">
   <property name="iec_scale">0</property>
   <property name="mlt_service">audiolevel</property>
   <property name="dbpeak">1</property>
   <property name="disable">1</property>
  </filter>
 </tractor>
 <playlist id="playlist4">
  <property name="kdenlive:audio_track">1</property>
 </playlist>
 <playlist id="playlist5">
  <property name="kdenlive:audio_track">1</property>
 </playlist>
 <tractor id="tractor2" in="00:00:00.000">
  <property name="kdenlive:audio_track">1</property>
  <property name="kdenlive:trackheight">32</property>
  <property name="kdenlive:timeline_active">1</property>
  <property name="kdenlive:collapsed">28</property>
  <property name="kdenlive:thumbs_format"/>
  <property name="kdenlive:audio_rec"/>
  <track hide="video" producer="playlist4"/>
  <track hide="video" producer="playlist5"/>
  <filter id="filter6">
   <property name="window">75</property>
   <property name="max_gain">20dB</property>
   <property name="channel_mask">-1</property>
   <property name="mlt_service">volume</property>
   <property name="internal_added">237</property>
   <property name="disable">1</property>
  </filter>
  <filter id="filter7">
   <property name="channel">-1</property>
   <property name="mlt_service">panner</property>
   <property name="internal_added">237</property>
   <property name="start">0.5</property>
   <property name="disable">1</property>
  </filter>
  <filter id="filter8">
   <property name="iec_scale">0</property>
   <property name="mlt_service">audiolevel</property>
   <property name="dbpeak">1</property>
   <property name="disable">1</property>
  </filter>
 </tractor>
 <playlist id="playlist6">
  <property name="kdenlive:audio_track">1</property>
 </playlist>
 <playlist id="playlist7">
  <property name="kdenlive:audio_track">1</property>
 </playlist>
 <tractor id="tractor3" in="00:00:00.000">
  <property name="kdenlive:audio_track">1</property>
  <property name="kdenlive:trackheight">33</property>
  <property name="kdenlive:timeline_active">1</property>
  <property name="kdenlive:collapsed">28</property>
  <property name="kdenlive:thumbs_format"/>
  <property name="kdenlive:audio_rec"/>
  <track hide="video" producer="playlist6"/>
  <track hide="video" producer="playlist7"/>
  <filter id="filter9">
   <property name="window">75</property>
   <property name="max_gain">20dB</property>
   <property name="channel_mask">-1</property>
   <property name="mlt_service">volume</property>
   <property name="internal_added">237</property>
   <property name="disable">1</property>
  </filter>
  <filter id="filter10">
   <property name="channel">-1</property>
   <property name="mlt_service">panner</property>
   <property name="internal_added">237</property>
   <property name="start">0.5</property>
   <property name="disable">1</property>
  </filter>
  <filter id="filter11">
   <property name="iec_scale">0</property>
   <property name="mlt_service">audiolevel</property>
   <property name="dbpeak">1</property>
   <property name="disable">1</property>
  </filter>
 </tractor>
 <chain id="chain0" out="00:35:51.767">
  <property name="length">00:35:51.800</property>
  <property name="eof">pause</property>
  <property name="resource">audio-post.flac</property>
  <property name="mlt_service">avformat-novalidate</property>
  <property name="seekable">1</property>
  <property name="audio_index">0</property>
  <property name="video_index">-1</property>
  <property name="astream">0</property>
  <property name="kdenlive:folderid">-1</property>
  <property name="kdenlive:id">4</property>
  <property name="kdenlive:control_uuid">{161c2d5e-40b1-42ee-bf96-5f4095ffab23}</property>
  <property name="kdenlive:clip_type">1</property>
  <property name="kdenlive:file_size">47481576</property>
  <property name="kdenlive:file_hash">d5d0df86eed6e171ffb41320135af9cf</property>
  <property name="kdenlive:kextractor">1</property>
  <property name="kdenlive:meta.extractor.Bitrate">177 kb/s</property>
  <property name="meta.media.nb_streams">1</property>
  <property name="meta.media.0.stream.type">audio</property>
  <property name="meta.media.0.codec.sample_fmt">s16</property>
  <property name="meta.media.0.codec.sample_rate">48000</property>
  <property name="meta.media.0.codec.channels">1</property>
  <property name="meta.media.0.codec.layout">mono</property>
  <property name="meta.media.0.codec.name">flac</property>
  <property name="meta.media.0.codec.long_name">FLAC (Free Lossless Audio Codec)</property>
  <property name="meta.media.0.codec.bit_rate">0</property>
  <property name="xml">was here</property>
  <property name="mute_on_pause">0</property>
  <property name="set.test_audio">0</property>
  <property name="set.test_image">1</property>
 </chain>
 <playlist id="playlist8">
  <property name="kdenlive:audio_track">1</property>
  <entry in="00:00:00.000" out="00:07:08.967" producer="chain0">
   <property name="kdenlive:id">4</property>
  </entry>
  <blank length="00:00:01.383"/>
  <entry in="00:07:08.983" out="00:26:07.200" producer="chain0">
   <property name="kdenlive:id">4</property>
  </entry>
  <entry in="00:26:12.100" out="00:35:51.767" producer="chain0">
   <property name="kdenlive:id">4</property>
  </entry>
 </playlist>
 <playlist id="playlist9">
  <property name="kdenlive:audio_track">1</property>
 </playlist>
 <tractor id="tractor4" in="00:00:00.000" out="00:35:48.267">
  <property name="kdenlive:audio_track">1</property>
  <property name="kdenlive:trackheight">37</property>
  <property name="kdenlive:timeline_active">1</property>
  <property name="kdenlive:collapsed">28</property>
  <property name="kdenlive:thumbs_format"/>
  <property name="kdenlive:audio_rec"/>
  <track hide="video" producer="playlist8"/>
  <track hide="video" producer="playlist9"/>
  <filter id="filter12">
   <property name="window">75</property>
   <property name="max_gain">20dB</property>
   <property name="level">12.4626</property>
   <property name="channel_mask">-1</property>
   <property name="mlt_service">volume</property>
   <property name="internal_added">237</property>
   <property name="disable">0</property>
  </filter>
  <filter id="filter13">
   <property name="channel">-1</property>
   <property name="mlt_service">panner</property>
   <property name="internal_added">237</property>
   <property name="start">0.5</property>
   <property name="disable">1</property>
  </filter>
  <filter id="filter14">
   <property name="iec_scale">0</property>
   <property name="mlt_service">audiolevel</property>
   <property name="dbpeak">1</property>
   <property name="disable">1</property>
  </filter>
 </tractor>
 <producer id="producer4" in="00:00:00.000" out="00:01:40.483">
  <property name="length">00:01:40.520</property>
  <property name="eof">pause</property>
  <property name="resource">2.000000:/home/ingenarel/Downloads/odysee_-_terry_a._davis_-_templeos_archive_202009/20200929 - 4737ad132a334b66e59f18ea067d63e3d83ee2e9 - 2018-05-01T10_33_43+00_00 - Royal Revolution (VLGIFIx94aw).mkv/20200929 - 4737ad132a334b66e59f18ea067d63e3d83ee2e9 - 2018-05-01T10_33_43+00_00 - Royal Revolution (VLGIFIx94aw).mkv.mkv</property>
  <property name="aspect_ratio">1</property>
  <property name="meta.media.nb_streams">2</property>
  <property name="meta.media.0.stream.type">video</property>
  <property name="meta.media.0.stream.frame_rate">30</property>
  <property name="meta.media.0.stream.sample_aspect_ratio">1</property>
  <property name="meta.media.0.codec.width">1280</property>
  <property name="meta.media.0.codec.height">720</property>
  <property name="meta.media.0.codec.rotate">0</property>
  <property name="meta.media.0.codec.pix_fmt">yuv420p</property>
  <property name="meta.media.0.codec.sample_aspect_ratio">1</property>
  <property name="meta.media.0.codec.colorspace">709</property>
  <property name="meta.media.0.codec.name">h264</property>
  <property name="meta.media.0.codec.long_name">H.264 / AVC / MPEG-4 AVC / MPEG-4 part 10</property>
  <property name="meta.media.0.codec.bit_rate">0</property>
  <property name="meta.attr.0.stream.HANDLER_NAME.markup">VideoHandler</property>
  <property name="meta.attr.0.stream.VENDOR_ID.markup">[0][0][0][0]</property>
  <property name="meta.attr.0.stream.DURATION.markup">00:03:21.021000000</property>
  <property name="meta.media.1.stream.type">audio</property>
  <property name="meta.media.1.codec.sample_fmt">fltp</property>
  <property name="meta.media.1.codec.sample_rate">48000</property>
  <property name="meta.media.1.codec.channels">2</property>
  <property name="meta.media.1.codec.layout">stereo</property>
  <property name="meta.media.1.codec.name">aac</property>
  <property name="meta.media.1.codec.long_name">AAC (Advanced Audio Coding)</property>
  <property name="meta.media.1.codec.bit_rate">0</property>
  <property name="meta.attr.1.stream.language.markup">eng</property>
  <property name="meta.attr.1.stream.HANDLER_NAME.markup">SoundHandler</property>
  <property name="meta.attr.1.stream.VENDOR_ID.markup">[0][0][0][0]</property>
  <property name="meta.attr.1.stream.DURATION.markup">00:03:21.031000000</property>
  <property name="meta.attr.title.markup">2018-05-01T10:33:43+00:00 - Royal Revolution (VLGIFIx94aw).mkv</property>
  <property name="meta.attr.DESCRIPTION.markup">Original video found at https://archive.org/details/TerryADavis_TempleOS_Archive</property>
  <property name="meta.attr.MAJOR_BRAND.markup">isom</property>
  <property name="meta.attr.MINOR_VERSION.markup">512</property>
  <property name="meta.attr.COMPATIBLE_BRANDS.markup">isomiso2avc1mp41</property>
  <property name="meta.attr.DATE.markup">20200929</property>
  <property name="meta.attr.SYNOPSIS.markup">Original video found at https://archive.org/details/TerryADavis_TempleOS_Archive</property>
  <property name="meta.attr.COMMENT.markup">https://odysee.com/TempleOS-2018-05-01T1033430000-RoyalRevolutionVLGIFIx94awmkv:4737ad132a334b66e59f18ea067d63e3d83ee2e9</property>
  <property name="meta.attr.ENCODER.markup">Lavf58.76.100</property>
  <property name="seekable">1</property>
  <property name="meta.media.sample_aspect_num">1</property>
  <property name="meta.media.sample_aspect_den">1</property>
  <property name="format">3</property>
  <property name="audio_index">1</property>
  <property name="video_index">0</property>
  <property name="warp_speed">2</property>
  <property name="warp_resource">/home/ingenarel/Downloads/odysee_-_terry_a._davis_-_templeos_archive_202009/20200929 - 4737ad132a334b66e59f18ea067d63e3d83ee2e9 - 2018-05-01T10_33_43+00_00 - Royal Revolution (VLGIFIx94aw).mkv/20200929 - 4737ad132a334b66e59f18ea067d63e3d83ee2e9 - 2018-05-01T10_33_43+00_00 - Royal Revolution (VLGIFIx94aw).mkv.mkv</property>
  <property name="mlt_service">timewarp</property>
  <property name="kdenlive:control_uuid">{9fd514c4-161f-4a6b-8eb2-2056e5e63833}</property>
  <property name="vstream">0</property>
  <property name="astream">0</property>
  <property name="set.test_audio">1</property>
  <property name="set.test_image">0</property>
  <property name="kdenlive:id">12</property>
  <property name="warp_pitch">0</property>
  <property name="meta.media.frame_rate_num">30</property>
  <property name="meta.media.frame_rate_den">1</property>
  <property name="meta.media.colorspace">709</property>
  <property name="meta.media.color_trc">2</property>
  <property name="meta.media.has_b_frames">2</property>
  <property name="meta.media.width">1280</property>
  <property name="meta.media.height">720</property>
  <property name="meta.media.aspect_ratio">1</property>
  <property name="meta.media.color_range">mpeg</property>
  <property name="meta.media.top_field_first">0</property>
  <property name="meta.media.progressive">1</property>
 </producer>
 <producer id="producer5" in="00:00:00.000" out="00:01:44.117">
  <property name="length">00:01:44.160</property>
  <property name="eof">pause</property>
  <property name="resource">2.000000:/home/ingenarel/Downloads/odysee_-_terry_a._davis_-_templeos_archive_202009/20200929 - 94e7c48287483674b9c61a8fd540cc62c0a3bc18 - 2018-05-01T00_10_52+00_00 - Catholic Magic - Boredom balances with excitement (Gi1a601yALY).webm/20200929 - 94e7c48287483674b9c61a8fd540cc62c0a3bc18 - 2018-05-01T00_10_52+00_00 - Catholic Magic - Boredom balances with excitement (Gi1a601yALY).webm.mkv</property>
  <property name="aspect_ratio">1</property>
  <property name="meta.media.nb_streams">2</property>
  <property name="meta.media.0.stream.type">video</property>
  <property name="meta.media.0.stream.frame_rate">30</property>
  <property name="meta.media.0.stream.sample_aspect_ratio">1</property>
  <property name="meta.media.0.codec.width">1280</property>
  <property name="meta.media.0.codec.height">720</property>
  <property name="meta.media.0.codec.rotate">0</property>
  <property name="meta.media.0.codec.pix_fmt">yuv420p</property>
  <property name="meta.media.0.codec.sample_aspect_ratio">1</property>
  <property name="meta.media.0.codec.colorspace">709</property>
  <property name="meta.media.0.codec.name">h264</property>
  <property name="meta.media.0.codec.long_name">H.264 / AVC / MPEG-4 AVC / MPEG-4 part 10</property>
  <property name="meta.media.0.codec.bit_rate">0</property>
  <property name="meta.attr.0.stream.language.markup">eng</property>
  <property name="meta.attr.0.stream.HANDLER_NAME.markup">VideoHandler</property>
  <property name="meta.attr.0.stream.VENDOR_ID.markup">[0][0][0][0]</property>
  <property name="meta.attr.0.stream.DURATION.markup">00:03:28.287000000</property>
  <property name="meta.media.1.stream.type">audio</property>
  <property name="meta.media.1.codec.sample_fmt">fltp</property>
  <property name="meta.media.1.codec.sample_rate">48000</property>
  <property name="meta.media.1.codec.channels">2</property>
  <property name="meta.media.1.codec.layout">stereo</property>
  <property name="meta.media.1.codec.name">aac</property>
  <property name="meta.media.1.codec.long_name">AAC (Advanced Audio Coding)</property>
  <property name="meta.media.1.codec.bit_rate">0</property>
  <property name="meta.attr.1.stream.language.markup">eng</property>
  <property name="meta.attr.1.stream.HANDLER_NAME.markup">SoundHandler</property>
  <property name="meta.attr.1.stream.VENDOR_ID.markup">[0][0][0][0]</property>
  <property name="meta.attr.1.stream.DURATION.markup">00:03:28.320000000</property>
  <property name="meta.attr.title.markup">2018-05-01T00:10:52+00:00 - Catholic Magic - Boredom balances with excitement (Gi1a601yALY).webm</property>
  <property name="meta.attr.DESCRIPTION.markup">Original video found at https://archive.org/details/TerryADavis_TempleOS_Archive</property>
  <property name="meta.attr.MAJOR_BRAND.markup">isom</property>
  <property name="meta.attr.MINOR_VERSION.markup">512</property>
  <property name="meta.attr.COMPATIBLE_BRANDS.markup">isomiso2avc1mp41</property>
  <property name="meta.attr.DATE.markup">20200929</property>
  <property name="meta.attr.SYNOPSIS.markup">Original video found at https://archive.org/details/TerryADavis_TempleOS_Archive</property>
  <property name="meta.attr.COMMENT.markup">https://odysee.com/TempleOS-2018-05-01T0010520000-CatholicMagic-BoredombalanceswithexcitementGi1a601yALYwebm:94e7c48287483674b9c61a8fd540cc62c0a3bc18</property>
  <property name="meta.attr.ENCODER.markup">Lavf58.76.100</property>
  <property name="seekable">1</property>
  <property name="meta.media.sample_aspect_num">1</property>
  <property name="meta.media.sample_aspect_den">1</property>
  <property name="format">3</property>
  <property name="audio_index">1</property>
  <property name="video_index">0</property>
  <property name="warp_speed">2</property>
  <property name="warp_resource">/home/ingenarel/Downloads/odysee_-_terry_a._davis_-_templeos_archive_202009/20200929 - 94e7c48287483674b9c61a8fd540cc62c0a3bc18 - 2018-05-01T00_10_52+00_00 - Catholic Magic - Boredom balances with excitement (Gi1a601yALY).webm/20200929 - 94e7c48287483674b9c61a8fd540cc62c0a3bc18 - 2018-05-01T00_10_52+00_00 - Catholic Magic - Boredom balances with excitement (Gi1a601yALY).webm.mkv</property>
  <property name="mlt_service">timewarp</property>
  <property name="kdenlive:control_uuid">{e3efddb9-7d76-4ca3-a411-dcad602ec162}</property>
  <property name="vstream">0</property>
  <property name="astream">0</property>
  <property name="set.test_audio">1</property>
  <property name="set.test_image">0</property>
  <property name="kdenlive:id">13</property>
  <property name="warp_pitch">0</property>
  <property name="meta.media.frame_rate_num">30</property>
  <property name="meta.media.frame_rate_den">1</property>
  <property name="meta.media.colorspace">709</property>
  <property name="meta.media.color_trc">2</property>
  <property name="meta.media.has_b_frames">2</property>
  <property name="meta.media.width">1280</property>
  <property name="meta.media.height">720</property>
  <property name="meta.media.aspect_ratio">1</property>
  <property name="meta.media.color_range">mpeg</property>
  <property name="meta.media.top_field_first">0</property>
  <property name="meta.media.progressive">1</property>
 </producer>
 <producer id="producer6" in="00:00:00.000" out="00:00:23.083">
  <property name="length">00:00:23.160</property>
  <property name="eof">pause</property>
  <property name="resource">2.000000:images/moXX8lbnmHs.mp4</property>
  <property name="aspect_ratio">1</property>
  <property name="meta.media.nb_streams">2</property>
  <property name="meta.media.0.stream.type">video</property>
  <property name="meta.media.0.stream.frame_rate">29.97</property>
  <property name="meta.media.0.stream.sample_aspect_ratio">0.999219</property>
  <property name="meta.media.0.codec.width">854</property>
  <property name="meta.media.0.codec.height">480</property>
  <property name="meta.media.0.codec.rotate">0</property>
  <property name="meta.media.0.codec.pix_fmt">yuv420p</property>
  <property name="meta.media.0.codec.sample_aspect_ratio">0.999219</property>
  <property name="meta.media.0.codec.colorspace">601</property>
  <property name="meta.media.0.codec.name">h264</property>
  <property name="meta.media.0.codec.long_name">H.264 / AVC / MPEG-4 AVC / MPEG-4 part 10</property>
  <property name="meta.media.0.codec.bit_rate">695185</property>
  <property name="meta.attr.0.stream.handler_name.markup">VideoHandler</property>
  <property name="meta.attr.0.stream.vendor_id.markup">[0][0][0][0]</property>
  <property name="meta.media.1.stream.type">audio</property>
  <property name="meta.media.1.codec.sample_fmt">fltp</property>
  <property name="meta.media.1.codec.sample_rate">48000</property>
  <property name="meta.media.1.codec.channels">2</property>
  <property name="meta.media.1.codec.layout">stereo</property>
  <property name="meta.media.1.codec.name">aac</property>
  <property name="meta.media.1.codec.long_name">AAC (Advanced Audio Coding)</property>
  <property name="meta.media.1.codec.bit_rate">65859</property>
  <property name="meta.attr.1.stream.handler_name.markup">SoundHandler</property>
  <property name="meta.attr.1.stream.vendor_id.markup">[0][0][0][0]</property>
  <property name="meta.attr.major_brand.markup">isom</property>
  <property name="meta.attr.minor_version.markup">512</property>
  <property name="meta.attr.compatible_brands.markup">isomiso2avc1mp41</property>
  <property name="meta.attr.title.markup">Terry Davis - "Artificial Intelligence Is Going To Be The Pressure Point" - https://archive.org/details/youtube-moXX8lbnmHs</property>
  <property name="meta.attr.encoder.markup">Lavf58.51.100</property>
  <property name="seekable">1</property>
  <property name="meta.media.sample_aspect_num">1280</property>
  <property name="meta.media.sample_aspect_den">1281</property>
  <property name="format">3</property>
  <property name="audio_index">1</property>
  <property name="video_index">0</property>
  <property name="warp_speed">2</property>
  <property name="warp_resource">images/moXX8lbnmHs.mp4</property>
  <property name="mlt_service">timewarp</property>
  <property name="kdenlive:control_uuid">{dbf21d12-ce2c-4705-b4ae-45fb6982cd79}</property>
  <property name="vstream">0</property>
  <property name="astream">0</property>
  <property name="set.test_audio">1</property>
  <property name="set.test_image">0</property>
  <property name="kdenlive:id">14</property>
  <property name="warp_pitch">0</property>
  <property name="meta.media.frame_rate_num">2997</property>
  <property name="meta.media.frame_rate_den">100</property>
  <property name="meta.media.colorspace">601</property>
  <property name="meta.media.color_trc">2</property>
  <property name="meta.media.has_b_frames">2</property>
  <property name="meta.media.width">854</property>
  <property name="meta.media.height">480</property>
  <property name="meta.media.aspect_ratio">0.999219</property>
  <property name="meta.media.color_range">mpeg</property>
  <property name="meta.media.top_field_first">0</property>
  <property name="meta.media.progressive">1</property>
 </producer>
 <producer id="producer7" in="00:00:00.000" out="00:00:55.400">
  <property name="length">00:00:55.440</property>
  <property name="eof">pause</property>
  <property name="resource">2.000000:images/IXhmu1aQSOY.mp4</property>
  <property name="aspect_ratio">1</property>
  <property name="meta.media.nb_streams">2</property>
  <property name="meta.media.0.stream.type">video</property>
  <property name="meta.media.0.stream.frame_rate">29.97</property>
  <property name="meta.media.0.stream.sample_aspect_ratio">1.00104</property>
  <property name="meta.media.0.codec.width">642</property>
  <property name="meta.media.0.codec.height">480</property>
  <property name="meta.media.0.codec.rotate">0</property>
  <property name="meta.media.0.codec.pix_fmt">yuv420p</property>
  <property name="meta.media.0.codec.sample_aspect_ratio">1.00104</property>
  <property name="meta.media.0.codec.colorspace">601</property>
  <property name="meta.media.0.codec.name">h264</property>
  <property name="meta.media.0.codec.long_name">H.264 / AVC / MPEG-4 AVC / MPEG-4 part 10</property>
  <property name="meta.media.0.codec.bit_rate">706967</property>
  <property name="meta.attr.0.stream.handler_name.markup">VideoHandler</property>
  <property name="meta.attr.0.stream.vendor_id.markup">[0][0][0][0]</property>
  <property name="meta.media.1.stream.type">audio</property>
  <property name="meta.media.1.codec.sample_fmt">fltp</property>
  <property name="meta.media.1.codec.sample_rate">48000</property>
  <property name="meta.media.1.codec.channels">2</property>
  <property name="meta.media.1.codec.layout">stereo</property>
  <property name="meta.media.1.codec.name">aac</property>
  <property name="meta.media.1.codec.long_name">AAC (Advanced Audio Coding)</property>
  <property name="meta.media.1.codec.bit_rate">67317</property>
  <property name="meta.attr.1.stream.handler_name.markup">SoundHandler</property>
  <property name="meta.attr.1.stream.vendor_id.markup">[0][0][0][0]</property>
  <property name="meta.attr.major_brand.markup">isom</property>
  <property name="meta.attr.minor_version.markup">512</property>
  <property name="meta.attr.compatible_brands.markup">isomiso2avc1mp41</property>
  <property name="meta.attr.title.markup">Terry Davis - "What do you use Internet Explorer for?" - https://archive.org/details/youtube-IXhmu1aQSOY</property>
  <property name="meta.attr.encoder.markup">Lavf58.51.100</property>
  <property name="seekable">1</property>
  <property name="meta.media.sample_aspect_num">964</property>
  <property name="meta.media.sample_aspect_den">963</property>
  <property name="format">3</property>
  <property name="audio_index">1</property>
  <property name="video_index">0</property>
  <property name="warp_speed">2</property>
  <property name="warp_resource">images/IXhmu1aQSOY.mp4</property>
  <property name="mlt_service">timewarp</property>
  <property name="kdenlive:control_uuid">{c9baf07c-38d8-4271-9d9d-1f427c6aa5f5}</property>
  <property name="vstream">0</property>
  <property name="astream">0</property>
  <property name="set.test_audio">1</property>
  <property name="set.test_image">0</property>
  <property name="kdenlive:id">15</property>
  <property name="warp_pitch">0</property>
  <property name="meta.media.frame_rate_num">2997</property>
  <property name="meta.media.frame_rate_den">100</property>
  <property name="meta.media.colorspace">601</property>
  <property name="meta.media.color_trc">2</property>
  <property name="meta.media.has_b_frames">2</property>
  <property name="meta.media.width">642</property>
  <property name="meta.media.height">480</property>
  <property name="meta.media.aspect_ratio">1.00104</property>
  <property name="meta.media.color_range">mpeg</property>
  <property name="meta.media.top_field_first">0</property>
  <property name="meta.media.progressive">1</property>
 </producer>
 <producer id="producer8" in="00:00:00.000" out="00:01:40.483">
  <property name="length">00:01:40.520</property>
  <property name="eof">pause</property>
  <property name="resource">2.000000:/home/ingenarel/Downloads/odysee_-_terry_a._davis_-_templeos_archive_202009/20200929 - 4737ad132a334b66e59f18ea067d63e3d83ee2e9 - 2018-05-01T10_33_43+00_00 - Royal Revolution (VLGIFIx94aw).mkv/20200929 - 4737ad132a334b66e59f18ea067d63e3d83ee2e9 - 2018-05-01T10_33_43+00_00 - Royal Revolution (VLGIFIx94aw).mkv.mkv</property>
  <property name="aspect_ratio">1</property>
  <property name="meta.media.nb_streams">2</property>
  <property name="meta.media.0.stream.type">video</property>
  <property name="meta.media.0.stream.frame_rate">30</property>
  <property name="meta.media.0.stream.sample_aspect_ratio">1</property>
  <property name="meta.media.0.codec.width">1280</property>
  <property name="meta.media.0.codec.height">720</property>
  <property name="meta.media.0.codec.rotate">0</property>
  <property name="meta.media.0.codec.pix_fmt">yuv420p</property>
  <property name="meta.media.0.codec.sample_aspect_ratio">1</property>
  <property name="meta.media.0.codec.colorspace">709</property>
  <property name="meta.media.0.codec.name">h264</property>
  <property name="meta.media.0.codec.long_name">H.264 / AVC / MPEG-4 AVC / MPEG-4 part 10</property>
  <property name="meta.media.0.codec.bit_rate">0</property>
  <property name="meta.attr.0.stream.HANDLER_NAME.markup">VideoHandler</property>
  <property name="meta.attr.0.stream.VENDOR_ID.markup">[0][0][0][0]</property>
  <property name="meta.attr.0.stream.DURATION.markup">00:03:21.021000000</property>
  <property name="meta.media.1.stream.type">audio</property>
  <property name="meta.media.1.codec.sample_fmt">fltp</property>
  <property name="meta.media.1.codec.sample_rate">48000</property>
  <property name="meta.media.1.codec.channels">2</property>
  <property name="meta.media.1.codec.layout">stereo</property>
  <property name="meta.media.1.codec.name">aac</property>
  <property name="meta.media.1.codec.long_name">AAC (Advanced Audio Coding)</property>
  <property name="meta.media.1.codec.bit_rate">0</property>
  <property name="meta.attr.1.stream.language.markup">eng</property>
  <property name="meta.attr.1.stream.HANDLER_NAME.markup">SoundHandler</property>
  <property name="meta.attr.1.stream.VENDOR_ID.markup">[0][0][0][0]</property>
  <property name="meta.attr.1.stream.DURATION.markup">00:03:21.031000000</property>
  <property name="meta.attr.title.markup">2018-05-01T10:33:43+00:00 - Royal Revolution (VLGIFIx94aw).mkv</property>
  <property name="meta.attr.DESCRIPTION.markup">Original video found at https://archive.org/details/TerryADavis_TempleOS_Archive</property>
  <property name="meta.attr.MAJOR_BRAND.markup">isom</property>
  <property name="meta.attr.MINOR_VERSION.markup">512</property>
  <property name="meta.attr.COMPATIBLE_BRANDS.markup">isomiso2avc1mp41</property>
  <property name="meta.attr.DATE.markup">20200929</property>
  <property name="meta.attr.SYNOPSIS.markup">Original video found at https://archive.org/details/TerryADavis_TempleOS_Archive</property>
  <property name="meta.attr.COMMENT.markup">https://odysee.com/TempleOS-2018-05-01T1033430000-RoyalRevolutionVLGIFIx94awmkv:4737ad132a334b66e59f18ea067d63e3d83ee2e9</property>
  <property name="meta.attr.ENCODER.markup">Lavf58.76.100</property>
  <property name="seekable">1</property>
  <property name="meta.media.sample_aspect_num">1</property>
  <property name="meta.media.sample_aspect_den">1</property>
  <property name="format">3</property>
  <property name="audio_index">1</property>
  <property name="video_index">0</property>
  <property name="warp_speed">2</property>
  <property name="warp_resource">/home/ingenarel/Downloads/odysee_-_terry_a._davis_-_templeos_archive_202009/20200929 - 4737ad132a334b66e59f18ea067d63e3d83ee2e9 - 2018-05-01T10_33_43+00_00 - Royal Revolution (VLGIFIx94aw).mkv/20200929 - 4737ad132a334b66e59f18ea067d63e3d83ee2e9 - 2018-05-01T10_33_43+00_00 - Royal Revolution (VLGIFIx94aw).mkv.mkv</property>
  <property name="mlt_service">timewarp</property>
  <property name="kdenlive:control_uuid">{9fd514c4-161f-4a6b-8eb2-2056e5e63833}</property>
  <property name="vstream">0</property>
  <property name="astream">0</property>
  <property name="set.test_audio">1</property>
  <property name="set.test_image">0</property>
  <property name="kdenlive:id">12</property>
  <property name="warp_pitch">0</property>
  <property name="meta.media.frame_rate_num">30</property>
  <property name="meta.media.frame_rate_den">1</property>
  <property name="meta.media.colorspace">709</property>
  <property name="meta.media.color_trc">2</property>
  <property name="meta.media.has_b_frames">2</property>
  <property name="meta.media.width">1280</property>
  <property name="meta.media.height">720</property>
  <property name="meta.media.aspect_ratio">1</property>
  <property name="meta.media.color_range">mpeg</property>
  <property name="meta.media.top_field_first">0</property>
  <property name="meta.media.progressive">1</property>
 </producer>
 <producer id="producer9" in="00:00:00.000" out="00:01:44.117">
  <property name="length">00:01:44.160</property>
  <property name="eof">pause</property>
  <property name="resource">2.000000:/home/ingenarel/Downloads/odysee_-_terry_a._davis_-_templeos_archive_202009/20200929 - 94e7c48287483674b9c61a8fd540cc62c0a3bc18 - 2018-05-01T00_10_52+00_00 - Catholic Magic - Boredom balances with excitement (Gi1a601yALY).webm/20200929 - 94e7c48287483674b9c61a8fd540cc62c0a3bc18 - 2018-05-01T00_10_52+00_00 - Catholic Magic - Boredom balances with excitement (Gi1a601yALY).webm.mkv</property>
  <property name="aspect_ratio">1</property>
  <property name="meta.media.nb_streams">2</property>
  <property name="meta.media.0.stream.type">video</property>
  <property name="meta.media.0.stream.frame_rate">30</property>
  <property name="meta.media.0.stream.sample_aspect_ratio">1</property>
  <property name="meta.media.0.codec.width">1280</property>
  <property name="meta.media.0.codec.height">720</property>
  <property name="meta.media.0.codec.rotate">0</property>
  <property name="meta.media.0.codec.pix_fmt">yuv420p</property>
  <property name="meta.media.0.codec.sample_aspect_ratio">1</property>
  <property name="meta.media.0.codec.colorspace">709</property>
  <property name="meta.media.0.codec.name">h264</property>
  <property name="meta.media.0.codec.long_name">H.264 / AVC / MPEG-4 AVC / MPEG-4 part 10</property>
  <property name="meta.media.0.codec.bit_rate">0</property>
  <property name="meta.attr.0.stream.language.markup">eng</property>
  <property name="meta.attr.0.stream.HANDLER_NAME.markup">VideoHandler</property>
  <property name="meta.attr.0.stream.VENDOR_ID.markup">[0][0][0][0]</property>
  <property name="meta.attr.0.stream.DURATION.markup">00:03:28.287000000</property>
  <property name="meta.media.1.stream.type">audio</property>
  <property name="meta.media.1.codec.sample_fmt">fltp</property>
  <property name="meta.media.1.codec.sample_rate">48000</property>
  <property name="meta.media.1.codec.channels">2</property>
  <property name="meta.media.1.codec.layout">stereo</property>
  <property name="meta.media.1.codec.name">aac</property>
  <property name="meta.media.1.codec.long_name">AAC (Advanced Audio Coding)</property>
  <property name="meta.media.1.codec.bit_rate">0</property>
  <property name="meta.attr.1.stream.language.markup">eng</property>
  <property name="meta.attr.1.stream.HANDLER_NAME.markup">SoundHandler</property>
  <property name="meta.attr.1.stream.VENDOR_ID.markup">[0][0][0][0]</property>
  <property name="meta.attr.1.stream.DURATION.markup">00:03:28.320000000</property>
  <property name="meta.attr.title.markup">2018-05-01T00:10:52+00:00 - Catholic Magic - Boredom balances with excitement (Gi1a601yALY).webm</property>
  <property name="meta.attr.DESCRIPTION.markup">Original video found at https://archive.org/details/TerryADavis_TempleOS_Archive</property>
  <property name="meta.attr.MAJOR_BRAND.markup">isom</property>
  <property name="meta.attr.MINOR_VERSION.markup">512</property>
  <property name="meta.attr.COMPATIBLE_BRANDS.markup">isomiso2avc1mp41</property>
  <property name="meta.attr.DATE.markup">20200929</property>
  <property name="meta.attr.SYNOPSIS.markup">Original video found at https://archive.org/details/TerryADavis_TempleOS_Archive</property>
  <property name="meta.attr.COMMENT.markup">https://odysee.com/TempleOS-2018-05-01T0010520000-CatholicMagic-BoredombalanceswithexcitementGi1a601yALYwebm:94e7c48287483674b9c61a8fd540cc62c0a3bc18</property>
  <property name="meta.attr.ENCODER.markup">Lavf58.76.100</property>
  <property name="seekable">1</property>
  <property name="meta.media.sample_aspect_num">1</property>
  <property name="meta.media.sample_aspect_den">1</property>
  <property name="format">3</property>
  <property name="audio_index">1</property>
  <property name="video_index">0</property>
  <property name="warp_speed">2</property>
  <property name="warp_resource">/home/ingenarel/Downloads/odysee_-_terry_a._davis_-_templeos_archive_202009/20200929 - 94e7c48287483674b9c61a8fd540cc62c0a3bc18 - 2018-05-01T00_10_52+00_00 - Catholic Magic - Boredom balances with excitement (Gi1a601yALY).webm/20200929 - 94e7c48287483674b9c61a8fd540cc62c0a3bc18 - 2018-05-01T00_10_52+00_00 - Catholic Magic - Boredom balances with excitement (Gi1a601yALY).webm.mkv</property>
  <property name="mlt_service">timewarp</property>
  <property name="kdenlive:control_uuid">{e3efddb9-7d76-4ca3-a411-dcad602ec162}</property>
  <property name="vstream">0</property>
  <property name="astream">0</property>
  <property name="set.test_audio">1</property>
  <property name="set.test_image">0</property>
  <property name="kdenlive:id">13</property>
  <property name="warp_pitch">0</property>
  <property name="meta.media.frame_rate_num">30</property>
  <property name="meta.media.frame_rate_den">1</property>
  <property name="meta.media.colorspace">709</property>
  <property name="meta.media.color_trc">2</property>
  <property name="meta.media.has_b_frames">2</property>
  <property name="meta.media.width">1280</property>
  <property name="meta.media.height">720</property>
  <property name="meta.media.aspect_ratio">1</property>
  <property name="meta.media.color_range">mpeg</property>
  <property name="meta.media.top_field_first">0</property>
  <property name="meta.media.progressive">1</property>
 </producer>
 <producer id="producer10" in="00:00:00.000" out="00:01:09.683">
  <property name="length">00:01:09.720</property>
  <property name="eof">pause</property>
  <property name="resource">2.000000:images/Terry Davis： His last video before death [Xb9GBLPCeVw].mp4</property>
  <property name="aspect_ratio">1</property>
  <property name="meta.media.nb_streams">1</property>
  <property name="meta.media.0.stream.type">video</property>
  <property name="meta.media.0.stream.frame_rate">30</property>
  <property name="meta.media.0.stream.sample_aspect_ratio">0</property>
  <property name="meta.media.0.codec.width">480</property>
  <property name="meta.media.0.codec.height">360</property>
  <property name="meta.media.0.codec.rotate">0</property>
  <property name="meta.media.0.codec.pix_fmt">yuv420p</property>
  <property name="meta.media.0.codec.sample_aspect_ratio">1</property>
  <property name="meta.media.0.codec.colorspace">601</property>
  <property name="meta.media.0.codec.color_trc">1</property>
  <property name="meta.media.0.codec.name">h264</property>
  <property name="meta.media.0.codec.long_name">H.264 / AVC / MPEG-4 AVC / MPEG-4 part 10</property>
  <property name="meta.media.0.codec.bit_rate">222197</property>
  <property name="meta.attr.0.stream.creation_time.markup">2025-08-11T20:33:35.000000Z</property>
  <property name="meta.attr.0.stream.handler_name.markup">ISO Media file produced by Google Inc.</property>
  <property name="meta.attr.0.stream.vendor_id.markup">[0][0][0][0]</property>
  <property name="meta.attr.major_brand.markup">dash</property>
  <property name="meta.attr.minor_version.markup">0</property>
  <property name="meta.attr.compatible_brands.markup">iso6avc1mp41</property>
  <property name="meta.attr.creation_time.markup">2025-08-11T20:33:35.000000Z</property>
  <property name="seekable">1</property>
  <property name="meta.media.sample_aspect_num">1</property>
  <property name="meta.media.sample_aspect_den">1</property>
  <property name="format">3</property>
  <property name="audio_index">-1</property>
  <property name="video_index">0</property>
  <property name="warp_speed">2</property>
  <property name="warp_resource">images/Terry Davis： His last video before death [Xb9GBLPCeVw].mp4</property>
  <property name="mlt_service">timewarp</property>
  <property name="kdenlive:control_uuid">{b8cfb4f7-5b7a-477c-8b48-cb7681d884b6}</property>
  <property name="vstream">0</property>
  <property name="astream">-1</property>
  <property name="set.test_audio">1</property>
  <property name="set.test_image">0</property>
  <property name="kdenlive:id">17</property>
  <property name="warp_pitch">0</property>
  <property name="meta.media.frame_rate_num">30</property>
  <property name="meta.media.frame_rate_den">1</property>
  <property name="meta.media.colorspace">601</property>
  <property name="meta.media.color_trc">1</property>
  <property name="meta.media.has_b_frames">1</property>
  <property name="meta.media.width">480</property>
  <property name="meta.media.height">360</property>
  <property name="meta.media.aspect_ratio">1</property>
  <property name="meta.media.color_range">mpeg</property>
  <property name="meta.media.top_field_first">0</property>
  <property name="meta.media.progressive">1</property>
 </producer>
 <producer id="producer13" in="00:00:00.000" out="00:09:41.800">
  <property name="length">00:09:41.840</property>
  <property name="eof">pause</property>
  <property name="resource">3.000000:images/The Apostles Keeping TEMPLEOS Alive… [Cyz08j7EchY].mp4</property>
  <property name="aspect_ratio">1</property>
  <property name="meta.media.nb_streams">1</property>
  <property name="meta.media.0.stream.type">video</property>
  <property name="meta.media.0.stream.frame_rate">30</property>
  <property name="meta.media.0.stream.sample_aspect_ratio">0</property>
  <property name="meta.media.0.codec.width">1920</property>
  <property name="meta.media.0.codec.height">1080</property>
  <property name="meta.media.0.codec.rotate">0</property>
  <property name="meta.media.0.codec.pix_fmt">yuv420p</property>
  <property name="meta.media.0.codec.sample_aspect_ratio">0</property>
  <property name="meta.media.0.codec.colorspace">709</property>
  <property name="meta.media.0.codec.color_trc">1</property>
  <property name="meta.media.0.codec.name">libdav1d</property>
  <property name="meta.media.0.codec.long_name">dav1d AV1 decoder by VideoLAN</property>
  <property name="meta.media.0.codec.bit_rate">738112</property>
  <property name="meta.attr.0.stream.creation_time.markup">2025-04-08T14:53:40.000000Z</property>
  <property name="meta.attr.0.stream.handler_name.markup">ISO Media file produced by Google Inc.</property>
  <property name="meta.attr.0.stream.vendor_id.markup">[0][0][0][0]</property>
  <property name="meta.attr.major_brand.markup">dash</property>
  <property name="meta.attr.minor_version.markup">0</property>
  <property name="meta.attr.compatible_brands.markup">iso6av01mp41</property>
  <property name="meta.attr.creation_time.markup">2025-04-08T14:53:40.000000Z</property>
  <property name="seekable">1</property>
  <property name="meta.media.sample_aspect_num">1</property>
  <property name="meta.media.sample_aspect_den">1</property>
  <property name="format">3</property>
  <property name="audio_index">-1</property>
  <property name="video_index">0</property>
  <property name="warp_speed">3</property>
  <property name="warp_resource">images/The Apostles Keeping TEMPLEOS Alive… [Cyz08j7EchY].mp4</property>
  <property name="mlt_service">timewarp</property>
  <property name="kdenlive:control_uuid">{c459ad63-b28f-4046-90e9-c06c34420d65}</property>
  <property name="vstream">0</property>
  <property name="astream">-1</property>
  <property name="set.test_audio">1</property>
  <property name="set.test_image">0</property>
  <property name="kdenlive:id">21</property>
  <property name="warp_pitch">0</property>
  <property name="meta.media.frame_rate_num">30</property>
  <property name="meta.media.frame_rate_den">1</property>
  <property name="meta.media.colorspace">709</property>
  <property name="meta.media.color_trc">1</property>
  <property name="meta.media.has_b_frames">0</property>
  <property name="meta.media.width">1920</property>
  <property name="meta.media.height">1080</property>
  <property name="meta.media.aspect_ratio">1</property>
  <property name="meta.media.color_range">mpeg</property>
  <property name="meta.media.top_field_first">0</property>
  <property name="meta.media.progressive">1</property>
 </producer>
 <producer id="producer28" in="00:00:00.000" out="00:00:09.567">
  <property name="length">00:00:09.600</property>
  <property name="eof">pause</property>
  <property name="resource">1.840730:/home/ingenarel/Videos/2025-11-15 13-59-20.mp4</property>
  <property name="aspect_ratio">1</property>
  <property name="meta.media.nb_streams">2</property>
  <property name="meta.media.0.stream.type">video</property>
  <property name="meta.media.0.stream.frame_rate">30</property>
  <property name="meta.media.0.stream.sample_aspect_ratio">0</property>
  <property name="meta.media.0.codec.width">1440</property>
  <property name="meta.media.0.codec.height">900</property>
  <property name="meta.media.0.codec.rotate">0</property>
  <property name="meta.media.0.codec.pix_fmt">yuv420p</property>
  <property name="meta.media.0.codec.sample_aspect_ratio">1</property>
  <property name="meta.media.0.codec.colorspace">709</property>
  <property name="meta.media.0.codec.color_trc">1</property>
  <property name="meta.media.0.codec.name">h264</property>
  <property name="meta.media.0.codec.long_name">H.264 / AVC / MPEG-4 AVC / MPEG-4 part 10</property>
  <property name="meta.media.0.codec.bit_rate">1063141</property>
  <property name="meta.attr.0.stream.handler_name.markup">VideoHandler</property>
  <property name="meta.attr.0.stream.vendor_id.markup">[0][0][0][0]</property>
  <property name="meta.media.1.stream.type">audio</property>
  <property name="meta.media.1.codec.sample_fmt">fltp</property>
  <property name="meta.media.1.codec.sample_rate">48000</property>
  <property name="meta.media.1.codec.channels">2</property>
  <property name="meta.media.1.codec.layout">stereo</property>
  <property name="meta.media.1.codec.name">aac</property>
  <property name="meta.media.1.codec.long_name">AAC (Advanced Audio Coding)</property>
  <property name="meta.media.1.codec.bit_rate">159999</property>
  <property name="meta.attr.1.stream.handler_name.markup">SoundHandler</property>
  <property name="meta.attr.1.stream.vendor_id.markup">[0][0][0][0]</property>
  <property name="meta.attr.major_brand.markup">isom</property>
  <property name="meta.attr.minor_version.markup">512</property>
  <property name="meta.attr.compatible_brands.markup">isomiso2avc1mp41</property>
  <property name="meta.attr.encoder.markup">Lavf62.3.100</property>
  <property name="seekable">1</property>
  <property name="meta.media.sample_aspect_num">1</property>
  <property name="meta.media.sample_aspect_den">1</property>
  <property name="format">3</property>
  <property name="audio_index">1</property>
  <property name="video_index">0</property>
  <property name="warp_speed">1.84073</property>
  <property name="warp_resource">/home/ingenarel/Videos/2025-11-15 13-59-20.mp4</property>
  <property name="mlt_service">timewarp</property>
  <property name="kdenlive:control_uuid">{b79e5601-051e-42d6-b73d-7fc454edcaf4}</property>
  <property name="vstream">0</property>
  <property name="astream">0</property>
  <property name="set.test_audio">1</property>
  <property name="set.test_image">0</property>
  <property name="kdenlive:id">32</property>
  <property name="warp_pitch">0</property>
  <property name="meta.media.frame_rate_num">30</property>
  <property name="meta.media.frame_rate_den">1</property>
  <property name="meta.media.colorspace">709</property>
  <property name="meta.media.color_trc">1</property>
  <property name="meta.media.has_b_frames">2</property>
  <property name="meta.media.width">1440</property>
  <property name="meta.media.height">900</property>
  <property name="meta.media.aspect_ratio">1</property>
  <property name="meta.media.color_range">mpeg</property>
  <property name="meta.media.top_field_first">0</property>
  <property name="meta.media.progressive">1</property>
 </producer>
 <producer id="producer29" in="00:00:00.000" out="00:00:09.483">
  <property name="length">00:00:09.520</property>
  <property name="eof">pause</property>
  <property name="resource">1.840000:/home/ingenarel/Videos/2025-11-15 14-01-03.mp4</property>
  <property name="aspect_ratio">1</property>
  <property name="meta.media.nb_streams">2</property>
  <property name="meta.media.0.stream.type">video</property>
  <property name="meta.media.0.stream.frame_rate">30</property>
  <property name="meta.media.0.stream.sample_aspect_ratio">0</property>
  <property name="meta.media.0.codec.width">1440</property>
  <property name="meta.media.0.codec.height">900</property>
  <property name="meta.media.0.codec.rotate">0</property>
  <property name="meta.media.0.codec.pix_fmt">yuv420p</property>
  <property name="meta.media.0.codec.sample_aspect_ratio">1</property>
  <property name="meta.media.0.codec.colorspace">709</property>
  <property name="meta.media.0.codec.color_trc">1</property>
  <property name="meta.media.0.codec.name">h264</property>
  <property name="meta.media.0.codec.long_name">H.264 / AVC / MPEG-4 AVC / MPEG-4 part 10</property>
  <property name="meta.media.0.codec.bit_rate">1751193</property>
  <property name="meta.attr.0.stream.handler_name.markup">VideoHandler</property>
  <property name="meta.attr.0.stream.vendor_id.markup">[0][0][0][0]</property>
  <property name="meta.media.1.stream.type">audio</property>
  <property name="meta.media.1.codec.sample_fmt">fltp</property>
  <property name="meta.media.1.codec.sample_rate">48000</property>
  <property name="meta.media.1.codec.channels">2</property>
  <property name="meta.media.1.codec.layout">stereo</property>
  <property name="meta.media.1.codec.name">aac</property>
  <property name="meta.media.1.codec.long_name">AAC (Advanced Audio Coding)</property>
  <property name="meta.media.1.codec.bit_rate">159999</property>
  <property name="meta.attr.1.stream.handler_name.markup">SoundHandler</property>
  <property name="meta.attr.1.stream.vendor_id.markup">[0][0][0][0]</property>
  <property name="meta.attr.major_brand.markup">isom</property>
  <property name="meta.attr.minor_version.markup">512</property>
  <property name="meta.attr.compatible_brands.markup">isomiso2avc1mp41</property>
  <property name="meta.attr.encoder.markup">Lavf62.3.100</property>
  <property name="seekable">1</property>
  <property name="meta.media.sample_aspect_num">1</property>
  <property name="meta.media.sample_aspect_den">1</property>
  <property name="format">3</property>
  <property name="audio_index">1</property>
  <property name="video_index">0</property>
  <property name="warp_speed">1.84</property>
  <property name="warp_resource">/home/ingenarel/Videos/2025-11-15 14-01-03.mp4</property>
  <property name="mlt_service">timewarp</property>
  <property name="kdenlive:control_uuid">{2fbe5784-f19c-44bd-bdf0-b4fbf7d604f1}</property>
  <property name="vstream">0</property>
  <property name="astream">0</property>
  <property name="set.test_audio">1</property>
  <property name="set.test_image">0</property>
  <property name="kdenlive:id">33</property>
  <property name="warp_pitch">0</property>
  <property name="meta.media.frame_rate_num">30</property>
  <property name="meta.media.frame_rate_den">1</property>
  <property name="meta.media.colorspace">709</property>
  <property name="meta.media.color_trc">1</property>
  <property name="meta.media.has_b_frames">2</property>
  <property name="meta.media.width">1440</property>
  <property name="meta.media.height">900</property>
  <property name="meta.media.aspect_ratio">1</property>
  <property name="meta.media.color_range">mpeg</property>
  <property name="meta.media.top_field_first">0</property>
  <property name="meta.media.progressive">1</property>
 </producer>
 <producer id="producer32" in="00:00:00.000" out="00:00:15.500">
  <property name="length">932</property>
  <property name="eof">pause</property>
  <property name="resource">29.809600:/home/ingenarel/Videos/2025-11-15 14-06-34.mp4</property>
  <property name="aspect_ratio">1</property>
  <property name="meta.media.nb_streams">2</property>
  <property name="meta.media.0.stream.type">video</property>
  <property name="meta.media.0.stream.frame_rate">30</property>
  <property name="meta.media.0.stream.sample_aspect_ratio">0</property>
  <property name="meta.media.0.codec.width">1440</property>
  <property name="meta.media.0.codec.height">900</property>
  <property name="meta.media.0.codec.rotate">0</property>
  <property name="meta.media.0.codec.pix_fmt">yuv420p</property>
  <property name="meta.media.0.codec.sample_aspect_ratio">1</property>
  <property name="meta.media.0.codec.colorspace">709</property>
  <property name="meta.media.0.codec.color_trc">1</property>
  <property name="meta.media.0.codec.name">h264</property>
  <property name="meta.media.0.codec.long_name">H.264 / AVC / MPEG-4 AVC / MPEG-4 part 10</property>
  <property name="meta.media.0.codec.bit_rate">1408694</property>
  <property name="meta.attr.0.stream.handler_name.markup">VideoHandler</property>
  <property name="meta.attr.0.stream.vendor_id.markup">[0][0][0][0]</property>
  <property name="meta.media.1.stream.type">audio</property>
  <property name="meta.media.1.codec.sample_fmt">fltp</property>
  <property name="meta.media.1.codec.sample_rate">48000</property>
  <property name="meta.media.1.codec.channels">2</property>
  <property name="meta.media.1.codec.layout">stereo</property>
  <property name="meta.media.1.codec.name">aac</property>
  <property name="meta.media.1.codec.long_name">AAC (Advanced Audio Coding)</property>
  <property name="meta.media.1.codec.bit_rate">159999</property>
  <property name="meta.attr.1.stream.handler_name.markup">SoundHandler</property>
  <property name="meta.attr.1.stream.vendor_id.markup">[0][0][0][0]</property>
  <property name="meta.attr.major_brand.markup">isom</property>
  <property name="meta.attr.minor_version.markup">512</property>
  <property name="meta.attr.compatible_brands.markup">isomiso2avc1mp41</property>
  <property name="meta.attr.encoder.markup">Lavf62.3.100</property>
  <property name="seekable">1</property>
  <property name="meta.media.sample_aspect_num">1</property>
  <property name="meta.media.sample_aspect_den">1</property>
  <property name="format">3</property>
  <property name="audio_index">1</property>
  <property name="video_index">0</property>
  <property name="warp_speed">29.8096</property>
  <property name="warp_resource">/home/ingenarel/Videos/2025-11-15 14-06-34.mp4</property>
  <property name="mlt_service">timewarp</property>
  <property name="kdenlive:control_uuid">{affad997-7532-4e9a-b470-c7870b274296}</property>
  <property name="vstream">0</property>
  <property name="astream">0</property>
  <property name="set.test_audio">1</property>
  <property name="set.test_image">0</property>
  <property name="kdenlive:id">34</property>
  <property name="warp_pitch">0</property>
  <property name="meta.media.frame_rate_num">30</property>
  <property name="meta.media.frame_rate_den">1</property>
  <property name="meta.media.colorspace">709</property>
  <property name="meta.media.color_trc">1</property>
  <property name="meta.media.has_b_frames">2</property>
  <property name="meta.media.width">1440</property>
  <property name="meta.media.height">900</property>
  <property name="meta.media.aspect_ratio">1</property>
  <property name="meta.media.color_range">mpeg</property>
  <property name="meta.media.top_field_first">0</property>
  <property name="meta.media.progressive">1</property>
 </producer>
 <producer id="producer87" in="00:00:00.000" out="00:00:06.000">
  <property name="length">361</property>
  <property name="eof">pause</property>
  <property name="resource">images/check-afp-bangladesh-students-protest-teachers-sacking-for-anti-trans-speech-65b098123d886_600.webp</property>
  <property name="ttl">25</property>
  <property name="aspect_ratio">1</property>
  <property name="meta.media.progressive">1</property>
  <property name="seekable">1</property>
  <property name="format">1</property>
  <property name="meta.media.width">1100</property>
  <property name="meta.media.height">740</property>
  <property name="mlt_service">qimage</property>
  <property name="kdenlive:duration">00:00:05:00</property>
  <property name="xml">was here</property>
  <property name="kdenlive:folderid">-1</property>
  <property name="kdenlive:id">89</property>
  <property name="kdenlive:control_uuid">{1149415d-7ae2-4b1c-9e22-f28c7bceba57}</property>
  <property name="kdenlive:clip_type">2</property>
  <property name="kdenlive:file_size">57386</property>
  <property name="kdenlive:file_hash">32e055b3c6498cb3997a33b6df3dba93</property>
  <property name="kdenlive:kextractor">1</property>
  <property name="kdenlive:monitorPosition">206</property>
 </producer>
 <producer id="producer88" in="00:00:00.000" out="00:00:04.983">
  <property name="length">00:00:05.000</property>
  <property name="eof">pause</property>
  <property name="resource">images/nazi-salute-nazi-flag-alongside-islamic-kalima-flag-were-v0-soryhneijfte1.webp</property>
  <property name="ttl">25</property>
  <property name="aspect_ratio">1</property>
  <property name="meta.media.progressive">1</property>
  <property name="seekable">1</property>
  <property name="format">1</property>
  <property name="meta.media.width">1080</property>
  <property name="meta.media.height">810</property>
  <property name="mlt_service">qimage</property>
  <property name="kdenlive:duration">00:00:05:00</property>
  <property name="xml">was here</property>
  <property name="kdenlive:folderid">-1</property>
  <property name="kdenlive:id">90</property>
  <property name="kdenlive:control_uuid">{fb601389-64f2-4f45-a2a2-ff0e67517854}</property>
  <property name="kdenlive:clip_type">2</property>
  <property name="kdenlive:file_size">81298</property>
  <property name="kdenlive:file_hash">d59bacc9db426053b8fa22ae9b501cef</property>
  <property name="kdenlive:kextractor">1</property>
  <property name="kdenlive:monitorPosition">53</property>
 </producer>
 <producer id="producer89" in="00:00:00.000" out="00:00:04.983">
  <property name="length">00:00:05.000</property>
  <property name="eof">pause</property>
  <property name="resource">images/maxresdefault-1470483550.jpg</property>
  <property name="ttl">25</property>
  <property name="aspect_ratio">1</property>
  <property name="meta.media.progressive">1</property>
  <property name="seekable">1</property>
  <property name="format">1</property>
  <property name="meta.media.width">1280</property>
  <property name="meta.media.height">720</property>
  <property name="mlt_service">qimage</property>
  <property name="kdenlive:duration">00:00:05:00</property>
  <property name="xml">was here</property>
  <property name="kdenlive:folderid">-1</property>
  <property name="kdenlive:id">92</property>
  <property name="kdenlive:control_uuid">{9097fcee-c0f5-498d-b97b-ed8e12b8a8e8}</property>
  <property name="kdenlive:clip_type">2</property>
  <property name="kdenlive:file_size">199205</property>
  <property name="kdenlive:file_hash">60b10e9c8c22315a2645d6f91cb71bd3</property>
  <property name="kdenlive:kextractor">1</property>
  <property name="kdenlive:monitorPosition">52</property>
 </producer>
 <producer id="producer90" in="00:00:00.000" out="00:00:04.983">
  <property name="length">00:00:05.000</property>
  <property name="eof">pause</property>
  <property name="resource">images/Ilish_Bhaat.jpg</property>
  <property name="ttl">25</property>
  <property name="aspect_ratio">1</property>
  <property name="meta.media.progressive">1</property>
  <property name="seekable">1</property>
  <property name="format">1</property>
  <property name="meta.media.width">800</property>
  <property name="meta.media.height">1000</property>
  <property name="mlt_service">qimage</property>
  <property name="kdenlive:duration">00:00:05:00</property>
  <property name="xml">was here</property>
  <property name="kdenlive:folderid">-1</property>
  <property name="kdenlive:id">93</property>
  <property name="kdenlive:control_uuid">{9d6fd0ed-3598-423e-89f7-1e9889e253a8}</property>
  <property name="kdenlive:clip_type">2</property>
  <property name="kdenlive:file_size">339144</property>
  <property name="kdenlive:file_hash">9f0d69131ecf8a5342f07608005b2c4e</property>
  <property name="kdenlive:kextractor">1</property>
  <property name="kdenlive:meta.extractor.Artist">Sohel Imran</property>
  <property name="kdenlive:meta.extractor.Copyright">Sohel Imran 2021</property>
  <property name="kdenlive:monitorPosition">7</property>
 </producer>
 <producer id="producer91" in="00:00:00.000" out="00:00:04.983">
  <property name="length">00:00:05.000</property>
  <property name="eof">pause</property>
  <property name="resource">images/maxresdefault-2207466778.jpg</property>
  <property name="ttl">25</property>
  <property name="aspect_ratio">1</property>
  <property name="meta.media.progressive">1</property>
  <property name="seekable">1</property>
  <property name="format">1</property>
  <property name="meta.media.width">1280</property>
  <property name="meta.media.height">720</property>
  <property name="mlt_service">qimage</property>
  <property name="kdenlive:duration">00:00:05:00</property>
  <property name="xml">was here</property>
  <property name="kdenlive:folderid">-1</property>
  <property name="kdenlive:id">94</property>
  <property name="kdenlive:control_uuid">{4b837a7b-3780-42a6-a061-5e97700b6239}</property>
  <property name="kdenlive:clip_type">2</property>
  <property name="kdenlive:file_size">107452</property>
  <property name="kdenlive:file_hash">27781efc6cb85c0c5d4baed8ec320c0f</property>
  <property name="kdenlive:kextractor">1</property>
  <property name="kdenlive:monitorPosition">53</property>
 </producer>
 <producer id="producer92" in="00:00:00.000" out="00:00:04.983">
  <property name="length">00:00:05.000</property>
  <property name="eof">pause</property>
  <property name="resource">images/960px-Bhapa_Pitha.jpg</property>
  <property name="ttl">25</property>
  <property name="aspect_ratio">1</property>
  <property name="meta.media.progressive">1</property>
  <property name="seekable">1</property>
  <property name="format">1</property>
  <property name="meta.media.width">960</property>
  <property name="meta.media.height">720</property>
  <property name="mlt_service">qimage</property>
  <property name="kdenlive:duration">00:00:05:00</property>
  <property name="xml">was here</property>
  <property name="kdenlive:folderid">-1</property>
  <property name="kdenlive:id">95</property>
  <property name="kdenlive:control_uuid">{a92fe9ae-fd68-477d-bbbe-03a99089fc20}</property>
  <property name="kdenlive:clip_type">2</property>
  <property name="kdenlive:file_size">142445</property>
  <property name="kdenlive:file_hash">2ee2a4e152ba9fee80ba2928beadeade</property>
  <property name="kdenlive:kextractor">1</property>
  <property name="kdenlive:monitorPosition">56</property>
 </producer>
 <producer id="producer93" in="00:00:00.000" out="00:00:04.983">
  <property name="length">00:00:05.000</property>
  <property name="eof">pause</property>
  <property name="resource">images/Nokshi_pitha01_04.jpg</property>
  <property name="ttl">25</property>
  <property name="aspect_ratio">1</property>
  <property name="meta.media.progressive">1</property>
  <property name="seekable">1</property>
  <property name="format">1</property>
  <property name="meta.media.width">960</property>
  <property name="meta.media.height">838</property>
  <property name="mlt_service">qimage</property>
  <property name="kdenlive:duration">00:00:05:00</property>
  <property name="xml">was here</property>
  <property name="kdenlive:folderid">-1</property>
  <property name="kdenlive:id">96</property>
  <property name="kdenlive:control_uuid">{fab1aaad-d645-4e62-a747-2237011976bb}</property>
  <property name="kdenlive:clip_type">2</property>
  <property name="kdenlive:file_size">319747</property>
  <property name="kdenlive:file_hash">59076ebe0eb814c1dd97f34a9bdd72db</property>
  <property name="kdenlive:kextractor">1</property>
  <property name="kdenlive:monitorPosition">51</property>
 </producer>
 <producer id="producer94" in="00:00:00.000" out="00:00:04.983">
  <property name="length">00:00:05.000</property>
  <property name="eof">pause</property>
  <property name="resource">images/A_Glass_of_Borhani.jpg</property>
  <property name="ttl">25</property>
  <property name="aspect_ratio">1</property>
  <property name="meta.media.progressive">1</property>
  <property name="seekable">1</property>
  <property name="format">1</property>
  <property name="meta.media.width">1280</property>
  <property name="meta.media.height">960</property>
  <property name="mlt_service">qimage</property>
  <property name="kdenlive:duration">00:00:05:00</property>
  <property name="xml">was here</property>
  <property name="kdenlive:folderid">-1</property>
  <property name="kdenlive:id">97</property>
  <property name="kdenlive:control_uuid">{ae044dab-1ecf-4eb9-bdcc-80b5b2837c66}</property>
  <property name="kdenlive:clip_type">2</property>
  <property name="kdenlive:file_size">199924</property>
  <property name="kdenlive:file_hash">7e33fd35878efb8fd8cab7b21fcd7c72</property>
  <property name="kdenlive:kextractor">1</property>
  <property name="kdenlive:monitorPosition">54</property>
 </producer>
 <producer id="producer95" in="00:00:00.000" out="00:00:04.983">
  <property name="length">00:00:05.000</property>
  <property name="eof">pause</property>
  <property name="resource">images/Bangladeshi_style_Shahi_Haleem.jpg</property>
  <property name="ttl">25</property>
  <property name="aspect_ratio">1</property>
  <property name="meta.media.progressive">1</property>
  <property name="seekable">1</property>
  <property name="format">1</property>
  <property name="meta.media.width">1024</property>
  <property name="meta.media.height">817</property>
  <property name="mlt_service">qimage</property>
  <property name="kdenlive:duration">00:00:05:00</property>
  <property name="xml">was here</property>
  <property name="kdenlive:folderid">-1</property>
  <property name="kdenlive:id">98</property>
  <property name="kdenlive:control_uuid">{469acbec-fa03-49a1-adee-5a59836e9725}</property>
  <property name="kdenlive:clip_type">2</property>
  <property name="kdenlive:file_size">285359</property>
  <property name="kdenlive:file_hash">306c8a6793cc00d9ad0cc2d70694196e</property>
  <property name="kdenlive:kextractor">1</property>
  <property name="kdenlive:monitorPosition">58</property>
 </producer>
 <producer id="producer96" in="00:00:00.000" out="00:00:06.633">
  <property name="length">399</property>
  <property name="eof">pause</property>
  <property name="resource"/>
  <property name="meta.media.progressive">1</property>
  <property name="aspect_ratio">1</property>
  <property name="seekable">1</property>
  <property name="mlt_service">kdenlivetitle</property>
  <property name="kdenlive:duration">00:00:05:00</property>
  <property name="kdenlive:clipname">There are pe...</property>
  <property name="xmldata">&lt;kdenlivetitle LC_NUMERIC="C" duration="300" height="1080" out="299" width="1920">
 &lt;item type="QGraphicsTextItem" z-index="0">
  &lt;position x="272.813" y="126">
   &lt;transform>1,0,0,0,1,0,0,0,1&lt;/transform>
  &lt;/position>
  &lt;content alignment="4" box-height="790" box-width="1402.5" font="Noto Sans" font-color="255,255,255,255" font-italic="0" font-outline="0" font-outline-color="0,0,0,255" font-pixel-size="58" font-underline="0" font-weight="400" letter-spacing="0" line-spacing="0" shadow="0;#64000000;3;3;3" tab-width="80" typewriter="0;2;1;0;0">There are people with progressive values
mostly the younger generation that have
a bit of common sense.
I have met a lot of kids over the years who were
extremely anti-lgbtq but then turned to an ally
after a few years when they had reach maturity and
realized that we're just people :3

The older generations sucks and won't ever
pull their head out of their ass&lt;/content>
 &lt;/item>
 &lt;startviewport rect="0,0,1920,1080"/>
 &lt;endviewport rect="0,0,1920,1080"/>
 &lt;background color="0,0,0,0"/>
&lt;/kdenlivetitle>
</property>
  <property name="xml">was here</property>
  <property name="kdenlive:folderid">-1</property>
  <property name="kdenlive:id">99</property>
  <property name="kdenlive:control_uuid">{c9f5d20f-5da8-4a2d-9c26-f4991fc50a7a}</property>
  <property name="kdenlive:clip_type">2</property>
  <property name="kdenlive:uniqueId">{d48d22c3-1afb-45c9-aaad-44dcff7035b2}</property>
  <property name="kdenlive:file_hash">92eefcea9b84162c7768ed5b5e4c4488</property>
  <property name="force_reload">0</property>
  <property name="meta.media.width">1920</property>
  <property name="meta.media.height">1080</property>
  <property name="kdenlive:monitorPosition">0</property>
 </producer>
 <producer id="producer97" in="00:00:00.000" out="00:00:17.383">
  <property name="length">1044</property>
  <property name="eof">pause</property>
  <property name="resource">Pictures/2025-11-15_18-11-1763211110.png</property>
  <property name="ttl">25</property>
  <property name="aspect_ratio">1</property>
  <property name="meta.media.progressive">1</property>
  <property name="seekable">1</property>
  <property name="format">2</property>
  <property name="meta.media.width">601</property>
  <property name="meta.media.height">133</property>
  <property name="mlt_service">qimage</property>
  <property name="kdenlive:duration">00:00:05:00</property>
  <property name="xml">was here</property>
  <property name="kdenlive:folderid">-1</property>
  <property name="kdenlive:id">100</property>
  <property name="kdenlive:control_uuid">{26422375-ea38-49d8-8645-a220e58f9203}</property>
  <property name="kdenlive:clip_type">2</property>
  <property name="kdenlive:file_size">75587</property>
  <property name="kdenlive:file_hash">92833a894d8e4a365e9a6e11edb354ba</property>
  <property name="kdenlive:kextractor">1</property>
  <property name="kdenlive:monitorPosition">0</property>
 </producer>
 <producer id="producer98" in="00:00:00.000" out="00:00:08.333">
  <property name="length">501</property>
  <property name="eof">pause</property>
  <property name="resource">Pictures/2025-11-15_18-11-1763211181.png</property>
  <property name="ttl">25</property>
  <property name="aspect_ratio">1</property>
  <property name="meta.media.progressive">1</property>
  <property name="seekable">1</property>
  <property name="format">2</property>
  <property name="meta.media.width">436</property>
  <property name="meta.media.height">345</property>
  <property name="mlt_service">qimage</property>
  <property name="kdenlive:duration">00:00:05:00</property>
  <property name="xml">was here</property>
  <property name="kdenlive:folderid">-1</property>
  <property name="kdenlive:id">101</property>
  <property name="kdenlive:control_uuid">{01229188-1798-46ff-b273-c31cdc45b2f0}</property>
  <property name="kdenlive:clip_type">2</property>
  <property name="kdenlive:file_size">137687</property>
  <property name="kdenlive:file_hash">e0eebbc913ad5da0bf554f745eaf1ba2</property>
  <property name="kdenlive:kextractor">1</property>
  <property name="kdenlive:monitorPosition">0</property>
 </producer>
 <producer id="producer99" in="00:00:00.000" out="00:00:11.550">
  <property name="length">694</property>
  <property name="eof">pause</property>
  <property name="resource">Pictures/2025-11-15_18-11-1763211260.ppm</property>
  <property name="ttl">25</property>
  <property name="aspect_ratio">1</property>
  <property name="meta.media.progressive">1</property>
  <property name="seekable">1</property>
  <property name="format">1</property>
  <property name="meta.media.width">1440</property>
  <property name="meta.media.height">900</property>
  <property name="mlt_service">qimage</property>
  <property name="kdenlive:duration">00:00:05:00</property>
  <property name="xml">was here</property>
  <property name="kdenlive:folderid">-1</property>
  <property name="kdenlive:id">102</property>
  <property name="kdenlive:control_uuid">{12208fe3-2dae-4c5f-9d10-16311e6dca8c}</property>
  <property name="kdenlive:clip_type">2</property>
  <property name="kdenlive:file_size">3888016</property>
  <property name="kdenlive:file_hash">2bdae0ad43ca23849e7f383eb53ef6eb</property>
  <property name="kdenlive:kextractor">1</property>
  <property name="kdenlive:monitorPosition">0</property>
 </producer>
 <producer id="producer100" in="00:00:00.000" out="00:00:17.317">
  <property name="length">1040</property>
  <property name="eof">pause</property>
  <property name="resource">Pictures/2025-11-15_18-11-1763211287.png</property>
  <property name="ttl">25</property>
  <property name="aspect_ratio">1</property>
  <property name="meta.media.progressive">1</property>
  <property name="seekable">1</property>
  <property name="format">2</property>
  <property name="meta.media.width">480</property>
  <property name="meta.media.height">111</property>
  <property name="mlt_service">qimage</property>
  <property name="kdenlive:duration">00:00:05:00</property>
  <property name="xml">was here</property>
  <property name="kdenlive:folderid">-1</property>
  <property name="kdenlive:id">103</property>
  <property name="kdenlive:control_uuid">{e9fc25c1-27ec-42f4-889c-ed94a373bb0f}</property>
  <property name="kdenlive:clip_type">2</property>
  <property name="kdenlive:file_size">50094</property>
  <property name="kdenlive:file_hash">a7ec74c967885549f5d125806572ed72</property>
  <property name="kdenlive:kextractor">1</property>
  <property name="kdenlive:monitorPosition">0</property>
 </producer>
 <producer id="producer101" in="00:00:00.000" out="00:00:52.333">
  <property name="length">3141</property>
  <property name="eof">pause</property>
  <property name="resource">Pictures/2025-11-15_18-11-1763211326.png</property>
  <property name="ttl">25</property>
  <property name="aspect_ratio">1</property>
  <property name="meta.media.progressive">1</property>
  <property name="seekable">1</property>
  <property name="format">2</property>
  <property name="meta.media.width">518</property>
  <property name="meta.media.height">175</property>
  <property name="mlt_service">qimage</property>
  <property name="kdenlive:duration">00:00:05:00</property>
  <property name="xml">was here</property>
  <property name="kdenlive:folderid">-1</property>
  <property name="kdenlive:id">104</property>
  <property name="kdenlive:control_uuid">{17109eea-1e84-413d-bf01-44cd1f7ba4b6}</property>
  <property name="kdenlive:clip_type">2</property>
  <property name="kdenlive:file_size">83698</property>
  <property name="kdenlive:file_hash">7f32076b0eca6ff33df6eabf9313f805</property>
  <property name="kdenlive:kextractor">1</property>
  <property name="kdenlive:monitorPosition">0</property>
 </producer>
 <producer id="producer102" in="00:00:00.000" out="00:00:04.983">
  <property name="length">00:00:05.000</property>
  <property name="eof">pause</property>
  <property name="resource">images/506126-895945215.jpg</property>
  <property name="ttl">25</property>
  <property name="aspect_ratio">1</property>
  <property name="meta.media.progressive">1</property>
  <property name="seekable">1</property>
  <property name="format">1</property>
  <property name="meta.media.width">1920</property>
  <property name="meta.media.height">1080</property>
  <property name="mlt_service">qimage</property>
  <property name="kdenlive:duration">00:00:05:00</property>
  <property name="xml">was here</property>
  <property name="kdenlive:folderid">-1</property>
  <property name="kdenlive:id">105</property>
  <property name="kdenlive:control_uuid">{68d026a2-e70f-4f5e-a96d-8fc9a2364a87}</property>
  <property name="kdenlive:clip_type">2</property>
  <property name="kdenlive:file_size">402148</property>
  <property name="kdenlive:file_hash">f2c758c005ebb2be484eb1e5a0c58211</property>
  <property name="kdenlive:kextractor">1</property>
  <property name="kdenlive:monitorPosition">0</property>
 </producer>
 <producer id="producer103" in="00:00:00.000" out="00:00:04.983">
  <property name="length">00:00:05.000</property>
  <property name="eof">pause</property>
  <property name="resource">Pictures/2025-11-15_18-11-1763211528.ppm</property>
  <property name="ttl">25</property>
  <property name="aspect_ratio">1</property>
  <property name="meta.media.progressive">1</property>
  <property name="seekable">1</property>
  <property name="format">1</property>
  <property name="meta.media.width">1440</property>
  <property name="meta.media.height">900</property>
  <property name="mlt_service">qimage</property>
  <property name="kdenlive:duration">00:00:05:00</property>
  <property name="xml">was here</property>
  <property name="kdenlive:folderid">-1</property>
  <property name="kdenlive:id">106</property>
  <property name="kdenlive:control_uuid">{b36fcaea-42a4-4595-9b5f-4fdf343e90d7}</property>
  <property name="kdenlive:clip_type">2</property>
  <property name="kdenlive:file_size">3888016</property>
  <property name="kdenlive:file_hash">02da5ec6e54608c27fccade15d9c55af</property>
  <property name="kdenlive:kextractor">1</property>
  <property name="kdenlive:monitorPosition">0</property>
 </producer>
 <producer id="producer104" in="00:00:00.000" out="00:00:12.067">
  <property name="length">725</property>
  <property name="eof">pause</property>
  <property name="resource">Pictures/2025-11-15_18-11-1763211564.png</property>
  <property name="ttl">25</property>
  <property name="aspect_ratio">1</property>
  <property name="meta.media.progressive">1</property>
  <property name="seekable">1</property>
  <property name="format">2</property>
  <property name="meta.media.width">523</property>
  <property name="meta.media.height">120</property>
  <property name="mlt_service">qimage</property>
  <property name="kdenlive:duration">00:00:05:00</property>
  <property name="xml">was here</property>
  <property name="kdenlive:folderid">-1</property>
  <property name="kdenlive:id">107</property>
  <property name="kdenlive:control_uuid">{6ac90dc0-f1e2-4d50-a4e2-103bcc84b70b}</property>
  <property name="kdenlive:clip_type">2</property>
  <property name="kdenlive:file_size">58052</property>
  <property name="kdenlive:file_hash">94896248271d728f1fa1bc3d631df8cb</property>
  <property name="kdenlive:kextractor">1</property>
  <property name="kdenlive:monitorPosition">0</property>
 </producer>
 <producer id="producer105" in="00:00:00.000" out="00:02:24.117">
  <property name="length">8648</property>
  <property name="eof">pause</property>
  <property name="resource">Pictures/2025-11-15_18-11-1763211597.png</property>
  <property name="ttl">25</property>
  <property name="aspect_ratio">1</property>
  <property name="meta.media.progressive">1</property>
  <property name="seekable">1</property>
  <property name="format">2</property>
  <property name="meta.media.width">957</property>
  <property name="meta.media.height">427</property>
  <property name="mlt_service">qimage</property>
  <property name="kdenlive:duration">00:00:05:00</property>
  <property name="xml">was here</property>
  <property name="kdenlive:folderid">-1</property>
  <property name="kdenlive:id">108</property>
  <property name="kdenlive:control_uuid">{ed23f726-9776-40f5-b9a9-9e0b0b2e7b54}</property>
  <property name="kdenlive:clip_type">2</property>
  <property name="kdenlive:file_size">354753</property>
  <property name="kdenlive:file_hash">5cf1c4f35725e60c993c6750f563f990</property>
  <property name="kdenlive:kextractor">1</property>
  <property name="kdenlive:monitorPosition">0</property>
 </producer>
 <producer id="producer106" in="00:00:00.000" out="00:01:02.550">
  <property name="length">3754</property>
  <property name="eof">pause</property>
  <property name="resource">Pictures/2025-11-15_19-11-1763211776.png</property>
  <property name="ttl">25</property>
  <property name="aspect_ratio">1</property>
  <property name="meta.media.progressive">1</property>
  <property name="seekable">1</property>
  <property name="format">2</property>
  <property name="meta.media.width">460</property>
  <property name="meta.media.height">123</property>
  <property name="mlt_service">qimage</property>
  <property name="kdenlive:duration">00:00:05:00</property>
  <property name="xml">was here</property>
  <property name="kdenlive:folderid">-1</property>
  <property name="kdenlive:id">109</property>
  <property name="kdenlive:control_uuid">{a2aa8706-3dec-43a0-8cce-0313b5860b72}</property>
  <property name="kdenlive:clip_type">2</property>
  <property name="kdenlive:file_size">53984</property>
  <property name="kdenlive:file_hash">e150a1e49391ec4c198c31282177bd10</property>
  <property name="kdenlive:kextractor">1</property>
  <property name="kdenlive:monitorPosition">0</property>
 </producer>
 <producer id="producer107" in="00:00:00.000" out="00:00:13.083">
  <property name="length">786</property>
  <property name="eof">pause</property>
  <property name="resource">Pictures/2025-11-15_19-11-1763211843.png</property>
  <property name="ttl">25</property>
  <property name="aspect_ratio">1</property>
  <property name="meta.media.progressive">1</property>
  <property name="seekable">1</property>
  <property name="format">2</property>
  <property name="meta.media.width">515</property>
  <property name="meta.media.height">112</property>
  <property name="mlt_service">qimage</property>
  <property name="kdenlive:duration">00:00:05:00</property>
  <property name="xml">was here</property>
  <property name="kdenlive:folderid">-1</property>
  <property name="kdenlive:id">110</property>
  <property name="kdenlive:control_uuid">{cd61c93a-a739-46e9-8e11-841f1fbfa2ab}</property>
  <property name="kdenlive:clip_type">2</property>
  <property name="kdenlive:file_size">50867</property>
  <property name="kdenlive:file_hash">ff0fb0fc3cdda73336fe88c4934d4374</property>
  <property name="kdenlive:kextractor">1</property>
  <property name="kdenlive:monitorPosition">0</property>
 </producer>
 <producer id="producer108" in="00:00:00.000" out="00:00:32.867">
  <property name="length">1973</property>
  <property name="eof">pause</property>
  <property name="resource">Pictures/2025-11-15_19-11-1763211880.png</property>
  <property name="ttl">25</property>
  <property name="aspect_ratio">1</property>
  <property name="meta.media.progressive">1</property>
  <property name="seekable">1</property>
  <property name="format">2</property>
  <property name="meta.media.width">546</property>
  <property name="meta.media.height">411</property>
  <property name="mlt_service">qimage</property>
  <property name="kdenlive:duration">00:00:05:00</property>
  <property name="xml">was here</property>
  <property name="kdenlive:folderid">-1</property>
  <property name="kdenlive:id">111</property>
  <property name="kdenlive:control_uuid">{4e21b32e-f53b-453c-b0b4-39c1bc541f2e}</property>
  <property name="kdenlive:clip_type">2</property>
  <property name="kdenlive:file_size">192937</property>
  <property name="kdenlive:file_hash">c5b83a0a845bdefc2ac788e53f5b93cb</property>
  <property name="kdenlive:kextractor">1</property>
  <property name="kdenlive:monitorPosition">0</property>
 </producer>
 <producer id="producer109" in="00:00:00.000" out="00:00:27.367">
  <property name="length">1643</property>
  <property name="eof">pause</property>
  <property name="resource">Pictures/2025-11-15_19-11-1763211936.png</property>
  <property name="ttl">25</property>
  <property name="aspect_ratio">1</property>
  <property name="meta.media.progressive">1</property>
  <property name="seekable">1</property>
  <property name="format">2</property>
  <property name="meta.media.width">615</property>
  <property name="meta.media.height">123</property>
  <property name="mlt_service">qimage</property>
  <property name="kdenlive:duration">00:00:05:00</property>
  <property name="xml">was here</property>
  <property name="kdenlive:folderid">-1</property>
  <property name="kdenlive:id">112</property>
  <property name="kdenlive:control_uuid">{6493b5a4-9693-471e-a057-bb9329b8eae2}</property>
  <property name="kdenlive:clip_type">2</property>
  <property name="kdenlive:file_size">73187</property>
  <property name="kdenlive:file_hash">15434935713d2831928b5ddc72e68308</property>
  <property name="kdenlive:kextractor">1</property>
 </producer>
 <playlist id="playlist10">
  <entry in="00:00:00.000" out="00:00:09.400" producer="producer1">
   <property name="kdenlive:id">5</property>
  </entry>
  <entry in="00:00:00.000" out="00:00:23.800" producer="producer2">
   <property name="kdenlive:id">6</property>
  </entry>
  <blank length="00:00:10.883"/>
  <entry in="00:00:00.000" out="00:00:10.683" producer="producer3">
   <property name="kdenlive:id">7</property>
  </entry>
  <entry in="00:00:00.000" out="00:00:04.633" producer="producer4">
   <property name="kdenlive:id">12</property>
  </entry>
  <entry in="00:00:00.000" out="00:00:05.767" producer="producer5">
   <property name="kdenlive:id">13</property>
  </entry>
  <entry in="00:00:00.000" out="00:00:05.367" producer="producer6">
   <property name="kdenlive:id">14</property>
  </entry>
  <entry in="00:00:00.000" out="00:00:06.200" producer="producer7">
   <property name="kdenlive:id">15</property>
  </entry>
  <entry in="00:00:04.683" out="00:00:10.367" producer="producer8">
   <property name="kdenlive:id">12</property>
  </entry>
  <entry in="00:00:05.800" out="00:00:13.767" producer="producer9">
   <property name="kdenlive:id">13</property>
  </entry>
  <entry in="00:00:00.000" out="00:00:04.433" producer="producer10">
   <property name="kdenlive:id">17</property>
  </entry>
  <entry in="00:00:00.000" out="00:00:03.917" producer="producer11">
   <property name="kdenlive:id">18</property>
  </entry>
  <entry in="00:00:00.000" out="00:00:04.967" producer="producer12">
   <property name="kdenlive:id">19</property>
  </entry>
  <entry in="00:06:45.083" out="00:06:51.433" producer="producer13">
   <property name="kdenlive:id">21</property>
  </entry>
  <entry in="00:00:00.000" out="00:00:04.967" producer="producer14">
   <property name="kdenlive:id">20</property>
  </entry>
  <blank length="00:00:10.000"/>
  <entry in="00:00:00.000" out="00:01:02.367" producer="producer15">
   <property name="kdenlive:id">11</property>
  </entry>
  <entry in="00:00:00.000" out="00:00:38.367" producer="producer20">
   <property name="kdenlive:id">24</property>
  </entry>
  <entry in="00:00:00.000" out="00:02:43.233" producer="producer21">
   <property name="kdenlive:id">25</property>
  </entry>
  <entry in="00:00:00.000" out="00:00:09.683" producer="producer27">
   <property name="kdenlive:id">31</property>
  </entry>
  <entry in="00:00:00.717" out="00:00:08.400" producer="producer28">
   <property name="kdenlive:id">32</property>
  </entry>
  <entry in="00:00:00.317" out="00:00:08.517" producer="producer29">
   <property name="kdenlive:id">33</property>
  </entry>
  <entry in="00:00:00.033" out="00:00:15.500" producer="producer32">
   <property name="kdenlive:id">34</property>
  </entry>
  <entry in="00:00:00.000" out="00:00:20.300" producer="producer21">
   <property name="kdenlive:id">25</property>
  </entry>
  <entry in="00:00:00.000" out="00:00:04.633" producer="producer33">
   <property name="kdenlive:id">36</property>
  </entry>
  <entry in="00:00:00.000" out="00:00:38.700" producer="producer21">
   <property name="kdenlive:id">25</property>
  </entry>
  <entry in="00:00:00.000" out="00:00:04.983" producer="producer34">
   <property name="kdenlive:id">37</property>
  </entry>
  <entry in="00:00:00.000" out="00:00:17.383" producer="producer21">
   <property name="kdenlive:id">25</property>
  </entry>
  <entry in="00:00:00.000" out="00:00:02.133" producer="producer35">
   <property name="kdenlive:id">38</property>
  </entry>
  <entry in="00:00:00.000" out="00:00:01.900" producer="producer36">
   <property name="kdenlive:id">39</property>
  </entry>
  <entry in="00:00:00.000" out="00:00:26.617" producer="producer21">
   <property name="kdenlive:id">25</property>
  </entry>
  <entry in="00:00:00.000" out="00:00:07.850" producer="producer37">
   <property name="kdenlive:id">40</property>
  </entry>
  <entry in="00:00:00.000" out="00:02:49.617" producer="producer21">
   <property name="kdenlive:id">25</property>
  </entry>
  <entry in="00:00:00.000" out="00:01:27.483" producer="producer38">
   <property name="kdenlive:id">41</property>
  </entry>
  <entry in="00:00:00.000" out="00:00:09.650" producer="producer39">
   <property name="kdenlive:id">43</property>
  </entry>
  <entry in="00:00:00.000" out="00:00:06.000" producer="producer40">
   <property name="kdenlive:id">44</property>
  </entry>
  <entry in="00:00:00.000" out="00:01:20.633" producer="producer39">
   <property name="kdenlive:id">43</property>
  </entry>
  <entry in="00:00:00.000" out="00:00:39.833" producer="producer41">
   <property name="kdenlive:id">45</property>
  </entry>
  <entry in="00:00:00.000" out="00:00:22.133" producer="producer42">
   <property name="kdenlive:id">46</property>
  </entry>
  <entry in="00:00:00.000" out="00:03:42.133" producer="producer43">
   <property name="kdenlive:id">47</property>
  </entry>
  <entry in="00:00:00.000" out="00:00:09.017" producer="producer44">
   <property name="kdenlive:id">48</property>
  </entry>
  <entry in="00:00:00.000" out="00:00:06.100" producer="producer45">
   <property name="kdenlive:id">49</property>
  </entry>
  <entry in="00:00:00.000" out="00:00:04.717" producer="producer46">
   <property name="kdenlive:id">51</property>
  </entry>
  <entry in="00:00:00.000" out="00:01:36.967" producer="producer44">
   <property name="kdenlive:id">48</property>
  </entry>
  <entry in="00:00:00.000" out="00:00:39.717" producer="producer47">
   <property name="kdenlive:id">52</property>
  </entry>
  <entry in="00:00:00.000" out="00:00:25.100" producer="producer48">
   <property name="kdenlive:id">53</property>
  </entry>
  <entry in="00:00:00.000" out="00:00:10.317" producer="producer49">
   <property name="kdenlive:id">54</property>
  </entry>
  <entry in="00:00:00.000" out="00:00:10.067" producer="producer50">
   <property name="kdenlive:id">55</property>
  </entry>
  <entry in="00:00:00.000" out="00:00:01.867" producer="producer51">
   <property name="kdenlive:id">56</property>
  </entry>
  <entry in="00:00:00.000" out="00:00:21.267" producer="producer52">
   <property name="kdenlive:id">57</property>
  </entry>
  <entry in="00:00:00.000" out="00:00:01.333" producer="producer53">
   <property name="kdenlive:id">58</property>
  </entry>
  <entry in="00:00:00.000" out="00:00:01.117" producer="producer54">
   <property name="kdenlive:id">59</property>
  </entry>
  <entry in="00:00:00.000" out="00:00:01.500" producer="producer55">
   <property name="kdenlive:id">60</property>
  </entry>
  <entry in="00:00:00.000" out="00:00:00.983" producer="producer56">
   <property name="kdenlive:id">61</property>
  </entry>
  <entry in="00:00:00.000" out="00:00:02.117" producer="producer57">
   <property name="kdenlive:id">62</property>
  </entry>
  <entry in="00:00:00.000" out="00:00:07.217" producer="producer58">
   <property name="kdenlive:id">63</property>
  </entry>
  <entry in="00:00:00.000" out="00:00:02.983" producer="producer59">
   <property name="kdenlive:id">64</property>
  </entry>
  <entry in="00:00:00.000" out="00:00:02.433" producer="producer60">
   <property name="kdenlive:id">65</property>
  </entry>
  <entry in="00:00:00.000" out="00:00:04.983" producer="producer61">
   <property name="kdenlive:id">66</property>
  </entry>
  <entry in="00:00:00.000" out="00:00:08.900" producer="producer62">
   <property name="kdenlive:id">67</property>
  </entry>
  <entry in="00:00:00.000" out="00:00:02.917" producer="producer63">
   <property name="kdenlive:id">68</property>
  </entry>
  <entry in="00:00:00.000" out="00:00:05.233" producer="producer64">
   <property name="kdenlive:id">69</property>
  </entry>
  <entry in="00:00:00.000" out="00:00:01.550" producer="producer65">
   <property name="kdenlive:id">70</property>
  </entry>
  <entry in="00:00:00.000" out="00:00:10.650" producer="producer66">
   <property name="kdenlive:id">71</property>
  </entry>
  <entry in="00:00:00.000" out="00:00:02.167" producer="producer67">
   <property name="kdenlive:id">72</property>
  </entry>
  <entry in="00:00:00.000" out="00:00:03.133" producer="producer68">
   <property name="kdenlive:id">73</property>
  </entry>
  <entry in="00:00:00.000" out="00:00:00.967" producer="producer69">
   <property name="kdenlive:id">74</property>
  </entry>
  <entry in="00:00:00.000" out="00:00:01.817" producer="producer70">
   <property name="kdenlive:id">75</property>
  </entry>
  <entry in="00:00:00.000" out="00:00:04.983" producer="producer71">
   <property name="kdenlive:id">76</property>
  </entry>
  <blank length="00:00:03.100"/>
  <entry in="00:00:00.000" out="00:01:04.883" producer="producer72">
   <property name="kdenlive:id">77</property>
  </entry>
  <entry in="00:00:00.000" out="00:00:12.600" producer="producer73">
   <property name="kdenlive:id">80</property>
  </entry>
  <entry in="00:00:00.000" out="00:00:20.917" producer="producer74">
   <property name="kdenlive:id">81</property>
  </entry>
  <entry in="00:00:00.000" out="00:00:15.383" producer="producer75">
   <property name="kdenlive:id">82</property>
  </entry>
  <entry in="00:00:00.000" out="00:00:16.450" producer="producer76">
   <property name="kdenlive:id">83</property>
  </entry>
  <entry in="00:00:00.000" out="00:00:10.367" producer="producer77">
   <property name="kdenlive:id">85</property>
  </entry>
  <entry in="00:00:00.000" out="00:00:05.283" producer="producer78">
   <property name="kdenlive:id">86</property>
  </entry>
  <blank length="00:00:15.433"/>
  <entry in="00:00:00.000" out="00:00:20.583" producer="producer79">
   <property name="kdenlive:id">87</property>
  </entry>
  <entry in="00:00:00.000" out="00:00:03.550" producer="producer87">
   <property name="kdenlive:id">89</property>
  </entry>
  <entry in="00:00:00.000" out="00:00:04.983" producer="producer88">
   <property name="kdenlive:id">90</property>
  </entry>
  <entry in="00:00:00.000" out="00:00:23.050" producer="producer79">
   <property name="kdenlive:id">87</property>
  </entry>
  <entry in="00:00:00.000" out="00:00:00.867" producer="producer89">
   <property name="kdenlive:id">92</property>
  </entry>
  <entry in="00:00:00.000" out="00:00:00.883" producer="producer90">
   <property name="kdenlive:id">93</property>
  </entry>
  <entry in="00:00:00.000" out="00:00:00.883" producer="producer91">
   <property name="kdenlive:id">94</property>
  </entry>
  <entry in="00:00:00.000" out="00:00:00.933" producer="producer92">
   <property name="kdenlive:id">95</property>
  </entry>
  <entry in="00:00:00.000" out="00:00:00.850" producer="producer93">
   <property name="kdenlive:id">96</property>
  </entry>
  <entry in="00:00:00.000" out="00:00:00.900" producer="producer94">
   <property name="kdenlive:id">97</property>
  </entry>
  <entry in="00:00:00.000" out="00:00:00.967" producer="producer95">
   <property name="kdenlive:id">98</property>
  </entry>
  <entry in="00:00:00.000" out="00:00:06.633" producer="producer96">
   <property name="kdenlive:id">99</property>
  </entry>
  <entry in="00:00:00.000" out="00:00:46.050" producer="producer79">
   <property name="kdenlive:id">87</property>
  </entry>
  <entry in="00:00:00.000" out="00:00:17.383" producer="producer97">
   <property name="kdenlive:id">100</property>
  </entry>
  <entry in="00:00:00.000" out="00:00:08.333" producer="producer98">
   <property name="kdenlive:id">101</property>
  </entry>
  <entry in="00:00:00.000" out="00:00:11.550" producer="producer99">
   <property name="kdenlive:id">102</property>
  </entry>
  <entry in="00:00:00.000" out="00:00:16.367" producer="producer100">
   <property name="kdenlive:id">103</property>
  </entry>
  <entry in="00:00:00.000" out="00:00:51.900" producer="producer101">
   <property name="kdenlive:id">104</property>
  </entry>
  <entry in="00:00:00.000" out="00:00:04.983" producer="producer102">
   <property name="kdenlive:id">105</property>
  </entry>
  <entry in="00:00:00.000" out="00:00:04.983" producer="producer103">
   <property name="kdenlive:id">106</property>
  </entry>
  <blank length="00:00:00.850"/>
  <entry in="00:00:00.000" out="00:00:11.650" producer="producer104">
   <property name="kdenlive:id">107</property>
  </entry>
  <entry in="00:00:00.000" out="00:02:18.867" producer="producer105">
   <property name="kdenlive:id">108</property>
  </entry>
  <entry in="00:00:00.000" out="00:00:38.767" producer="producer106">
   <property name="kdenlive:id">109</property>
  </entry>
  <entry in="00:00:00.000" out="00:00:08.517" producer="producer107">
   <property name="kdenlive:id">110</property>
  </entry>
  <entry in="00:00:00.000" out="00:00:29.433" producer="producer108">
   <property name="kdenlive:id">111</property>
  </entry>
  <entry in="00:00:00.000" out="00:00:27.367" producer="producer109">
   <property name="kdenlive:id">112</property>
  </entry>
 </playlist>
 <playlist id="playlist11"/>
 <tractor id="tractor5" in="00:00:00.000" out="00:35:32.267">
  <property name="kdenlive:trackheight">36</property>
  <property name="kdenlive:timeline_active">1</property>
  <property name="kdenlive:collapsed">0</property>
  <property name="kdenlive:thumbs_format"/>
  <property name="kdenlive:audio_rec"/>
  <track hide="audio" producer="playlist10"/>
  <track hide="audio" producer="playlist11"/>
 </tractor>
 <producer id="producer110" in="00:00:00.000" out="00:00:04.983">
  <property name="length">300</property>
  <property name="eof">pause</property>
  <property name="resource"/>
  <property name="meta.media.progressive">1</property>
  <property name="aspect_ratio">1</property>
  <property name="seekable">1</property>
  <property name="mlt_service">kdenlivetitle</property>
  <property name="kdenlive:duration">00:00:05:00</property>
  <property name="kdenlive:clipname">These idiots...</property>
  <property name="xmldata">&lt;kdenlivetitle LC_NUMERIC="C" duration="300" height="1080" out="299" width="1920">
 &lt;item type="QGraphicsTextItem" z-index="0">
  &lt;position x="333" y="29">
   &lt;transform>1,0,0,0,1,0,0,0,1&lt;/transform>
  &lt;/position>
  &lt;content alignment="4" box-height="395" box-width="1263.89" font="Noto Sans" font-color="255,255,255,255" font-italic="0" font-pixel-size="58" font-underline="0" font-weight="400" letter-spacing="0" line-spacing="0" shadow="0;#64000000;3;3;3" tab-width="80" typewriter="0;2;1;0;0">These idiots are the reason of Islamophobia
and people being able to shit-talk the 
pro-palestinian protests.
The only difference between a Nazi and an IDF
soldier is that they use different flags&lt;/content>
 &lt;/item>
 &lt;startviewport rect="0,0,1920,1080"/>
 &lt;endviewport rect="0,0,1920,1080"/>
 &lt;background color="0,0,0,0"/>
&lt;/kdenlivetitle>
</property>
  <property name="xml">was here</property>
  <property name="kdenlive:folderid">-1</property>
  <property name="kdenlive:id">91</property>
  <property name="kdenlive:control_uuid">{11361786-3f64-4e99-9f72-7b93b00430a2}</property>
  <property name="kdenlive:clip_type">2</property>
  <property name="kdenlive:uniqueId">{ddd146fd-19a8-4de1-bc9b-ae5826f7ec0f}</property>
  <property name="kdenlive:file_hash">9095b0f658ec8588988108271c0f72e5</property>
  <property name="force_reload">0</property>
  <property name="meta.media.width">1920</property>
  <property name="meta.media.height">1080</property>
  <property name="kdenlive:activeeffect">3</property>
  <property name="kdenlive:monitorPosition">53</property>
 </producer>
 <playlist id="playlist12">
  <blank length="00:00:25.367"/>
  <entry in="00:00:00.000" out="00:00:01.367" producer="producer16">
   <property name="kdenlive:id">8</property>
  </entry>
  <blank length="00:00:02.683"/>
  <entry in="00:00:00.000" out="00:00:03.800" producer="producer17">
   <property name="kdenlive:id">9</property>
  </entry>
  <blank length="00:00:13.517"/>
  <entry in="00:00:00.000" out="00:00:01.033" producer="producer18">
   <property name="kdenlive:id">10</property>
  </entry>
  <blank length="00:00:36.633"/>
  <entry in="00:00:00.000" out="00:00:02.483" producer="producer19">
   <property name="kdenlive:id">16</property>
  </entry>
  <blank length="00:00:47.117"/>
  <entry in="00:00:00.000" out="00:00:02.883" producer="producer22">
   <property name="kdenlive:id">22</property>
  </entry>
  <blank length="00:02:48.600"/>
  <entry in="00:00:00.000" out="00:00:01.917" producer="producer23">
   <property name="kdenlive:id">27</property>
  </entry>
  <entry in="00:00:00.000" out="00:00:02.917" producer="producer24">
   <property name="kdenlive:id">28</property>
  </entry>
  <blank length="00:00:32.367"/>
  <entry in="00:00:00.000" out="00:00:20.200" producer="producer25">
   <property name="kdenlive:id">29</property>
  </entry>
  <entry in="00:00:00.000" out="00:00:04.800" producer="producer26">
   <property name="kdenlive:id">30</property>
  </entry>
  <blank length="00:00:47.050"/>
  <entry in="00:00:00.000" out="00:00:15.467" producer="producer80">
   <property name="kdenlive:id">35</property>
   <property name="kdenlive:activeeffect">1</property>
   <filter id="filter15">
    <property name="color">00:00:00.000=0x000000b4</property>
    <property name="radius">00:00:00.000=100</property>
    <property name="x">00:00:00.000=8</property>
    <property name="y">00:00:00.000=8</property>
    <property name="mlt_service">dropshadow</property>
    <property name="kdenlive_id">dropshadow</property>
    <property name="kdenlive:collapsed">1</property>
   </filter>
   <filter id="filter16">
    <property name="color">00:00:00.000=0x000000b4</property>
    <property name="radius">00:00:00.000=100</property>
    <property name="x">00:00:00.000=8</property>
    <property name="y">00:00:00.000=8</property>
    <property name="mlt_service">dropshadow</property>
    <property name="kdenlive_id">dropshadow</property>
    <property name="kdenlive:collapsed">1</property>
   </filter>
  </entry>
  <blank length="00:05:55.767"/>
  <entry in="00:00:00.000" out="00:00:03.083" producer="producer81">
   <property name="kdenlive:id">42</property>
  </entry>
  <blank length="00:12:03.883"/>
  <entry in="00:00:00.000" out="00:00:01.917" producer="producer82">
   <property name="kdenlive:id">78</property>
  </entry>
  <entry in="00:00:00.000" out="00:00:02.667" producer="producer83">
   <property name="kdenlive:id">79</property>
  </entry>
  <blank length="00:01:13.450"/>
  <entry in="00:00:00.000" out="00:00:10.983" producer="producer84">
   <property name="kdenlive:id">84</property>
  </entry>
  <blank length="00:00:54.783"/>
  <entry in="00:00:00.000" out="00:00:05.433" producer="producer85">
   <property name="kdenlive:id">88</property>
   <property name="kdenlive:activeeffect">1</property>
   <filter id="filter17">
    <property name="version">0.9</property>
    <property name="mlt_service">frei0r.transparency</property>
    <property name="kdenlive_id">frei0r.transparency</property>
    <property name="0">00:00:00.000=0;00:00:02.800=1;00:00:05.433=0</property>
    <property name="kdenlive:collapsed">0</property>
   </filter>
   <filter id="filter18">
    <property name="rotate_center">1</property>
    <property name="mlt_service">qtblend</property>
    <property name="kdenlive_id">qtblend</property>
    <property name="compositing">0</property>
    <property name="distort">0</property>
    <property name="rect">00:00:00.000=201 181 1579 673 1.000000;00:00:02.800=10 -2 1897 1067 1.000000</property>
    <property name="rotation">00:00:00.000=0;00:00:02.800=0</property>
    <property name="kdenlive:collapsed">0</property>
    <property name="">9 -1 1896 1067 1.000000</property>
   </filter>
  </entry>
  <blank length="00:00:11.517"/>
  <entry in="00:00:00.000" out="00:00:04.983" producer="producer110">
   <property name="kdenlive:id">91</property>
   <filter id="filter19">
    <property name="color">00:00:00.000=#b4636363</property>
    <property name="radius">00:00:00.000=100</property>
    <property name="x">00:00:00.000=8</property>
    <property name="y">00:00:00.000=8</property>
    <property name="mlt_service">dropshadow</property>
    <property name="kdenlive_id">dropshadow</property>
    <property name="kdenlive:collapsed">1</property>
   </filter>
   <filter id="filter20">
    <property name="color">00:00:00.000=#b4636363</property>
    <property name="radius">00:00:00.000=100</property>
    <property name="x">00:00:00.000=8</property>
    <property name="y">00:00:00.000=8</property>
    <property name="mlt_service">dropshadow</property>
    <property name="kdenlive_id">dropshadow</property>
    <property name="kdenlive:collapsed">1</property>
   </filter>
   <filter id="filter21">
    <property name="color">00:00:00.000=#b4636363</property>
    <property name="radius">00:00:00.000=100</property>
    <property name="x">00:00:00.000=8</property>
    <property name="y">00:00:00.000=8</property>
    <property name="mlt_service">dropshadow</property>
    <property name="kdenlive_id">dropshadow</property>
    <property name="kdenlive:collapsed">1</property>
   </filter>
   <filter id="filter22">
    <property name="color">00:00:00.000=0x636363b4</property>
    <property name="radius">00:00:00.000=100</property>
    <property name="x">00:00:00.000=8</property>
    <property name="y">00:00:00.000=8</property>
    <property name="mlt_service">dropshadow</property>
    <property name="kdenlive_id">dropshadow</property>
    <property name="kdenlive:collapsed">1</property>
   </filter>
  </entry>
 </playlist>
 <playlist id="playlist13"/>
 <tractor id="tractor6" in="00:00:00.000" out="00:27:58.917">
  <property name="kdenlive:trackheight">29</property>
  <property name="kdenlive:timeline_active">0</property>
  <property name="kdenlive:collapsed">28</property>
  <property name="kdenlive:thumbs_format"/>
  <property name="kdenlive:audio_rec"/>
  <track hide="audio" producer="playlist12"/>
  <track hide="audio" producer="playlist13"/>
 </tractor>
 <playlist id="playlist14"/>
 <playlist id="playlist15"/>
 <tractor id="tractor7" in="00:00:00.000">
  <property name="kdenlive:trackheight">30</property>
  <property name="kdenlive:timeline_active">1</property>
  <property name="kdenlive:collapsed">28</property>
  <property name="kdenlive:thumbs_format"/>
  <property name="kdenlive:audio_rec"/>
  <track hide="audio" producer="playlist14"/>
  <track hide="audio" producer="playlist15"/>
 </tractor>
 <playlist id="playlist16"/>
 <playlist id="playlist17"/>
 <tractor id="tractor8" in="00:00:00.000">
  <property name="kdenlive:trackheight">30</property>
  <property name="kdenlive:timeline_active">1</property>
  <property name="kdenlive:collapsed">28</property>
  <property name="kdenlive:thumbs_format"/>
  <property name="kdenlive:audio_rec"/>
  <track hide="audio" producer="playlist16"/>
  <track hide="audio" producer="playlist17"/>
 </tractor>
 <playlist id="playlist18"/>
 <playlist id="playlist19"/>
 <tractor id="tractor9" in="00:00:00.000">
  <property name="kdenlive:trackheight">29</property>
  <property name="kdenlive:timeline_active">1</property>
  <property name="kdenlive:collapsed">28</property>
  <property name="kdenlive:thumbs_format"/>
  <property name="kdenlive:audio_rec"/>
  <track hide="both" producer="playlist18"/>
  <track hide="both" producer="playlist19"/>
 </tractor>
 <playlist id="playlist20"/>
 <playlist id="playlist21"/>
 <tractor id="tractor10" in="00:00:00.000">
  <property name="kdenlive:trackheight">34</property>
  <property name="kdenlive:timeline_active">1</property>
  <property name="kdenlive:collapsed">28</property>
  <property name="kdenlive:thumbs_format"/>
  <property name="kdenlive:audio_rec"/>
  <track hide="both" producer="playlist20"/>
  <track hide="both" producer="playlist21"/>
 </tractor>
 <tractor id="tractor11" in="00:00:00.000" out="00:35:48.267">
  <property name="kdenlive:duration">00:35:48.283</property>
  <property name="kdenlive:maxduration">128897</property>
  <property name="kdenlive:clipname">Sequence 1</property>
  <property name="kdenlive:description"/>
  <property name="kdenlive:uuid">{d7f80ec5-47a5-47c5-84c1-e9e5241493bf}</property>
  <property name="kdenlive:producer_type">17</property>
  <property name="kdenlive:control_uuid">{d7f80ec5-47a5-47c5-84c1-e9e5241493bf}</property>
  <property name="kdenlive:id">3</property>
  <property name="kdenlive:clip_type">0</property>
  <property name="kdenlive:file_hash">7a7c57b8426f4cbd31ec4ffc4d7c3048</property>
  <property name="kdenlive:folderid">2</property>
  <property name="kdenlive:sequenceproperties.activeTrack">5</property>
  <property name="kdenlive:sequenceproperties.audioTarget">1</property>
  <property name="kdenlive:sequenceproperties.disablepreview">0</property>
  <property name="kdenlive:sequenceproperties.documentuuid">{d7f80ec5-47a5-47c5-84c1-e9e5241493bf}</property>
  <property name="kdenlive:sequenceproperties.hasAudio">1</property>
  <property name="kdenlive:sequenceproperties.hasVideo">1</property>
  <property name="kdenlive:sequenceproperties.position">125180</property>
  <property name="kdenlive:sequenceproperties.scrollPos">0</property>
  <property name="kdenlive:sequenceproperties.tracks">4</property>
  <property name="kdenlive:sequenceproperties.tracksCount">11</property>
  <property name="kdenlive:sequenceproperties.verticalzoom">1</property>
  <property name="kdenlive:sequenceproperties.videoTarget">2</property>
  <property name="kdenlive:sequenceproperties.zonein">0</property>
  <property name="kdenlive:sequenceproperties.zoneout">75</property>
  <property name="kdenlive:sequenceproperties.zoom">20</property>
  <property name="kdenlive:sequenceproperties.groups">[
]
</property>
  <property name="kdenlive:sequenceproperties.guides">[
]
</property>
  <track producer="producer0"/>
  <track producer="tractor0"/>
  <track producer="tractor1"/>
  <track producer="tractor2"/>
  <track producer="tractor3"/>
  <track producer="tractor4"/>
  <track producer="tractor5"/>
  <track producer="tractor6"/>
  <track producer="tractor7"/>
  <track producer="tractor8"/>
  <track producer="tractor9"/>
  <track producer="tractor10"/>
  <transition id="transition0">
   <property name="a_track">0</property>
   <property name="b_track">1</property>
   <property name="mlt_service">mix</property>
   <property name="kdenlive_id">mix</property>
   <property name="internal_added">237</property>
   <property name="always_active">1</property>
   <property name="accepts_blanks">1</property>
   <property name="sum">1</property>
  </transition>
  <transition id="transition1">
   <property name="a_track">0</property>
   <property name="b_track">2</property>
   <property name="mlt_service">mix</property>
   <property name="kdenlive_id">mix</property>
   <property name="internal_added">237</property>
   <property name="always_active">1</property>
   <property name="accepts_blanks">1</property>
   <property name="sum">1</property>
  </transition>
  <transition id="transition2">
   <property name="a_track">0</property>
   <property name="b_track">3</property>
   <property name="mlt_service">mix</property>
   <property name="kdenlive_id">mix</property>
   <property name="internal_added">237</property>
   <property name="always_active">1</property>
   <property name="accepts_blanks">1</property>
   <property name="sum">1</property>
  </transition>
  <transition id="transition3">
   <property name="a_track">0</property>
   <property name="b_track">4</property>
   <property name="mlt_service">mix</property>
   <property name="kdenlive_id">mix</property>
   <property name="internal_added">237</property>
   <property name="always_active">1</property>
   <property name="accepts_blanks">1</property>
   <property name="sum">1</property>
  </transition>
  <transition id="transition4">
   <property name="a_track">0</property>
   <property name="b_track">5</property>
   <property name="mlt_service">mix</property>
   <property name="kdenlive_id">mix</property>
   <property name="internal_added">237</property>
   <property name="always_active">1</property>
   <property name="accepts_blanks">1</property>
   <property name="sum">1</property>
  </transition>
  <transition id="transition5">
   <property name="a_track">0</property>
   <property name="b_track">6</property>
   <property name="compositing">0</property>
   <property name="distort">0</property>
   <property name="rotate_center">0</property>
   <property name="mlt_service">qtblend</property>
   <property name="kdenlive_id">qtblend</property>
   <property name="internal_added">237</property>
   <property name="always_active">1</property>
  </transition>
  <transition id="transition6">
   <property name="a_track">0</property>
   <property name="b_track">7</property>
   <property name="compositing">0</property>
   <property name="distort">0</property>
   <property name="rotate_center">0</property>
   <property name="mlt_service">qtblend</property>
   <property name="kdenlive_id">qtblend</property>
   <property name="internal_added">237</property>
   <property name="always_active">1</property>
  </transition>
  <transition id="transition7">
   <property name="a_track">0</property>
   <property name="b_track">8</property>
   <property name="compositing">0</property>
   <property name="distort">0</property>
   <property name="rotate_center">0</property>
   <property name="mlt_service">qtblend</property>
   <property name="kdenlive_id">qtblend</property>
   <property name="internal_added">237</property>
   <property name="always_active">1</property>
  </transition>
  <transition id="transition8">
   <property name="a_track">0</property>
   <property name="b_track">9</property>
   <property name="compositing">0</property>
   <property name="distort">0</property>
   <property name="rotate_center">0</property>
   <property name="mlt_service">qtblend</property>
   <property name="kdenlive_id">qtblend</property>
   <property name="internal_added">237</property>
   <property name="always_active">1</property>
  </transition>
  <transition id="transition9">
   <property name="a_track">0</property>
   <property name="b_track">10</property>
   <property name="compositing">0</property>
   <property name="distort">0</property>
   <property name="rotate_center">0</property>
   <property name="mlt_service">qtblend</property>
   <property name="kdenlive_id">qtblend</property>
   <property name="internal_added">237</property>
   <property name="always_active">1</property>
  </transition>
  <transition id="transition10">
   <property name="a_track">0</property>
   <property name="b_track">11</property>
   <property name="compositing">0</property>
   <property name="distort">0</property>
   <property name="rotate_center">0</property>
   <property name="mlt_service">qtblend</property>
   <property name="kdenlive_id">qtblend</property>
   <property name="internal_added">237</property>
   <property name="always_active">1</property>
  </transition>
  <filter id="filter23">
   <property name="window">75</property>
   <property name="max_gain">20dB</property>
   <property name="channel_mask">-1</property>
   <property name="mlt_service">volume</property>
   <property name="internal_added">237</property>
   <property name="disable">1</property>
  </filter>
  <filter id="filter24">
   <property name="channel">-1</property>
   <property name="mlt_service">panner</property>
   <property name="internal_added">237</property>
   <property name="start">0.5</property>
   <property name="disable">1</property>
  </filter>
 </tractor>
 <playlist id="main_bin">
  <property name="kdenlive:folder.-1.2">Sequences</property>
  <property name="kdenlive:sequenceFolder">2</property>
  <property name="kdenlive:docproperties.activetimeline">{d7f80ec5-47a5-47c5-84c1-e9e5241493bf}</property>
  <property name="kdenlive:docproperties.audioChannels">2</property>
  <property name="kdenlive:docproperties.binsort">0</property>
  <property name="kdenlive:docproperties.browserurl">/home/ingenarel/youtube/video_essays/neovim/8/images/Pictures/</property>
  <property name="kdenlive:docproperties.documentid">1763144210671</property>
  <property name="kdenlive:docproperties.enableTimelineZone">0</property>
  <property name="kdenlive:docproperties.enableexternalproxy">0</property>
  <property name="kdenlive:docproperties.enableproxy">0</property>
  <property name="kdenlive:docproperties.externalproxyparams">./;;.LRV;./;;.MP4</property>
  <property name="kdenlive:docproperties.generateimageproxy">0</property>
  <property name="kdenlive:docproperties.generateproxy">0</property>
  <property name="kdenlive:docproperties.guidesCategories">[
    {
        "color": "#9b59b6",
        "comment": "Category 1",
        "index": 0
    },
    {
        "color": "#3daee9",
        "comment": "Category 2",
        "index": 1
    },
    {
        "color": "#1abc9c",
        "comment": "Category 3",
        "index": 2
    },
    {
        "color": "#1cdc9a",
        "comment": "Category 4",
        "index": 3
    },
    {
        "color": "#c9ce3b",
        "comment": "Category 5",
        "index": 4
    },
    {
        "color": "#fdbc4b",
        "comment": "Category 6",
        "index": 5
    },
    {
        "color": "#f39c1f",
        "comment": "Category 7",
        "index": 6
    },
    {
        "color": "#f47750",
        "comment": "Category 8",
        "index": 7
    },
    {
        "color": "#da4453",
        "comment": "Category 9",
        "index": 8
    }
]
</property>
  <property name="kdenlive:docproperties.kdenliveversion">25.08.3</property>
  <property name="kdenlive:docproperties.opensequences">{d7f80ec5-47a5-47c5-84c1-e9e5241493bf}</property>
  <property name="kdenlive:docproperties.previewextension"/>
  <property name="kdenlive:docproperties.previewparameters"/>
  <property name="kdenlive:docproperties.profile">atsc_1080p_60</property>
  <property name="kdenlive:docproperties.proxyextension"/>
  <property name="kdenlive:docproperties.proxyimageminsize">2000</property>
  <property name="kdenlive:docproperties.proxyimagesize">800</property>
  <property name="kdenlive:docproperties.proxyminsize">1000</property>
  <property name="kdenlive:docproperties.proxyparams"/>
  <property name="kdenlive:docproperties.proxyresize">640</property>
  <property name="kdenlive:docproperties.seekOffset">7500</property>
  <property name="kdenlive:docproperties.sessionid">{c944ed6d-65e7-491a-af1a-6828eb030209}</property>
  <property name="kdenlive:docproperties.uuid">{d7f80ec5-47a5-47c5-84c1-e9e5241493bf}</property>
  <property name="kdenlive:docproperties.version">1.1</property>
  <property name="kdenlive:expandedFolders"/>
  <property name="kdenlive:binZoom">4</property>
  <property name="kdenlive:extraBins">project_bin:-1:0</property>
  <property name="kdenlive:documentnotes"/>
  <property name="kdenlive:documentnotesversion">2</property>
  <property name="kdenlive:docproperties.rendercategory">Generic (HD for web, mobile devices...)</property>
  <property name="kdenlive:docproperties.rendercustomquality">-1</property>
  <property name="kdenlive:docproperties.renderendguide">-1</property>
  <property name="kdenlive:docproperties.renderexportaudio">0</property>
  <property name="kdenlive:docproperties.renderfullcolorrange">0</property>
  <property name="kdenlive:docproperties.rendermode">0</property>
  <property name="kdenlive:docproperties.renderplay">0</property>
  <property name="kdenlive:docproperties.renderpreview">0</property>
  <property name="kdenlive:docproperties.renderprofile">MP4-H264/AAC</property>
  <property name="kdenlive:docproperties.renderrescale">0</property>
  <property name="kdenlive:docproperties.renderrescaleheight">540</property>
  <property name="kdenlive:docproperties.renderrescalewidth">960</property>
  <property name="kdenlive:docproperties.renderspeed">4</property>
  <property name="kdenlive:docproperties.renderstartguide">-1</property>
  <property name="kdenlive:docproperties.renderstemaudio">0</property>
  <property name="kdenlive:docproperties.rendertcoverlay">0</property>
  <property name="kdenlive:docproperties.rendertctype">-1</property>
  <property name="kdenlive:docproperties.rendertwopass">0</property>
  <property name="kdenlive:docproperties.renderurl">project-6000.mp4</property>
  <property name="xml_retain">1</property>
  <entry in="00:00:00.000" out="00:35:51.767" producer="chain1"/>
  <entry in="00:00:00.000" out="00:00:16.350" producer="producer1"/>
  <entry in="00:00:00.000" out="00:00:47.750" producer="producer2"/>
  <entry in="00:00:00.000" out="00:01:14.150" producer="producer3"/>
  <entry in="00:00:00.000" out="00:00:04.983" producer="producer16"/>
  <entry in="00:00:00.000" out="00:00:04.983" producer="producer17"/>
  <entry in="00:00:00.000" out="00:00:04.983" producer="producer18"/>
  <entry in="00:00:00.000" out="00:01:02.383" producer="producer15"/>
  <entry in="00:00:00.000" out="00:03:21.000" producer="chain2"/>
  <entry in="00:00:00.000" out="00:03:28.283" producer="chain3"/>
  <entry in="00:00:00.000" out="00:00:46.233" producer="chain4"/>
  <entry in="00:00:00.000" out="00:01:50.800" producer="chain5"/>
  <entry in="00:00:00.000" out="00:00:04.983" producer="producer19"/>
  <entry in="00:00:00.000" out="00:02:19.400" producer="chain6"/>
  <entry in="00:00:00.000" out="00:00:04.983" producer="producer11"/>
  <entry in="00:00:00.000" out="00:00:04.983" producer="producer12"/>
  <entry in="00:00:00.000" out="00:00:04.983" producer="producer14"/>
  <entry in="00:00:00.000" out="00:29:05.517" producer="chain7"/>
  <entry in="00:00:00.000" out="00:00:04.983" producer="producer22"/>
  <entry in="00:00:00.000" out="00:00:10.767" producer="producer30"/>
  <entry in="00:00:00.000" out="00:00:38.383" producer="producer20"/>
  <entry in="00:00:00.000" out="00:09:33.417" producer="producer21"/>
  <entry in="00:00:00.000" out="00:00:04.967" producer="producer31"/>
  <entry in="00:00:00.000" out="00:00:04.983" producer="producer23"/>
  <entry in="00:00:00.000" out="00:00:04.983" producer="producer24"/>
  <entry in="00:00:00.000" out="00:00:27.950" producer="producer25"/>
  <entry in="00:00:00.000" out="00:00:10.183" producer="producer26"/>
  <entry in="00:00:00.000" out="00:00:18.500" producer="producer27"/>
  <entry in="00:00:00.000" out="00:00:17.633" producer="chain9"/>
  <entry in="00:00:00.000" out="00:00:17.483" producer="chain10"/>
  <entry in="00:00:00.000" out="00:07:42.800" producer="chain11"/>
  <entry in="00:00:00.000" out="00:00:15.467" producer="producer80"/>
  <entry in="00:00:00.000" out="00:00:04.983" producer="producer33"/>
  <entry in="00:00:00.000" out="00:00:04.983" producer="producer34"/>
  <entry in="00:00:00.000" out="00:00:04.983" producer="producer35"/>
  <entry in="00:00:00.000" out="00:00:04.983" producer="producer36"/>
  <entry in="00:00:00.000" out="00:00:14.150" producer="producer37"/>
  <entry in="00:00:00.000" out="00:02:43.317" producer="producer38"/>
  <entry in="00:00:00.000" out="00:00:04.983" producer="producer81"/>
  <entry in="00:00:00.000" out="00:01:50.967" producer="producer39"/>
  <entry in="00:00:00.000" out="00:00:29.617" producer="producer40"/>
  <entry in="00:00:00.000" out="00:00:39.833" producer="producer41"/>
  <entry in="00:00:00.000" out="00:00:57.550" producer="producer42"/>
  <entry in="00:00:00.000" out="00:04:40.567" producer="producer43"/>
  <entry in="00:00:00.000" out="00:01:36.967" producer="producer44"/>
  <entry in="00:00:00.000" out="00:00:07.317" producer="producer45"/>
  <entry in="00:00:00.000" out="00:00:04.983" producer="producer86"/>
  <entry in="00:00:00.000" out="00:00:04.983" producer="producer46"/>
  <entry in="00:00:00.000" out="00:00:41.783" producer="producer47"/>
  <entry in="00:00:00.000" out="00:00:28.167" producer="producer48"/>
  <entry in="00:00:00.000" out="00:00:11.417" producer="producer49"/>
  <entry in="00:00:00.000" out="00:00:18.283" producer="producer50"/>
  <entry in="00:00:00.000" out="00:00:05.950" producer="producer51"/>
  <entry in="00:00:00.000" out="00:00:21.267" producer="producer52"/>
  <entry in="00:00:00.000" out="00:00:04.983" producer="producer53"/>
  <entry in="00:00:00.000" out="00:00:04.983" producer="producer54"/>
  <entry in="00:00:00.000" out="00:00:04.983" producer="producer55"/>
  <entry in="00:00:00.000" out="00:00:04.983" producer="producer56"/>
  <entry in="00:00:00.000" out="00:00:04.983" producer="producer57"/>
  <entry in="00:00:00.000" out="00:00:07.217" producer="producer58"/>
  <entry in="00:00:00.000" out="00:00:04.983" producer="producer59"/>
  <entry in="00:00:00.000" out="00:00:04.983" producer="producer60"/>
  <entry in="00:00:00.000" out="00:00:04.983" producer="producer61"/>
  <entry in="00:00:00.000" out="00:00:08.900" producer="producer62"/>
  <entry in="00:00:00.000" out="00:00:04.983" producer="producer63"/>
  <entry in="00:00:00.000" out="00:00:05.233" producer="producer64"/>
  <entry in="00:00:00.000" out="00:00:04.983" producer="producer65"/>
  <entry in="00:00:00.000" out="00:00:10.650" producer="producer66"/>
  <entry in="00:00:00.000" out="00:00:04.983" producer="producer67"/>
  <entry in="00:00:00.000" out="00:00:04.983" producer="producer68"/>
  <entry in="00:00:00.000" out="00:00:04.983" producer="producer69"/>
  <entry in="00:00:00.000" out="00:00:04.983" producer="producer70"/>
  <entry in="00:00:00.000" out="00:00:04.983" producer="producer71"/>
  <entry in="00:00:00.000" out="00:01:08.883" producer="producer72"/>
  <entry in="00:00:00.000" out="00:00:04.983" producer="producer82"/>
  <entry in="00:00:00.000" out="00:00:04.983" producer="producer83"/>
  <entry in="00:00:00.000" out="00:00:12.600" producer="producer73"/>
  <entry in="00:00:00.000" out="00:00:20.917" producer="producer74"/>
  <entry in="00:00:00.000" out="00:00:16.767" producer="producer75"/>
  <entry in="00:00:00.000" out="00:00:16.483" producer="producer76"/>
  <entry in="00:00:00.000" out="00:00:10.983" producer="producer84"/>
  <entry in="00:00:00.000" out="00:00:10.817" producer="producer77"/>
  <entry in="00:00:00.000" out="00:00:07.150" producer="producer78"/>
  <entry in="00:00:00.000" out="00:00:12.833" producer="producer79"/>
  <entry in="00:00:00.000" out="00:00:06.233" producer="producer85"/>
  <entry in="00:00:00.000" out="00:35:48.267" producer="tractor11"/>
  <entry in="00:00:00.000" out="00:00:04.983" producer="producer87"/>
  <entry in="00:00:00.000" out="00:00:04.983" producer="producer88"/>
  <entry in="00:00:00.000" out="00:00:04.983" producer="producer110"/>
  <entry in="00:00:00.000" out="00:00:04.983" producer="producer89"/>
  <entry in="00:00:00.000" out="00:00:04.983" producer="producer90"/>
  <entry in="00:00:00.000" out="00:00:04.983" producer="producer91"/>
  <entry in="00:00:00.000" out="00:00:04.983" producer="producer92"/>
  <entry in="00:00:00.000" out="00:00:04.983" producer="producer93"/>
  <entry in="00:00:00.000" out="00:00:04.983" producer="producer94"/>
  <entry in="00:00:00.000" out="00:00:04.983" producer="producer95"/>
  <entry in="00:00:00.000" out="00:00:04.983" producer="producer96"/>
  <entry in="00:00:00.000" out="00:00:04.983" producer="producer97"/>
  <entry in="00:00:00.000" out="00:00:04.983" producer="producer98"/>
  <entry in="00:00:00.000" out="00:00:04.983" producer="producer99"/>
  <entry in="00:00:00.000" out="00:00:04.983" producer="producer100"/>
  <entry in="00:00:00.000" out="00:00:04.983" producer="producer101"/>
  <entry in="00:00:00.000" out="00:00:04.983" producer="producer102"/>
  <entry in="00:00:00.000" out="00:00:04.983" producer="producer103"/>
  <entry in="00:00:00.000" out="00:00:04.983" producer="producer104"/>
  <entry in="00:00:00.000" out="00:00:04.983" producer="producer105"/>
  <entry in="00:00:00.000" out="00:00:04.983" producer="producer106"/>
  <entry in="00:00:00.000" out="00:00:04.983" producer="producer107"/>
  <entry in="00:00:00.000" out="00:00:04.983" producer="producer108"/>
  <entry in="00:00:00.000" out="00:00:04.983" producer="producer109"/>
 </playlist>
 <tractor id="tractor12" in="00:00:00.000" out="00:35:48.267">
  <property name="kdenlive:projectTractor">1</property>
  <track in="00:00:00.000" out="00:35:48.267" producer="tractor11"/>
 </tractor>
</mlt>
